<?xml version="1.0" encoding="UTF-8"?>
<svg width="134px" height="38px" viewBox="0 0 134 38" version="1.1" xmlns="http://www.w3.org/2000/svg" xmlns:xlink="http://www.w3.org/1999/xlink">
    <title>B47BBBBB-D26C-44B2-8FFB-C92E04DC60D2</title>
    <g id="logos-aseguradoras" stroke="none" stroke-width="1" fill="none" fill-rule="evenodd">
        <g id="logos-variantes" transform="translate(-484.000000, -151.000000)">
            <g id="logo-afirme" transform="translate(484.000000, 151.000000)">
                <path d="M130.018152,17.6475455 L129.903576,17.6475455 C129.885152,17.8559697 129.862697,18.0281212 129.836788,18.1651515 C129.817788,18.2941212 129.779788,18.4415152 129.722212,18.6067576 C129.88803,18.7576061 130.091273,18.8946364 130.333091,19.016697 C130.581242,19.1318485 130.902515,19.1894242 131.296909,19.1894242 C131.66597,19.1894242 131.993,19.1318485 132.279152,19.016697 C132.571636,18.8946364 132.816909,18.7253636 133.013818,18.5100303 C133.218212,18.2872121 133.370212,18.0281212 133.472121,17.7333333 C133.580364,17.4391212 133.634485,17.1259091 133.634485,16.7954242 C133.634485,16.3998788 133.557909,16.0837879 133.405333,15.8465758 C133.259091,15.6093636 133.074848,15.4153333 132.85203,15.2644848 C132.629212,15.1130606 132.387394,14.9875455 132.126576,14.8867879 C131.872091,14.7791212 131.633727,14.6605152 131.410909,14.5309697 C131.188667,14.3945152 131.00097,14.2292727 130.848394,14.0346667 C130.701576,13.8406364 130.628455,13.5746364 130.628455,13.2372424 C130.628455,13.0426364 130.657242,12.8635758 130.714818,12.6977576 C130.778152,12.5325152 130.863939,12.3926061 130.972758,12.2774545 C131.086758,12.1553939 131.216879,12.0615455 131.363697,11.9970606 C131.516273,11.932 131.681515,11.8997576 131.86,11.8997576 C132.037333,11.8997576 132.190485,11.9354545 132.317727,12.008 C132.44497,12.0724848 132.552636,12.1553939 132.641879,12.2555758 C132.737455,12.3563333 132.810576,12.4674545 132.861242,12.5900909 C132.918242,12.7052424 132.963152,12.8129091 132.994818,12.9136667 L133.109394,12.9136667 C133.147394,12.7052424 133.185394,12.5325152 133.22397,12.3960606 C133.26197,12.2590303 133.309758,12.1294848 133.367333,12.008 C133.176182,11.8352727 132.969485,11.7091818 132.746667,11.630303 C132.524424,11.5439394 132.260152,11.5007576 131.955,11.5007576 C131.637182,11.5007576 131.350455,11.5508485 131.096545,11.6516061 C130.842061,11.7523636 130.622121,11.8928485 130.437879,12.0724848 C130.25997,12.2521212 130.122939,12.4674545 130.027939,12.7196364 C129.932364,12.9637576 129.885152,13.2372424 129.885152,13.5389394 C129.885152,13.962697 129.957697,14.3012424 130.103939,14.5522727 C130.256515,14.8038788 130.444788,15.012303 130.666455,15.1781212 C130.889273,15.3358788 131.128212,15.4688788 131.382697,15.5765455 C131.642939,15.6847879 131.884758,15.8033939 132.107576,15.9329394 C132.330394,16.0624848 132.514636,16.223697 132.661455,16.4177273 C132.81403,16.6117576 132.89003,16.8748788 132.89003,17.2053636 C132.89003,17.4212727 132.858364,17.6256667 132.794455,17.819697 C132.730545,18.0062424 132.639,18.1720606 132.518091,18.316 C132.402939,18.4524545 132.260152,18.5635758 132.088576,18.6499394 C131.923333,18.7293939 131.735636,18.7685455 131.526061,18.7685455 C131.322242,18.7685455 131.137424,18.736303 130.972758,18.6718182 C130.806939,18.5998485 130.660697,18.5100303 130.532879,18.4023636 C130.412545,18.2941212 130.307758,18.1755152 130.218515,18.0459697 C130.135606,17.9095152 130.068818,17.7765152 130.018152,17.6475455 Z M121.848727,15.3612121 C121.848727,15.9582727 121.781939,16.475303 121.648939,16.9140303 C121.514788,17.3452727 121.327091,17.7045455 121.085848,17.9924242 C120.850364,18.2728182 120.570545,18.4812424 120.245818,18.617697 C119.928,18.7541515 119.581394,18.8226667 119.206,18.8226667 C118.836939,18.8226667 118.490333,18.7541515 118.166182,18.617697 C117.848364,18.4812424 117.56797,18.2728182 117.326727,17.9924242 C117.091242,17.7045455 116.906424,17.3452727 116.772848,16.9140303 C116.639273,16.475303 116.573061,15.9582727 116.573061,15.3612121 C116.573061,14.7647273 116.639273,14.2505758 116.772848,13.8193333 C116.906424,13.3806061 117.091242,13.0213333 117.326727,12.7409394 C117.56797,12.4530606 117.848364,12.2411818 118.166182,12.1047273 C118.490333,11.9682727 118.836939,11.8997576 119.206,11.8997576 C119.581394,11.8997576 119.928,11.9682727 120.245818,12.1047273 C120.570545,12.2411818 120.850364,12.4530606 121.085848,12.7409394 C121.327091,13.0213333 121.514788,13.3806061 121.648939,13.8193333 C121.781939,14.2505758 121.848727,14.7647273 121.848727,15.3612121 Z M115.637455,15.3612121 C115.637455,15.9726667 115.723818,16.5184848 115.895394,17.0003939 C116.073879,17.4748182 116.318,17.8772727 116.630061,18.2077576 C116.947879,18.5388182 117.326727,18.7869697 117.765455,18.9522121 C118.204182,19.1099697 118.684364,19.1894242 119.206,19.1894242 C119.73397,19.1894242 120.21703,19.1099697 120.656333,18.9522121 C121.095061,18.7869697 121.470455,18.5388182 121.781939,18.2077576 C122.100333,17.8772727 122.345606,17.4748182 122.517182,17.0003939 C122.695091,16.5184848 122.784333,15.9726667 122.784333,15.3612121 C122.784333,14.7503333 122.695091,14.2073939 122.517182,13.7329697 C122.345606,13.2516364 122.100333,12.8451515 121.781939,12.5146667 C121.470455,12.1836061 121.095061,11.932 120.656333,11.7592727 C120.21703,11.5871212 119.73397,11.5007576 119.206,11.5007576 C118.684364,11.5007576 118.204182,11.5871212 117.765455,11.7592727 C117.326727,11.932 116.947879,12.1836061 116.630061,12.5146667 C116.318,12.8451515 116.073879,13.2516364 115.895394,13.7329697 C115.723818,14.2073939 115.637455,14.7503333 115.637455,15.3612121 Z M105.016455,15.0485758 L105.016455,14.4336667 L105.035455,13.2694848 L105.073455,12.0937879 L105.445394,12.0615455 C105.592212,12.0471515 105.776455,12.0396667 105.999273,12.0396667 C106.164515,12.0396667 106.333212,12.0615455 106.504788,12.1047273 C106.676939,12.141 106.835848,12.2123939 106.982091,12.3200606 C107.128333,12.428303 107.245788,12.575697 107.33503,12.7628182 C107.430606,12.9418788 107.477818,13.1721818 107.477818,13.4525758 C107.477818,13.7761515 107.417364,14.0456061 107.296455,14.2615152 C107.182455,14.4699394 107.036212,14.6386364 106.857727,14.7681818 C106.679818,14.8902424 106.482909,14.9766061 106.266424,15.026697 C106.056848,15.0773636 105.85303,15.1021212 105.655545,15.1021212 L105.302606,15.0917576 C105.201273,15.0842727 105.105697,15.0698788 105.016455,15.0485758 Z M104.234,14.4336667 L104.234,16.2881818 C104.234,16.7626061 104.224788,17.2301212 104.205212,17.6907273 L104.158,19.0489394 C104.304242,19.0345455 104.459697,19.0276364 104.624939,19.0276364 C104.790758,19.0276364 104.946788,19.0345455 105.09303,19.0489394 L105.035455,17.6907273 L105.016455,16.2881818 L105.016455,15.501697 L105.379182,15.501697 C105.582424,15.7389091 105.805242,16.0296667 106.047061,16.3745455 C106.295212,16.7125152 106.536455,17.0539394 106.772515,17.3993939 L107.41103,18.3695455 L107.849758,19.0489394 C107.939576,19.0345455 108.031121,19.0276364 108.126697,19.0276364 L108.689788,19.0276364 C108.785364,19.0276364 108.880939,19.0345455 108.975939,19.0489394 L108.623,18.6067576 L108.155485,17.9705455 L107.640182,17.2376061 L107.124879,16.5040909 L106.676939,15.8569394 L106.361424,15.4043939 C106.546242,15.3756061 106.750061,15.3180303 106.972303,15.2316667 C107.201455,15.1383939 107.414485,15.012303 107.61197,14.8545455 C107.808879,14.689303 107.974697,14.4843333 108.108273,14.2402121 C108.248182,13.9880303 108.317848,13.6897879 108.317848,13.3449091 C108.317848,13.0213333 108.263727,12.7518788 108.155485,12.5359697 C108.054152,12.3200606 107.910788,12.1479091 107.72597,12.0183636 C107.548061,11.8819091 107.337909,11.7846061 107.096667,11.7276061 C106.854848,11.6700303 106.600364,11.6412424 106.333212,11.6412424 C106.148394,11.6412424 105.967606,11.6516061 105.789697,11.6734848 C105.611212,11.6878788 105.430424,11.6947879 105.245606,11.6947879 L104.701515,11.6844242 L104.158,11.6412424 L104.205212,13.0426364 C104.224788,13.4957576 104.234,13.9598182 104.234,14.4336667 Z M95.6736364,15.1458788 L95.6644242,15.8788182 C95.6580909,16.1448182 95.6356364,16.4108182 95.5976364,16.6768182 C95.5596364,16.9428182 95.4951515,17.1978788 95.4064848,17.4425758 C95.3235758,17.686697 95.2061212,17.9026061 95.0535455,18.0891515 C94.9009697,18.2762727 94.7034848,18.4271212 94.4622424,18.5422727 C94.2267576,18.6574242 93.9342727,18.7144242 93.5842121,18.7144242 C93.2278182,18.7144242 92.929,18.6683636 92.6877576,18.5745152 C92.4453636,18.4737576 92.245,18.3413333 92.0860909,18.1755152 C91.9271818,18.0033636 91.8028182,17.805303 91.7141515,17.5824848 C91.6312424,17.3527576 91.5707879,17.1155455 91.5327879,16.8708485 C91.4947879,16.6192424 91.4723333,16.3641818 91.466,16.1050909 L91.4567879,15.3393333 L91.466,14.1751515 L91.4947879,13.129 L91.5327879,12.2665152 L91.5707879,11.6412424 L91.3612121,11.6844242 L91.1608485,11.6947879 L90.912697,11.6844242 L90.6645455,11.6412424 L90.7025455,12.827303 C90.7152121,13.2942424 90.7215455,13.8302727 90.7215455,14.4336667 C90.7215455,14.7071515 90.7123333,14.9766061 90.6933333,15.2426061 C90.6806667,15.501697 90.6743333,15.7999394 90.6743333,16.1373333 C90.6743333,17.1944242 90.8908182,17.9670909 91.3232121,18.4559091 C91.7556061,18.9447273 92.4488182,19.1894242 93.4028485,19.1894242 C93.8358182,19.1894242 94.2169697,19.1203333 94.5480303,18.9844545 C94.8854242,18.848 95.1675455,18.6464848 95.396697,18.3804848 C95.6258485,18.1144848 95.8014545,17.7909091 95.9217879,17.4103333 C96.0490303,17.0291818 96.1158182,16.5979394 96.1221515,16.1160303 L96.1509394,14.8977273 L96.1889394,13.6684848 L96.2367273,12.5469091 L96.2937273,11.6412424 C96.1860606,11.6769394 96.0904848,11.6947879 96.0075758,11.6947879 L95.8164242,11.6844242 L95.6166364,11.6412424 C95.6419697,11.8490909 95.6580909,12.2302424 95.6644242,12.7841212 L95.6736364,15.1458788 Z M82.6384848,12.9568485 L82.7530606,12.9568485 C82.7657273,12.8203939 82.7910606,12.6724242 82.8296364,12.5146667 C82.8739697,12.3563333 82.9211818,12.2267879 82.9724242,12.1260303 L82.5814848,11.9216364 C82.4346667,11.8490909 82.2630909,11.7811515 82.0661818,11.7166667 C81.8750303,11.6516061 81.6522121,11.6015152 81.398303,11.5658182 C81.1501515,11.5220606 80.8634242,11.5007576 80.5392727,11.5007576 C79.9796364,11.5007576 79.4677879,11.5871212 79.0037273,11.7592727 C78.5454242,11.932 78.1539091,12.1836061 77.8297576,12.5146667 C77.5056061,12.8451515 77.254,13.2516364 77.0760909,13.7329697 C76.8976061,14.2073939 76.8089394,14.7503333 76.8089394,15.3612121 C76.8089394,15.9939697 76.8947273,16.551303 77.066303,17.0326364 C77.2378788,17.5139697 77.4831515,17.917 77.8009697,18.24 C78.1187879,18.5635758 78.5039697,18.8048182 78.9553636,18.9625758 C79.4136667,19.1134242 79.9255152,19.1894242 80.4914848,19.1894242 C80.676303,19.1894242 80.8801212,19.171 81.1023636,19.135303 C81.3309394,19.1065152 81.5572121,19.0708182 81.7800303,19.0276364 C82.0086061,18.9913636 82.2216364,18.9447273 82.4191212,18.8871515 C82.6223636,18.8226667 82.7910606,18.7616364 82.9246364,18.7040606 L82.9154242,18.2728182 L82.9154242,17.8306364 L82.9246364,16.4286667 L82.9534242,15.6416061 C82.8900909,15.6629091 82.8227273,15.6778788 82.7530606,15.6847879 L82.5429091,15.6957273 C82.3966667,15.6957273 82.2440909,15.6778788 82.0851818,15.6416061 L82.1139697,16.3641818 L82.1329697,17.119 L82.1231818,17.7765152 L82.1139697,18.4236667 C82.0310606,18.4812424 81.9291515,18.5313333 81.8082424,18.5745152 C81.6942424,18.617697 81.567,18.6539697 81.4265152,18.6827576 C81.2929394,18.7109697 81.1530303,18.7328485 81.0073636,18.7472424 L80.5870606,18.7685455 C80.142,18.7685455 79.7412727,18.6896667 79.3848788,18.5313333 C79.0348182,18.3735758 78.736,18.1501818 78.4884242,17.8628788 C78.2466061,17.5680909 78.0623636,17.2088182 77.9351212,16.7844848 C77.807303,16.3607273 77.7439697,15.886303 77.7439697,15.3612121 C77.7439697,14.7647273 77.8136364,14.2505758 77.9541212,13.8193333 C78.1003636,13.3806061 78.2972727,13.0213333 78.5454242,12.7409394 C78.7999091,12.4530606 79.0952727,12.2411818 79.4326667,12.1047273 C79.7758182,11.9682727 80.1448788,11.8997576 80.5392727,11.8997576 C80.7810909,11.8997576 81.0073636,11.932 81.2169394,11.9970606 C81.4334242,12.0546364 81.6268788,12.1335152 81.7990303,12.2342727 C81.9769394,12.3275455 82.1358485,12.4392424 82.2763333,12.5682121 C82.422,12.6977576 82.5429091,12.827303 82.6384848,12.9568485 Z M66.2921515,14.423303 L66.2921515,16.2778182 C66.2921515,16.7522424 66.2829394,17.2197576 66.2639394,17.6797879 L66.2161515,19.0489394 C66.5086364,19.0345455 66.7982424,19.0276364 67.0843939,19.0276364 L68.8110909,19.0276364 C69.0978182,19.0276364 69.3839697,19.0345455 69.6701212,19.0489394 C69.6511212,18.9775455 69.6419091,18.883697 69.6419091,18.7685455 L69.6419091,18.6067576 L69.6701212,18.4346061 C69.5169697,18.470303 69.3361818,18.4990909 69.1260303,18.5203939 L68.4673636,18.5635758 L67.7614848,18.5745152 L67.0941818,18.5745152 L67.0746061,17.9705455 L67.0746061,15.6093636 L67.0843939,15.3940303 L67.5421212,15.4043939 L68.1622121,15.4153333 C68.3850303,15.4153333 68.6043939,15.4222424 68.8208788,15.4366364 L69.4029697,15.4907576 C69.3839697,15.3825152 69.3741818,15.2748485 69.3741818,15.1671818 C69.3741818,15.0526061 69.3839697,14.9403333 69.4029697,14.8326667 L68.9544545,14.8758485 L68.4483636,14.9086667 L67.8380606,14.9299697 L67.0843939,14.9403333 L67.0746061,14.3369394 L67.0746061,13.5176364 L67.0843939,12.8054242 L67.1126061,12.1479091 C67.4246667,12.1479091 67.6918182,12.1553939 67.9146364,12.1697879 L68.5249394,12.2020303 L69.0592424,12.2452121 L69.6223333,12.2883939 C69.6033333,12.1801515 69.5935455,12.0724848 69.5935455,11.9648182 C69.5935455,11.8565758 69.6033333,11.7489091 69.6223333,11.6412424 L68.7730909,11.6844242 L67.9238485,11.6947879 L67.0653939,11.6844242 L66.2161515,11.6412424 L66.2639394,13.0213333 C66.2829394,13.4813636 66.2921515,13.9488788 66.2921515,14.423303 Z M55.2036364,17.6475455 L55.0890606,17.6475455 C55.0700606,17.8559697 55.0476061,18.0281212 55.0222727,18.1651515 C55.0032727,18.2941212 54.964697,18.4415152 54.9082727,18.6067576 C55.0729394,18.7576061 55.2767576,18.8946364 55.5185758,19.016697 C55.7667273,19.1318485 56.0874242,19.1894242 56.4823939,19.1894242 C56.8508788,19.1894242 57.1784848,19.1318485 57.4646364,19.016697 C57.757697,18.8946364 58.0023939,18.7253636 58.199303,18.5100303 C58.4031212,18.2872121 58.555697,18.0281212 58.6576061,17.7333333 C58.7658485,17.4391212 58.8199697,17.1259091 58.8199697,16.7954242 C58.8199697,16.3998788 58.7433939,16.0837879 58.5908182,15.8465758 C58.4445758,15.6093636 58.2603333,15.4153333 58.0375152,15.2644848 C57.814697,15.1130606 57.5728788,14.9875455 57.3120606,14.8867879 C57.0581515,14.7791212 56.8192121,14.6605152 56.5963939,14.5309697 C56.3741515,14.3945152 56.1864545,14.2292727 56.0338788,14.0346667 C55.8876364,13.8406364 55.8145152,13.5746364 55.8145152,13.2372424 C55.8145152,13.0426364 55.8427273,12.8635758 55.900303,12.6977576 C55.9636364,12.5325152 56.0494242,12.3926061 56.1576667,12.2774545 C56.2722424,12.1553939 56.4023636,12.0615455 56.5491818,11.9970606 C56.7011818,11.932 56.867,11.8997576 57.0454848,11.8997576 C57.2228182,11.8997576 57.3759697,11.9354545 57.5032121,12.008 C57.6304545,12.0724848 57.738697,12.1553939 57.8273636,12.2555758 C57.9229394,12.3563333 57.9960606,12.4674545 58.047303,12.5900909 C58.104303,12.7052424 58.1486364,12.8129091 58.1808788,12.9136667 L58.2948788,12.9136667 C58.3328788,12.7052424 58.3714545,12.5325152 58.4094545,12.3960606 C58.4480303,12.2590303 58.4952424,12.1294848 58.5528182,12.008 C58.3616667,11.8352727 58.1549697,11.7091818 57.9327273,11.630303 C57.7099091,11.5439394 57.4456364,11.5007576 57.1404848,11.5007576 C56.8226667,11.5007576 56.5359394,11.5508485 56.2814545,11.6516061 C56.0269697,11.7523636 55.8081818,11.8928485 55.6233636,12.0724848 C55.4454545,12.2521212 55.309,12.4674545 55.2134242,12.7196364 C55.1178485,12.9637576 55.0700606,13.2372424 55.0700606,13.5389394 C55.0700606,13.962697 55.1431818,14.3012424 55.2894242,14.5522727 C55.4425758,14.8038788 55.629697,15.012303 55.8525152,15.1781212 C56.0747576,15.3358788 56.313697,15.4688788 56.5681818,15.5765455 C56.829,15.6847879 57.0708182,15.8033939 57.2930606,15.9329394 C57.5158788,16.0624848 57.7001212,16.223697 57.8463636,16.4177273 C57.9989394,16.6117576 58.0755152,16.8748788 58.0755152,17.2053636 C58.0755152,17.4212727 58.0432727,17.6256667 57.9799394,17.819697 C57.9166061,18.0062424 57.8244848,18.1720606 57.7035758,18.316 C57.589,18.4524545 57.4456364,18.5635758 57.2740606,18.6499394 C57.1088182,18.7293939 56.9211212,18.7685455 56.7115455,18.7685455 C56.5077273,18.7685455 56.3234848,18.736303 56.1576667,18.6718182 C55.9924242,18.5998485 55.8461818,18.5100303 55.7189394,18.4023636 C55.5980303,18.2941212 55.4926667,18.1755152 55.404,18.0459697 C55.3210909,17.9095152 55.254303,17.7765152 55.2036364,17.6475455 L55.2036364,17.6475455 Z" id="Fill-2" fill="#1A1919"></path>
                <path d="M63.5924242,26.3213333 L63.9419091,27.2200909 C64.4572121,28.5184242 64.9725152,29.7966061 65.4878182,31.0552121 C66.0031212,32.2994242 66.5046061,33.4837576 66.991697,34.6076364 C67.4793636,35.7320909 67.925,36.6826667 68.3291818,37.4587879 C67.9946667,37.4317273 67.6745455,37.4184848 67.3682424,37.4184848 L65.5920303,37.4184848 C65.3001212,37.4184848 65.0076364,37.4317273 64.7145758,37.4587879 L64.0253939,35.4511212 C63.7887576,34.7688485 63.538303,34.0865758 63.2734545,33.4037273 L61.9359697,33.3835758 L60.5990606,33.3634242 L59.5126061,33.3835758 L58.4267273,33.4037273 C58.1480606,34.0865758 57.8901212,34.7688485 57.6540606,35.4511212 C57.4168485,36.1339697 57.2015152,36.803 57.0063333,37.4587879 C56.8387879,37.4317273 56.6718182,37.4184848 56.5048485,37.4184848 L55.5226061,37.4184848 C55.3562121,37.4184848 55.1748485,37.4317273 54.9802424,37.4587879 L55.6481212,36.0130606 L56.5676061,33.9253636 L57.6327576,31.4357879 C58.0231212,30.5393333 58.406,29.6359697 58.7819697,28.725697 C59.1308788,27.9121515 59.4682727,27.1083939 59.795303,26.3155758 L63.5924242,26.3213333 Z M71.2874242,26.3213333 C71.3144848,27.17 71.3277273,28.1372727 71.3277273,29.2277576 L71.3277273,31.958 C71.3277273,33.0686364 71.3139091,34.0595152 71.285697,34.9294848 C71.2580606,35.7856364 71.2166061,36.6291212 71.1607576,37.4587879 C71.3979697,37.4317273 71.6553333,37.4184848 71.934,37.4184848 L73.8138485,37.4184848 C74.0925152,37.4184848 74.3498788,37.4317273 74.5865152,37.4587879 C74.5306667,36.6291212 74.4892121,35.7856364 74.4615758,34.9294848 C74.4333636,34.0595152 74.4201212,33.0686364 74.4201212,31.958 L74.4201212,30.934303 C75.9936667,30.934303 77.5741212,30.9947576 79.1620606,31.1150909 C79.1338485,30.9009091 79.1062121,30.7402727 79.078,30.6331818 L79.0572727,30.2917576 C79.0572727,30.1576061 79.0647576,30.0309394 79.078,29.9106061 L79.1620606,29.3883939 L76.8636364,29.4885758 C76.1399091,29.5156364 75.3246364,29.5357879 74.4201212,29.5490303 L74.4201212,27.3605758 C74.4264545,27.0151212 74.4379697,26.6679394 74.4535152,26.3190303 L71.2874242,26.3213333 Z M82.6707273,26.3213333 C82.6977879,27.17 82.7110303,28.1372727 82.7110303,29.2277576 L82.7110303,31.958 C82.7110303,33.0686364 82.6972121,34.0595152 82.6695758,34.9294848 C82.6413636,35.7856364 82.5999091,36.6291212 82.5440606,37.4587879 C82.780697,37.4317273 83.0386364,37.4184848 83.317303,37.4184848 L85.1971515,37.4184848 C85.4758182,37.4184848 85.7331818,37.4317273 85.9703939,37.4587879 C85.9145455,36.6291212 85.8725152,35.7856364 85.8448788,34.9294848 C85.8172424,34.0595152 85.8034242,33.0686364 85.8034242,31.958 L85.8034242,29.2277576 C85.8034242,28.1372727 85.8160909,27.17 85.8431515,26.3247879 L82.6707273,26.3213333 Z M90.3841515,26.3213333 C90.4112121,27.17 90.4244545,28.1372727 90.4244545,29.2277576 L90.4244545,31.958 C90.4244545,33.0686364 90.4106364,34.0595152 90.3824242,34.9294848 C90.3547879,35.7856364 90.3133333,36.6291212 90.2574848,37.4587879 C90.4941212,37.4317273 90.7520606,37.4184848 91.0301515,37.4184848 L92.9105758,37.4184848 C93.1892424,37.4184848 93.4466061,37.4317273 93.6832424,37.4587879 C93.6273939,36.6291212 93.5859394,35.7856364 93.558303,34.9294848 C93.5300909,34.0595152 93.5162727,33.0686364 93.5162727,31.958 L93.5162727,31.1352424 L93.7039697,31.1352424 L97.4435152,37.4587879 C97.7636364,37.4317273 98.0774242,37.4184848 98.3837273,37.4184848 L100.284879,37.4184848 C100.590606,37.4184848 100.904394,37.4317273 101.225091,37.4587879 L98.9266667,34.1061515 C98.1609091,32.9684545 97.4435152,31.8307576 96.7750606,30.6930606 C97.8194848,30.4391515 98.6203636,30.0038788 99.177697,29.3883939 C99.7344545,28.7723333 100.013121,27.9766364 100.013121,26.9995758 C100.013121,26.7606364 99.9935455,26.5355152 99.9538182,26.3242121 L96.7111515,26.3213333 C96.7819697,26.6253333 96.8170909,26.9995758 96.8170909,27.4411818 C96.8170909,28.4044242 96.5735455,29.1275758 96.0858788,29.6094848 C95.5982121,30.0775758 94.8946364,30.3119091 93.9757273,30.3119091 L93.746,30.3119091 L93.5162727,30.2716061 C93.5162727,28.9554242 93.5272121,27.6392424 93.5490909,26.3230606 L90.3841515,26.3213333 Z M105.875485,26.3213333 C105.680303,27.7520909 105.474758,29.1788182 105.258273,30.5928788 C104.910515,32.8682727 104.513242,35.1569091 104.067606,37.4587879 C104.235152,37.4317273 104.395212,37.4184848 104.548364,37.4184848 L105.53003,37.4184848 C105.697,37.4184848 105.86397,37.4317273 106.031515,37.4587879 L106.365455,32.9621212 C106.477152,31.4628485 106.644121,29.944 106.866939,28.4044242 C107.702939,29.944 110.711273,35.9600909 111.463212,37.4587879 L111.650909,37.4184848 L112.047606,37.4184848 L112.256606,37.4587879 C113.009121,35.9197879 113.76797,34.3871212 114.533727,32.8613636 L116.873606,28.2034848 C117.08203,29.7833636 117.242667,31.3759091 117.395818,32.981697 C117.563364,34.5880606 117.681394,36.0798485 117.751061,37.4587879 C118.043545,37.4317273 118.33603,37.4184848 118.628515,37.4184848 L120.320091,37.4184848 C120.613152,37.4184848 120.898727,37.4317273 121.176818,37.4587879 C121.051879,36.7897576 120.912545,35.9059697 120.759394,34.8085758 C120.606242,33.7117576 120.452515,32.5331818 120.299364,31.2751515 L119.819182,27.3807273 L119.694242,26.3213333 L116.342758,26.3213333 C115.978303,27.0634848 115.604636,27.8131212 115.223485,28.5650606 C114.401879,30.1979091 113.572788,31.7639697 112.737364,33.2632424 L111.546121,31.0149091 L110.314,28.6053636 L109.183212,26.3213333 L105.875485,26.3213333 Z M124.831152,26.3213333 C124.858212,27.17 124.871455,28.1372727 124.871455,29.2277576 L124.871455,31.958 C124.871455,33.0686364 124.857636,34.0595152 124.83,34.9294848 C124.801788,35.7856364 124.760333,36.6291212 124.704485,37.4587879 L125.101182,37.4184848 L131.389606,37.4184848 L132.789273,37.4587879 C132.761061,37.3781818 132.740333,37.278 132.726515,37.1576667 C132.712121,37.0367576 132.705212,36.8697879 132.705212,36.6556061 C132.705212,36.4414242 132.712121,36.2744545 132.726515,36.1541212 L132.789273,35.7522424 C131.980909,35.8460909 131.180606,35.9128788 130.386636,35.9526061 C129.592667,35.9929091 128.798697,36.0130606 128.005303,36.0130606 C127.963273,35.2104545 127.942545,34.3738788 127.942545,33.5039091 L127.942545,32.2193939 C127.956364,31.7910303 127.963273,31.3626667 127.963273,30.934303 C129.536818,30.934303 131.117848,30.9947576 132.705212,31.1150909 C132.677576,30.9009091 132.649364,30.7402727 132.621727,30.6331818 L132.601,30.2917576 C132.601,30.1576061 132.608485,30.0309394 132.621727,29.9106061 L132.705212,29.3883939 L130.407364,29.4885758 C129.683636,29.5156364 128.868364,29.5357879 127.963273,29.5490303 L127.963273,27.3605758 C127.970182,27.0151212 127.981121,26.6679394 127.997818,26.3190303 L124.831152,26.3213333 Z M60.9335758,27.4411818 C60.5714242,28.2443636 60.23,29.0406364 59.9104545,29.83 C59.5897576,30.6061212 59.2765455,31.4029697 58.9696667,32.2193939 L62.792697,32.2193939 C62.4863939,31.4029697 62.1800909,30.6061212 61.8737879,29.83 C61.5807273,29.0406364 61.2675152,28.2443636 60.9335758,27.4411818 L60.9335758,27.4411818 Z" id="Fill-3" fill="#1A1919"></path>
                <path d="M59.795303,26.3213333 C59.833303,26.222303 59.8718788,26.1290303 59.9104545,26.0357576 C60.2858485,25.1525455 60.6272727,24.3292121 60.9335758,23.5669091 L61.3302727,23.6469394 C61.4557879,23.6601818 61.5882121,23.6670909 61.7269697,23.6670909 C61.866303,23.6670909 61.9987273,23.6601818 62.1242424,23.6469394 L62.5215152,23.5669091 L63.5924242,26.3213333 L59.795303,26.3213333 Z M74.4540909,26.3213333 C74.4719394,25.9390303 74.4955455,25.5567273 74.5237576,25.172697 L75.297,25.1922727 L76.5083939,25.2527273 L77.9080606,25.3333333 L79.2455455,25.4133636 L79.1827879,25.0120606 C79.1689697,24.8917273 79.1620606,24.7241818 79.1620606,24.51 C79.1620606,24.1622424 79.189697,23.8812727 79.2455455,23.6670909 C78.9668788,23.6935758 78.4233636,23.7206364 77.6161515,23.7471212 C76.8221818,23.7603636 75.9096061,23.7672727 74.8795758,23.7672727 C74.2525758,23.7672727 73.6324848,23.7540303 73.0198788,23.7269697 L71.1607576,23.6670909 C71.2166061,24.5364848 71.2580606,25.4070303 71.285697,26.2764242 C71.2868485,26.2931212 71.2868485,26.3092424 71.2874242,26.3247879 L74.4540909,26.3213333 Z M85.8431515,26.3213333 C85.8437273,26.3092424 85.844303,26.2931212 85.8448788,26.2764242 C85.8725152,25.4070303 85.9145455,24.5364848 85.9703939,23.6670909 L85.1971515,23.7471212 C84.9184848,23.7603636 84.604697,23.7672727 84.2569394,23.7672727 C83.9091818,23.7672727 83.5953939,23.7603636 83.317303,23.7471212 L82.5440606,23.6670909 C82.5999091,24.5364848 82.6413636,25.4070303 82.6695758,26.2764242 C82.6701515,26.2931212 82.6701515,26.3092424 82.6707273,26.3247879 L85.8431515,26.3213333 Z M93.5490909,26.3213333 C93.5571515,25.8192727 93.5675152,25.3149091 93.5790303,24.8111212 C94.1496061,24.8111212 94.6372727,24.8376061 95.0414545,24.8917273 C95.4588788,24.9452727 95.7933939,25.0656061 96.0438485,25.2527273 C96.308697,25.4271818 96.5038788,25.688 96.6288182,26.0357576 C96.6604848,26.1232727 96.6875455,26.217697 96.7111515,26.3196061 L99.9538182,26.3213333 C99.8945152,26.0023636 99.7885758,25.7121818 99.6371515,25.4536667 C99.4005152,25.0120606 99.0729091,24.6441515 98.6549091,24.3499394 C98.4741212,24.2290303 98.2795152,24.1288485 98.0705152,24.0482424 C97.8753333,23.9549697 97.6381212,23.8812727 97.3600303,23.8277273 C97.0957576,23.7741818 96.7750606,23.7338788 96.3990909,23.7068182 C96.0231212,23.6803333 95.57,23.6670909 95.0414545,23.6670909 C94.3309697,23.6670909 93.7321818,23.6872424 93.2450909,23.7269697 C92.7712424,23.7540303 92.3469091,23.7672727 91.9703636,23.7672727 C91.6220303,23.7672727 91.3088182,23.7603636 91.0301515,23.7471212 L90.2574848,23.6670909 C90.3133333,24.5364848 90.3547879,25.4070303 90.3824242,26.2764242 C90.383,26.2931212 90.3835758,26.3092424 90.3841515,26.3247879 L93.5490909,26.3213333 Z M109.183212,26.3213333 L109.081303,26.1163636 L107.911364,23.6670909 L107.473212,23.7471212 L107.075939,23.7672727 C106.922788,23.7672727 106.776545,23.7603636 106.637212,23.7471212 L106.219212,23.6670909 C106.108667,24.5531818 105.994091,25.4352424 105.875485,26.3121212 L109.183212,26.3213333 Z M119.694242,26.3213333 L119.380455,23.6670909 C119.032121,23.7338788 118.739636,23.7672727 118.503,23.7672727 C118.25197,23.7672727 117.953152,23.7338788 117.604818,23.6670909 C117.196606,24.5462727 116.775727,25.4294848 116.342758,26.3167273 L119.694242,26.3213333 Z M127.997818,26.3213333 C128.015091,25.9390303 128.038697,25.5567273 128.067485,25.172697 L128.840727,25.1922727 L130.052697,25.2527273 L131.451788,25.3333333 L132.789273,25.4133636 L132.726515,25.0120606 C132.712121,24.8917273 132.705212,24.7241818 132.705212,24.51 C132.705212,24.1622424 132.733424,23.8812727 132.789273,23.6670909 C132.510606,23.6935758 131.967667,23.7206364 131.159303,23.7471212 C130.365909,23.7603636 129.453333,23.7672727 128.422727,23.7672727 C127.795727,23.7672727 127.176212,23.7540303 126.564182,23.7269697 L124.704485,23.6670909 C124.760333,24.5364848 124.801788,25.4070303 124.83,26.2764242 C124.83,26.2931212 124.830576,26.3092424 124.831152,26.3247879 L127.997818,26.3213333 L127.997818,26.3213333 Z" id="Fill-4" fill="#1A1919"></path>
                <polygon id="Fill-5" fill="#009D29" points="54.131 22.6520303 133.830242 22.6520303 133.830242 21.434303 54.131 21.434303"></polygon>
                <path d="M31.4956667,8.79584848 L25.7864545,2.86370254e-14 L-1.14548102e-13,37.8808182 L11.2433939,37.8808182 L21.6358182,22.9122727 C21.6358182,22.9122727 19.5446667,24.1898788 17.4160909,22.3808485 C15.2875152,20.5712424 17.2030606,17.3786667 17.2030606,17.3786667 L26.3748788,3.45051515 L30.7506364,9.64681818 L31.4956667,8.79584848 Z M38.4128182,18.4426667 L32.3472121,9.96636364 L13.3719697,37.8808182 L24.8283939,37.8808182 L30.1495455,30.3245758 C30.1495455,30.3245758 27.3824545,31.4582424 25.6799394,29.2605758 C23.9768485,27.0629091 25.1479394,25.2538788 25.8923939,24.1898788 C26.6374242,23.125303 33.1878182,13.3731212 33.1878182,13.3731212 L37.5514848,19.4018788 L38.4128182,18.4426667 Z M51.6782727,37.8808182 L39.2643636,19.7202727 L26.8504545,37.8808182 L48.6987273,37.8808182 L47.2086667,35.8587576 L38.7323636,35.8587576 C38.7323636,35.8587576 31.9211515,35.2893333 35.3273333,30.0056061 L39.9028788,23.4448485 L50.0822727,37.8808182 L51.6782727,37.8808182 L51.6782727,37.8808182 Z" id="Fill-6" fill="#009D29"></path>
            </g>
        </g>
    </g>
</svg>