<?xml version="1.0" encoding="UTF-8"?>
<svg width="128px" height="14px" viewBox="0 0 128 14" version="1.1" xmlns="http://www.w3.org/2000/svg" xmlns:xlink="http://www.w3.org/1999/xlink">
    <title>019F6922-D48A-4535-972C-CF818FA99671</title>
    <g id="logos-aseguradoras" stroke="none" stroke-width="1" fill="none" fill-rule="evenodd">
        <g id="logos-variantes" transform="translate(-579.000000, -254.000000)" fill="#5D5E5D">
            <g id="logo-chubb" transform="translate(579.000000, 254.000000)">
                <path d="M18.4801781,2.49672377 L18.4801781,0.0753623632 L3.46740575,0.0753623632 C1.16231244,0.0753623632 0,1.25702211 0,3.17480078 L0,10.5358058 C0,12.4535845 1.16231244,13.6352442 3.46740575,13.6352442 L18.4801781,13.6352442 L18.4801781,11.2138828 L2.61520299,11.2138828 L2.61520299,2.49672377 L18.4801781,2.49672377 Z M28.4950807,5.61550949 L28.4950807,0.0753623632 L25.9381039,0.0753623632 L25.9381039,13.6352442 L28.4950807,13.6352442 L28.4950807,7.99817628 L42.1518834,7.99817628 L42.1518834,13.6352442 L44.7088602,13.6352442 L44.7088602,0.0753623632 L42.1518834,0.0753623632 L42.1518834,5.61550949 L28.4950807,5.61550949 Z M69.5428779,0.0753623632 L69.5428779,11.2138828 L56.0799168,11.2138828 L56.0799168,0.0753623632 L53.52294,0.0753623632 L53.52294,10.5358058 C53.52294,12.4535845 54.6850682,13.6352442 56.9903457,13.6352442 L68.6324489,13.6352442 C70.9377265,13.6352442 72.0998547,12.4535845 72.0998547,10.5358058 L72.0998547,0.0753623632 L69.5428779,0.0753623632 Z M96.6425572,13.6352442 C99.1606551,13.6352442 100.322968,12.5891999 100.322968,10.7876893 L100.322968,9.19918333 C100.322968,8.6956006 100.148658,8.46306441 99.7806902,8.15313899 L98.1534896,6.75847462 L99.7806902,5.36362599 C100.148658,5.05370058 100.322968,4.82134865 100.322968,4.31758165 L100.322968,2.92291728 C100.322968,1.12140671 99.1606551,0.0753623632 96.6425572,0.0753623632 L80.9130132,0.0753623632 L80.9130132,13.6352442 L96.6425572,13.6352442 Z M83.46999,5.67355141 L97.7079488,5.67355141 L97.7079488,2.38045567 L83.46999,2.38045567 L83.46999,5.67355141 Z M83.46999,11.3301509 L97.7079488,11.3301509 L97.7079488,7.94013437 L83.46999,7.94013437 L83.46999,11.3301509 Z M124.149635,13.6352442 C126.667918,13.6352442 127.83023,12.5891999 127.83023,10.7876893 L127.83023,9.19918333 C127.83023,8.6956006 127.65592,8.46306441 127.287769,8.15313899 L125.660568,6.75847462 L127.287769,5.36362599 C127.65592,5.05370058 127.83023,4.82134865 127.83023,4.31758165 L127.83023,2.92291728 C127.83023,1.12140671 126.667918,0.0753623632 124.149635,0.0753623632 L108.420276,0.0753623632 L108.420276,13.6352442 L124.149635,13.6352442 Z M110.977253,5.67355141 L125.215027,5.67355141 L125.215027,2.38045567 L110.977253,2.38045567 L110.977253,5.67355141 Z M110.977253,11.3301509 L125.215027,11.3301509 L125.215027,7.94013437 L110.977253,7.94013437 L110.977253,11.3301509 Z" id="Fill-1"></path>
            </g>
        </g>
    </g>
</svg>