<?xml version="1.0" encoding="UTF-8"?>
<svg width="28px" height="28px" viewBox="0 0 28 28" version="1.1" xmlns="http://www.w3.org/2000/svg" xmlns:xlink="http://www.w3.org/1999/xlink">
    <title>A0881054-2B2D-4689-A3B7-9A5B2A552877</title>
    <g id="Landing-B" stroke="none" stroke-width="1" fill="none" fill-rule="evenodd">
        <g transform="translate(-1292.000000, -1853.000000)" fill="#FFFFFF" fill-rule="nonzero" id="icn-instagram-footer">
            <g transform="translate(1292.000000, 1853.000000)">
                <path d="M13.7573681,-5.32907052e-14 C21.3552911,-5.32907052e-14 27.514856,6.23352724 27.514856,13.9231042 C27.514856,21.6125599 21.3552911,27.8463297 13.7573681,27.8463297 C6.15944517,27.8463297 -4.4408921e-14,21.6125599 -4.4408921e-14,13.9231042 C-4.4408921e-14,6.23352724 6.15932537,-5.32907052e-14 13.7573681,-5.32907052e-14 Z M15.1927275,5.00049394 L12.8069208,5.00049394 C11.4133323,5.00440205 11.0642601,5.01796498 10.2888647,5.05334402 C9.33085207,5.09703945 8.67656383,5.24920532 8.10405716,5.47171977 C7.51218587,5.70170139 7.01024214,6.00946303 6.50983472,6.50983472 C6.00946303,7.01024214 5.70170139,7.51218587 5.47171977,8.10405716 C5.24920532,8.67656383 5.09703945,9.33085207 5.05334402,10.2888647 C5.01796498,11.0642601 5.00440205,11.4133323 5.00049394,12.8069208 L5.00049394,12.8069208 L5.00049394,15.1927275 C5.00440205,16.5862972 5.01796498,16.9353695 5.05334402,17.7107649 C5.09703945,18.6687775 5.24920532,19.3230657 5.47171977,19.8955724 C5.70170139,20.4874437 6.00946303,20.9893874 6.50983472,21.4897948 C7.01024214,21.9901665 7.51218587,22.2979281 8.10405716,22.5279455 C8.67656383,22.7504242 9.33085207,22.9025901 10.2888647,22.9462855 C11.1381073,22.985034 11.4759554,22.997613 13.2347818,23 L13.2347818,23 L14.7648725,23 C16.5236742,22.997613 16.8615223,22.985034 17.7107649,22.9462855 C18.6687775,22.9025901 19.3230657,22.7504242 19.8955724,22.5279455 C20.4874437,22.2979281 20.9893874,21.9901665 21.4897948,21.4897948 C21.9901665,20.9893874 22.2979281,20.4874437 22.5279455,19.8955724 C22.7504242,19.3230657 22.9025901,18.6687775 22.9462855,17.7107649 C22.9867187,16.8245987 22.9986574,16.4952628 23.0002549,14.5272464 L23.0002549,14.5272464 L23.0002549,13.4724112 C22.9986574,11.5043668 22.9867187,11.1750309 22.9462855,10.2888647 C22.9025901,9.33085207 22.7504242,8.67656383 22.5279455,8.10405716 C22.2979281,7.51218587 21.9901665,7.01024214 21.4897948,6.50983472 C20.9893874,6.00946303 20.4874437,5.70170139 19.8955724,5.47171977 C19.3230657,5.24920532 18.6687775,5.09703945 17.7107649,5.05334402 C16.9353695,5.01796498 16.5862972,5.00440205 15.1927275,5.00049394 L15.1927275,5.00049394 Z M14.2782315,6.62095898 L14.5373608,6.62110237 C16.4528828,6.62260082 16.7636893,6.63355962 17.6368435,6.67339785 C18.5143965,6.71341329 18.9909733,6.86004131 19.3081314,6.98330317 C19.7282578,7.14658047 20.0280878,7.34162004 20.3430308,7.65659874 C20.6580095,7.97154173 20.8530491,8.27137173 21.0163264,8.69149816 C21.1395882,9.00865629 21.2862162,9.48523308 21.3262317,10.3627861 C21.3643378,11.197977 21.3760212,11.5186571 21.3782765,13.2213648 L21.3782765,13.2213648 L21.3782765,14.7782891 C21.3760212,16.4809725 21.3643378,16.8016526 21.3262317,17.6368435 C21.2862162,18.5143965 21.1395882,18.9909733 21.0163264,19.3081314 C20.8530491,19.7282578 20.6580095,20.0280878 20.3430308,20.3430308 C20.0280878,20.6580095 19.7282578,20.8530491 19.3081314,21.0163264 C18.9909733,21.1395882 18.5143965,21.2862162 17.6368435,21.3262317 C16.8017783,21.3643378 16.481141,21.3760212 14.7783443,21.3782765 L14.7783443,21.3782765 L13.2213109,21.3782765 C11.5184961,21.3760212 11.1978826,21.3643378 10.3627861,21.3262317 C9.48523308,21.2862162 9.00865629,21.1395882 8.69149816,21.0163264 C8.27137173,20.8530491 7.97154173,20.6580095 7.65659874,20.3430308 C7.34165576,20.0280878 7.14658047,19.7282578 6.98330317,19.3081314 C6.86004131,18.9909733 6.71341329,18.5143965 6.67339785,17.6368435 C6.63182752,16.7257261 6.62170247,16.4269191 6.62095898,14.2782315 L6.62095898,14.2782315 L6.62095898,13.7214297 C6.62170247,11.5727104 6.63182752,11.2739034 6.67339785,10.3627861 C6.71341329,9.48523308 6.86004131,9.00865629 6.98330317,8.69149816 C7.14658047,8.27137173 7.34162004,7.97154173 7.65659874,7.65659874 C7.97154173,7.34162004 8.27137173,7.14658047 8.69149816,6.98330317 C9.00865629,6.86004131 9.48523308,6.71341329 10.3627861,6.67339785 C11.2739034,6.63182752 11.5727104,6.62170247 13.7214297,6.62095898 L13.7214297,6.62095898 L14.2782315,6.62095898 Z M13.9998326,9.37787021 C11.4471689,9.37787021 9.37787021,11.4471689 9.37787021,13.9998326 C9.37787021,16.5524607 11.4471689,18.6217593 13.9998326,18.6217593 C16.5524607,18.6217593 18.6217593,16.5524607 18.6217593,13.9998326 C18.6217593,11.4471689 16.5524607,9.37787021 13.9998326,9.37787021 Z M13.9998326,10.9996033 C15.6567936,10.9996033 17.0000263,12.342836 17.0000263,13.9998326 C17.0000263,15.6567936 15.6567936,17.0000263 13.9998326,17.0000263 C12.342836,17.0000263 10.9996033,15.6567936 10.9996033,13.9998326 C10.9996033,12.342836 12.342836,10.9996033 13.9998326,10.9996033 Z M18.8043655,8.11516859 C18.2078853,8.11516859 17.7243058,8.59874808 17.7243058,9.19526402 C17.7243058,9.79177996 18.2078853,10.2753237 18.8043655,10.2753237 C19.4008815,10.2753237 19.884461,9.79177996 19.884461,9.19526402 C19.884461,8.59874808 19.4008815,8.11516859 18.8043655,8.11516859 Z" id="Combined-Shape"></path>
            </g>
        </g>
    </g>
</svg>