<?xml version="1.0" encoding="UTF-8" standalone="no"?>
<svg
   xmlns:dc="http://purl.org/dc/elements/1.1/"
   xmlns:cc="http://creativecommons.org/ns#"
   xmlns:rdf="http://www.w3.org/1999/02/22-rdf-syntax-ns#"
   xmlns:svg="http://www.w3.org/2000/svg"
   xmlns="http://www.w3.org/2000/svg"
   xmlns:sodipodi="http://sodipodi.sourceforge.net/DTD/sodipodi-0.dtd"
   xmlns:inkscape="http://www.inkscape.org/namespaces/inkscape"
   width="30pt"
   height="20.799999pt"
   viewBox="0 0 30 20.799998"
   version="1.2"
   id="svg54"
   sodipodi:docname="plantilla3Color3.svg"
   inkscape:version="1.0.1 (3bc2e813f5, 2020-09-07)">
  <metadata
     id="metadata58">
    <rdf:RDF>
      <cc:Work
         rdf:about="">
        <dc:format>image/svg+xml</dc:format>
        <dc:type
           rdf:resource="http://purl.org/dc/dcmitype/StillImage" />
        <dc:title></dc:title>
      </cc:Work>
    </rdf:RDF>
  </metadata>
  <sodipodi:namedview
     pagecolor="#ffffff"
     bordercolor="#666666"
     borderopacity="1"
     objecttolerance="10"
     gridtolerance="10"
     guidetolerance="10"
     inkscape:pageopacity="0"
     inkscape:pageshadow="2"
     inkscape:window-width="1920"
     inkscape:window-height="1053"
     id="namedview56"
     showgrid="false"
     inkscape:snap-smooth-nodes="true"
     inkscape:zoom="21.499999"
     inkscape:cx="18.653155"
     inkscape:cy="13.923131"
     inkscape:window-x="-9"
     inkscape:window-y="-9"
     inkscape:window-maximized="1"
     inkscape:current-layer="g45" />
  <defs
     id="defs41">
    <clipPath
       id="clip1">
      <path
         d="M 9,5 H 29.515625 V 25 H 9 Z m 0,0"
         id="path35" />
    </clipPath>
    <clipPath
       id="clip2">
      <path
         d="M 0.484375,5 H 20 V 25 H 0.484375 Z m 0,0"
         id="path38" />
    </clipPath>
  </defs>
  <g
     id="surface1"
     transform="matrix(1.0374497,0,0,1.0552515,-0.47162812,-5.2303936)">
    <g
       clip-path="url(#clip1)"
       clip-rule="nonzero"
       id="g45">
      <path
         style="fill:#c7e3fc;fill-opacity:1;fill-rule:nonzero;stroke:none;stroke-width:1.01202"
         d="m 19.6508,5.011719 c -0.637197,0 -1.270509,0.060333 -1.89605,0.1890447 -0.625541,0.1246898 -1.231656,0.3097136 -1.822229,0.5550702 -0.590573,0.2453567 -1.150063,0.5470252 -1.67847,0.9050047 -0.528408,0.3579805 -1.021847,0.7642269 -1.472548,1.2187403 -0.4507,0.4545133 -0.85089,0.9452276 -1.208343,1.4801859 -0.353566,0.5349582 -0.652739,1.0980722 -0.897515,1.6933642 -0.240892,0.595292 -0.427389,1.206674 -0.55172,1.834144 -0.1243313,0.631493 -0.1864969,1.267007 -0.1864969,1.910566 0,0.643559 0.062166,1.279073 0.1864969,1.910566 0.124331,0.631492 0.310828,1.242873 0.55172,1.834144 0.244776,0.595292 0.543949,1.158406 0.897515,1.693364 0.357453,0.534958 0.757643,1.029695 1.208343,1.484208 0.450701,0.454514 0.94414,0.860761 1.472548,1.214718 0.528407,0.35798 1.087897,0.659648 1.67847,0.905005 0.590573,0.245357 1.196688,0.43038 1.822229,0.559092 0.625541,0.12469 1.258853,0.185023 1.89605,0.185023 0.637197,0 1.266624,-0.06033 1.892165,-0.185023 0.625541,-0.128712 1.235541,-0.313735 1.822228,-0.559092 0.590573,-0.245357 1.150063,-0.547025 1.678471,-0.905005 0.532293,-0.353957 1.021847,-0.760204 1.472547,-1.214718 0.450701,-0.454513 0.854777,-0.94925 1.208344,-1.484208 0.353566,-0.534958 0.652739,-1.098072 0.897516,-1.693364 0.244776,-0.591271 0.427388,-1.202652 0.551719,-1.834144 0.124331,-0.631493 0.186496,-1.267007 0.186496,-1.910566 0,-0.643559 -0.06217,-1.279073 -0.186496,-1.910566 -0.124331,-0.62747 -0.306943,-1.238852 -0.551719,-1.834144 C 28.377294,10.457837 28.078121,9.894723 27.724555,9.3597648 27.370988,8.8248065 26.966912,8.3340922 26.516211,7.8795789 26.065511,7.4250655 25.575957,7.0188191 25.043664,6.6608386 24.515256,6.3028591 23.955766,6.0011906 23.365193,5.7558339 22.778506,5.5104773 22.168506,5.3254535 21.542965,5.2007637 20.917424,5.0720519 20.287997,5.011719 19.6508,5.011719 Z m 0,0"
         id="path43" />
    </g>
    <path
       style="fill:#ffffff;fill-opacity:1;fill-rule:nonzero;stroke:none"
       d="m 12.198146,5.0331779 c -0.640625,0 -1.277344,0.058593 -1.90625,0.183593 -0.628906,0.121094 -1.238282,0.300782 -1.832032,0.539063 -0.589843,0.238281 -1.152343,0.53125 -1.6875,0.878906 -0.53125,0.347657 -1.027343,0.742188 -1.480468,1.183594 -0.453125,0.441406 -0.855469,0.917969 -1.214844,1.4375 -0.355469,0.519531 -0.65625,1.0664061 -0.898438,1.6445311 -0.246093,0.578125 -0.433593,1.171875 -0.558593,1.78125 -0.125,0.613282 -0.1875,1.230469 -0.1875,1.855469 0,0.625 0.0625,1.242187 0.1875,1.855469 0.125,0.613281 0.3125,1.207031 0.558593,1.78125 0.242188,0.578125 0.542969,1.125 0.898438,1.644531 0.359375,0.519531 0.761719,1 1.214844,1.441406 0.453125,0.441407 0.949218,0.835938 1.480468,1.179688 0.535157,0.347656 1.097657,0.640625 1.6875,0.878906 0.59375,0.238281 1.203126,0.417969 1.832032,0.542969 0.628906,0.121094 1.265625,0.179687 1.90625,0.179687 0.640625,0 1.273437,-0.05859 1.902344,-0.179687 0.628906,-0.125 1.242187,-0.304688 1.832031,-0.542969 0.59375,-0.238281 1.15625,-0.53125 1.6875,-0.878906 0.535156,-0.34375 1.027343,-0.738281 1.480469,-1.179688 0.453124,-0.441406 0.859374,-0.921875 1.214843,-1.441406 0.355469,-0.519531 0.65625,-1.066406 0.902344,-1.644531 0.246094,-0.574219 0.429687,-1.167969 0.554687,-1.78125 0.125,-0.613282 0.1875,-1.230469 0.1875,-1.855469 0,-0.625 -0.0625,-1.242187 -0.1875,-1.855469 -0.125,-0.609375 -0.308593,-1.203125 -0.554687,-1.78125 -0.246094,-0.578125 -0.546875,-1.1250001 -0.902344,-1.6445311 -0.355469,-0.519531 -0.761719,-0.996094 -1.214843,-1.4375 -0.453126,-0.441406 -0.945313,-0.835937 -1.480469,-1.183594 -0.53125,-0.347656 -1.09375,-0.640625 -1.6875,-0.878906 -0.589844,-0.238281 -1.203125,-0.417969 -1.832031,-0.539063 -0.628907,-0.125 -1.261719,-0.183593 -1.902344,-0.183593 z m 0,0"
       id="path47" />
    <g
       clip-path="url(#clip2)"
       clip-rule="nonzero"
       id="g51"
       transform="matrix(0.99464927,0,0,1.0296945,0.00259176,-0.14882061)">
      <path
         style="fill:#2792ff;fill-opacity:1;fill-rule:nonzero;stroke:none"
         d="m 9.988281,5.011719 c -0.625,0 -1.242187,0.058593 -1.855469,0.183593 C 7.523438,5.316406 6.929688,5.496094 6.351562,5.734375 5.773438,5.972656 5.226562,6.265625 4.707031,6.613281 4.1875,6.960938 3.710938,7.355469 3.269531,7.796875 2.828125,8.238281 2.433594,8.714844 2.085938,9.234375 1.738281,9.753906 1.445312,10.300781 1.207031,10.878906 c -0.238281,0.578125 -0.417969,1.171875 -0.539062,1.78125 -0.125,0.613282 -0.183594,1.230469 -0.183594,1.855469 0,0.625 0.058594,1.242187 0.183594,1.855469 0.121093,0.613281 0.300781,1.207031 0.539062,1.78125 0.238281,0.578125 0.53125,1.125 0.878907,1.644531 0.347656,0.519531 0.742187,1 1.183593,1.441406 0.441407,0.441407 0.917969,0.835938 1.4375,1.179688 0.519531,0.347656 1.066407,0.640625 1.644531,0.878906 0.578126,0.238281 1.171876,0.417969 1.78125,0.542969 0.613282,0.121094 1.230469,0.179687 1.855469,0.179687 0.625,0 1.242188,-0.05859 1.855469,-0.179687 0.613281,-0.125 1.207031,-0.304688 1.78125,-0.542969 0.578125,-0.238281 1.125,-0.53125 1.644531,-0.878906 0.519531,-0.34375 1,-0.738281 1.441407,-1.179688 0.441406,-0.441406 0.835937,-0.921875 1.179687,-1.441406 0.347656,-0.519531 0.640625,-1.066406 0.878906,-1.644531 0.238281,-0.574219 0.417969,-1.167969 0.542969,-1.78125 0.121094,-0.613282 0.179688,-1.230469 0.179688,-1.855469 0,-0.625 -0.05859,-1.242187 -0.179688,-1.855469 -0.125,-0.609375 -0.304688,-1.203125 -0.542969,-1.78125 -0.238281,-0.578125 -0.53125,-1.125 -0.878906,-1.644531 C 17.546875,8.714844 17.152344,8.238281 16.710938,7.796875 16.269531,7.355469 15.789062,6.960938 15.269531,6.613281 14.75,6.265625 14.203125,5.972656 13.625,5.734375 13.050781,5.496094 12.457031,5.316406 11.84375,5.195312 11.230469,5.070312 10.613281,5.011719 9.988281,5.011719 Z m 0,0"
         id="path49" />
    </g>
  </g>
</svg>
