<?xml version="1.0" encoding="UTF-8"?>
<svg width="32px" height="32px" viewBox="0 0 32 32" version="1.1" xmlns="http://www.w3.org/2000/svg" xmlns:xlink="http://www.w3.org/1999/xlink">
    <title>EB855BBE-A1DE-4FB1-AEFD-EB35B46F3C92</title>
    <defs>
        <linearGradient x1="49.9999303%" y1="100.000083%" x2="49.9999303%" y2="9.08186729e-05%" id="linearGradient-1">
            <stop stop-color="#1FAF38" offset="0%"></stop>
            <stop stop-color="#60D669" offset="100%"></stop>
        </linearGradient>
        <linearGradient x1="50.0000187%" y1="99.9999404%" x2="50.0000187%" y2="-0.000105428273%" id="linearGradient-2">
            <stop stop-color="#F9F9F9" offset="0%"></stop>
            <stop stop-color="#FFFFFF" offset="100%"></stop>
        </linearGradient>
    </defs>
    <g id="registro-landing---1.0-v2" stroke="none" stroke-width="1" fill="none" fill-rule="evenodd">
        <g id="popup-CRM-conf-lp-tengo-dominio" transform="translate(-77.000000, -132.000000)">
            <g id="Group-2" transform="translate(60.000000, 118.000000)">
                <g id="logo-whatsapp" transform="translate(17.000000, 14.000000)">
                    <g id="Group-17">
                        <path d="M8.91266989,26.2843476 L9.38135788,26.5621709 C11.3507651,27.7308196 13.6086527,28.3489282 15.9110926,28.3501123 L15.9161251,28.3501123 C22.9870749,28.3501123 28.7421017,22.5964917 28.7451366,15.5249499 C28.7461721,12.0978956 27.4132273,8.87547137 24.9909696,6.45143751 C22.5685639,4.02747766 19.3477678,2.69164658 15.9209356,2.69024045 C8.84436119,2.69024045 3.08948249,8.44312095 3.08666919,15.5145148 C3.08570812,17.9377346 3.76368865,20.2976042 5.04801067,22.3397606 L5.35336463,22.8248782 L4.05705343,27.5574205 L8.91266989,26.2843476 Z M0.351065782,31.2233703 L2.54086666,23.2276997 C1.19023413,20.8876641 0.479690403,18.2330236 0.480652497,15.5134787 C0.484056831,7.00575191 7.40795424,0.0840747165 15.9161251,0.0840747165 C20.0449162,0.0858508908 23.9202325,1.69284458 26.8346385,4.60924875 C29.7486744,7.52587494 31.3527818,11.4027454 31.3513766,15.525986 C31.3477493,24.0332687 24.4228898,30.956204 15.9161251,30.956204 C15.915533,30.956204 15.9164951,30.956204 15.9161251,30.956204 L15.9094644,30.956204 C13.326389,30.9551679 10.7880139,30.3072344 8.53360469,29.0778257 L0.351065782,31.2233703 Z" id="Fill-3" fill="#FFFFFF"></path>
                        <path d="M1.0126167,15.5185334 C1.01180262,18.143423 1.69770192,20.7065165 3.0019319,22.9655142 L3.0019319,22.9655142 L0.88791446,30.6845456 L8.78715357,28.6133043 C10.9634111,29.7993447 13.4137916,30.4253722 15.9074663,30.4261862 L15.9074663,30.4261862 L15.9141269,30.4261862 C24.1261207,30.4261862 30.8109747,23.7435525 30.8143803,15.5302266 L30.8143803,15.5302266 C30.8160072,11.549968 29.2674792,7.80749478 26.4539451,4.9919625 L26.4539451,4.9919625 C23.6409291,2.17643023 19.89964,0.625090004 15.9134608,0.623239822 L15.9134608,0.623239822 C7.70043094,0.623239822 1.01602103,7.3052815 1.0126167,15.5185334" id="Fill-6" fill="url(#linearGradient-1)"></path>
                        <path d="M0.480652497,15.5135009 C0.479616396,18.2330458 1.19023413,20.8876863 2.54086666,23.2277219 L2.54086666,23.2277219 L0.351065782,31.2233925 L8.53360469,29.0778479 C10.7880139,30.3072566 13.326389,30.9551901 15.9095385,30.9562262 L15.9095385,30.9562262 L15.9161991,30.9562262 C24.4228158,30.9562262 31.3477493,24.0332169 31.3513766,15.5260082 L31.3513766,15.5260082 C31.3527818,11.4026936 29.7486004,7.52589715 26.8345645,4.60927095 L26.8345645,4.60927095 C23.9202325,1.69279277 20.0449162,0.085873093 15.9161991,0.0840969187 L15.9161991,0.0840969187 C7.40795424,0.0840969187 0.484130839,7.00577411 0.480652497,15.5135009 L0.480652497,15.5135009 Z M5.35336463,22.8249004 L5.04808468,22.3397828 C3.76368865,20.2976264 3.08570812,17.9377568 3.08666919,15.514463 L3.08666919,15.514463 C3.08948249,8.44314315 8.84436119,2.69026265 15.9209356,2.69026265 L15.9209356,2.69026265 C19.3478418,2.69174279 22.5685639,4.02742586 24.9909696,6.45145972 L24.9909696,6.45145972 C27.4132273,8.87549357 28.746098,12.0979178 28.7451365,15.5249721 L28.7451365,15.5249721 C28.7420276,22.5965139 22.9870749,28.3501345 15.9161991,28.3501345 L15.9161991,28.3501345 L15.9110926,28.3501345 C13.6085787,28.3489504 11.3507651,27.7308418 9.38135788,26.5621931 L9.38135788,26.5621931 L8.91266989,26.2843698 L4.05697942,27.5574427 L5.35336463,22.8249004 Z" id="Fill-10" fill="url(#linearGradient-2)"></path>
                        <path d="M12.0583042,9.06313899 C11.7694538,8.42082996 11.465284,8.4079527 11.190421,8.3967776 C10.9656609,8.38708265 10.7082637,8.38773899 10.4513845,8.38773899 C10.1942092,8.38773899 9.77636424,8.48432819 9.42297956,8.87027606 C9.06937287,9.25614993 8.07293909,10.1891595 8.07293909,12.0866317 C8.07293909,13.9842519 9.45509871,15.8178558 9.64773962,16.0754011 C9.84060254,16.3325763 12.3158494,20.3508746 16.2359401,21.8967383 C19.4938878,23.1815044 20.1568448,22.9259573 20.8639842,22.861645 C21.5711236,22.7974067 23.1457021,21.9289314 23.4671897,21.0283371 C23.7886032,20.1278907 23.7886032,19.355995 23.6921717,19.1946591 C23.5957403,19.0340634 23.338639,18.9375579 22.9529132,18.744695 C22.5671873,18.5518321 20.6711213,17.6186745 20.3175886,17.4901239 C19.9639819,17.3615733 19.7068807,17.297261 19.4497054,17.6834309 C19.1925302,18.0690827 18.4538637,18.9375579 18.2288076,19.1946591 C18.0038256,19.4525004 17.7788435,19.4845456 17.3931176,19.2917567 C17.0073918,19.0983017 15.7652539,18.6914838 14.2916953,17.3776328 C13.1451748,16.3554445 12.3711329,15.0930287 12.1461508,14.7069328 C11.9210947,14.3211329 12.1219504,14.1122844 12.3154794,13.9199396 C12.4885824,13.7472066 12.7012052,13.4697534 12.8939942,13.2445493 C13.086487,13.0194192 13.1507994,12.8586754 13.27935,12.6015002 C13.4079006,12.3439549 13.3436623,12.1187508 13.2472308,11.9258879 C13.1507994,11.733025 12.4012538,9.82570981 12.0583042,9.06313899" id="Fill-14" fill="#FFFFFF"></path>
                    </g>
                </g>
            </g>
        </g>
    </g>
</svg>