<?xml version="1.0" encoding="UTF-8"?>
<svg width="105px" height="26px" viewBox="0 0 105 26" version="1.1" xmlns="http://www.w3.org/2000/svg" xmlns:xlink="http://www.w3.org/1999/xlink">
    <title>8DF1656E-2E0C-4CD0-9AC4-AD4CBCA8EF5A</title>
    <g id="logos-aseguradoras" stroke="none" stroke-width="1" fill="none" fill-rule="evenodd">
        <g id="logos-variantes" transform="translate(-608.000000, -548.000000)">
            <g id="logo-zurich-horizontal" transform="translate(608.000000, 548.000000)">
                <path d="M103.931399,16.4815181 L103.931399,8.00521039 C103.931399,8.00521039 103.943636,6.04970065 104.730769,6.04970065 L101.012937,6.04970065 C101.012937,6.04970065 101.744755,6.10320962 101.744755,8.00521039 L101.744755,11.2113708 L96.1129371,11.2113708 L96.1129371,8.00521039 C96.1129371,8.00521039 96.1251748,6.04970065 96.9118182,6.04970065 L93.193986,6.04970065 C93.193986,6.04970065 93.9262937,6.10320962 93.9262937,8.00521039 L93.9262937,16.6444773 C93.9262937,16.6444773 93.939021,18.4375143 93.03,18.4375143 L96.7468531,18.4375143 C96.7468531,18.4375143 96.1129371,18.4375143 96.1129371,16.4815181 L96.1129371,12.8414486 L101.744755,12.8414486 L101.744755,16.6444773 C101.744755,16.6444773 101.757972,18.4375143 100.848951,18.4375143 L104.565804,18.4375143 C104.565804,18.4375143 103.931399,18.4375143 103.931399,16.4815181 L103.931399,16.4815181 Z M91.0283916,8.60353799 L91.0283916,6.32113708 C91.0283916,6.32113708 89.716014,5.77777778 88.0213287,5.77777778 C85.5062238,5.77777778 80.5303497,6.80952806 80.5303497,12.6230347 C80.5303497,18.4375143 86.216993,19.034869 87.2009091,19.034869 C88.1853147,19.034869 90.0988112,18.6544689 90.9192308,18.165105 L90.9192308,15.7207178 C90.9192308,15.7207178 90.043986,17.1333547 87.5288811,17.1333547 C85.0142657,17.1333547 83.0459441,14.960404 83.0459441,12.5155304 C83.0459441,10.0701703 85.0142657,7.57081481 87.803007,7.57081481 C89.88,7.57081481 91.0283916,8.60353799 91.0283916,8.60353799 L91.0283916,8.60353799 Z M74.9332867,6.04970065 C74.9332867,6.04970065 75.6651049,6.10320962 75.6651049,8.00521039 L75.6651049,16.6444773 C75.6651049,16.6444773 75.6778322,18.4375143 74.7693007,18.4375143 L78.4861538,18.4375143 C78.4861538,18.4375143 77.8517483,18.4375143 77.8517483,16.4815181 L77.8517483,8.00521039 C77.8517483,8.00521039 77.8634965,6.04970065 78.6506294,6.04970065 L74.9332867,6.04970065 Z M69.3225175,9.58080641 C69.3225175,7.29937839 65.7686713,7.62529668 65.7686713,7.62529668 L65.7686713,12.1341573 C65.7686713,12.1341573 69.3225175,12.4600756 69.3225175,9.58080641 L69.3225175,9.58080641 Z M73.6752448,18.4375143 C70.6476224,19.4152692 68.7757343,16.8614318 68.7757343,16.8614318 L66.0418182,13.2753578 L65.7138462,13.2753578 L65.7138462,16.9164002 C65.7686713,18.3285506 66.4583916,18.4375143 66.4583916,18.4375143 L62.3577622,18.4375143 C63.210979,18.4375143 63.4175524,16.9164002 63.4175524,16.9164002 L63.4175524,7.84225124 C63.4175524,6.5925735 62.6852448,6.04970065 62.6852448,6.04970065 L67.4423077,6.04970065 C67.4423077,6.04970065 71.8924476,6.10320962 71.8924476,9.52632455 C71.8924476,12.2976029 68.6660839,13.0044078 68.6660839,13.0044078 C72.5483916,17.9491233 73.6752448,18.4375143 73.6752448,18.4375143 L73.6752448,18.4375143 Z M48.5256643,6.04970065 C48.5256643,6.04970065 49.2565035,6.5925735 49.2565035,7.8967331 L49.2565035,15.3943131 C49.2565035,15.3943131 49.5854545,18.9803872 54.6146853,18.9803872 C59.6448951,18.9803872 59.6997203,15.0139129 59.6997203,15.0139129 L59.6997203,7.13641924 C59.6997203,7.13641924 59.7139161,6.10320962 60.4452448,6.04970065 L56.7812587,6.04970065 C56.7812587,6.04970065 57.5125874,6.04970065 57.5125874,7.19041466 L57.5125874,14.525522 C57.5125874,14.525522 57.3481119,17.241832 54.6695105,17.241832 C51.9909091,17.241832 51.6624476,14.7424765 51.6624476,14.7424765 L51.6624476,7.78825582 C51.6624476,7.78825582 51.6766434,6.04970065 52.2434965,6.04970065 L48.5256643,6.04970065 Z M39.9621678,7.73377396 L42.7504196,7.73377396 L35,18.4375143 L45.5186014,18.4375143 L47.015035,15.5577587 C45.5934965,16.8614318 42.093986,16.8614318 42.093986,16.8614318 L39.1965734,16.8614318 L46.8304895,6.04970065 L37.099021,6.04970065 L35.9163636,8.71104238 C37.3922378,7.73377396 39.9621678,7.73377396 39.9621678,7.73377396 L39.9621678,7.73377396 Z" id="Fill-1" fill="#08305D"></path>
                <path d="M25.2944755,12.5677984 C25.2944755,19.5093715 19.6323077,25.1360832 12.646993,25.1360832 C8.96979021,25.1360832 5.66902098,23.5672974 3.35804196,21.0771844 C5.1006993,19.8625307 10.1240559,20.1349401 11.4912587,20.610197 C19.9690909,23.1864108 21.1605594,15.8060641 21.1605594,15.8060641 L20.3890909,15.8060641 C18.8481119,20.8889301 11.0002797,18.799648 9.8793007,18.799648 C8.75783217,18.799648 7.98783217,19.0783811 7.98783217,19.0783811 L18.5681119,5.01330431 L5.39538462,5.01330431 L4.27440559,8.70396411 L5.1148951,9.05177243 C6.09587413,6.33692173 9.5993007,6.40599695 9.5993007,6.40599695 L13.2422378,6.40599695 L2.55867133,20.1256976 C0.95993007,18.0203627 0,15.4086384 0,12.5677984 C0,5.62719817 5.66167832,0 12.646993,0 C19.6323077,0 25.2944755,5.62719817 25.2944755,12.5677984 L25.2944755,12.5677984 Z" id="Path" fill="#005194"></path>
            </g>
        </g>
    </g>
</svg>