<?xml version="1.0" encoding="UTF-8"?>
<svg width="86px" height="20px" viewBox="0 0 86 20" version="1.1" xmlns="http://www.w3.org/2000/svg" xmlns:xlink="http://www.w3.org/1999/xlink">
    <title>19E7333B-85F6-4D4D-9493-E54E53E5D635</title>
    <g id="logos-aseguradoras" stroke="none" stroke-width="1" fill="none" fill-rule="evenodd">
        <g id="logos-variantes" transform="translate(-682.000000, -1719.000000)">
            <rect id="Rectangle" fill="#989898" x="0" y="1211" width="1440" height="1299"></rect>
            <g id="icn-metlife-color-blanco" transform="translate(682.000000, 1719.000000)" fill="#FFFFFF">
                <path d="M18.9388505,0.869559394 C19.262002,0.868695652 19.4869919,0.965217391 19.6581232,1.15478261 C19.6661731,1.16376812 19.6739835,1.17339903 19.6815616,1.18390815 L19.7036059,1.21830287 L19.7036059,1.21830287 L19.7242981,1.25936348 C19.8812012,1.61076 19.9175315,2.70425246 19.9243139,7.56090626 L19.9250263,8.20158011 C19.9251206,8.3118438 19.9252033,8.42386924 19.9252752,8.53768554 L19.9253992,11.0993844 C19.9253346,11.2170141 19.9252581,11.3328421 19.9251689,11.4468968 L19.9244738,12.1101742 C19.9170115,17.6781047 19.8707119,18.6050075 19.6728909,18.8895652 L19.6728909,18.8895652 L19.3184667,19.2504348 L13.0665273,19.2504348 C13.1227437,19.2504348 13.1519954,18.9872227 13.1663174,18.5877728 L13.1705239,18.4498002 C13.1579255,18.9254179 13.1285557,19.2501739 13.0660929,19.2501739 L13.0660929,19.2501739 L7.37099674,19.2501236 C7.16206714,19.2503332 6.94608687,19.2504348 6.72285455,19.2504348 L0.506531313,19.2504348 L0.252874747,18.8895652 C0.0588580286,18.6104798 0.0105909043,17.7094833 0.00176626526,12.404128 L0.00036647872,11.0727042 C0.000301938943,10.9546747 0.000249357903,10.8348379 0.000207934195,10.7131651 L0.000208621797,8.85564926 C0.000238700506,8.73841736 0.000275303564,8.62301278 0.000319438459,8.50940605 L0.00214492218,6.65228848 C0.0103426731,2.18381216 0.0498212807,1.45025513 0.232000787,1.19293952 L0.255524519,1.16301977 C0.267666062,1.14906438 0.280383165,1.13643892 0.29370303,1.12434783 C0.485682828,0.949565217 0.714147475,0.864347826 1.02774343,0.869565217 C1.34133939,0.875652174 1.74267273,0.973043478 2.28299596,1.16 C4.52160202,1.93391304 6.61166263,3.30869565 8.42634949,5.03826087 C8.99896827,5.58425441 9.52363293,6.18139397 9.9994458,6.82168213 L9.9987596,6.82147826 L9.99832525,6.8226087 L11.3248101,5.25478261 C13.228103,3.31565217 15.3103455,1.96695652 17.6427697,1.16 C18.1961232,0.968695652 18.615699,0.870434783 18.9388505,0.869559394 Z M50.382101,5.40252174 L51.6373535,5.4486087 L52.8934747,5.49382609 L52.9386465,6.59295652 L52.9890303,7.69208696 L55.0799596,7.69208696 L55.0799596,9.80773913 L52.9742626,9.80773913 L52.9742626,11.9242609 C52.9742626,12.0020709 52.9742662,12.0770157 52.9742946,12.149215 L52.9749323,12.5504218 C52.9800324,14.0311208 53.0238743,14.0682222 53.3999192,14.3155652 C53.7925657,14.5746957 53.8794343,14.5773043 54.5335556,14.3407826 L54.5335556,14.3407826 L55.2371919,14.0807826 L55.7227879,14.8755652 L56.2092525,15.6686087 L55.4091919,16.0755652 C54.4458182,16.566 52.7292929,16.6390435 51.8910101,16.2233913 C50.6783232,15.6225217 50.3968687,14.8242609 50.3873131,11.9755652 L50.3873131,11.9755652 L50.382101,9.8286087 L49.694101,9.77730435 L49.0052323,9.72686957 L49.0052323,7.77382609 L49.694101,7.72252174 L50.382101,7.67643478 L50.382101,5.40252174 Z M44.0544121,7.49356522 C46.5605737,7.47791304 48.2762303,9.28834783 48.2762303,11.9544348 L48.2762303,11.9544348 L48.2762303,12.7387826 L44.7824962,12.7390957 C42.4464422,12.742519 42.2822909,12.7781848 42.2822909,13.0431304 C42.2822909,13.430087 42.9563919,14.1631304 43.5019273,14.3718261 C44.2368364,14.6518261 45.3913212,14.5518261 46.2860687,14.1318261 L46.2860687,14.1318261 L47.1269576,13.7405217 L47.6134222,14.5344348 L48.1042303,15.3326957 L47.6638061,15.6387826 C46.5067152,16.4483478 43.9623313,16.7370435 42.5203111,16.224 C41.5578061,15.8796522 40.6708768,15.0726957 40.237402,14.1370435 C39.7240081,13.030087 39.7040283,11.0535652 40.1913616,9.97095652 C40.9002101,8.39704348 42.2918465,7.504 44.0544121,7.49356522 Z M81.2082364,7.50373913 C83.6136303,7.50373913 84.9123172,8.89678261 85.2936707,11.8837391 L85.2936707,11.8837391 L85.4048626,12.7385217 L79.1980949,12.7385217 L79.3092869,13.1046087 C79.458701,13.595913 79.8478727,14.0263478 80.4238121,14.3254783 C81.0735899,14.6637391 82.7397313,14.5237391 83.5111253,14.0663478 L83.5111253,14.0663478 L84.088802,13.7202609 L84.5691859,14.4837391 C84.8341354,14.902 85.0504384,15.2976522 85.0504384,15.3637391 C85.0504384,15.4289565 84.6334687,15.688087 84.1235495,15.9385217 C83.3504182,16.3185217 82.9438727,16.4037391 81.6538727,16.4524348 C80.1814485,16.5072174 80.0633071,16.4872174 79.0816909,15.9889565 C77.4407414,15.155913 76.6815091,13.6715652 76.8283172,11.5837391 C77.006398,9.06286957 78.6812263,7.50373913 81.2082364,7.50373913 Z M75.1380263,3.78990532 C75.8929152,3.78817391 76.9648747,4.08034783 77.3905313,4.40556522 L77.3905313,4.40556522 L77.7553798,4.67947826 L77.2437232,5.46382609 C76.8693192,6.04208696 76.6712586,6.216 76.4792788,6.12991304 C76.3368141,6.06643478 75.9441677,5.98208696 75.6036424,5.94208696 C74.7948949,5.84556522 74.1963697,6.35947826 74.1963697,7.15252174 L74.1963697,7.15252174 L74.1963697,7.69165217 L76.1404909,7.69165217 L76.1404909,9.80817391 L74.1963697,9.80817391 L74.1963697,16.3194783 L73.0062687,16.3194783 C72.3530162,16.3194783 71.7701273,16.2725217 71.7101879,16.2125217 C71.6511172,16.1533913 71.6042081,14.6881739 71.6042081,12.9568696 L71.6042081,12.9568696 L71.6042081,9.80817391 L70.3081273,9.80817391 L70.3081273,7.69165217 L71.5642485,7.69165217 L71.6754404,6.85165217 C71.8144303,5.80034783 72.0793798,5.2733913 72.8038646,4.63513043 C73.4128141,4.09773913 74.2641273,3.79165217 75.1380263,3.78990532 Z M38.0699414,4.09982609 L38.0751535,4.6346087 C38.0768909,4.92852174 38.1837394,7.3293913 38.3131737,9.97113043 C38.4426081,12.612 38.5494566,15.1215652 38.5511939,15.5467826 L38.5511939,15.5467826 L38.5564061,16.3198261 L35.9894364,16.3198261 L35.8982242,15.1389565 C35.846103,14.4902609 35.7470727,12.6772174 35.6810525,11.1111304 L35.6810525,11.1111304 L35.5594364,8.26156522 L34.2937596,10.6624348 L33.0228707,13.0641739 L31.6616384,13.0641739 L30.369901,10.7641739 C28.9087697,8.15808696 28.894002,8.15634783 28.8566485,10.7841739 C28.8453556,11.545913 28.7880222,13.1033043 28.7298202,14.2441739 L28.7298202,14.2441739 L28.6229717,16.3198261 L26.0716384,16.3198261 L26.1732747,14.4076522 C26.2143399,13.6424348 26.2944602,11.9900022 26.3742044,10.2675339 L26.4040139,9.61992147 C26.4237725,9.1881193 26.4431994,8.75832411 26.4616788,8.34330435 L26.4616788,8.34330435 L26.6493152,4.19113043 L27.945396,4.15113043 L29.2406081,4.11026087 L30.7799212,6.94852174 C31.6268909,8.5093913 32.3661434,9.73634783 32.4252141,9.67547826 C32.4851535,9.61547826 33.1905273,8.35547826 33.9897192,6.87721739 L33.9897192,6.87721739 L35.4430323,4.19113043 L36.7538808,4.14591304 L38.0699414,4.09982609 Z M59.9398283,4.11008696 L59.9398283,14.0405217 L65.1241515,14.0405217 L65.1241515,16.3196522 L61.0177062,16.3194457 C59.0031988,16.3160208 57.3497382,16.270388 57.2929394,16.2126957 C57.233,16.1535652 57.1860909,13.4057391 57.1860909,10.1074783 L57.1860909,4.11008696 L59.9398283,4.11008696 Z M68.8502101,7.68173913 L68.8502101,16.32 L67.6305737,16.32 C66.7940283,16.32 66.3831394,16.2573913 66.3292808,16.1165217 C66.3019333,16.0447987 66.2856058,15.2560482 66.2831171,14.1231602 L66.283108,13.493294 C66.2841305,12.9815793 66.2875838,12.4226731 66.2936646,11.8426087 L66.2936646,11.8426087 L66.3388364,7.77304348 L67.5949576,7.72782609 L68.8502101,7.68173913 Z M44.0743919,9.47269565 C43.7746949,9.47704348 43.4628364,9.54573913 43.1683515,9.68052174 C42.7704929,9.86313043 42.2822909,10.557913 42.2822909,10.9422609 C42.2822909,11.0509565 42.9277253,11.1109565 44.0639677,11.1109565 L44.0639677,11.1109565 L44.4554333,11.1104795 C45.7742492,11.1063611 45.8465131,11.0693623 45.8465131,10.7744348 C45.8465131,10.5883478 45.6310788,10.2222609 45.3704727,9.9613913 C45.0421091,9.63182609 44.5738869,9.464 44.0743919,9.47269565 Z M81.0814081,9.48286957 C80.5150242,9.48286957 80.2535495,9.58026087 79.8817515,9.93069565 C79.6194081,10.1767826 79.3570646,10.5428696 79.2997313,10.7437391 C79.2032105,11.0819034 79.2027637,11.1084436 80.6941242,11.11052 L81.4686919,11.11052 C82.9600525,11.1084436 82.9596056,11.0819034 82.8630848,10.7437391 C82.8057515,10.5428696 82.5434081,10.1767826 82.2810646,9.93069565 C81.9092667,9.58026087 81.6477919,9.48286957 81.0814081,9.48286957 Z M67.5289374,3.80521739 C67.6601091,3.79826087 67.7956242,3.81478261 67.9389576,3.85130435 C68.6278263,4.02434783 69.0126545,4.51565217 69.0126545,5.23478261 C69.0126545,5.74521739 68.9110182,5.95478261 68.5105535,6.29217391 C67.9528566,6.76521739 67.5124323,6.81565217 66.880897,6.47043478 C65.6299879,5.78782609 66.2623919,3.87130435 67.5289374,3.80521739 Z" id="Combined-Shape"></path>
            </g>
        </g>
    </g>
</svg>