<?xml version="1.0" encoding="UTF-8"?>
<svg width="66px" height="42px" viewBox="0 0 66 42" version="1.1" xmlns="http://www.w3.org/2000/svg" xmlns:xlink="http://www.w3.org/1999/xlink">
    <title>B338DC0E-E262-48E3-8DA5-2457066B4703</title>
    <g id="logos-aseguradoras" stroke="none" stroke-width="1" fill="none" fill-rule="evenodd">
        <g id="logos-variantes" transform="translate(-726.000000, -1415.000000)">
            <rect id="Rectangle" fill="#989898" x="0" y="1211" width="1440" height="1299"></rect>
            <g id="logo-ANA-blanco" transform="translate(726.000000, 1415.000000)" fill="#FFFFFF">
                <path d="M57.8960027,19.7681395 C60.0333324,20.3196171 65.2331514,21.8265576 65.6742811,25.265 C65.6742811,25.265 65.6750798,25.2678232 65.6763895,25.2733931 L65.6815637,25.2982663 C65.6876952,25.3312265 65.6958353,25.3882179 65.6982139,25.4671741 L65.6983843,25.5533754 C65.6797787,26.300334 65.1266773,28.4089545 60.0608027,30.8211945 C53.7459405,33.8282463 48.4567541,35.6144732 44.1951162,36.8713951 C40.1222027,38.0728855 32.6736568,40.0679786 30.2061486,40.5267746 C28.1201027,40.9147069 23.728873,41.8300816 21.4457189,41.7704816 C19.8338919,41.7284423 20.8147054,40.922689 21.9102162,40.2903257 C23.6284921,39.2982917 28.0215819,37.758665 31.076162,36.7381891 L31.781507,36.5037888 C32.0066857,36.429342 32.2212431,36.358764 32.4231243,36.2926009 L32.6275374,36.2253188 L32.6275374,36.2253188 L33.3446643,35.9860938 C34.6607657,35.5438027 36.5476798,34.8953776 38.5008634,34.2175064 L39.2844753,33.9452063 C42.4234927,32.8530744 45.5599427,31.7458699 46.6272162,31.3473066 C49.0149,30.4557009 53.4846162,28.4896983 54.8013162,27.603414 C56.3701541,26.5472874 58.1994243,24.9247832 56.3904,23.8879911 C54.8031,22.9782925 53.2713649,22.7896478 49.8539027,22.3168387 C46.4771108,21.8496171 38.5001189,21.5428366 36.2818054,21.5229699 C34.0853432,21.5031033 29.266273,21.3093145 27.9323595,21.291399 C27.0003324,21.2788936 20.2472838,20.8751744 19.3294378,20.2840522 C18.6846892,19.8688032 18.7179568,19.3394982 20.4695432,18.9141385 C26.1421541,17.5365975 44.6977865,16.3625125 57.8960027,19.7681395 Z M1.14688378,35.2952761 C1.41115135,35.2952761 1.59675405,35.3027261 1.70387027,35.3175374 C1.86895946,35.3403308 1.98222973,35.3859178 2.04359189,35.4544755 C2.10513243,35.523122 2.13581351,35.6385083 2.13581351,35.800812 L2.13517928,35.8479559 C2.13498108,35.858717 2.13474324,35.8709366 2.13447568,35.8846245 L1.6038,35.8846245 C1.60210541,35.8346917 1.59791351,35.800812 1.59131351,35.782453 C1.5848027,35.7640941 1.57178108,35.7493715 1.55242703,35.7378417 C1.52879189,35.724006 1.48705135,35.7149596 1.42738378,35.7110572 C1.37964973,35.7080062 1.28916195,35.7060337 1.15601176,35.7053668 L1.04815135,35.7051149 C0.815545946,35.7051149 0.673824324,35.7124762 0.622808108,35.7268441 C0.571881081,35.7412119 0.546462162,35.7812114 0.546462162,35.8465763 C0.546462162,35.9094578 0.571881081,35.9479495 0.622808108,35.9618739 C0.664994595,35.9732263 0.858535135,35.9841353 1.20351892,35.9946007 C1.4940973,36.0032924 1.68835135,36.0134918 1.78619189,36.0253763 C1.88403243,36.0371722 1.96198378,36.0596109 2.01995676,36.0927811 C2.08577838,36.132071 2.13224595,36.1859062 2.15953784,36.2545526 C2.18674054,36.322933 2.2002973,36.4214682 2.2002973,36.5498033 C2.2002973,36.7181379 2.17746486,36.8434576 2.1318,36.9254964 C2.09764054,36.9858059 2.04992432,37.0308607 1.98900811,37.0603946 C1.92791351,37.0901946 1.84211351,37.11015 1.73151892,37.1206155 C1.61307568,37.131081 1.39224324,37.136225 1.0692,37.136225 C0.798867568,37.136225 0.599172973,37.1293958 0.470116216,37.1154714 C0.341059459,37.101547 0.244021622,37.076625 0.179181081,37.040794 C0.111486486,37.0023023 0.0648405405,36.9517487 0.0389756757,36.8887785 C0.0130216216,36.8259856 1.42108547e-14,36.7304659 1.42108547e-14,36.6021307 L1.42108547e-14,36.5182295 L0.530675676,36.5182295 C0.529783784,36.6065653 0.547889189,36.6632385 0.584724324,36.6884266 C0.611035135,36.7051891 0.645016216,36.7149451 0.686667568,36.7179606 C0.728408108,36.7210647 0.859872973,36.7234594 1.08106216,36.7251445 C1.31286486,36.724435 1.45191081,36.7228385 1.49846757,36.72071 C1.54502432,36.718404 1.58185946,36.7116635 1.60906216,36.7003111 C1.64946486,36.6838147 1.66971081,36.6388486 1.66971081,36.5655016 C1.66971081,36.5121986 1.65544054,36.4766337 1.6269,36.4588069 C1.59835946,36.4408027 1.54020811,36.4310467 1.45235676,36.4292729 C1.38475135,36.4292729 1.24178108,36.4240402 1.02317838,36.4135747 C0.799313514,36.4031092 0.653578378,36.3969009 0.585972973,36.3952158 C0.45432973,36.3908699 0.3531,36.3784533 0.282551351,36.3578771 C0.211824324,36.3373009 0.156705405,36.3040419 0.117194595,36.2578342 C0.0496783784,36.1809395 0.0158756757,36.052693 0.0158756757,35.8728287 C0.0158756757,35.6712351 0.0544945946,35.5288869 0.131732432,35.4459612 C0.190508108,35.3813059 0.280945946,35.3399761 0.403045946,35.322238 C0.524967568,35.3043225 0.773002703,35.2952761 1.14688378,35.2952761 Z M8.26177297,35.2966951 C8.48822432,35.2966951 8.66731622,35.3022826 8.79895946,35.313635 C8.9306027,35.3249874 9.03905676,35.3437011 9.12414324,35.3699535 C9.26202973,35.412791 9.34533243,35.5052952 9.37431892,35.6475548 C9.38841081,35.7182411 9.3959027,35.815712 9.39670541,35.9395239 L8.84899459,35.9395239 C8.8481027,35.889059 8.84507027,35.8546471 8.83971892,35.8368203 C8.83454595,35.8189048 8.82357568,35.8038274 8.80680811,35.7916768 C8.77603784,35.769859 8.71208919,35.7562006 8.61460541,35.7509679 C8.54550608,35.7471099 8.45317855,35.7445988 8.3376228,35.7435844 L8.21432432,35.7430744 C8.02470811,35.7430744 7.88931892,35.747509 7.80806757,35.7562006 C7.72690541,35.7648923 7.67142973,35.7812114 7.64155135,35.8047144 C7.61167297,35.8291042 7.59142703,35.8691037 7.58099189,35.9244465 C7.57037838,35.9799668 7.56511622,36.0748657 7.56511622,36.2092318 C7.56511622,36.360183 7.57037838,36.4657247 7.58099189,36.5254135 C7.59142703,36.5853682 7.61167297,36.6274962 7.64155135,36.6518861 C7.67142973,36.6753891 7.71013784,36.6895796 7.75803243,36.6944576 C7.80592703,36.6992469 7.9571027,36.7033266 8.21164865,36.7067855 C8.46093243,36.7051891 8.61246486,36.7027058 8.66597838,36.6996016 C8.71949189,36.6965861 8.76248108,36.6884266 8.79494595,36.6753891 C8.82134595,36.6640367 8.8398973,36.6455891 8.85086757,36.6197802 C8.86183784,36.5940599 8.86745676,36.5553908 8.86745676,36.5039503 C8.86745676,36.4960569 8.86701081,36.4795605 8.86611892,36.4542837 L8.14582703,36.4542837 L8.14582703,36.0967722 L9.39804324,36.0967722 C9.39982703,36.1255079 9.40062973,36.1415609 9.40062973,36.1451972 C9.40062973,36.3973444 9.39411892,36.5873194 9.38091892,36.714679 C9.35987027,36.9208844 9.24222973,37.0455833 9.02808649,37.089219 C8.93586486,37.107578 8.83035405,37.1199946 8.71137568,37.126469 C8.5923973,37.1331208 8.4108973,37.136225 8.16687568,37.136225 C7.85792432,37.136225 7.63932162,37.1279768 7.51115676,37.1113917 C7.38299189,37.0948065 7.28167297,37.061725 7.20702162,37.0118809 C7.15600541,36.9779124 7.11702973,36.9343654 7.08982703,36.8810624 C7.06253514,36.8277594 7.04380541,36.7575165 7.0331027,36.6700677 C7.02266757,36.5889159 7.01740541,36.4284747 7.01740541,36.1883895 C7.01740541,36.0251103 7.02177568,35.9020965 7.03051622,35.8190822 C7.03934595,35.7361566 7.05647027,35.6619226 7.08188919,35.5965577 C7.13361892,35.4585553 7.24385676,35.3748314 7.41233514,35.3451201 C7.59677838,35.3129255 7.87986486,35.2966951 8.26177297,35.2966951 Z M11.4010541,35.3227701 L11.4010541,36.1438669 C11.4036405,36.3324229 11.4102405,36.4515343 11.4207649,36.5012896 C11.4347676,36.5711778 11.4802541,36.6170308 11.5570459,36.6388486 C11.6338378,36.6605778 11.789027,36.6714867 12.0225243,36.6714867 C12.2121405,36.6714867 12.3435162,36.6659879 12.4169189,36.6551677 C12.4901432,36.64417 12.5422297,36.6226183 12.573,36.5903349 C12.5930676,36.5677188 12.6073378,36.5401361 12.6157216,36.507764 C12.6240162,36.4754807 12.6303486,36.4201378 12.6348081,36.3414693 C12.6391784,36.2612931 12.6413189,36.1953074 12.6413189,36.1438669 L12.6413189,35.3227701 L13.1891189,35.3227701 L13.1891189,36.1438669 C13.1830541,36.4292729 13.1737784,36.6160552 13.1614703,36.7042135 C13.1395297,36.8543666 13.0675541,36.9644315 12.9455432,37.0343196 C12.8761541,37.0744077 12.7783135,37.101547 12.6518432,37.1154714 C12.5255514,37.1293958 12.3178297,37.136225 12.0291243,37.136225 C11.8122162,37.136225 11.6449865,37.1324113 11.5274351,37.1245179 C11.4097946,37.1167131 11.3074946,37.1027 11.2206243,37.0827446 C11.0283324,37.0373351 10.9160432,36.9220374 10.8834892,36.7369403 C10.8712703,36.666254 10.8636,36.6021307 10.8605676,36.5444819 C10.8573568,36.4868331 10.8550378,36.3533539 10.8532541,36.1438669 L10.8532541,35.3227701 L11.4010541,35.3227701 Z M19.5573162,35.2966951 C19.9452892,35.2966951 20.2121432,35.306185 20.3578784,35.3255195 C20.5676514,35.353457 20.6963514,35.4525243 20.7437108,35.6227214 C20.7760865,35.7396155 20.7924081,35.937484 20.7924081,36.2158836 C20.7924081,36.4952587 20.7760865,36.6933046 20.7437108,36.8103761 C20.6963514,36.9805732 20.5676514,37.0797292 20.3578784,37.107578 C20.2121432,37.1267351 19.947073,37.136225 19.5625784,37.136225 C19.1710378,37.136225 18.9024892,37.1267351 18.7567541,37.107578 C18.5468919,37.0797292 18.4183703,36.9805732 18.3710108,36.8103761 C18.3384568,36.6933046 18.3222243,36.4917111 18.3222243,36.2053294 C18.3222243,35.9330495 18.3384568,35.7388173 18.3710108,35.6227214 C18.4183703,35.4525243 18.5468919,35.353457 18.7567541,35.3255195 C18.9015973,35.306185 19.1684514,35.2966951 19.5573162,35.2966951 Z M23.3378676,35.2952761 C23.6021351,35.2952761 23.7877378,35.3027261 23.8948541,35.3175374 C24.0599432,35.3403308 24.1731243,35.3859178 24.2346649,35.4544755 C24.296027,35.523122 24.3267973,35.6385083 24.3267973,35.800812 L24.3262027,35.8479559 C24.3260045,35.858717 24.3257568,35.8709366 24.3254595,35.8846245 L23.7947838,35.8846245 C23.7930892,35.8346917 23.7888973,35.800812 23.7822973,35.782453 C23.7756973,35.7640941 23.7627649,35.7493715 23.7435,35.7378417 C23.7197757,35.724006 23.6780351,35.7149596 23.6183676,35.7110572 C23.5706335,35.7080062 23.4802028,35.7060337 23.3470298,35.7053668 L23.2391351,35.7051149 C23.0065297,35.7051149 22.8647189,35.7124762 22.8138811,35.7268441 C22.7629541,35.7412119 22.7375351,35.7812114 22.7375351,35.8465763 C22.7375351,35.9094578 22.7629541,35.9479495 22.8138811,35.9618739 C22.8559784,35.9732263 23.0496081,35.9841353 23.3945027,35.9946007 C23.6851703,36.0032924 23.8792459,36.0134918 23.9771757,36.0253763 C24.0751054,36.0371722 24.1530568,36.0596109 24.2108514,36.0927811 C24.276673,36.132071 24.3232297,36.1859062 24.3505216,36.2545526 C24.3776351,36.322933 24.3912811,36.4214682 24.3912811,36.5498033 C24.3912811,36.7181379 24.3684486,36.8434576 24.3227838,36.9254964 C24.2886243,36.9858059 24.2409973,37.0308607 24.1799027,37.0603946 C24.1189865,37.0901946 24.0331865,37.11015 23.9225919,37.1206155 C23.8040595,37.131081 23.583227,37.136225 23.260273,37.136225 C22.9898514,37.136225 22.7901568,37.1293958 22.6611,37.1154714 C22.5320432,37.101547 22.4350946,37.076625 22.3700757,37.040794 C22.3024703,37.0023023 22.2557351,36.9517487 22.2298703,36.8887785 C22.2040054,36.8259856 22.191073,36.7304659 22.191073,36.6021307 L22.191073,36.5182295 L22.7216595,36.5182295 C22.7207676,36.6065653 22.7387838,36.6632385 22.7756189,36.6884266 C22.8020189,36.7051891 22.836,36.7149451 22.8777405,36.7179606 C22.9193919,36.7210647 23.0508568,36.7234594 23.2720459,36.7251445 C23.5037595,36.724435 23.6428946,36.7228385 23.6894514,36.72071 C23.7360081,36.718404 23.7728432,36.7116635 23.8001351,36.7003111 C23.8404486,36.6838147 23.8606054,36.6388486 23.8606054,36.5655016 C23.8606054,36.5121986 23.8463351,36.4766337 23.8178838,36.4588069 C23.7893432,36.4408027 23.7311919,36.4310467 23.6434297,36.4292729 C23.5757351,36.4292729 23.4326757,36.4240402 23.214073,36.4135747 C22.9903865,36.4031092 22.8445622,36.3969009 22.7769568,36.3952158 C22.6452243,36.3908699 22.544173,36.3784533 22.4735351,36.3578771 C22.4028081,36.3373009 22.3476892,36.3040419 22.3081784,36.2578342 C22.240573,36.1809395 22.2067703,36.052693 22.2067703,35.8728287 C22.2067703,35.6712351 22.2454784,35.5288869 22.3227162,35.4459612 C22.3814919,35.3813059 22.4719297,35.3399761 22.5939405,35.322238 C22.7159514,35.3043225 22.9639865,35.2952761 23.3378676,35.2952761 Z M5.62667838,35.3227701 L5.62667838,35.7430744 L4.17557027,35.7430744 L4.17557027,36.0010751 L5.55300811,36.0010751 L5.55300811,36.3938854 L4.17557027,36.3938854 L4.17557027,36.6806218 L5.6372027,36.6806218 L5.6372027,37.11015 L3.6357973,37.11015 L3.6357973,35.3227701 L5.62667838,35.3227701 Z M16.0019676,35.3227701 C16.3126135,35.3237457 16.4987514,35.3269386 16.5602027,35.3327034 C16.6216541,35.3383796 16.6808757,35.3586898 16.7380459,35.3936338 C16.8064541,35.4346088 16.8533676,35.491016 16.8788757,35.5631214 C16.9042946,35.6351381 16.9170486,35.7483959 16.9170486,35.9029834 C16.9170486,36.0330037 16.9089324,36.1286121 16.8926108,36.1896312 C16.8764676,36.2508276 16.8459649,36.2996961 16.8011919,36.3362366 C16.7528514,36.3755265 16.680073,36.4026658 16.5825892,36.4175658 C16.6976432,36.4261688 16.7801432,36.4588956 16.8301784,36.5156575 C16.8590757,36.5498033 16.8775378,36.5910444 16.8853865,36.6395581 C16.8933243,36.6878058 16.8972486,36.7893564 16.8972486,36.9438553 L16.8972486,37.11015 L16.3573865,37.11015 L16.3573865,37.0145416 C16.3573865,36.9150309 16.3536405,36.8439898 16.3462378,36.8018618 C16.3387459,36.7594677 16.3249216,36.727007 16.3048541,36.7042135 C16.2846081,36.6832826 16.2566919,36.669979 16.2211946,36.6643028 C16.1856081,36.6586266 16.1113135,36.6557885 15.9979541,36.6557885 L15.2264676,36.6557885 L15.2264676,37.11015 L14.6785784,37.11015 L14.6785784,35.3227701 L16.0019676,35.3227701 Z M19.6781007,35.7618177 L19.5586541,35.7614334 C19.2680757,35.7614334 19.0933541,35.7688834 19.0345784,35.7836947 C18.966973,35.8011667 18.9226459,35.8402792 18.9015973,35.9009436 C18.8804595,35.9616079 18.8699351,36.082227 18.8699351,36.2629782 C18.8699351,36.3721562 18.8757324,36.4510908 18.8871486,36.500048 C18.9090892,36.5907784 18.9753568,36.6426623 19.0859514,36.6557885 C19.1675595,36.666254 19.3260486,36.6714867 19.5612405,36.6714867 C19.781627,36.6714867 19.9282541,36.667673 20.0010324,36.6597796 C20.0738108,36.6518861 20.1279486,36.6344141 20.163,36.6072748 C20.1946622,36.5828849 20.2161568,36.5468766 20.227573,36.4994271 C20.2389,36.4517116 20.2446081,36.3738414 20.2446081,36.2655503 C20.2446081,36.1373925 20.240327,36.0430258 20.2314973,35.9828049 C20.2226676,35.922584 20.2069703,35.8771745 20.1841378,35.8465763 C20.1550622,35.808262 20.1072568,35.7844042 20.0405432,35.7752691 C19.9849486,35.7675826 19.8641345,35.7630988 19.6781007,35.7618177 Z M15.9953676,35.7693268 L15.2264676,35.7693268 L15.2264676,36.2092318 L15.9966162,36.2092318 C16.1309351,36.2067484 16.2111162,36.2042651 16.2369811,36.2020478 C16.2628459,36.1999193 16.2850541,36.1931788 16.303427,36.1817377 C16.3272405,36.1670151 16.3438297,36.1448425 16.3534622,36.1155746 C16.3631838,36.0863954 16.368,36.0422275 16.368,35.9828049 C16.368,35.9243579 16.3624703,35.8805447 16.3515,35.8518977 C16.3405297,35.8230733 16.3214432,35.8020536 16.2942405,35.7889274 C16.2749757,35.7802358 16.2518757,35.775003 16.2251189,35.7733179 C16.198273,35.7715441 16.1217486,35.7701251 15.9953676,35.7693268 Z M7.7253,24.119562 L11.0830946,33.7519725 L7.3614973,33.7519725 L7.01419459,32.5348726 L4.38418378,32.5348726 L4.1027027,33.7519725 L0.381372973,33.7519725 L3.80525676,24.119562 L7.7253,24.119562 Z M32.4200027,24.119562 L35.7777973,33.7519725 L32.0561108,33.7519725 L31.7087189,32.5348726 L29.0788865,32.5348726 L28.7974054,33.7519725 L25.0760757,33.7519725 L28.4999595,24.119562 L32.4200027,24.119562 Z M16.7426838,24.119562 L19.7318595,29.0779825 L19.7318595,24.119562 L23.0776135,24.119562 L23.0776135,33.7519725 L19.7318595,33.7519725 L16.7426838,28.7688961 L16.7426838,33.7519725 L13.3949676,33.7519725 L13.3949676,24.119562 L16.7426838,24.119562 Z M5.73218919,26.9755739 L4.94661081,30.2817788 L6.46817838,30.2817788 L5.73218919,26.9755739 Z M30.4268027,26.9755739 L29.6412243,30.2817788 L31.1628811,30.2817788 L30.4268027,26.9755739 Z M59.3871568,0.0219065564 C63.0259865,0.0219065564 65.9758297,2.95525654 65.9758297,6.57374073 C65.9758297,10.1922249 63.0259865,13.1255749 59.3871568,13.1255749 C55.7484162,13.1255749 52.7983946,10.1922249 52.7983946,6.57374073 C52.7983946,2.95525654 55.7484162,0.0219065564 59.3871568,0.0219065564 Z" id="Combined-Shape"></path>
            </g>
        </g>
    </g>
</svg>