<?xml version="1.0" encoding="UTF-8"?>
<svg width="149px" height="28px" viewBox="0 0 149 28" version="1.1" xmlns="http://www.w3.org/2000/svg" xmlns:xlink="http://www.w3.org/1999/xlink">
    <title>D894B3EA-20C6-4653-BDDC-6071F8986D8E</title>
    <g id="logos-aseguradoras" stroke="none" stroke-width="1" fill="none" fill-rule="evenodd">
        <g id="logos-variantes" transform="translate(-328.000000, -1618.000000)">
            <rect id="Rectangle" fill="#989898" x="0" y="1211" width="1440" height="1299"></rect>
            <g id="logo-potosi-blanco" transform="translate(328.000000, 1618.000000)" fill="#FFFFFF">
                <path d="M13.454075,14.3475 C17.042575,17.9355 17.042575,23.77425 13.454075,27.36225 C13.161325,27.65525 12.777325,27.80175 12.393575,27.80175 C12.009825,27.80175 11.625825,27.65525 11.333075,27.36225 C10.747075,26.7765 10.747075,25.827 11.333075,25.24125 C13.751575,22.8225 13.751575,18.88725 11.333075,16.4685 C8.914575,14.0505 4.979575,14.05 2.560575,16.4685 C1.974575,17.05425 1.025075,17.054 0.439325,16.46825 C-0.146425,15.8825 -0.146425,14.9325 0.439575,14.347 C4.027825,10.759 9.866325,10.759 13.454075,14.3475 Z M32.69695,14.347 C33.28295,14.93275 33.28295,15.8825 32.6972,16.46825 C32.11145,17.05425 31.16145,17.054 30.57595,16.4685 C28.1572,14.04975 24.2222,14.0505 21.80345,16.4685 C19.38495,18.88725 19.38495,22.8225 21.80345,25.24125 C22.38945,25.827 22.38945,26.7765 21.80345,27.36225 C21.5107,27.65525 21.1267,27.80175 20.74295,27.80175 C20.3592,27.80175 19.9752,27.65525 19.68245,27.36225 C16.09395,23.77425 16.09395,17.9355 19.68245,14.3475 C23.2702,10.75925 29.1092,10.759 32.69695,14.347 Z M92.055875,11.5858 C96.865875,11.5858 99.494125,15.1843 99.494125,19.52005 C99.494125,24.66155 96.390875,27.76805 91.809125,27.76805 C87.162125,27.76805 84.427875,24.2528 84.427875,19.78355 C84.427875,15.0988 87.441375,11.5858 92.055875,11.5858 Z M120.1418,11.5858 C124.9518,11.5858 127.58005,15.1843 127.58005,19.52005 C127.58005,24.66155 124.4768,27.76805 119.89505,27.76805 C115.24805,27.76805 112.5138,24.2528 112.5138,19.78355 C112.5138,15.0988 115.5273,11.5858 120.1418,11.5858 Z M135.433225,11.597475 C137.219975,11.597475 138.510225,11.952225 139.434725,12.385975 L138.651725,15.227475 C138.029975,14.931225 136.901975,14.483475 135.380475,14.483475 C133.837475,14.483475 133.101225,15.197475 133.101225,15.998975 C133.101225,16.994475 133.968975,17.434475 136.001975,18.202225 C138.776475,19.239225 140.060975,20.679225 140.060975,22.894725 C140.060975,25.511225 138.057725,27.756475 133.743725,27.756475 C131.967475,27.756475 130.190725,27.273475 129.317475,26.782475 L130.033725,23.854975 C130.972475,24.358725 132.446225,24.839225 133.961725,24.839225 C135.589225,24.839225 136.451975,24.163475 136.451975,23.132225 C136.451975,22.169975 135.704225,21.602725 133.828225,20.941725 C131.213975,20.014475 129.505475,18.589725 129.505475,16.300725 C129.505475,13.628975 131.748725,11.597475 135.433225,11.597475 Z M52.315725,11.84155 L52.315725,14.7438 L46.204975,14.7438 L46.204975,18.0083 L51.971225,18.0083 L51.971225,20.8833 L46.204975,20.8833 L46.204975,24.61005 L52.651225,24.61005 L52.651225,27.51255 L42.661975,27.51255 L42.661975,11.84155 L52.315725,11.84155 Z M58.620425,11.84155 L58.620425,24.54255 L64.855425,24.54255 L64.855425,27.51255 L55.077425,27.51255 L55.077425,11.84155 L58.620425,11.84155 Z M76.436825,11.719475 C78.611075,11.719475 80.182825,12.142225 81.232325,12.984975 C82.235325,13.763475 82.893825,15.071725 82.893825,16.608975 C82.893825,18.145225 82.396825,19.453475 81.463075,20.319225 C80.252575,21.456475 78.447575,21.981975 76.373575,21.981975 C75.904075,21.981975 75.484575,21.950725 75.165075,21.901475 L75.165075,27.512475 L71.654075,27.512475 L71.654075,12.048975 C72.744075,11.866975 74.278575,11.719475 76.436825,11.719475 Z M112.038575,11.84165 L112.038575,14.8159 L107.749825,14.8159 L107.749825,27.5124 L104.206575,27.5124 L104.206575,14.8159 L99.977575,14.8159 L99.977575,11.84165 L112.038575,11.84165 Z M146.01595,11.84145 L146.01595,27.51245 L142.47295,27.51245 L142.47295,11.84145 L146.01595,11.84145 Z M26.189975,16.462875 C27.313975,16.462875 28.437975,16.891875 29.295475,17.749375 C31.010475,19.464375 31.010475,22.245125 29.295475,23.960375 C28.437975,24.817875 27.313975,25.246625 26.189975,25.246625 C25.065975,25.246625 23.941975,24.817875 23.084475,23.960375 C21.369475,22.245125 21.369475,19.464375 23.084475,17.749375 C23.941975,16.891875 25.065975,16.462875 26.189975,16.462875 Z M6.9468,16.462875 C8.07055,16.462875 9.19455,16.891875 10.0523,17.749375 C11.7673,19.464375 11.7673,22.245125 10.0523,23.960375 C9.19455,24.817875 8.07055,25.246625 6.9468,25.246625 C5.8228,25.246625 4.6988,24.817875 3.84105,23.960375 C2.12605,22.245125 2.12605,19.464375 3.84105,17.749375 C4.6988,16.891875 5.8228,16.462875 6.9468,16.462875 Z M120.06155,14.40305 C117.6618,14.40305 116.2593,16.6688 116.2593,19.71655 C116.2593,22.7863 117.70605,24.9508 120.07005,24.9508 C122.4653,24.9508 123.8348,22.68755 123.8348,19.64005 C123.8348,16.81555 122.49905,14.40305 120.06155,14.40305 Z M91.975625,14.40305 C89.575875,14.40305 88.173375,16.6688 88.173375,19.71655 C88.173375,22.7863 89.620125,24.9508 91.984125,24.9508 C94.379375,24.9508 95.748875,22.68755 95.748875,19.64005 C95.748875,16.81555 94.413125,14.40305 91.975625,14.40305 Z M6.9468,18.712875 C6.37455,18.712875 5.8368,18.935875 5.43205,19.340375 C4.59705,20.175625 4.59705,21.534125 5.43205,22.369375 C5.8368,22.773875 6.37455,22.996625 6.9468,22.996625 C7.5188,22.996625 8.05655,22.773875 8.4613,22.369375 C8.8658,21.964875 9.08855,21.426875 9.08855,20.854625 C9.08855,20.282625 8.8658,19.744875 8.4613,19.340375 C8.05655,18.935875 7.5188,18.712875 6.9468,18.712875 Z M26.189975,18.712875 C25.617975,18.712875 25.079975,18.935875 24.675225,19.340375 C23.840475,20.175625 23.840475,21.534125 24.675475,22.369375 C25.079975,22.773875 25.617975,22.996625 26.189975,22.996625 C26.761975,22.996625 27.299725,22.773875 27.704475,22.369375 C28.108975,21.964875 28.331725,21.426875 28.331725,20.854625 C28.331725,20.282625 28.108975,19.744875 27.704475,19.340375 C27.299725,18.935875 26.761975,18.712875 26.189975,18.712875 Z M76.611575,14.409725 C75.911825,14.409725 75.423075,14.467225 75.165075,14.526725 L75.165075,19.156725 C75.459325,19.224475 75.824325,19.250475 76.341575,19.250475 C78.223075,19.250475 79.385075,18.298225 79.385075,16.710225 C79.385075,15.267725 78.398325,14.409725 76.611575,14.409725 Z M24.26675,2.891725 C25.095,2.891725 25.76675,3.563475 25.76675,4.391725 C25.76675,9.466475 21.63825,13.594975 16.56375,13.594975 C11.4895,13.594975 7.36075,9.466725 7.3605,4.392225 C7.3605,3.563975 8.032,2.892225 8.86075,2.892225 C9.689,2.892225 10.36075,3.563725 10.36075,4.392225 C10.36075,7.812475 13.1435,10.594975 16.56375,10.594975 C19.984,10.594975 22.76675,7.812225 22.76675,4.391725 C22.76675,3.563475 23.43825,2.891725 24.26675,2.891725 Z M148.19095,8.1367 L145.34445,11.00445 L142.51095,11.00445 L144.4707,8.1367 L148.19095,8.1367 Z M16.56375,5.24025268e-14 C18.98925,5.24025268e-14 20.9555,1.96625 20.9555,4.39175 C20.9555,6.8175 18.98925,8.78375 16.56375,8.78375 C14.138,8.78375 12.17175,6.8175 12.17175,4.39175 C12.17175,1.96625 14.138,5.24025268e-14 16.56375,5.24025268e-14 Z M58.30225,0.348225 C58.8925,0.348225 59.44375,0.468725 59.95575,0.710225 C60.445,0.951475 60.926,1.342725 61.399,1.884225 L60.587,2.661975 C59.96725,1.836975 59.21225,1.424225 58.32175,1.424225 C57.52275,1.424225 56.8525,1.699975 56.31125,2.251225 C55.76975,2.792475 55.49925,3.470975 55.49925,4.286225 C55.49925,5.127725 55.80075,5.820475 56.40425,6.365225 C56.9685,6.870725 57.57975,7.123475 58.23875,7.123475 C58.7995,7.123475 59.3035,6.934225 59.75025,6.556225 C60.197,6.174475 60.4465,5.717975 60.49875,5.186225 L58.6155,5.186225 L58.6155,4.114975 L61.7365,4.114975 L61.7365,4.364475 C61.7365,4.931975 61.66975,5.433975 61.536,5.870975 C61.4055,6.275725 61.18525,6.653725 60.8755,7.005975 C60.17425,7.795475 59.28225,8.189975 58.19975,8.189975 C57.14275,8.189975 56.23775,7.808225 55.48475,7.045225 C54.73125,6.278725 54.3545,5.359225 54.3545,4.286225 C54.3545,3.190475 54.73775,2.260975 55.50425,1.497725 C56.2705,0.731475 57.20325,0.348225 58.30225,0.348225 Z M45.255675,0.3481 C46.126425,0.3481 46.806425,0.7721 47.295675,1.6201 L46.371175,2.16785 C46.197925,1.86785 46.033425,1.67235 45.876925,1.58085 C45.713925,1.4766 45.503425,1.42435 45.245925,1.42435 C44.929425,1.42435 44.666925,1.5141 44.458175,1.69335 C44.249425,1.8696 44.145175,2.09135 44.145175,2.3586 C44.145175,2.72735 44.419175,3.02385 44.967175,3.2491 L45.720425,3.55735 C46.333425,3.8051 46.781925,4.1076 47.065675,4.46485 C47.349425,4.82185 47.491175,5.25985 47.491175,5.77835 C47.491175,6.47285 47.259675,7.04685 46.796675,7.50035 C46.330175,7.95685 45.751175,8.1851 45.060175,8.1851 C44.404675,8.1851 43.863175,7.99085 43.435925,7.6031 C43.015175,7.21485 42.752425,6.66835 42.648175,5.9641 L43.802675,5.7096 C43.854675,6.15335 43.946425,6.45985 44.076675,6.62935 C44.311425,6.9556 44.653925,7.1186 45.103925,7.1186 C45.459425,7.1186 45.754675,6.9996 45.989425,6.76135 C46.224175,6.52335 46.341675,6.2216 46.341675,5.85635 C46.341675,5.7096 46.321425,5.5751 46.280425,5.45285 C46.239675,5.3306 46.175925,5.2181 46.089675,5.11535 C46.003175,5.0126 45.891675,4.9166 45.754675,4.8266 C45.617675,4.7371 45.454675,4.65135 45.265425,4.56985 L44.536675,4.2666 C43.502675,3.8296 42.985925,3.19035 42.985925,2.34885 C42.985925,1.7816 43.202675,1.30685 43.636425,0.92535 C44.070175,0.5406 44.609925,0.3481 45.255675,0.3481 Z M64.40995,0.494875 L64.40995,5.044375 C64.40995,5.693375 64.51595,6.167875 64.7277,6.468125 C65.0442,6.901875 65.4892,7.118625 66.0632,7.118625 C66.6407,7.118625 67.08745,6.901875 67.40395,6.468125 C67.6157,6.177625 67.7217,5.703125 67.7217,5.044375 L67.7217,0.494875 L68.8617,0.494875 L68.8617,5.357375 C68.8617,6.153375 68.61345,6.808875 68.11795,7.323875 C67.56045,7.898125 66.87545,8.185125 66.0632,8.185125 C65.2512,8.185125 64.56795,7.898125 64.0137,7.323875 C63.51795,6.808875 63.26995,6.153375 63.26995,5.357375 L63.26995,0.494875 L64.40995,0.494875 Z M88.0157,0.3481 C88.88645,0.3481 89.56645,0.7721 90.0557,1.6201 L89.1312,2.16785 C88.95795,1.86785 88.79345,1.67235 88.63695,1.58085 C88.47395,1.4766 88.26345,1.42435 88.00595,1.42435 C87.68945,1.42435 87.42695,1.5141 87.2182,1.69335 C87.00945,1.8696 86.9052,2.09135 86.9052,2.3586 C86.9052,2.72735 87.1792,3.02385 87.7272,3.2491 L88.48045,3.55735 C89.09345,3.8051 89.54195,4.1076 89.8257,4.46485 C90.10945,4.82185 90.2512,5.25985 90.2512,5.77835 C90.2512,6.47285 90.0197,7.04685 89.5567,7.50035 C89.0902,7.95685 88.5112,8.1851 87.8202,8.1851 C87.1647,8.1851 86.6232,7.99085 86.19595,7.6031 C85.7752,7.21485 85.51245,6.66835 85.4082,5.9641 L86.5627,5.7096 C86.6147,6.15335 86.70645,6.45985 86.8367,6.62935 C87.07145,6.9556 87.41395,7.1186 87.86395,7.1186 C88.21945,7.1186 88.5147,6.9996 88.74945,6.76135 C88.9842,6.52335 89.1017,6.2216 89.1017,5.85635 C89.1017,5.7096 89.08145,5.5751 89.04045,5.45285 C88.9997,5.3306 88.93595,5.2181 88.8497,5.11535 C88.7632,5.0126 88.6517,4.9166 88.5147,4.8266 C88.3777,4.7371 88.2147,4.65135 88.02545,4.56985 L87.2967,4.2666 C86.2627,3.8296 85.74595,3.19035 85.74595,2.34885 C85.74595,1.7816 85.9627,1.30685 86.39645,0.92535 C86.8302,0.5406 87.36995,0.3481 88.0157,0.3481 Z M80.32315,0.35295 C81.3994,0.35295 82.3224,0.7377 83.09215,1.50745 C83.8649,2.27745 84.2514,3.20195 84.2514,4.2812 C84.2514,5.3672 83.8634,6.28845 83.08715,7.0452 C82.30765,7.8052 81.36665,8.18495 80.2644,8.18495 C79.2894,8.18495 78.41365,7.84745 77.6374,7.17245 C76.7829,6.42545 76.35565,5.4472 76.35565,4.2372 C76.35565,3.17395 76.7454,2.26095 77.5249,1.4977 C78.30115,0.7347 79.2339,0.35295 80.32315,0.35295 Z M53.134075,0.4949 L53.134075,1.56615 L50.106075,1.56615 L50.106075,3.38115 L53.045825,3.38115 L53.045825,4.4524 L50.106075,4.4524 L50.106075,6.9769 L53.134075,6.9769 L53.134075,8.04815 L48.966075,8.04815 L48.966075,0.4949 L53.134075,0.4949 Z M72.10715,0.494875 C73.10515,0.494875 73.8259,0.682375 74.26965,1.057375 C74.75865,1.474875 75.00315,2.026125 75.00315,2.710875 C75.00315,3.245875 74.8499,3.705875 74.5434,4.090625 C74.2369,4.475375 73.83265,4.721625 73.3304,4.829125 L75.6684,8.048125 L74.2744,8.048125 L72.1169,4.956375 L71.91165,4.956375 L71.91165,8.048125 L70.77165,8.048125 L70.77165,0.494875 L72.10715,0.494875 Z M80.3084,1.4242 C79.5224,1.4242 78.85865,1.6982 78.3174,2.24645 C77.7759,2.7877 77.5054,3.4562 77.5054,4.25195 C77.5054,5.08695 77.7859,5.77345 78.34665,6.31145 C78.90465,6.8497 79.54865,7.1187 80.27915,7.1187 C81.07165,7.1187 81.7399,6.8447 82.28465,6.29695 C82.8294,5.74245 83.1019,5.06745 83.1019,4.27145 C83.1019,3.46595 82.8329,2.79095 82.29465,2.24645 C81.7599,1.6982 81.09765,1.4242 80.3084,1.4242 Z M16.56375,2.25 C15.3825,2.25 14.42175,3.211 14.42175,4.39175 C14.42175,5.573 15.3825,6.53375 16.56375,6.53375 C17.74475,6.53375 18.7055,5.573 18.7055,4.39175 C18.7055,3.211 17.74475,2.25 16.56375,2.25 Z M72.31765,1.566125 L71.91165,1.566125 L71.91165,3.963375 L72.2734,3.963375 C73.35315,3.963375 73.8929,3.550875 73.8929,2.725625 C73.8929,1.952625 73.36765,1.566125 72.31765,1.566125 Z" id="Combined-Shape"></path>
            </g>
        </g>
    </g>
</svg>