<?xml version="1.0" encoding="UTF-8"?>
<svg width="153px" height="34px" viewBox="0 0 153 34" version="1.1" xmlns="http://www.w3.org/2000/svg" xmlns:xlink="http://www.w3.org/1999/xlink">
    <title>B7871B78-71EC-450C-A240-2D02755AE893</title>
    <g id="logos-aseguradoras" stroke="none" stroke-width="1" fill="none" fill-rule="evenodd">
        <g id="logos-variantes" transform="translate(-954.000000, -3111.000000)" fill="#8A98A9">
            <g id="logo_seguros-monterrey-gris" transform="translate(954.000000, 3111.000000)">
                <path d="M32.3465263,0.114526316 C33.2144211,0.114526316 33.9176842,0.817789474 33.9176842,1.68568421 L33.9176842,32.2194737 C33.9176842,33.0873684 33.2144211,33.7924211 32.3465263,33.7924211 L1.81452632,33.7924211 C0.944842105,33.7924211 0.241578947,33.0873684 0.241578947,32.2194737 L0.241578947,1.68568421 C0.241578947,0.817789474 0.944842105,0.114526316 1.81452632,0.114526316 L32.3465263,0.114526316 Z M68.1198947,21.0585263 C71.3194737,21.0585263 73.3898947,23.2094737 73.3898947,26.5378947 C73.3898947,29.9021053 71.0850526,32.3429474 67.9087368,32.3429474 C64.7467368,32.3429474 62.7031579,30.1723158 62.7031579,26.8152632 C62.7031579,23.4778947 64.9829474,21.0585263 68.1198947,21.0585263 Z M114.302632,21.1855789 C116.655789,21.1855789 117.953158,22.2288421 117.953158,24.1221053 C117.953158,25.3997895 117.146105,26.5289474 115.834421,27.1015789 L117.425263,29.444 C118.064105,30.3924211 118.565158,30.9722105 119.381158,31.3283158 L119.459895,31.3587368 L119.459895,32.0226316 L119.404421,32.0602105 C119.214737,32.1908421 118.851474,32.3429474 118.436316,32.3429474 C117.604211,32.3429474 117.079895,31.9438947 116.186947,30.6322105 L114.095053,27.5221053 C113.613684,27.574 113.123368,27.5722105 112.602632,27.5149474 L112.602632,31.0115789 C113.248632,31.1243158 113.708526,31.2227368 114.003789,31.3229474 L114.096842,31.3533684 L114.096842,32.1657895 L109.420947,32.1657895 L109.420947,32.0315789 C109.420947,31.3372632 109.802105,31.1887368 110.881158,30.9954737 L110.881158,22.4185263 C109.818211,22.2270526 109.471053,22.0856842 109.471053,21.3681053 L109.471053,21.2356842 L111.613053,21.2356842 C111.996,21.2356842 112.625895,21.2213684 113.193158,21.2088421 C113.663789,21.1963158 114.091474,21.1855789 114.302632,21.1855789 Z M126.061263,21.1855789 C128.414421,21.1855789 129.71,22.2288421 129.71,24.1221053 C129.71,25.3997895 128.902947,26.5289474 127.591263,27.1015789 L129.185684,29.444 C129.824526,30.3924211 130.322,30.9722105 131.139789,31.3283158 L131.220316,31.3587368 L131.220316,32.0226316 L131.161263,32.0602105 C130.976947,32.1908421 130.608316,32.3429474 130.194947,32.3429474 C129.361053,32.3429474 128.836737,31.9438947 127.945579,30.6322105 L125.851895,27.5221053 C125.372316,27.574 124.882,27.5722105 124.364842,27.5149474 L124.364842,31.0115789 C125.009053,31.1243158 125.467158,31.2227368 125.762421,31.3229474 L125.853684,31.3533684 L125.853684,32.1657895 L121.179579,32.1657895 L121.179579,32.0315789 C121.179579,31.3372632 121.562526,31.1887368 122.639789,30.9954737 L122.639789,22.4185263 C121.575053,22.2270526 121.227895,22.0856842 121.227895,21.3681053 L121.227895,21.2356842 L123.373474,21.2356842 C123.752842,21.2356842 124.384526,21.2213684 124.951789,21.2088421 C125.422421,21.1963158 125.850105,21.1855789 126.061263,21.1855789 Z M76.9831579,21.2374737 C77.6345263,21.2374737 77.9691579,21.4003158 78.3091579,21.8942105 L78.3091579,21.8942105 L83.6417895,29.6766316 L83.6417895,22.3881053 C82.9957895,22.2789474 82.5358947,22.1751579 82.2424211,22.0767368 L82.2424211,22.0767368 L82.1493684,22.0481053 L82.1493684,21.2374737 L86.4351579,21.2374737 L86.4351579,21.3681053 C86.4351579,22.066 86.054,22.2145263 84.9749474,22.4042105 L84.9749474,22.4042105 L84.9748528,30.4695786 C84.9727723,31.1488238 84.9249199,32.2785263 83.8243158,32.2785263 L83.8243158,32.2785263 L83.4449474,32.2785263 L83.4055789,32.2230526 L77.7472632,24.0755789 L77.7472632,31.0133684 C78.2286316,31.0938947 78.7923158,31.2012632 79.1627368,31.3211579 L79.1627368,31.3211579 L79.2557895,31.3551579 L79.2557895,32.1657895 L74.9538947,32.1657895 L74.9538947,32.0315789 C74.9538947,31.3336842 75.3368421,31.1869474 76.4123158,30.9972632 L76.4123158,30.9972632 L76.4123158,22.4185263 C75.3672632,22.2163158 75.1006316,22.0552632 75.1006316,21.3681053 L75.1006316,21.3681053 L75.1006316,21.2374737 Z M107.329053,21.2374737 L107.359474,21.3197895 C107.432842,21.5041053 107.468632,21.76 107.468632,22.0982105 C107.468632,22.678 107.243158,23.4993684 107.083895,23.8984211 L107.083895,23.8984211 L107.051684,23.9789474 L106.391368,23.9789474 L106.355579,23.9037895 C106.121158,23.3902105 105.978,22.9517895 105.847368,22.3755789 L105.847368,22.3755789 L102.572632,22.3755789 L102.572632,25.7881053 L106.106842,25.7881053 L106.092526,26.4681053 C105.915368,26.8224211 105.595053,26.9942105 105.113684,26.9942105 L105.113684,26.9942105 L102.572632,26.9942105 L102.572632,31.0241053 L105.879579,31.0241053 C106.004842,30.3745263 106.158737,29.8663158 106.369895,29.4028421 L106.369895,29.4028421 L106.407474,29.3241053 L107.067789,29.3241053 L107.101789,29.4064211 C107.261053,29.8018947 107.482947,30.6375789 107.482947,31.2531579 C107.482947,31.5448421 107.432842,31.8544211 107.343368,32.0798947 L107.343368,32.0798947 L107.312947,32.1657895 L99.4374737,32.1657895 L99.4374737,32.0315789 C99.4374737,31.314 99.7864211,31.1708421 100.851158,30.9811579 L100.851158,30.9811579 L100.851158,22.4185263 C99.7864211,22.2270526 99.4374737,22.0856842 99.4374737,21.3681053 L99.4374737,21.3681053 L99.4374737,21.2374737 L107.329053,21.2374737 Z M140.828,21.2374737 L140.862,21.3197895 C140.933579,21.5041053 140.967579,21.76 140.967579,22.0982105 C140.967579,22.678 140.743895,23.4993684 140.586421,23.8984211 L140.586421,23.8984211 L140.552421,23.9789474 L139.890316,23.9789474 L139.852737,23.9037895 C139.620105,23.3902105 139.475158,22.9517895 139.349895,22.3755789 L139.349895,22.3755789 L136.071579,22.3755789 L136.071579,25.7881053 L139.605789,25.7881053 L139.591474,26.4681053 C139.416105,26.8224211 139.095789,26.9942105 138.612632,26.9942105 L138.612632,26.9942105 L136.071579,26.9942105 L136.071579,31.0241053 L139.380316,31.0241053 C139.505579,30.3745263 139.657684,29.8663158 139.870632,29.4028421 L139.870632,29.4028421 L139.906421,29.3241053 L140.566737,29.3241053 L140.600737,29.4064211 C140.76,29.8018947 140.981895,30.6375789 140.981895,31.2531579 C140.981895,31.5448421 140.931789,31.8544211 140.844105,32.0798947 L140.844105,32.0798947 L140.813684,32.1657895 L132.94,32.1657895 L132.94,32.0315789 C132.94,31.314 133.285368,31.1708421 134.348316,30.9811579 L134.348316,30.9811579 L134.348316,22.4185263 C133.285368,22.2270526 132.94,22.0856842 132.94,21.3681053 L132.94,21.3681053 L132.94,21.2374737 L140.828,21.2374737 Z M48.2853684,19.0238947 C49.4807368,19.0238947 49.7276842,19.2654737 50.3110526,21.012 L50.3110526,21.012 L52.6713684,28.0750526 L55.0495789,21.1104211 C55.6544211,19.3173684 55.9031579,19.0238947 56.8390526,19.0238947 L56.8390526,19.0238947 L60.1406316,19.0238947 L60.1406316,19.1563158 C60.1406316,19.9687368 59.8203158,20.1602105 58.5641053,20.4 L58.5641053,20.4 L59.2727368,30.804 C60.6810526,31.0509474 61.0407368,31.2334737 61.0407368,32.0315789 L61.0407368,32.0315789 L61.0407368,32.1657895 L55.5130526,32.1657895 L55.5130526,31.2316842 L55.6025263,31.2030526 C56.066,31.0473684 56.7710526,30.9149474 57.3025263,30.8254737 L57.3025263,30.8254737 L56.5956842,21.1533684 C55.8852632,23.2542105 55.0495789,25.6753684 54.1047368,28.3595789 C53.5696842,29.8698947 53.3263158,30.5606316 52.4154737,30.5606316 L52.4154737,30.5606316 L51.4992632,30.5606316 L51.4688421,30.4711579 C51.4688421,30.4711579 50.3726776,27.3115066 49.2817977,24.1840658 L49.1002222,23.6636712 C48.7983074,22.7986683 48.5015219,21.9498333 48.2334737,21.1855789 L48.2334737,21.1855789 L47.4890526,30.8254737 C48.0223158,30.9149474 48.7255789,31.0491579 49.1890526,31.2030526 L49.1890526,31.2030526 L49.2803158,31.2316842 L49.2803158,32.1657895 L44.1427368,32.1657895 L44.1427368,32.0315789 C44.1427368,31.2334737 44.5006316,31.0509474 45.9107368,30.804 L45.9107368,30.804 L46.7356842,20.4 C45.4812632,20.1602105 45.1591579,19.9687368 45.1591579,19.1563158 L45.1591579,19.1563158 L45.1591579,19.0238947 Z M147.293368,21.2356842 L147.293368,22.0481053 L147.203895,22.0785263 C146.863895,22.1876842 146.393263,22.2628421 145.976316,22.3290526 L145.976316,22.3290526 L145.868947,22.3469474 L147.876737,26.4197895 L149.925684,22.3469474 L149.795053,22.3254737 C149.381684,22.2574737 148.912842,22.1858947 148.58,22.0785263 L148.58,22.0785263 L148.486947,22.0481053 L148.486947,21.2356842 L152.414842,21.2356842 L152.414842,21.3681053 C152.414842,22.0266316 152.062316,22.1894737 151.255263,22.3755789 L151.255263,22.3755789 L148.542421,27.5596842 L148.542421,30.9954737 C148.986211,31.0742105 149.558842,31.1958947 149.943579,31.3211579 L149.943579,31.3211579 L150.033053,31.3533684 L150.033053,32.1657895 L145.326737,32.1657895 L145.326737,32.0351579 C145.326737,31.3569474 145.664947,31.1815789 146.819158,30.9811579 L146.819158,30.9811579 L146.819158,27.8817895 L143.929158,22.3755789 C143.093474,22.1876842 142.751684,22.032 142.751684,21.3681053 L142.751684,21.3681053 L142.751684,21.2356842 L147.293368,21.2356842 Z M97.4690526,21.2356842 L97.5012632,21.3197895 C97.5728421,21.5076842 97.6086316,21.7725263 97.6086316,22.1286316 C97.6086316,22.7137895 97.3813684,23.6049474 97.2274737,23.9932632 L97.2274737,23.9932632 L97.1934737,24.0773684 L96.5313684,24.0773684 L96.4955789,23.9986316 C96.2808421,23.5118947 96.1287368,23.0215789 95.9909474,22.3755789 L95.9909474,22.3755789 L93.8006316,22.3755789 L93.8006316,31.0258947 C94.1710526,31.076 94.7687368,31.178 95.132,31.2889474 L95.132,31.2889474 L95.2268421,31.3175789 L95.2268421,32.1657895 L90.5330526,32.1657895 L90.5366316,32.028 C90.5563158,31.3032632 91.0287368,31.11 92.0755789,30.9918947 L92.0755789,30.9918947 L92.0755789,22.3755789 L89.8512632,22.3755789 C89.7170526,23.0215789 89.5631579,23.5118947 89.3484211,23.9986316 L89.3484211,23.9986316 L89.3126316,24.0773684 L88.6505263,24.0773684 L88.6183158,23.9932632 C88.4608421,23.6049474 88.2353684,22.7137895 88.2353684,22.1286316 C88.2353684,21.7725263 88.2693684,21.5076842 88.3409474,21.3197895 L88.3409474,21.3197895 L88.3731579,21.2356842 L97.4690526,21.2356842 Z M68.0232632,22.2467368 C65.9385263,22.2467368 64.5892632,24.0004211 64.5892632,26.7168421 C64.5892632,29.4028421 65.9510526,31.1386316 68.0554737,31.1386316 C70.1491579,31.1386316 71.502,29.3706316 71.502,26.6363158 C71.502,23.9682105 70.1366316,22.2467368 68.0232632,22.2467368 Z M23.2345263,4.33768421 C22.1841053,4.454 21.4987368,4.33768421 21.4987368,4.33768421 C21.7403158,4.43461404 21.6550673,4.85712865 21.6199405,4.99527437 L21.6078947,5.03915789 C20.7614737,7.91842105 20.0957895,9.68642105 20.0957895,9.68642105 C18.7520066,7.04868092 18.1942517,5.49125164 18.0527606,5.06895295 L18.0205068,4.97030379 C18.0165399,4.95775781 18.0146316,4.95147368 18.0146316,4.95147368 C17.7927368,4.284 17.4867368,4.36810526 17.4867368,4.36810526 C16.2954142,4.38222654 15.3359671,4.38877554 14.5656223,4.39056629 L13.7982054,4.39076756 C12.1149618,4.38734633 11.637952,4.35796548 11.5834086,4.35418864 L11.5778947,4.35378947 C12.0169868,4.42503289 12.0709646,5.23933429 12.0757695,5.54219267 L12.0757188,5.64108992 L12.0754751,5.65125374 L12.0754751,5.65125374 L12.0753684,11.0911579 L8.89010526,6.018 C8.18863158,4.87810526 8.24768421,4.38242105 8.24768421,4.38242105 L5.79073684,4.38242105 C6.13503158,4.6104 6.16749661,5.34241404 6.17003315,5.53356482 L6.17010526,5.57957895 C6.20078195,6.03543459 6.21973139,6.52173903 6.23007281,7.01465612 L6.23766043,7.50889461 C6.25993246,9.73494135 6.12894737,11.934 6.12894737,11.934 C6.08886316,12.5903789 5.4876,12.6341375 5.40760973,12.6370548 L7.34042105,12.6372632 C8.11526316,12.7088421 7.60526316,13.804 7.60526316,13.804 L6.15936842,16.3611579 C6.15936842,16.3611579 4.80294737,13.804 4.48621053,13.4049474 C3.95473684,12.7285263 3.49126316,12.5871579 3.49126316,12.5871579 L1.53,12.5871579 C1.53,12.5871579 2.26010526,12.716 3.12263158,13.7449474 C4.00305263,14.7971579 4.48263158,15.9782105 4.81726316,16.5436842 C5.18768421,17.1592632 5.236,17.6835789 5.236,17.8517895 L5.23778947,19.9114737 C5.20736842,20.6863158 4.50768421,20.8903158 4.50768421,20.8903158 L5.63147368,20.8777895 C6.44926316,20.8330526 6.47968421,22.0749474 6.47968421,22.0749474 C6.49269856,23.0217416 6.49782543,23.915131 6.49865003,24.7005405 L6.4986572,25.158392 C6.4972267,26.5644576 6.48285355,27.5413126 6.48012878,27.7146268 L6.47968421,27.7422105 C6.49221053,28.9536842 5.89452632,29.1433684 5.89452632,29.1433684 C7.44242105,29.0574737 8.81673684,29.1594737 8.81673684,29.1594737 C9.28677193,29.208386 9.622,29.2276725 9.86006628,29.2316491 L10.0412064,29.2316422 C10.3594092,29.2254651 10.4236842,29.1863158 10.4236842,29.1863158 C10.7672632,29.1093684 10.7887368,28.8821053 10.7887368,28.8821053 L10.9641053,27.8835789 C10.6867368,28.3094737 10.1767368,28.3721053 10.1767368,28.3721053 C9.70968421,28.4651579 8.364,28.39 8.364,28.39 C8.364,28.39 7.75021053,28.3452632 7.77884211,27.9515789 C7.77884211,27.9515789 7.70220127,25.6453865 7.75752073,23.2060079 L7.77091746,22.7001213 C7.78376454,22.2781534 7.80096199,21.8566813 7.82357895,21.4468421 L7.82442825,21.4183573 C7.83213487,21.2911859 7.90611842,20.7793684 8.59663158,20.7292632 L7.19368421,20.7292632 C6.52728421,20.6340632 6.48285754,20.1959205 6.47989577,20.1379246 L6.47968421,18.2043158 C6.45284211,17.8070526 6.74989474,17.1807368 6.97178947,16.7709474 C7.10421053,16.5275789 7.208,16.3611579 7.208,16.3611579 C8.79839474,13.5789737 9.369125,12.8431645 9.55509046,12.6491464 L9.58480387,12.6195056 C9.6048365,12.6005741 9.61794412,12.5906537 9.62592222,12.5854895 L9.63631579,12.58 L7.98284211,12.58 C7.31178947,12.5191579 7.25989474,11.9071579 7.25989474,11.9071579 L7.25989474,6.16473684 C10.9408421,11.73 11.5063158,12.7517895 11.5063158,12.7517895 C10.0783158,13.0197437 9.53793195,14.1037081 9.45474988,14.2901975 L9.44305263,14.3175789 C9.02789474,15.1693684 8.99210526,16.2358947 9.00284211,16.7709474 C9.00642105,17.0017895 9.02252632,17.136 9.02252632,17.136 C9.04936842,19.4283158 9.80989474,19.9991579 9.80989474,19.9991579 C10.336,20.6272632 11.4615789,20.8044211 11.4615789,20.8044211 C12.0370066,20.9403092 12.0603886,21.8594416 12.0610636,21.9738023 L12.0610526,24.9076842 C12.0449474,28.0052632 11.8123158,28.5743158 11.8123158,28.5743158 C11.7123806,29.0315951 11.4253871,29.1224453 11.3394468,29.1395761 L11.3245789,29.1415263 L11.5534573,29.1268425 C13.1090106,29.0305383 13.9578947,29.2042105 13.9578947,29.2042105 C13.4317895,28.9841053 13.4317895,28.5456842 13.4317895,28.5456842 C13.4099181,27.4482895 13.4014126,26.4103726 13.4001469,25.4980435 L13.4001377,25.0132617 C13.4025724,23.2057221 13.4317895,21.9997895 13.4317895,21.9997895 C13.4192632,21.0531579 14.0169474,20.8187368 14.0169474,20.8187368 C15.3912632,20.468 15.6095789,19.9705263 15.6095789,19.9705263 C16.4416842,19.1008421 16.4792632,17.4115789 16.456,16.7709474 C16.4506316,16.5830526 16.4416842,16.4792632 16.4416842,16.4792632 C16.4488421,14.7023158 15.5952632,13.7610526 15.5952632,13.7610526 C15.0101053,13.0309474 13.8290526,12.6802105 13.8290526,12.6802105 L16.8389474,12.6963158 C17.714,12.784 17.6996842,14.1278947 17.6996842,14.1278947 C17.7927368,14.9993684 17.816,15.9334737 17.8124211,16.7709474 C17.7981053,18.2884211 17.6853684,19.5034737 17.6853684,19.5034737 C17.5672632,20.8330526 16.9821053,20.7292632 16.9821053,20.7292632 L16.2215789,20.7274737 C16.7208421,20.8724211 16.6474737,22.1035789 16.6474737,22.1035789 C16.7351579,25.0830526 16.5150526,28.3094737 16.5150526,28.3094737 C16.456,29.0270526 15.9746316,29.1898947 15.9746316,29.1898947 C17.3918947,29.0574737 18.3564211,29.1898947 18.3564211,29.1898947 C17.9197895,29.0878947 17.9341053,28.1502105 17.9341053,28.1502105 L17.9036842,25.432 C19.1833913,25.3722471 19.8421882,25.4112164 20.1246589,25.4404716 L20.2454702,25.4551883 L20.2762137,25.4599496 L20.2762137,25.4599496 L20.2997895,25.4642105 L20.2997895,25.4642105 C20.6648421,25.4498947 20.8115789,25.5966316 20.8115789,25.5966316 L21.0424211,24.3994737 C20.8849474,24.4889474 19.7593684,24.4603158 19.7593684,24.4603158 L17.9197895,24.4603158 L17.9197895,21.9568421 C17.9341053,21.6955789 18.3564211,21.7098947 18.3564211,21.7098947 C20.1816842,21.6078947 20.5753684,21.7438947 20.5753684,21.7438947 C20.9869474,21.7725263 21.0155789,21.8977895 21.0155789,21.8977895 L21.1748421,21.1122105 C21.2929474,20.7865263 20.9278947,20.8491579 20.9278947,20.8491579 L19.8309474,20.8473684 C19.0292632,20.9046316 19.1312632,20.2192632 19.1312632,20.2192632 L19.1312632,13.7914737 C19.1455789,13.3834737 19.482,13.3387368 19.482,13.3387368 C20.4304211,13.1490526 21.0281053,13.3530526 21.0281053,13.3530526 C21.7456842,13.5463158 21.7743158,14.2442105 21.7743158,14.2442105 C21.964,15.0333684 21.3376842,15.6453684 21.3376842,15.6453684 C20.9701263,16.0129263 20.3713843,16.0511813 20.2182542,16.0548482 L20.1816842,16.0551579 C19.9254316,16.0079158 19.9772547,16.1301726 20.0082341,16.1809651 L20.0224211,16.2018947 C20.0868421,16.3808421 20.1602105,16.5723158 20.2371579,16.7709474 C20.8685865,18.3578271 21.8224946,20.3119323 21.9555456,20.5829939 L21.9711579,20.6147368 C22.1697895,20.9207368 22.5044211,20.8777895 22.5044211,20.8777895 C22.8623158,20.9135789 22.8426316,21.4164211 22.8426316,21.4164211 C22.8521754,21.9914386 22.8568977,22.556614 22.8581404,23.0992554 L22.8582729,23.6339152 C22.8539428,26.0895543 22.7835789,27.9623158 22.7835789,27.9623158 C22.7084211,29.0574737 22.2861053,29.1594737 22.2861053,29.1594737 C24.1990526,29.0413684 24.7251579,29.1755789 24.7251579,29.1755789 C26.9598526,29.3125333 27.1883326,29.2187808 27.2088647,29.2056718 L27.2107368,29.2042105 C27.472,29.2185263 27.5185263,28.6745263 27.5185263,28.6745263 L27.7350526,27.6545263 C27.5185263,28.3416842 26.4341053,28.2772632 26.4341053,28.2772632 C25.3693684,28.4096842 24.8432632,28.2629474 24.8432632,28.2629474 C24.316332,28.2332146 24.2651255,27.8726092 24.2603655,27.8173073 L24.2598947,25.2405263 C26.0404211,25.1850526 26.4341053,25.2566316 26.4341053,25.2566316 C26.86,25.2727368 26.9763158,25.3908421 26.9763158,25.3908421 L27.166,24.2634737 C27.166,24.2634737 27.0783158,24.3350526 25.9097895,24.3064211 L25.8997976,24.3055531 L25.8910041,24.3054292 L25.8236711,24.3046316 C25.6574737,24.3028421 25.245,24.2992632 24.2598947,24.2921053 L24.2563158,22.0141053 C24.2527368,21.6508421 24.6822105,21.6705263 24.6822105,21.6705263 C26.4484211,21.6257895 26.8295789,21.7277895 26.8295789,21.7277895 C27.2411579,21.7277895 27.3556842,21.9425263 27.3556842,21.9425263 L27.5453684,21.0209474 C27.6187368,20.8402105 27.1355789,20.8616842 27.1355789,20.8616842 L26.4484211,20.8616842 C25.9908664,20.909587 25.9693927,20.4604186 25.9687965,20.3910323 L25.9695475,15.7453973 L25.9696197,15.6290992 L25.9696197,15.6290992 L25.9705574,13.5852802 C25.9705656,13.553011 25.9705729,13.5225273 25.9705795,13.4938305 L25.9706316,13.1490526 C25.9992632,12.5925263 26.3034737,12.5549474 26.3034737,12.5549474 L25.6163158,12.5549474 C28.0698494,5.01297652 28.5045174,4.42907867 28.5487235,4.38577563 L28.5528421,4.38242105 C27.3288421,4.48621053 26.8009474,4.39673684 26.8009474,4.39673684 C27.268,4.57210526 26.9029474,5.406 26.9029474,5.406 C26.0708421,8.26736842 25.3550526,10.0801053 25.3550526,10.0801053 C24.2724211,7.42452632 23.9950526,6.71947368 23.9950526,6.71947368 C23.323297,4.98055263 23.2419787,4.49133016 23.2343572,4.37205813 L23.2345263,4.33768421 Z M125.624632,22.2771579 C125.327579,22.2771579 124.740632,22.2771579 124.364842,22.3147368 L124.364842,26.3911579 C124.692316,26.4323158 125.001895,26.4573684 125.284632,26.4573684 C126.250947,26.4573684 126.956,26.2032632 127.383684,25.7022105 C127.775579,25.2441053 127.857895,24.6607368 127.857895,24.2527368 C127.857895,22.9428421 127.106316,22.2771579 125.624632,22.2771579 Z M113.866,22.2771579 C113.568947,22.2771579 112.983789,22.2771579 112.602632,22.3147368 L112.602632,26.3911579 C112.931895,26.4323158 113.241474,26.4573684 113.527789,26.4573684 C114.492316,26.4573684 115.197368,26.2032632 115.623263,25.7022105 C116.016947,25.2441053 116.097474,24.6607368 116.097474,24.2527368 C116.097474,22.9428421 115.347684,22.2771579 113.866,22.2771579 Z M30.9203158,12.5531579 L29.7517895,12.5531579 C29.7517895,12.5531579 29.2990526,12.5388421 29.0503158,12.8144211 C29.0503158,12.8144211 27.9551579,14.0241053 26.0994737,16.2162105 C26.0994737,16.2162105 26.1010016,16.2163782 26.1066944,16.2212444 L26.1297041,16.2442639 C26.2027354,16.3237374 26.4454324,16.6282665 27.2285898,17.7949124 L27.4190812,18.0797322 C27.819927,18.6811393 28.3419764,19.4766316 29.0216842,20.5288421 C29.0216842,20.5288421 29.2829474,20.9082105 29.6050526,20.8634737 L31.2612945,20.863155 C31.2324139,20.8488499 31.1591321,20.8053713 31.0082792,20.6596814 L30.9330504,20.5849277 C30.4879381,20.131065 29.5167368,18.9492632 27.5865263,15.8958947 C27.5865263,15.8958947 28.7872632,14.4804211 29.9271579,13.3852632 C29.9271579,13.3852632 30.5695789,12.6837895 30.9203158,12.5531579 Z M22.406,6.32757895 C22.406,6.32757895 23.2058947,8.06515789 24.5658947,11.9930526 C24.5658947,11.9930526 24.6661053,12.2274737 24.6983158,12.5495789 L24.0684211,12.5495789 C24.0702105,12.5495789 24.4585263,12.6229474 24.5605263,13.7914737 C24.5605263,13.7914737 24.7358947,16.8872632 24.5444211,20.4375789 C24.5444211,20.4375789 24.5499013,20.7458437 24.4469751,20.82291 L24.3838225,20.8443025 C24.319588,20.8614854 24.0002222,20.8917076 23.4546316,20.0438947 C23.4546316,20.0438947 22.4632632,18.598 21.4110526,16.2752632 C21.4110526,16.2752632 22.1697895,16.1875789 22.6511579,15.7348421 C22.6529474,15.7348421 23.2488421,15.3107368 23.222,14.2728421 C23.222,14.2728421 23.1683158,13.1705263 22.2717895,12.7947368 C22.2717895,12.7947368 21.9514737,12.5495789 20.4751579,12.58 C20.4751579,12.58 20.5181053,12.2274737 20.5843158,11.9572632 C20.5843158,11.9572632 21.2929474,9.43947368 22.406,6.32757895 Z M12.7893684,13.2367368 L12.7966882,13.2364085 L12.8520261,13.2359804 C13.0929946,13.2395489 13.9699098,13.3131729 14.4392632,14.1690526 C14.4392632,14.1690526 14.9152632,14.8562105 14.9528421,16.4363158 C14.9528421,16.4363158 15.0333684,18.3063158 14.5681053,19.3442105 C14.5681053,19.3442105 14.076,20.5270526 12.5281053,20.4805263 L12.5038338,20.4800571 C12.3455642,20.4740339 11.4490526,20.3944689 10.8764211,19.3728421 C10.8782105,19.3728421 10.3664211,18.5389474 10.4523158,16.4363158 L10.4521346,16.3371839 C10.4547584,15.978725 10.4929368,14.7409684 10.8853684,14.1690526 C10.8853684,14.1690526 11.4758947,13.1490526 12.7893684,13.2367368 Z M49.1872632,1.69821053 C50.9445263,1.69821053 52.0361053,1.93084211 52.3922105,2.00957895 L52.4655789,2.02568421 L52.4888421,2.09547368 C52.7286316,2.81126316 52.6176842,3.83842105 52.1613684,5.14652632 L52.1327368,5.23421053 L51.3847368,5.23421053 L51.3453684,5.168 C51.1431579,4.80473684 50.8317895,3.94578947 50.6922105,3.264 C50.3683158,3.16915789 49.7688421,3.03852632 48.9743158,3.03852632 C47.4926316,3.03852632 46.6766316,3.67736842 46.6766316,4.83515789 C46.6766316,5.66905263 47.1293684,6.24526316 48.1422105,6.698 C48.6647368,6.94136842 48.9993684,7.06126316 49.5487368,7.26168421 L50.0605263,7.44957895 C52.1595789,8.22263158 53.0936842,9.37147368 53.0936842,11.1734737 C53.0936842,13.6322105 51.4241053,15.0423158 48.5108421,15.0423158 C46.3008421,15.0423158 44.9068421,14.2907368 44.5328421,14.0598947 L44.4863158,14.0330526 L44.4737895,13.9829474 C44.2286316,12.9951579 44.5471579,11.6655789 44.9462105,10.8477895 L44.9802105,10.7744211 L45.7461053,10.7744211 L45.7801053,10.8495789 C46.0861053,11.5331579 46.2901053,12.4511579 46.3616842,13.0828421 C46.818,13.3709474 47.6357895,13.6644211 48.6289474,13.6644211 C50.1625263,13.6644211 51.1163158,12.8752632 51.1163158,11.5993684 C51.1163158,10.336 50.4434737,9.81526316 49.3501053,9.38578947 C48.9224211,9.21221053 48.6003158,9.09410526 48.3193684,8.99031579 C47.8326316,8.80778947 47.4461053,8.66463158 46.8144211,8.34073684 C45.4508421,7.65 44.7583158,6.54052632 44.7583158,5.04631579 C44.7583158,2.91863158 46.3724211,1.69821053 49.1872632,1.69821053 Z M80.5281053,4.06926316 L80.5281053,4.86557895 L80.444,4.89421053 C80.0735789,5.03557895 79.4526316,5.13042105 78.9318947,5.20557895 L78.9318947,5.20557895 L78.9318947,10.4236842 C78.9318947,12.6658947 79.8606316,13.7073684 81.8487368,13.7073684 C83.6489474,13.7073684 84.5597895,12.6014737 84.5597895,10.4236842 L84.5597895,10.4236842 L84.5597895,5.20557895 C84.0408421,5.13042105 83.4181053,5.03557895 83.0494737,4.89421053 L83.0494737,4.89421053 L82.9635789,4.86557895 L82.9635789,4.06926316 L87.3746316,4.06926316 L87.3746316,4.19989474 C87.3746316,4.88884211 86.9988421,5.032 85.9376842,5.21989474 L85.9376842,5.21989474 L85.9233684,10.5364211 C85.9233684,13.2617895 84.2734737,15.0226316 81.7234737,15.0226316 C78.7028421,15.0226316 77.2336842,13.5534737 77.2336842,10.5364211 L77.2336842,10.5364211 L77.2336842,5.21989474 C76.1725263,5.032 75.7985263,4.88884211 75.7985263,4.19989474 L75.7985263,4.19989474 L75.7985263,4.06926316 L80.5281053,4.06926316 Z M116.519789,3.91 C117.502211,3.91 118.371895,3.99231579 119.180737,4.16768421 L119.180737,4.16768421 L119.254105,4.182 L119.275579,4.25357895 C119.477789,4.84947368 119.386526,5.70663158 119.005368,6.79642105 L119.005368,6.79642105 L118.973158,6.88410526 L118.323579,6.88410526 L118.289579,6.81610526 C118.121368,6.51726316 117.867263,5.81221053 117.749158,5.24494737 C117.477158,5.168 116.988632,5.06421053 116.344421,5.06421053 C115.132947,5.06421053 114.463684,5.58315789 114.463684,6.52978947 C114.463684,7.21157895 114.832316,7.68221053 115.662632,8.05442105 C116.095684,8.25126316 116.367684,8.34968421 116.816842,8.51431579 L116.816842,8.51431579 L117.253474,8.67357895 C118.998211,9.316 119.778421,10.2733684 119.778421,11.7801053 C119.778421,13.8326316 118.386211,15.0083158 115.961474,15.0083158 C114.125474,15.0083158 112.965895,14.382 112.652737,14.1905263 L112.652737,14.1905263 L112.606211,14.1601053 L112.595474,14.1117895 C112.387895,13.2904211 112.654526,12.1809474 112.987368,11.4991579 L112.987368,11.4991579 L113.023158,11.4257895 L113.683474,11.4257895 L113.717474,11.5045263 C113.971579,12.0664211 114.139789,12.8233684 114.200632,13.3476842 C114.576421,13.5803158 115.247474,13.8201053 116.058105,13.8201053 C117.316105,13.8201053 118.096316,13.1723158 118.096316,12.1308421 C118.096316,11.0983158 117.543368,10.6724211 116.648632,10.3216842 C116.290737,10.1767368 116.025895,10.0783158 115.791474,9.99063158 C115.387053,9.83852632 115.068526,9.72221053 114.546,9.45378947 C113.407895,8.87578947 112.831684,7.95063158 112.831684,6.70515789 C112.831684,4.93 114.175579,3.91 116.519789,3.91 Z M105.435789,3.89210526 C108.588842,3.89210526 110.623474,6.01263158 110.623474,9.29094737 C110.623474,12.6014737 108.356211,15.0065263 105.228211,15.0065263 C102.114526,15.0065263 100.101368,12.8716842 100.101368,9.56294737 C100.101368,6.27926316 102.343579,3.89210526 105.435789,3.89210526 Z M93.9455789,4.02094737 C96.2629474,4.02094737 97.5406316,5.04989474 97.5406316,6.91273684 C97.5406316,8.17073684 96.7461053,9.282 95.4541053,9.84389474 L97.0234737,12.1541053 C97.6497895,13.0864211 98.1418947,13.6572632 98.9453684,14.0062105 L99.0241053,14.0402105 L99.0241053,14.688 L98.9704211,14.7273684 C98.7843158,14.8562105 98.4264211,15.0065263 98.0148421,15.0065263 C97.1952632,15.0065263 96.6781053,14.6146316 95.8012632,13.3208421 L93.738,10.2590526 C93.2691579,10.3109474 92.7877895,10.3091579 92.2706316,10.2536842 L92.2706316,13.6948421 C92.9076842,13.804 93.3622105,13.9042105 93.6521053,14.0026316 L93.7415789,14.0312632 L93.7415789,14.8293684 L89.1408421,14.8293684 L89.1408421,14.7023158 C89.1408421,14.0169474 89.5130526,13.8684211 90.576,13.6805263 L90.576,5.236 C89.5291579,5.04631579 89.1873684,4.90494737 89.1873684,4.19989474 L89.1873684,4.06926316 L91.2989474,4.06926316 C91.6729474,4.06926316 92.2938947,4.05315789 92.8557895,4.04242105 C93.3156842,4.03168421 93.7362105,4.02094737 93.9455789,4.02094737 Z M70.7021053,3.91 C71.5628421,3.91 72.8172632,3.98336842 73.5133684,4.18557895 L73.5133684,4.18557895 L73.5813684,4.20705263 L73.6028421,4.27326316 C73.6726316,4.50231579 73.7066316,4.84947368 73.7066316,5.09284211 C73.7066316,5.78894737 73.4292632,6.57452632 73.2610526,6.97715789 L73.2610526,6.97715789 L73.2306316,7.05947368 L72.5810526,7.05947368 L72.5452632,6.98431579 C72.4074737,6.69442105 72.1569474,6.09673684 72.0066316,5.25747368 C71.5664211,5.11789474 70.9794737,5.04989474 70.2547368,5.04989474 C68.1181053,5.04989474 66.6829474,6.75884211 66.6829474,9.30526316 C66.6829474,12.5996842 68.5762105,13.7735789 70.3513684,13.7735789 C71.332,13.7735789 71.8742105,13.6393684 72.2929474,13.5051579 L72.2929474,13.5051579 L72.2929474,10.9104211 C71.7489474,10.8567368 71.2085263,10.7457895 70.8327368,10.6097895 L70.8327368,10.6097895 L70.7468421,10.5793684 L70.7468421,9.93336842 L70.8327368,9.90115789 C71.2836842,9.73831579 71.9547368,9.54326316 72.5989474,9.54326316 C73.2914737,9.54326316 73.7298947,9.75442105 73.9106316,9.95305263 L73.9106316,9.95305263 L73.9428421,9.99063158 L73.9428421,13.7556842 L73.8981053,13.7950526 C73.3737895,14.2424211 72.1837895,14.9922105 70.1258947,14.9922105 C66.2123158,14.9922105 64.8254737,12.1451579 64.8254737,9.70610526 C64.8254737,5.42747368 67.9892632,3.91 70.7021053,3.91 Z M62.8463158,4.06926316 L62.8785263,4.15336842 C62.9483158,4.33589474 62.9823158,4.58642105 62.9823158,4.91568421 C62.9823158,5.49010526 62.7622105,6.29894737 62.6047368,6.68905263 L62.6047368,6.68905263 L62.5743158,6.77136842 L61.9229474,6.77136842 L61.8871579,6.69442105 C61.6581053,6.18978947 61.5149474,5.76031579 61.3914737,5.19305263 L61.3914737,5.19305263 L58.1632632,5.19305263 L58.1632632,8.55368421 L61.642,8.55368421 L61.6294737,9.22294737 C61.4541053,9.57010526 61.1391579,9.74010526 60.6649474,9.74010526 L60.6649474,9.74010526 L58.1632632,9.74010526 L58.1632632,13.7091579 L61.4201053,13.7091579 C61.5453684,13.0667368 61.6938947,12.5692632 61.9050526,12.1093684 L61.9050526,12.1093684 L61.9372632,12.0324211 L62.5904211,12.0324211 L62.6208421,12.1165263 C62.7783158,12.5048421 62.9984211,13.3297895 62.9984211,13.9328421 C62.9984211,14.2191579 62.9483158,14.5269474 62.8624211,14.7470526 L62.8624211,14.7470526 L62.8284211,14.8311579 L55.0764211,14.8311579 L55.0764211,14.7023158 C55.0764211,13.9936842 55.42,13.8541053 56.4650526,13.6662105 L56.4650526,13.6662105 L56.4650526,5.23421053 C55.4182105,5.04631579 55.0764211,4.90494737 55.0764211,4.19989474 L55.0764211,4.19989474 L55.0764211,4.06926316 L62.8463158,4.06926316 Z M105.340947,5.06421053 C103.288421,5.06421053 101.960632,6.79105263 101.960632,9.46631579 C101.960632,12.1129474 103.299158,13.8201053 105.371368,13.8201053 C107.434632,13.8201053 108.767789,12.0789474 108.767789,9.38578947 C108.767789,6.76063158 107.422105,5.06421053 105.340947,5.06421053 Z M15.8869474,5.21452632 C16.5741053,5.18589474 16.8067368,5.85694737 16.8067368,5.85694737 C18.3993684,8.99747368 19.1598947,11.0446316 19.1598947,11.0446316 C19.4883626,11.8838947 19.5007342,12.2046303 19.4900121,12.3057343 L19.4848573,12.3364892 C19.4832372,12.3428395 19.482,12.3455789 19.482,12.3455789 C19.482,12.5495789 19.2547368,12.58 19.2547368,12.58 L17.4223158,12.58 C17.5453014,11.3764976 17.5640687,11.0378878 17.5668276,10.9545421 L17.5672632,10.9301053 C17.2594737,11.4776842 17.0429474,11.5152632 17.0429474,11.5152632 C16.5436842,11.7783158 14.2513684,11.7192632 14.2513684,11.7192632 C13.5803158,11.7121053 13.5069474,11.1645263 13.5069474,11.1645263 C13.4622105,9.85105263 13.5069474,8.80957895 13.5069474,8.80957895 C13.5355789,8.72189474 13.6232632,8.72189474 13.6232632,8.72189474 C14.0275608,8.70778463 14.3679575,8.70085701 14.6545498,8.69916565 L14.9732806,8.69952487 C15.9539372,8.70826989 16.1383404,8.78833928 16.1726653,8.81517489 L16.1795789,8.82252632 L16.3253684,7.62494737 C16.0784211,7.71442105 15.8278947,7.73052632 15.8278947,7.73052632 C14.4267368,7.80389474 13.5069474,7.75736842 13.5069474,7.75736842 L13.5069474,5.93210526 C13.4765263,5.21452632 14.0169474,5.21452632 14.0169474,5.21452632 C15.6095789,5.14294737 15.8869474,5.21452632 15.8869474,5.21452632 Z M93.5161053,5.09463158 L93.2073663,5.09550806 C92.9106423,5.09769925 92.5390526,5.10536842 92.2706316,5.13221053 L92.2706316,9.14421053 C92.5963158,9.18715789 92.9023158,9.21221053 93.1814737,9.21221053 C94.1334737,9.21221053 94.826,8.96168421 95.2483158,8.46957895 C95.6330526,8.01684211 95.7153684,7.43884211 95.7153684,7.04157895 C95.7153684,5.74957895 94.9745263,5.09463158 93.5161053,5.09463158 Z" id="Combined-Shape"></path>
            </g>
        </g>
    </g>
</svg>