<?xml version="1.0" encoding="UTF-8"?>
<svg width="115px" height="24px" viewBox="0 0 115 24" version="1.1" xmlns="http://www.w3.org/2000/svg" xmlns:xlink="http://www.w3.org/1999/xlink">
    <title>B8282FE6-16AF-4419-9B30-0B56BA6EDE00</title>
    <g id="logos-aseguradoras" stroke="none" stroke-width="1" fill="none" fill-rule="evenodd">
        <g id="logos-variantes" transform="translate(-495.000000, -3018.000000)" fill="#8A98A9" fill-rule="nonzero">
            <g id="logo-mapfre-gris" transform="translate(495.000000, 3018.000000)">
                <path d="M12.0087781,9.74745243e-05 C18.640819,9.74745243e-05 24.0170195,5.36931916 24.0170195,11.9925506 C24.0170195,18.6161069 18.640819,23.9850037 12.0087781,23.9850037 C5.37641196,23.9850037 4.88020862e-05,18.6161069 4.88020862e-05,11.9925506 C4.88020862e-05,5.36931916 5.37641196,9.74745243e-05 12.0087781,9.74745243e-05 Z M12.0087781,1.14233643 C6.0082363,1.14233643 1.14380703,6.00030424 1.14380703,11.9925506 C1.14380703,17.9851218 6.0082363,22.8429272 12.0087781,22.8429272 C18.00932,22.8429272 22.8734239,17.9851218 22.8734239,11.9925506 C22.8734239,6.00030424 18.00932,1.14233643 12.0087781,1.14233643 Z M12.0088433,5.99247378 C13.0061951,5.99247378 13.9651562,6.16825284 14.8548182,6.49138088 C15.3665894,6.71346035 15.8228889,7.17825137 16.0140304,7.73271895 C16.5168546,7.61753656 17.0367595,7.7294698 17.4462089,8.0397637 C18.0549336,8.55036774 18.6730934,9.24048737 19.0918153,9.96439817 C19.5082598,10.68441 19.7822021,11.4507222 19.9211255,12.2284064 C19.9326753,12.2935519 19.9430864,12.3754306 19.9437371,12.4699808 C19.9697649,13.1055146 19.6502739,13.7369872 19.0565151,14.0796101 C18.7502008,14.2558765 18.4105382,14.3315818 18.0794974,14.3148486 L14.1727277,14.3054261 C13.9566248,14.3130075 13.4645873,14.3160681 12.9918268,14.3171304 L12.5982098,14.3176104 L12.5982098,14.3176104 L12.5982098,17.9928874 L11.4201274,17.9928874 L11.4201274,14.3176104 L11.0263198,14.3171304 C10.5532577,14.3160681 10.0607001,14.3130075 9.84447069,14.3054261 L5.93802637,14.3148486 C5.60714822,14.3315818 5.26699768,14.2558765 4.96068326,14.0796101 C4.36692454,13.7369872 4.04792157,13.1055146 4.073624,12.4699808 C4.0742747,12.3754306 4.0846858,12.2935519 4.09607296,12.2284064 C4.23515891,11.4507222 4.50910128,10.68441 4.92570843,9.96439817 C5.34410497,9.24048737 5.87474632,8.6174627 6.48347102,8.10702112 C6.89210715,7.8059873 7.4640676,7.65473933 7.99047944,7.74685276 C8.13916313,7.24518388 8.48826071,6.83026732 8.94260814,6.59405406 C9.02882516,6.54466697 9.10967394,6.51055088 9.1765328,6.4863447 C10.0619653,6.16646581 11.0162088,5.99247378 12.0088433,5.99247378 Z M34.4559158,5.71280314 L37.3882705,11.7091109 L40.3209506,5.71280314 L44.7552708,5.71312805 L44.7552708,17.7057436 L40.3209506,17.7057436 L40.3209506,11.7091109 L37.3882705,17.7054187 L34.4559158,11.7091109 L34.4559158,17.7052562 L30.0215956,17.7052562 L30.0215956,5.71280314 L34.4559158,5.71280314 Z M57.4626833,5.71277064 L60.9113641,17.7057112 L56.4773692,17.7057112 L55.9111023,15.737538 L51.1784386,15.737538 L50.6123345,17.7057112 L46.1780143,17.7057112 L49.627183,5.71277064 L57.4626833,5.71277064 Z M70.623939,5.71827796 C72.5573149,5.71827796 74.1245126,7.28355635 74.1245126,9.21420174 C74.1245126,11.1450096 72.5573149,12.7104504 70.623939,12.7104504 L70.623939,12.7104504 L66.7584884,12.7104504 L66.7584884,17.7056948 L62.3251442,17.7056948 L62.3251442,5.71827796 Z M87.4511748,5.71280314 L87.4511748,7.68097622 L80.0960497,7.68097622 L80.0960497,10.7306292 L87.4511748,10.7306292 L87.4511748,12.6988022 L80.0960497,12.6988022 L80.0960497,17.7057436 L75.6622175,17.7057436 L75.6622175,5.71280314 L87.4511748,5.71280314 Z M114.255135,5.71239698 L114.255135,7.68073254 L106.899359,7.68073254 L106.899359,10.7303855 L114.255135,10.7303855 L114.255135,12.6985585 L106.899359,12.6985585 L106.899359,15.7373268 L114.255135,15.7373268 L114.255135,17.7053375 L102.465039,17.7053375 L102.465039,5.71239698 L114.255135,5.71239698 Z M97.7992017,5.71647467 C99.4566833,5.71647467 100.800367,7.05837395 100.800367,8.71365382 C100.800367,10.3690961 99.4566833,11.7111579 97.7992017,11.7111579 C99.4236604,11.7111579 100.748149,12.9999336 100.800367,14.6095628 L100.800367,14.6095628 L100.801053,14.6905962 L100.801053,14.6905962 L100.800049,14.7560975 L100.800367,17.7053537 L96.4397383,17.7053537 L96.4397383,14.8046743 C96.4412023,14.7725077 96.442341,14.7405036 96.442341,14.7081745 C96.442341,13.6216585 95.5583725,12.7406513 94.4717127,12.7406513 L94.4717127,12.7406513 L93.5104743,12.7406513 L93.5104743,17.7053537 L89.0024629,17.7056786 L89.0024629,5.71647467 Z M53.5446892,7.50857628 L51.7443802,13.769365 L55.3453235,13.769365 L53.5446892,7.50857628 Z M12.0088433,7.16899129 C11.1552947,7.16899129 10.336233,7.31845223 9.57687259,7.592843 C9.54986876,7.60275292 9.52888386,7.6131502 9.51310452,7.62435977 C9.26340052,7.74197903 9.09064113,7.99557524 9.09064113,8.28978586 C9.09064113,8.44590755 9.13911787,8.59049476 9.22240677,8.70957613 L11.676989,12.9303854 C11.7352262,13.0549904 11.8619489,13.1414178 12.0088433,13.1414178 C12.1523213,13.1414178 12.2767667,13.0587269 12.3366305,12.9383459 L14.7920262,8.71607443 C14.879382,8.59504357 14.9307867,8.44671984 14.9307867,8.28621179 C14.9307867,7.98127898 14.7446881,7.71972234 14.4798554,7.60827647 C14.4715592,7.60453994 14.4622868,7.60047851 14.4522009,7.59674198 C13.6897497,7.31991434 12.8667839,7.16899129 12.0088433,7.16899129 Z M7.26040023,8.99338945 L7.24087939,9.00801064 L7.24087939,9.00801064 C6.7357778,9.43186236 6.29476961,9.9489647 5.9458347,10.5524945 C5.59901454,11.1529375 5.37127147,11.7892837 5.25593587,12.43489 C5.25186903,12.4581214 5.25105567,12.4771289 5.25219438,12.4927248 C5.23364959,12.7164289 5.34247824,12.9409452 5.54972443,13.0608389 C5.65985447,13.1240348 5.78169702,13.1487284 5.89931005,13.1383312 L9.87358926,13.1282587 C9.98518337,13.1381687 10.0975908,13.0840703 10.1572921,12.9809098 C10.2153665,12.8796988 10.2080462,12.7589928 10.1475316,12.6678541 L8.16844438,9.2239167 C8.11834091,9.11344558 8.03488934,9.0169458 7.92199384,8.95212524 C7.70677664,8.82800768 7.44666152,8.85253877 7.26040023,8.99338945 Z M16.0955299,8.95212524 C15.9824717,9.0169458 15.8988575,9.11344558 15.8489167,9.2239167 L13.8698294,12.6678541 C13.8093149,12.7589928 13.8018319,12.8796988 13.8600691,12.9809098 C13.9197702,13.0840703 14.0321777,13.1381687 14.1434464,13.1282587 L18.1178883,13.1383312 C18.2358267,13.1487284 18.3575065,13.1240348 18.4676367,13.0608389 C18.6748828,12.9409452 18.7835488,12.7164289 18.765004,12.4927248 C18.7666308,12.4771289 18.7653294,12.4581214 18.7612626,12.43489 C18.6460896,11.7892837 18.4185093,11.1529375 18.0715263,10.5524945 C17.7227541,9.9489647 17.2815833,9.43186236 16.776319,9.00801064 C16.7696494,9.00264954 16.7631425,8.99777581 16.7571235,8.99338945 C16.5708622,8.85253877 16.3104217,8.82800768 16.0955299,8.95212524 Z M94.4717127,7.09330232 L93.5104743,7.09330232 L93.5104743,10.6810146 L94.4717127,10.6810146 C95.5604873,10.6810146 96.442341,9.8003323 96.442341,8.71365382 C96.442341,7.62697534 95.4459651,7.09330232 94.4717127,7.09330232 L94.4717127,7.09330232 Z M67.7955328,7.09169399 L66.8338062,7.09169399 L66.8338062,10.6800561 L67.7955328,10.6800561 C68.9096844,10.6800561 69.7663236,9.79904888 69.7663236,8.71220795 C69.7663236,7.62552947 68.7949994,7.09169399 67.7955328,7.09169399 L67.7955328,7.09169399 Z" id="Combined-Shape"></path>
            </g>
        </g>
    </g>
</svg>