<?xml version="1.0" encoding="UTF-8"?>
<svg width="134px" height="38px" viewBox="0 0 134 38" version="1.1" xmlns="http://www.w3.org/2000/svg" xmlns:xlink="http://www.w3.org/1999/xlink">
    <title>89030BE5-667F-4B7B-A329-48BAFE5F4F18</title>
    <g id="logos-aseguradoras" stroke="none" stroke-width="1" fill="none" fill-rule="evenodd">
        <g id="logos-variantes" transform="translate(-531.000000, -1417.000000)">
            <rect id="Rectangle" fill="#989898" x="0" y="1211" width="1440" height="1299"></rect>
            <g id="logo-afirme-blanco" transform="translate(531.000000, 1417.000000)" fill="#FFFFFF">
                <path d="M39.2643636,19.7202727 L51.6782727,37.8808182 L50.0822727,37.8808182 L39.9028788,23.4448485 L35.3273333,30.0056061 C31.9211515,35.2893333 38.7323636,35.8587576 38.7323636,35.8587576 L47.2086667,35.8587576 L48.6987273,37.8808182 L26.8504545,37.8808182 L39.2643636,19.7202727 Z M32.3472121,9.96636364 L38.4128182,18.4426667 L37.5514848,19.4018788 L33.1878182,13.3731212 C33.1878182,13.3731212 33.137415,13.4481611 33.0449485,13.5857945 L32.914332,13.7802029 C31.6665035,15.6373713 26.5459293,23.2560404 25.8923939,24.1898788 C25.1479394,25.2538788 23.9768485,27.0629091 25.6799394,29.2605758 C27.3824545,31.4582424 30.1495455,30.3245758 30.1495455,30.3245758 L30.1495455,30.3245758 L24.8283939,37.8808182 L13.3719697,37.8808182 L32.3472121,9.96636364 Z M25.7864545,1.13686838e-13 L31.4956667,8.79584848 L30.7506364,9.64681818 L26.3748788,3.45051515 L17.2030606,17.3786667 C17.2030606,17.3786667 15.2875152,20.5712424 17.4160909,22.3808485 C19.5446667,24.1898788 21.6358182,22.9122727 21.6358182,22.9122727 L21.6358182,22.9122727 L11.2433939,37.8808182 L-7.81597009e-14,37.8808182 L25.7864545,1.13686838e-13 Z M109.183212,26.3213333 L110.314,28.6053636 L111.546121,31.0149091 L112.737364,33.2632424 C113.572788,31.7639697 114.401879,30.1979091 115.223485,28.5650606 C115.604636,27.8131212 115.978303,27.0634848 116.342758,26.3213333 L116.342758,26.3213333 L119.694242,26.3213333 L119.819182,27.3807273 L120.299364,31.2751515 C120.452515,32.5331818 120.606242,33.7117576 120.759394,34.8085758 C120.912545,35.9059697 121.051879,36.7897576 121.176818,37.4587879 C120.898727,37.4317273 120.613152,37.4184848 120.320091,37.4184848 L120.320091,37.4184848 L118.628515,37.4184848 C118.33603,37.4184848 118.043545,37.4317273 117.751061,37.4587879 C117.681394,36.0798485 117.563364,34.5880606 117.395818,32.981697 C117.242667,31.3759091 117.08203,29.7833636 116.873606,28.2034848 L116.873606,28.2034848 L114.533727,32.8613636 C113.76797,34.3871212 113.009121,35.9197879 112.256606,37.4587879 L112.256606,37.4587879 L112.047606,37.4184848 L111.650909,37.4184848 L111.463212,37.4587879 C111.366188,37.2654076 111.231596,36.9968158 111.068951,36.6723341 L110.805133,36.1461092 C109.628134,33.7989762 107.541133,29.6460176 106.866939,28.4044242 C106.644121,29.944 106.477152,31.4628485 106.365455,32.9621212 L106.365455,32.9621212 L106.031515,37.4587879 C105.86397,37.4317273 105.697,37.4184848 105.53003,37.4184848 L105.53003,37.4184848 L104.548364,37.4184848 C104.395212,37.4184848 104.235152,37.4317273 104.067606,37.4587879 C104.513242,35.1569091 104.910515,32.8682727 105.258273,30.5928788 C105.474758,29.1788182 105.680303,27.7520909 105.875485,26.3213333 L105.875485,26.3213333 L109.183212,26.3213333 Z M79.2455455,23.6670909 C79.189697,23.8812727 79.1620606,24.1622424 79.1620606,24.51 C79.1620606,24.7241818 79.1689697,24.8917273 79.1827879,25.0120606 L79.1827879,25.0120606 L79.2455455,25.4133636 L77.9080606,25.3333333 L76.5083939,25.2527273 L75.297,25.1922727 L74.5237576,25.172697 C74.4955455,25.5567273 74.4719394,25.9390303 74.4540909,26.3213333 L74.4540909,26.3213333 C74.4379256,26.6692696 74.4264424,27.015783 74.4201212,27.3605758 L74.4201212,27.3605758 L74.4201212,29.5490303 C75.3246364,29.5357879 76.1399091,29.5156364 76.8636364,29.4885758 L76.8636364,29.4885758 L79.1620606,29.3883939 L79.078,29.9106061 C79.0647576,30.0309394 79.0572727,30.1576061 79.0572727,30.2917576 L79.0572727,30.2917576 L79.078,30.6331818 C79.1062121,30.7402727 79.1338485,30.9009091 79.1620606,31.1150909 C77.5741212,30.9947576 75.9936667,30.934303 74.4201212,30.934303 L74.4201212,30.934303 L74.420937,32.4266516 C74.4242103,33.3492771 74.4373939,34.1837965 74.4615758,34.9294848 C74.4892121,35.7856364 74.5306667,36.6291212 74.5865152,37.4587879 C74.3498788,37.4317273 74.0925152,37.4184848 73.8138485,37.4184848 L73.8138485,37.4184848 L71.934,37.4184848 C71.6553333,37.4184848 71.3979697,37.4317273 71.1607576,37.4587879 C71.2166061,36.6291212 71.2580606,35.7856364 71.285697,34.9294848 C71.3139091,34.0595152 71.3277273,33.0686364 71.3277273,31.958 L71.3277273,31.958 L71.3277273,29.2277576 C71.3277273,28.1372727 71.3144848,27.17 71.2874242,26.3213333 L71.2874242,26.3213333 L71.2867765,26.3010379 L71.2867765,26.3010379 L71.285697,26.2764242 C71.2580606,25.4070303 71.2166061,24.5364848 71.1607576,23.6670909 L71.1607576,23.6670909 L73.0198788,23.7269697 C73.6324848,23.7540303 74.2525758,23.7672727 74.8795758,23.7672727 C75.9096061,23.7672727 76.8221818,23.7603636 77.6161515,23.7471212 C78.4233636,23.7206364 78.9668788,23.6935758 79.2455455,23.6670909 Z M85.9703939,23.6670909 C85.9145455,24.5364848 85.8725152,25.4070303 85.8448788,26.2764242 C85.844303,26.2931212 85.8437273,26.3092424 85.8431515,26.3213333 L85.8431515,26.3213333 L84.257,26.323 L85.8431515,26.3247879 C85.8199567,27.0492554 85.807337,27.8634001 85.8042048,28.7679472 L85.8034242,29.2277576 L85.8034242,31.958 C85.8034242,33.0686364 85.8172424,34.0595152 85.8448788,34.9294848 C85.8725152,35.7856364 85.9145455,36.6291212 85.9703939,37.4587879 C85.7331818,37.4317273 85.4758182,37.4184848 85.1971515,37.4184848 L85.1971515,37.4184848 L83.317303,37.4184848 C83.0386364,37.4184848 82.780697,37.4317273 82.5440606,37.4587879 C82.5999091,36.6291212 82.6413636,35.7856364 82.6695758,34.9294848 C82.6972121,34.0595152 82.7110303,33.0686364 82.7110303,31.958 L82.7110303,31.958 L82.7110303,29.2277576 C82.7110303,28.1372727 82.6977879,27.17 82.6707273,26.3213333 L82.6707273,26.3213333 L82.6701515,26.3010379 L82.6701515,26.3010379 L82.6695758,26.2764242 C82.6413636,25.4070303 82.5999091,24.5364848 82.5440606,23.6670909 L82.5440606,23.6670909 L83.317303,23.7471212 C83.5953939,23.7603636 83.9091818,23.7672727 84.2569394,23.7672727 C84.604697,23.7672727 84.9184848,23.7603636 85.1971515,23.7471212 L85.1971515,23.7471212 Z M132.789273,23.6670909 C132.733424,23.8812727 132.705212,24.1622424 132.705212,24.51 C132.705212,24.7241818 132.712121,24.8917273 132.726515,25.0120606 L132.726515,25.0120606 L132.789273,25.4133636 L131.451788,25.3333333 L130.052697,25.2527273 L128.840727,25.1922727 L128.067485,25.172697 C128.038697,25.5567273 128.015091,25.9390303 127.997818,26.3213333 C127.981121,26.6679394 127.970182,27.0151212 127.963273,27.3605758 L127.963273,27.3605758 L127.963273,29.5490303 C128.868364,29.5357879 129.683636,29.5156364 130.407364,29.4885758 L130.407364,29.4885758 L132.705212,29.3883939 L132.621727,29.9106061 C132.608485,30.0309394 132.601,30.1576061 132.601,30.2917576 L132.601,30.2917576 L132.621727,30.6331818 C132.649364,30.7402727 132.677576,30.9009091 132.705212,31.1150909 C131.117848,30.9947576 129.536818,30.934303 127.963273,30.934303 C127.963273,31.3626667 127.956364,31.7910303 127.942545,32.2193939 L127.942545,32.2193939 L127.942545,33.5039091 C127.942545,34.3738788 127.963273,35.2104545 128.005303,36.0130606 C128.798697,36.0130606 129.592667,35.9929091 130.386636,35.9526061 C131.180606,35.9128788 131.980909,35.8460909 132.789273,35.7522424 L132.789273,35.7522424 L132.726515,36.1541212 C132.712121,36.2744545 132.705212,36.4414242 132.705212,36.6556061 C132.705212,36.8697879 132.712121,37.0367576 132.726515,37.1576667 C132.740333,37.278 132.761061,37.3781818 132.789273,37.4587879 L132.789273,37.4587879 L131.389606,37.4184848 L125.101182,37.4184848 L124.704485,37.4587879 C124.760333,36.6291212 124.801788,35.7856364 124.83,34.9294848 C124.857636,34.0595152 124.871455,33.0686364 124.871455,31.958 L124.871455,31.958 L124.871455,29.2277576 C124.871455,28.1372727 124.858212,27.17 124.831152,26.3213333 L124.831152,26.3213333 L124.83036,26.3010379 L124.83036,26.3010379 L124.83,26.2764242 C124.801788,25.4070303 124.760333,24.5364848 124.704485,23.6670909 L124.704485,23.6670909 L126.564182,23.7269697 C127.176212,23.7540303 127.795727,23.7672727 128.422727,23.7672727 C129.453333,23.7672727 130.365909,23.7603636 131.159303,23.7471212 C131.967667,23.7206364 132.510606,23.6935758 132.789273,23.6670909 Z M95.0414545,23.6670909 C95.57,23.6670909 96.0231212,23.6803333 96.3990909,23.7068182 C96.7750606,23.7338788 97.0957576,23.7741818 97.3600303,23.8277273 C97.6381212,23.8812727 97.8753333,23.9549697 98.0705152,24.0482424 C98.2795152,24.1288485 98.4741212,24.2290303 98.6549091,24.3499394 C99.0729091,24.6441515 99.4005152,25.0120606 99.6371515,25.4536667 C99.7885758,25.7121818 99.8945152,26.0023636 99.9538182,26.3213333 L99.9538182,26.3213333 L96.7111515,26.3196061 C96.6875455,26.217697 96.6604848,26.1232727 96.6288182,26.0357576 C96.5038788,25.688 96.308697,25.4271818 96.0438485,25.2527273 C95.7933939,25.0656061 95.4588788,24.9452727 95.0414545,24.8917273 C94.6372727,24.8376061 94.1496061,24.8111212 93.5790303,24.8111212 C93.5675152,25.3149091 93.5571515,25.8192727 93.5490909,26.3213333 L93.5490909,26.3213333 L92.283,26.322 L93.5490909,26.3230606 C93.5381515,26.9811515 93.529947,27.6392424 93.5244773,28.2973333 L93.5162727,30.2716061 L93.746,30.3119091 L93.9757273,30.3119091 C94.8946364,30.3119091 95.5982121,30.0775758 96.0858788,29.6094848 C96.5735455,29.1275758 96.8170909,28.4044242 96.8170909,27.4411818 C96.8170909,26.9995758 96.7819697,26.6253333 96.7111515,26.3213333 L96.7111515,26.3213333 L99.9538182,26.3242121 C99.9935455,26.5355152 100.013121,26.7606364 100.013121,26.9995758 C100.013121,27.9766364 99.7344545,28.7723333 99.177697,29.3883939 C98.6203636,30.0038788 97.8194848,30.4391515 96.7750606,30.6930606 C97.4435152,31.8307576 98.1609091,32.9684545 98.9266667,34.1061515 L98.9266667,34.1061515 L101.225091,37.4587879 C100.904394,37.4317273 100.590606,37.4184848 100.284879,37.4184848 L100.284879,37.4184848 L98.3837273,37.4184848 C98.0774242,37.4184848 97.7636364,37.4317273 97.4435152,37.4587879 L97.4435152,37.4587879 L93.7039697,31.1352424 L93.5162727,31.1352424 L93.5162727,31.958 C93.5162727,33.0686364 93.5300909,34.0595152 93.558303,34.9294848 C93.5859394,35.7856364 93.6273939,36.6291212 93.6832424,37.4587879 C93.4466061,37.4317273 93.1892424,37.4184848 92.9105758,37.4184848 L92.9105758,37.4184848 L91.0301515,37.4184848 C90.7520606,37.4184848 90.4941212,37.4317273 90.2574848,37.4587879 C90.3133333,36.6291212 90.3547879,35.7856364 90.3824242,34.9294848 C90.4106364,34.0595152 90.4244545,33.0686364 90.4244545,31.958 L90.4244545,31.958 L90.4244545,29.2277576 C90.4244545,28.1372727 90.4112121,27.17 90.3841515,26.3213333 L90.3841515,26.3213333 L90.3832879,26.3010379 L90.3832879,26.3010379 L90.3824242,26.2764242 C90.3547879,25.4070303 90.3133333,24.5364848 90.2574848,23.6670909 L90.2574848,23.6670909 L91.0301515,23.7471212 C91.3088182,23.7603636 91.6220303,23.7672727 91.9703636,23.7672727 C92.3469091,23.7672727 92.7712424,23.7540303 93.2450909,23.7269697 C93.7321818,23.6872424 94.3309697,23.6670909 95.0414545,23.6670909 Z M62.5215152,23.5669091 L63.5924242,26.3213333 L63.9419091,27.2200909 C64.4572121,28.5184242 64.9725152,29.7966061 65.4878182,31.0552121 C66.0031212,32.2994242 66.5046061,33.4837576 66.991697,34.6076364 C67.4793636,35.7320909 67.925,36.6826667 68.3291818,37.4587879 C67.9946667,37.4317273 67.6745455,37.4184848 67.3682424,37.4184848 L65.5920303,37.4184848 C65.3001212,37.4184848 65.0076364,37.4317273 64.7145758,37.4587879 L64.0253939,35.4511212 C63.7887576,34.7688485 63.538303,34.0865758 63.2734545,33.4037273 L61.9359697,33.3835758 L60.5990606,33.3634242 L59.5126061,33.3835758 L58.4267273,33.4037273 C58.1480606,34.0865758 57.8901212,34.7688485 57.6540606,35.4511212 C57.4168485,36.1339697 57.2015152,36.803 57.0063333,37.4587879 C56.8387879,37.4317273 56.6718182,37.4184848 56.5048485,37.4184848 L55.5226061,37.4184848 C55.3562121,37.4184848 55.1748485,37.4317273 54.9802424,37.4587879 L55.6481212,36.0130606 L56.5676061,33.9253636 L57.6327576,31.4357879 C58.0231212,30.5393333 58.406,29.6359697 58.7819697,28.725697 C59.1308788,27.9121515 59.4682727,27.1083939 59.795303,26.3155758 L59.797,26.315 L59.8526629,26.1763864 C59.8718788,26.1290303 59.8911667,26.0823939 59.9104545,26.0357576 C60.2858485,25.1525455 60.6272727,24.3292121 60.9335758,23.5669091 L61.3302727,23.6469394 C61.4557879,23.6601818 61.5882121,23.6670909 61.7269697,23.6670909 C61.866303,23.6670909 61.9987273,23.6601818 62.1242424,23.6469394 L62.5215152,23.5669091 Z M60.9335758,27.4411818 C60.5714242,28.2443636 60.23,29.0406364 59.9104545,29.83 C59.5897576,30.6061212 59.2765455,31.4029697 58.9696667,32.2193939 L62.792697,32.2193939 C62.4863939,31.4029697 62.1800909,30.6061212 61.8737879,29.83 C61.5807273,29.0406364 61.2675152,28.2443636 60.9335758,27.4411818 Z M119.380455,23.6670909 L119.694242,26.3213333 L116.342758,26.3167273 C116.775727,25.4294848 117.196606,24.5462727 117.604818,23.6670909 C117.953152,23.7338788 118.25197,23.7672727 118.503,23.7672727 C118.739636,23.7672727 119.032121,23.7338788 119.380455,23.6670909 L119.380455,23.6670909 Z M107.911364,23.6670909 L109.081303,26.1163636 L109.183212,26.3213333 L105.875485,26.3121212 C105.994091,25.4352424 106.108667,24.5531818 106.219212,23.6670909 L106.219212,23.6670909 L106.637212,23.7471212 C106.776545,23.7603636 106.922788,23.7672727 107.075939,23.7672727 L107.075939,23.7672727 L107.473212,23.7471212 L107.911364,23.6670909 Z M133.830242,21.434303 L133.830242,22.6520303 L54.131,22.6520303 L54.131,21.434303 L133.830242,21.434303 Z M96.2937273,11.6412424 L96.2367273,12.5469091 L96.1889394,13.6684848 L96.1509394,14.8977273 L96.1221515,16.1160303 C96.1158182,16.5979394 96.0490303,17.0291818 95.9217879,17.4103333 C95.8014545,17.7909091 95.6258485,18.1144848 95.396697,18.3804848 C95.1675455,18.6464848 94.8854242,18.848 94.5480303,18.9844545 C94.2169697,19.1203333 93.8358182,19.1894242 93.4028485,19.1894242 C92.4488182,19.1894242 91.7556061,18.9447273 91.3232121,18.4559091 C90.8908182,17.9670909 90.6743333,17.1944242 90.6743333,16.1373333 C90.6743333,15.7999394 90.6806667,15.501697 90.6933333,15.2426061 C90.7123333,14.9766061 90.7215455,14.7071515 90.7215455,14.4336667 C90.7215455,13.8302727 90.7152121,13.2942424 90.7025455,12.827303 L90.7025455,12.827303 L90.6645455,11.6412424 L90.912697,11.6844242 L91.1608485,11.6947879 L91.3612121,11.6844242 L91.5707879,11.6412424 L91.5327879,12.2665152 L91.4947879,13.129 L91.466,14.1751515 L91.4567879,15.3393333 L91.466,16.1050909 C91.4723333,16.3641818 91.4947879,16.6192424 91.5327879,16.8708485 C91.5707879,17.1155455 91.6312424,17.3527576 91.7141515,17.5824848 C91.8028182,17.805303 91.9271818,18.0033636 92.0860909,18.1755152 C92.245,18.3413333 92.4453636,18.4737576 92.6877576,18.5745152 C92.929,18.6683636 93.2278182,18.7144242 93.5842121,18.7144242 C93.9342727,18.7144242 94.2267576,18.6574242 94.4622424,18.5422727 C94.7034848,18.4271212 94.9009697,18.2762727 95.0535455,18.0891515 C95.2061212,17.9026061 95.3235758,17.686697 95.4064848,17.4425758 C95.4951515,17.1978788 95.5596364,16.9428182 95.5976364,16.6768182 C95.6356364,16.4108182 95.6580909,16.1448182 95.6644242,15.8788182 L95.6644242,15.8788182 L95.6736364,15.1458788 L95.6644242,12.7841212 C95.6580909,12.2302424 95.6419697,11.8490909 95.6166364,11.6412424 L95.6166364,11.6412424 L95.8164242,11.6844242 L96.0075758,11.6947879 C96.0904848,11.6947879 96.1860606,11.6769394 96.2937273,11.6412424 L96.2937273,11.6412424 Z M80.5392727,11.5007576 C80.8634242,11.5007576 81.1501515,11.5220606 81.398303,11.5658182 C81.6522121,11.6015152 81.8750303,11.6516061 82.0661818,11.7166667 C82.2630909,11.7811515 82.4346667,11.8490909 82.5814848,11.9216364 L82.5814848,11.9216364 L82.9724242,12.1260303 C82.9211818,12.2267879 82.8739697,12.3563333 82.8296364,12.5146667 C82.7910606,12.6724242 82.7657273,12.8203939 82.7530606,12.9568485 L82.7530606,12.9568485 L82.6384848,12.9568485 C82.5429091,12.827303 82.422,12.6977576 82.2763333,12.5682121 C82.1358485,12.4392424 81.9769394,12.3275455 81.7990303,12.2342727 C81.6268788,12.1335152 81.4334242,12.0546364 81.2169394,11.9970606 C81.0073636,11.932 80.7810909,11.8997576 80.5392727,11.8997576 C80.1448788,11.8997576 79.7758182,11.9682727 79.4326667,12.1047273 C79.0952727,12.2411818 78.7999091,12.4530606 78.5454242,12.7409394 C78.2972727,13.0213333 78.1003636,13.3806061 77.9541212,13.8193333 C77.8136364,14.2505758 77.7439697,14.7647273 77.7439697,15.3612121 C77.7439697,15.886303 77.807303,16.3607273 77.9351212,16.7844848 C78.0623636,17.2088182 78.2466061,17.5680909 78.4884242,17.8628788 C78.736,18.1501818 79.0348182,18.3735758 79.3848788,18.5313333 C79.7412727,18.6896667 80.142,18.7685455 80.5870606,18.7685455 L80.5870606,18.7685455 L81.0073636,18.7472424 C81.1530303,18.7328485 81.2929394,18.7109697 81.4265152,18.6827576 C81.567,18.6539697 81.6942424,18.617697 81.8082424,18.5745152 C81.9291515,18.5313333 82.0310606,18.4812424 82.1139697,18.4236667 L82.1139697,18.4236667 L82.1231818,17.7765152 L82.1329697,17.119 L82.1139697,16.3641818 L82.0851818,15.6416061 C82.2440909,15.6778788 82.3966667,15.6957273 82.5429091,15.6957273 L82.5429091,15.6957273 L82.7530606,15.6847879 C82.8227273,15.6778788 82.8900909,15.6629091 82.9534242,15.6416061 L82.9534242,15.6416061 L82.9246364,16.4286667 L82.9154242,17.8306364 L82.9154242,18.2728182 L82.9246364,18.7040606 C82.7910606,18.7616364 82.6223636,18.8226667 82.4191212,18.8871515 C82.2216364,18.9447273 82.0086061,18.9913636 81.7800303,19.0276364 C81.5572121,19.0708182 81.3309394,19.1065152 81.1023636,19.135303 C80.8801212,19.171 80.676303,19.1894242 80.4914848,19.1894242 C79.9255152,19.1894242 79.4136667,19.1134242 78.9553636,18.9625758 C78.5039697,18.8048182 78.1187879,18.5635758 77.8009697,18.24 C77.4831515,17.917 77.2378788,17.5139697 77.066303,17.0326364 C76.8947273,16.551303 76.8089394,15.9939697 76.8089394,15.3612121 C76.8089394,14.7503333 76.8976061,14.2073939 77.0760909,13.7329697 C77.254,13.2516364 77.5056061,12.8451515 77.8297576,12.5146667 C78.1539091,12.1836061 78.5454242,11.932 79.0037273,11.7592727 C79.4677879,11.5871212 79.9796364,11.5007576 80.5392727,11.5007576 Z M119.206,11.5007576 C119.73397,11.5007576 120.21703,11.5871212 120.656333,11.7592727 C121.095061,11.932 121.470455,12.1836061 121.781939,12.5146667 C122.100333,12.8451515 122.345606,13.2516364 122.517182,13.7329697 C122.695091,14.2073939 122.784333,14.7503333 122.784333,15.3612121 C122.784333,15.9726667 122.695091,16.5184848 122.517182,17.0003939 C122.345606,17.4748182 122.100333,17.8772727 121.781939,18.2077576 C121.470455,18.5388182 121.095061,18.7869697 120.656333,18.9522121 C120.21703,19.1099697 119.73397,19.1894242 119.206,19.1894242 C118.684364,19.1894242 118.204182,19.1099697 117.765455,18.9522121 C117.326727,18.7869697 116.947879,18.5388182 116.630061,18.2077576 C116.318,17.8772727 116.073879,17.4748182 115.895394,17.0003939 C115.723818,16.5184848 115.637455,15.9726667 115.637455,15.3612121 C115.637455,14.7503333 115.723818,14.2073939 115.895394,13.7329697 C116.073879,13.2516364 116.318,12.8451515 116.630061,12.5146667 C116.947879,12.1836061 117.326727,11.932 117.765455,11.7592727 C118.204182,11.5871212 118.684364,11.5007576 119.206,11.5007576 Z M57.1404848,11.5007576 C57.4456364,11.5007576 57.7099091,11.5439394 57.9327273,11.630303 C58.1549697,11.7091818 58.3616667,11.8352727 58.5528182,12.008 C58.4952424,12.1294848 58.4480303,12.2590303 58.4094545,12.3960606 C58.3714545,12.5325152 58.3328788,12.7052424 58.2948788,12.9136667 L58.2948788,12.9136667 L58.1808788,12.9136667 C58.1486364,12.8129091 58.104303,12.7052424 58.047303,12.5900909 C57.9960606,12.4674545 57.9229394,12.3563333 57.8273636,12.2555758 C57.738697,12.1553939 57.6304545,12.0724848 57.5032121,12.008 C57.3759697,11.9354545 57.2228182,11.8997576 57.0454848,11.8997576 C56.867,11.8997576 56.7011818,11.932 56.5491818,11.9970606 C56.4023636,12.0615455 56.2722424,12.1553939 56.1576667,12.2774545 C56.0494242,12.3926061 55.9636364,12.5325152 55.900303,12.6977576 C55.8427273,12.8635758 55.8145152,13.0426364 55.8145152,13.2372424 C55.8145152,13.5746364 55.8876364,13.8406364 56.0338788,14.0346667 C56.1864545,14.2292727 56.3741515,14.3945152 56.5963939,14.5309697 C56.8192121,14.6605152 57.0581515,14.7791212 57.3120606,14.8867879 C57.5728788,14.9875455 57.814697,15.1130606 58.0375152,15.2644848 C58.2603333,15.4153333 58.4445758,15.6093636 58.5908182,15.8465758 C58.7433939,16.0837879 58.8199697,16.3998788 58.8199697,16.7954242 C58.8199697,17.1259091 58.7658485,17.4391212 58.6576061,17.7333333 C58.555697,18.0281212 58.4031212,18.2872121 58.199303,18.5100303 C58.0023939,18.7253636 57.757697,18.8946364 57.4646364,19.016697 C57.1784848,19.1318485 56.8508788,19.1894242 56.4823939,19.1894242 C56.0874242,19.1894242 55.7667273,19.1318485 55.5185758,19.016697 C55.2767576,18.8946364 55.0729394,18.7576061 54.9082727,18.6067576 C54.964697,18.4415152 55.0032727,18.2941212 55.0222727,18.1651515 C55.0476061,18.0281212 55.0700606,17.8559697 55.0890606,17.6475455 L55.0890606,17.6475455 L55.2036364,17.6475455 C55.254303,17.7765152 55.3210909,17.9095152 55.404,18.0459697 C55.4926667,18.1755152 55.5980303,18.2941212 55.7189394,18.4023636 C55.8461818,18.5100303 55.9924242,18.5998485 56.1576667,18.6718182 C56.3234848,18.736303 56.5077273,18.7685455 56.7115455,18.7685455 C56.9211212,18.7685455 57.1088182,18.7293939 57.2740606,18.6499394 C57.4456364,18.5635758 57.589,18.4524545 57.7035758,18.316 C57.8244848,18.1720606 57.9166061,18.0062424 57.9799394,17.819697 C58.0432727,17.6256667 58.0755152,17.4212727 58.0755152,17.2053636 C58.0755152,16.8748788 57.9989394,16.6117576 57.8463636,16.4177273 C57.7001212,16.223697 57.5158788,16.0624848 57.2930606,15.9329394 C57.0708182,15.8033939 56.829,15.6847879 56.5681818,15.5765455 C56.313697,15.4688788 56.0747576,15.3358788 55.8525152,15.1781212 C55.629697,15.012303 55.4425758,14.8038788 55.2894242,14.5522727 C55.1431818,14.3012424 55.0700606,13.962697 55.0700606,13.5389394 C55.0700606,13.2372424 55.1178485,12.9637576 55.2134242,12.7196364 C55.309,12.4674545 55.4454545,12.2521212 55.6233636,12.0724848 C55.8081818,11.8928485 56.0269697,11.7523636 56.2814545,11.6516061 C56.5359394,11.5508485 56.8226667,11.5007576 57.1404848,11.5007576 Z M131.955,11.5007576 C132.260152,11.5007576 132.524424,11.5439394 132.746667,11.630303 C132.969485,11.7091818 133.176182,11.8352727 133.367333,12.008 C133.309758,12.1294848 133.26197,12.2590303 133.22397,12.3960606 C133.185394,12.5325152 133.147394,12.7052424 133.109394,12.9136667 L133.109394,12.9136667 L132.994818,12.9136667 C132.963152,12.8129091 132.918242,12.7052424 132.861242,12.5900909 C132.810576,12.4674545 132.737455,12.3563333 132.641879,12.2555758 C132.552636,12.1553939 132.44497,12.0724848 132.317727,12.008 C132.190485,11.9354545 132.037333,11.8997576 131.86,11.8997576 C131.681515,11.8997576 131.516273,11.932 131.363697,11.9970606 C131.216879,12.0615455 131.086758,12.1553939 130.972758,12.2774545 C130.863939,12.3926061 130.778152,12.5325152 130.714818,12.6977576 C130.657242,12.8635758 130.628455,13.0426364 130.628455,13.2372424 C130.628455,13.5746364 130.701576,13.8406364 130.848394,14.0346667 C131.00097,14.2292727 131.188667,14.3945152 131.410909,14.5309697 C131.633727,14.6605152 131.872091,14.7791212 132.126576,14.8867879 C132.387394,14.9875455 132.629212,15.1130606 132.85203,15.2644848 C133.074848,15.4153333 133.259091,15.6093636 133.405333,15.8465758 C133.557909,16.0837879 133.634485,16.3998788 133.634485,16.7954242 C133.634485,17.1259091 133.580364,17.4391212 133.472121,17.7333333 C133.370212,18.0281212 133.218212,18.2872121 133.013818,18.5100303 C132.816909,18.7253636 132.571636,18.8946364 132.279152,19.016697 C131.993,19.1318485 131.66597,19.1894242 131.296909,19.1894242 C130.902515,19.1894242 130.581242,19.1318485 130.333091,19.016697 C130.091273,18.8946364 129.88803,18.7576061 129.722212,18.6067576 C129.779788,18.4415152 129.817788,18.2941212 129.836788,18.1651515 C129.862697,18.0281212 129.885152,17.8559697 129.903576,17.6475455 L129.903576,17.6475455 L130.018152,17.6475455 C130.068818,17.7765152 130.135606,17.9095152 130.218515,18.0459697 C130.307758,18.1755152 130.412545,18.2941212 130.532879,18.4023636 C130.660697,18.5100303 130.806939,18.5998485 130.972758,18.6718182 C131.137424,18.736303 131.322242,18.7685455 131.526061,18.7685455 C131.735636,18.7685455 131.923333,18.7293939 132.088576,18.6499394 C132.260152,18.5635758 132.402939,18.4524545 132.518091,18.316 C132.639,18.1720606 132.730545,18.0062424 132.794455,17.819697 C132.858364,17.6256667 132.89003,17.4212727 132.89003,17.2053636 C132.89003,16.8748788 132.81403,16.6117576 132.661455,16.4177273 C132.514636,16.223697 132.330394,16.0624848 132.107576,15.9329394 C131.884758,15.8033939 131.642939,15.6847879 131.382697,15.5765455 C131.128212,15.4688788 130.889273,15.3358788 130.666455,15.1781212 C130.444788,15.012303 130.256515,14.8038788 130.103939,14.5522727 C129.957697,14.3012424 129.885152,13.962697 129.885152,13.5389394 C129.885152,13.2372424 129.932364,12.9637576 130.027939,12.7196364 C130.122939,12.4674545 130.25997,12.2521212 130.437879,12.0724848 C130.622121,11.8928485 130.842061,11.7523636 131.096545,11.6516061 C131.350455,11.5508485 131.637182,11.5007576 131.955,11.5007576 Z M69.6223333,11.6412424 C69.6033333,11.7489091 69.5935455,11.8565758 69.5935455,11.9648182 C69.5935455,12.0724848 69.6033333,12.1801515 69.6223333,12.2883939 L69.6223333,12.2883939 L69.0592424,12.2452121 L68.5249394,12.2020303 L67.9146364,12.1697879 C67.6918182,12.1553939 67.4246667,12.1479091 67.1126061,12.1479091 L67.1126061,12.1479091 L67.0843939,12.8054242 L67.0746061,13.5176364 L67.0746061,14.3369394 L67.0843939,14.9403333 L67.8380606,14.9299697 L68.4483636,14.9086667 L68.9544545,14.8758485 L69.4029697,14.8326667 C69.3839697,14.9403333 69.3741818,15.0526061 69.3741818,15.1671818 C69.3741818,15.2748485 69.3839697,15.3825152 69.4029697,15.4907576 L69.4029697,15.4907576 L68.8208788,15.4366364 C68.6043939,15.4222424 68.3850303,15.4153333 68.1622121,15.4153333 L68.1622121,15.4153333 L67.5421212,15.4043939 L67.0843939,15.3940303 L67.0746061,15.6093636 L67.0746061,17.9705455 L67.0941818,18.5745152 L67.7614848,18.5745152 L68.4673636,18.5635758 L69.1260303,18.5203939 C69.3361818,18.4990909 69.5169697,18.470303 69.6701212,18.4346061 L69.6701212,18.4346061 L69.6419091,18.6067576 L69.6419091,18.7685455 C69.6419091,18.883697 69.6511212,18.9775455 69.6701212,19.0489394 C69.3839697,19.0345455 69.0978182,19.0276364 68.8110909,19.0276364 L68.8110909,19.0276364 L67.0843939,19.0276364 C66.7982424,19.0276364 66.5086364,19.0345455 66.2161515,19.0489394 L66.2161515,19.0489394 L66.2639394,17.6797879 C66.2829394,17.2197576 66.2921515,16.7522424 66.2921515,16.2778182 L66.2921515,16.2778182 L66.2921515,14.423303 C66.2921515,13.9488788 66.2829394,13.4813636 66.2639394,13.0213333 L66.2639394,13.0213333 L66.2161515,11.6412424 L67.0653939,11.6844242 L67.9238485,11.6947879 L68.7730909,11.6844242 Z M106.333212,11.6412424 C106.600364,11.6412424 106.854848,11.6700303 107.096667,11.7276061 C107.337909,11.7846061 107.548061,11.8819091 107.72597,12.0183636 C107.910788,12.1479091 108.054152,12.3200606 108.155485,12.5359697 C108.263727,12.7518788 108.317848,13.0213333 108.317848,13.3449091 C108.317848,13.6897879 108.248182,13.9880303 108.108273,14.2402121 C107.974697,14.4843333 107.808879,14.689303 107.61197,14.8545455 C107.414485,15.012303 107.201455,15.1383939 106.972303,15.2316667 C106.750061,15.3180303 106.546242,15.3756061 106.361424,15.4043939 L106.361424,15.4043939 L106.676939,15.8569394 L107.124879,16.5040909 L107.640182,17.2376061 L108.155485,17.9705455 L108.623,18.6067576 L108.975939,19.0489394 C108.880939,19.0345455 108.785364,19.0276364 108.689788,19.0276364 L108.689788,19.0276364 L108.126697,19.0276364 C108.031121,19.0276364 107.939576,19.0345455 107.849758,19.0489394 L107.849758,19.0489394 L107.41103,18.3695455 L106.772515,17.3993939 C106.536455,17.0539394 106.295212,16.7125152 106.047061,16.3745455 C105.805242,16.0296667 105.582424,15.7389091 105.379182,15.501697 L105.379182,15.501697 L105.016455,15.501697 L105.016455,16.2881818 L105.035455,17.6907273 L105.09303,19.0489394 C104.946788,19.0345455 104.790758,19.0276364 104.624939,19.0276364 C104.459697,19.0276364 104.304242,19.0345455 104.158,19.0489394 L104.158,19.0489394 L104.205212,17.6907273 C104.224788,17.2301212 104.234,16.7626061 104.234,16.2881818 L104.234,16.2881818 L104.234,14.4336667 C104.234,13.9598182 104.224788,13.4957576 104.205212,13.0426364 L104.205212,13.0426364 L104.158,11.6412424 L104.701515,11.6844242 L105.245606,11.6947879 C105.430424,11.6947879 105.611212,11.6878788 105.789697,11.6734848 C105.967606,11.6516061 106.148394,11.6412424 106.333212,11.6412424 Z M119.206,11.8997576 C118.836939,11.8997576 118.490333,11.9682727 118.166182,12.1047273 C117.848364,12.2411818 117.56797,12.4530606 117.326727,12.7409394 C117.091242,13.0213333 116.906424,13.3806061 116.772848,13.8193333 C116.639273,14.2505758 116.573061,14.7647273 116.573061,15.3612121 C116.573061,15.9582727 116.639273,16.475303 116.772848,16.9140303 C116.906424,17.3452727 117.091242,17.7045455 117.326727,17.9924242 C117.56797,18.2728182 117.848364,18.4812424 118.166182,18.617697 C118.490333,18.7541515 118.836939,18.8226667 119.206,18.8226667 C119.581394,18.8226667 119.928,18.7541515 120.245818,18.617697 C120.570545,18.4812424 120.850364,18.2728182 121.085848,17.9924242 C121.327091,17.7045455 121.514788,17.3452727 121.648939,16.9140303 C121.781939,16.475303 121.848727,15.9582727 121.848727,15.3612121 C121.848727,14.7647273 121.781939,14.2505758 121.648939,13.8193333 C121.514788,13.3806061 121.327091,13.0213333 121.085848,12.7409394 C120.850364,12.4530606 120.570545,12.2411818 120.245818,12.1047273 C119.928,11.9682727 119.581394,11.8997576 119.206,11.8997576 Z M105.999273,12.0396667 C105.776455,12.0396667 105.592212,12.0471515 105.445394,12.0615455 L105.445394,12.0615455 L105.073455,12.0937879 L105.035455,13.2694848 L105.016455,14.4336667 L105.016455,15.0485758 C105.105697,15.0698788 105.201273,15.0842727 105.302606,15.0917576 L105.302606,15.0917576 L105.655545,15.1021212 C105.85303,15.1021212 106.056848,15.0773636 106.266424,15.026697 C106.482909,14.9766061 106.679818,14.8902424 106.857727,14.7681818 C107.036212,14.6386364 107.182455,14.4699394 107.296455,14.2615152 C107.417364,14.0456061 107.477818,13.7761515 107.477818,13.4525758 C107.477818,13.1721818 107.430606,12.9418788 107.33503,12.7628182 C107.245788,12.575697 107.128333,12.428303 106.982091,12.3200606 C106.835848,12.2123939 106.676939,12.141 106.504788,12.1047273 C106.333212,12.0615455 106.164515,12.0396667 105.999273,12.0396667 Z" id="Combined-Shape"></path>
            </g>
        </g>
    </g>
</svg>