<?xml version="1.0" encoding="UTF-8" standalone="no"?>
<svg
   xmlns:dc="http://purl.org/dc/elements/1.1/"
   xmlns:cc="http://creativecommons.org/ns#"
   xmlns:rdf="http://www.w3.org/1999/02/22-rdf-syntax-ns#"
   xmlns:svg="http://www.w3.org/2000/svg"
   xmlns="http://www.w3.org/2000/svg"
   xmlns:sodipodi="http://sodipodi.sourceforge.net/DTD/sodipodi-0.dtd"
   xmlns:inkscape="http://www.inkscape.org/namespaces/inkscape"
   width="1920"
   height="600"
   viewBox="0 0 285.75 242.13384"
   version="1.2"
   id="svg5"
   sodipodi:docname="FondoVerdePlantilla2_2.svg"
   inkscape:version="1.0.1 (3bc2e813f5, 2020-09-07)">
  <metadata
     id="metadata11">
    <rdf:RDF>
      <cc:Work
         rdf:about="">
        <dc:format>image/svg+xml</dc:format>
        <dc:type
           rdf:resource="http://purl.org/dc/dcmitype/StillImage" />
        <dc:title></dc:title>
      </cc:Work>
    </rdf:RDF>
  </metadata>
  <defs
     id="defs9">
    <inkscape:path-effect
       effect="powerclip"
       id="path-effect854"
       is_visible="true"
       lpeversion="1"
       inverse="true"
       flatten="false"
       hide_clip="false"
       message="Use fill-rule evenodd on &lt;b&gt;fill and stroke&lt;/b&gt; dialog if no flatten result after convert clip to paths." />
    <clipPath
       clipPathUnits="userSpaceOnUse"
       id="clipPath850">
      <path
         style="display:none;fill:none;stroke:#000000;stroke-width:0.696538px;stroke-linecap:butt;stroke-linejoin:miter;stroke-opacity:1"
         d="m -1.064307,300.53352 c 0,0 224.496597,65.62338 540.079927,14.23158 315.58334,-51.39182 543.76028,0 543.76028,0 l -1.8401,73.52981 C 719.96237,363.78497 -150.87655,587.04285 -1.064307,300.53352 Z"
         id="path852"
         sodipodi:nodetypes="csccc" />
      <path
         id="lpe_path-effect854"
         style="fill:none;stroke:#000000;stroke-width:0.696538px;stroke-linecap:butt;stroke-linejoin:miter;stroke-opacity:1"
         class="powerclip"
         d="M -251.97637,-6.492188 H 534.28679 V 185.90899 H -251.97637 Z M -1.064307,300.53352 C -150.87655,587.04285 719.96237,363.78497 1080.9358,388.29491 l 1.8401,-73.52981 c 0,0 -228.17694,-51.39182 -543.76028,0 C 223.43229,366.1569 -1.064307,300.53352 -1.064307,300.53352 Z" />
    </clipPath>
  </defs>
  <sodipodi:namedview
     pagecolor="#ffffff"
     bordercolor="#666666"
     borderopacity="1"
     objecttolerance="10"
     gridtolerance="10"
     guidetolerance="10"
     inkscape:pageopacity="0"
     inkscape:pageshadow="2"
     inkscape:window-width="1920"
     inkscape:window-height="1053"
     id="namedview7"
     showgrid="false"
     inkscape:zoom="0.35355339"
     inkscape:cx="612.65892"
     inkscape:cy="14.99925"
     inkscape:window-x="-9"
     inkscape:window-y="-9"
     inkscape:window-maximized="1"
     inkscape:current-layer="surface1"
     inkscape:document-rotation="0"
     units="px"
     inkscape:snap-midpoints="true" />
  <g
     id="surface1"
     transform="matrix(0.99815156,0,0,1.1615446,1.980707,1.7332429)"
     clip-path="url(#clipPath850)"
     inkscape:path-effect="#path-effect854">
    <path
       id="path2012"
       style="fill:#3baba6;fill-opacity:1;fill-rule:nonzero;stroke:none;stroke-width:0.621316"
       d="M -246.97637,-1.492188 V 168.3187 c 2.02157,0.26229 5.29653,0.91502 10.01836,1.79958 2.36092,0.44228 5.08345,0.94301 8.19189,1.48133 3.10845,0.53833 6.60288,1.11465 10.50716,1.70934 3.90429,0.59468 8.21851,1.20789 12.96694,1.81926 4.74843,0.61136 9.93112,1.22071 15.57201,1.80908 5.64089,0.58837 11.73994,1.15515 18.32159,1.68083 6.58165,0.52569 13.64575,1.01052 21.21647,1.43383 6.0826,0.34011 12.73953,0.60611 19.4887,0.85704 h 97.756216 c 5.840211,-0.18792 11.810221,-0.40571 17.93782,-0.66229 6.3096777,-0.26419 12.7728043,-0.56606 19.3931565,-0.90793 6.6203475,-0.34187 13.3981525,-0.72365 20.3352115,-1.14815 6.937064,-0.42451 14.034046,-0.89187 21.293857,-1.40397 7.259811,-0.5121 14.682059,-1.06939 22.270663,-1.67405 7.588599,-0.60466 15.342987,-1.25688 23.266414,-1.95905 7.92343,-0.70217 16.016052,-1.45433 24.280342,-2.25898 8.26429,-0.80464 16.70043,-1.66175 25.31162,-2.57383 7.18982,-1.11024 14.30951,-2.15146 21.35703,-3.12756 7.04754,-0.9761 14.02279,-1.88694 20.92272,-2.73534 6.89993,-0.8484 13.72478,-1.63431 20.47184,-2.36145 6.74702,-0.72713 13.41625,-1.3956 20.00511,-2.0079 6.58885,-0.6123 13.09729,-1.16878 19.52269,-1.67269 6.42536,-0.50391 12.76775,-0.9552 19.02435,-1.35715 6.2566,-0.40195 12.42781,-0.75419 18.51032,-1.06062 6.08255,-0.30642 12.07651,-0.56709 17.97967,-0.78443 5.90316,-0.21733 11.71555,-0.39122 17.43402,-0.5259 5.71851,-0.13468 11.34327,-0.22993 16.8718,-0.28839 5.52853,-0.0585 10.96047,-0.0805 16.29376,-0.0692 5.33325,0.0113 10.56721,0.0563 15.69993,0.13096 5.13271,0.0747 10.16427,0.1792 15.09112,0.31079 4.92684,0.13158 9.74922,0.29023 14.46489,0.47229 9.43144,0.36412 18.4354,0.82226 26.99043,1.34968 8.55507,0.52743 16.66144,1.1237 24.29772,1.76294 7.63629,0.63924 14.8027,1.3219 21.47787,2.02148 6.67514,0.69958 12.85917,1.41618 18.53082,2.12462 5.67165,0.70844 10.83097,1.4086 15.45673,2.07441 4.62576,0.66581 8.71792,1.29709 12.25546,1.86879 3.53754,0.57171 6.52013,1.08372 8.92707,1.50984 4.28295,0.75824 6.0329,1.10594 6.54939,1.17665 V -1.492188 Z"
       inkscape:original-d="M -246.97637,-1.492188 V 168.3187 c 2.02157,0.26229 5.29653,0.91502 10.01836,1.79958 2.36092,0.44228 5.08345,0.94301 8.19189,1.48133 3.10845,0.53833 6.60288,1.11465 10.50716,1.70934 3.90429,0.59468 8.21851,1.20789 12.96694,1.81926 4.74843,0.61136 9.93112,1.22071 15.57201,1.80908 5.64089,0.58837 11.73994,1.15515 18.32159,1.68083 6.58165,0.52569 13.64575,1.01052 21.21647,1.43383 6.0826,0.34011 12.73953,0.60611 19.4887,0.85704 h 97.756216 c 5.840211,-0.18792 11.810221,-0.40571 17.93782,-0.66229 6.3096777,-0.26419 12.7728043,-0.56606 19.3931565,-0.90793 6.6203475,-0.34187 13.3981525,-0.72365 20.3352115,-1.14815 6.937064,-0.42451 14.034046,-0.89187 21.293857,-1.40397 7.259811,-0.5121 14.682059,-1.06939 22.270663,-1.67405 7.588599,-0.60466 15.342987,-1.25688 23.266414,-1.95905 7.92343,-0.70217 16.016052,-1.45433 24.280342,-2.25898 8.26429,-0.80464 16.70043,-1.66175 25.31162,-2.57383 7.18982,-1.11024 14.30951,-2.15146 21.35703,-3.12756 7.04754,-0.9761 14.02279,-1.88694 20.92272,-2.73534 6.89993,-0.8484 13.72478,-1.63431 20.47184,-2.36145 6.74702,-0.72713 13.41625,-1.3956 20.00511,-2.0079 6.58885,-0.6123 13.09729,-1.16878 19.52269,-1.67269 6.42536,-0.50391 12.76775,-0.9552 19.02435,-1.35715 6.2566,-0.40195 12.42781,-0.75419 18.51032,-1.06062 6.08255,-0.30642 12.07651,-0.56709 17.97967,-0.78443 5.90316,-0.21733 11.71555,-0.39122 17.43402,-0.5259 5.71851,-0.13468 11.34327,-0.22993 16.8718,-0.28839 5.52853,-0.0585 10.96047,-0.0805 16.29376,-0.0692 5.33325,0.0113 10.56721,0.0563 15.69993,0.13096 5.13271,0.0747 10.16427,0.1792 15.09112,0.31079 4.92684,0.13158 9.74922,0.29023 14.46489,0.47229 9.43144,0.36412 18.4354,0.82226 26.99043,1.34968 8.55507,0.52743 16.66144,1.1237 24.29772,1.76294 7.63629,0.63924 14.8027,1.3219 21.47787,2.02148 6.67514,0.69958 12.85917,1.41618 18.53082,2.12462 5.67165,0.70844 10.83097,1.4086 15.45673,2.07441 4.62576,0.66581 8.71792,1.29709 12.25546,1.86879 3.53754,0.57171 6.52013,1.08372 8.92707,1.50984 4.28295,0.75824 6.0329,1.10594 6.54939,1.17665 V -1.492188 Z" />
  </g>
</svg>
