<?xml version="1.0" encoding="UTF-8"?>
<svg width="100px" height="27px" viewBox="0 0 100 27" version="1.1" xmlns="http://www.w3.org/2000/svg" xmlns:xlink="http://www.w3.org/1999/xlink">
    <title>ADF99352-03DB-42B2-88B7-A74170C9B488</title>
    <g id="logos-aseguradoras" stroke="none" stroke-width="1" fill="none" fill-rule="evenodd">
        <g id="logos-variantes" transform="translate(-1001.000000, -1618.000000)">
            <rect id="Rectangle" fill="#989898" x="0" y="1211" width="1440" height="1299"></rect>
            <g id="icn-inbursa-blanco" transform="translate(1001.000000, 1618.000000)" fill="#FFFFFF">
                <path d="M19.5863846,14.83164 L19.5863846,24.5531829 C17.5879231,25.7056971 15.4394615,26.2564971 13.141,26.2564971 L13.141,26.2564971 L13.141,19.8929829 C14.6894615,19.8929829 16.0894615,19.3915543 17.2886923,18.4396114 C18.4871538,17.4876686 19.2363846,16.2850114 19.5863846,14.83164 L19.5863846,14.83164 Z M59.3504615,18.8125971 C59.6650769,18.8125971 59.942,18.8943686 60.1827692,19.0563686 C60.4235385,19.2183686 60.6050769,19.4474829 60.7266154,19.74294 C60.8496923,20.0383971 60.9112308,20.3623971 60.9112308,20.71494 C60.9112308,21.0921686 60.8435385,21.43314 60.7081538,21.73554 C60.5727692,22.03794 60.3766154,22.2693686 60.1189231,22.4305971 C59.8604615,22.5910543 59.5896923,22.6720543 59.3050769,22.6720543 C59.0973846,22.6720543 58.9112308,22.6280829 58.7458462,22.54014 C58.5804615,22.4521971 58.4450769,22.34034 58.3389231,22.2068829 L58.3389231,24.0027686 L57.7150769,24.0027686 L57.7150769,18.8974543 L58.2835385,18.8974543 L58.2835385,19.3765114 C58.4173846,19.1890543 58.5681538,19.0478829 58.7373846,18.9537686 C58.9058462,18.8604257 59.1104615,18.8125971 59.3504615,18.8125971 Z M48.3344615,17.4054343 C48.7013846,17.4054343 49.0336923,17.4648343 49.3313846,17.5844057 C49.6283077,17.7032057 49.8606154,17.8690629 50.0290769,18.0827486 C50.1983077,18.2964343 50.326,18.5741486 50.4152308,18.9174343 L49.8075385,19.0848343 C49.7313846,18.8240914 49.636,18.6204343 49.5236923,18.47232 C49.4106154,18.3234343 49.2483077,18.2054057 49.0375385,18.11592 C48.8283077,18.0272057 48.5936923,17.9824629 48.3383077,17.9824629 C48.0306154,17.9824629 47.7644615,18.02952 47.5406154,18.1236343 C47.316,18.2169771 47.136,18.3404057 46.9975385,18.49392 C46.8606154,18.6466629 46.7536923,18.8140629 46.6767692,18.9976629 C46.5475385,19.3124057 46.4829231,19.6541486 46.4829231,20.0228914 C46.4829231,20.4772629 46.5606154,20.8575771 46.7175385,21.1638343 C46.8736923,21.46932 47.1006154,21.69612 47.3983077,21.8442343 C47.6967692,21.99312 48.0129231,22.0679486 48.3475385,22.0679486 C48.6398462,22.0679486 48.9236923,22.0108629 49.2006154,21.8982343 C49.4790769,21.7863771 49.6883077,21.6660343 49.8313846,21.5379771 L49.8313846,20.58912 L48.3383077,20.58912 L48.3383077,19.9920343 L50.4906154,19.9889486 L50.4906154,21.8789486 C50.1606154,22.1435486 49.8198462,22.3418057 49.4683077,22.4760343 C49.1167692,22.60872 48.756,22.6750629 48.3867692,22.6750629 C47.8875385,22.6750629 47.4329231,22.5686057 47.026,22.3533771 C46.6175385,22.1396914 46.3098462,21.8288057 46.1021538,21.4245771 C45.8936923,21.0188057 45.7898462,20.5652057 45.7898462,20.0645486 C45.7898462,19.56852 45.8936923,19.1056629 46.1006154,18.6767486 C46.306,18.24552 46.6044615,17.9261486 46.9929231,17.7170914 C47.3806154,17.5095771 47.8283077,17.4054343 48.3344615,17.4054343 Z M54.3762308,18.8972229 L54.3762308,20.9438229 C54.3762308,21.2709086 54.3893077,21.4907657 54.4139231,21.6049371 C54.4539231,21.7700229 54.537,21.89808 54.6639231,21.9929657 C54.7916154,22.08708 54.9485385,22.1325943 55.1362308,22.1325943 C55.3231538,22.1325943 55.4977692,22.0855371 55.6623846,21.9891086 C55.827,21.8934514 55.9423846,21.7615371 56.0100769,21.5964514 C56.0793077,21.4305943 56.1131538,21.1899086 56.1131538,20.8751657 L56.1131538,18.8972229 L56.737,18.8972229 L56.737,22.5885086 L56.1793077,22.5885086 L56.1793077,22.0461943 C55.8916154,22.4643086 55.5031538,22.6718229 55.0100769,22.6718229 C54.7939231,22.6718229 54.5908462,22.6301657 54.4023846,22.5468514 C54.2139231,22.4643086 54.0746923,22.3586229 53.9839231,22.23288 C53.8908462,22.1055943 53.827,21.9513086 53.7908462,21.76848 C53.7654615,21.6450514 53.7523846,21.4506514 53.7523846,21.1837371 L53.7523846,18.8972229 L54.3762308,18.8972229 Z M79.0033077,18.81252 C79.3179231,18.81252 79.5725385,18.8510914 79.7686923,18.9243771 C79.9656154,18.9992057 80.1094615,19.0917771 80.2033077,19.2044057 C80.2948462,19.3170343 80.3594615,19.4582057 80.3971538,19.6302343 C80.4171538,19.7374629 80.4279231,19.9295486 80.4279231,20.2064914 L80.4279231,21.0411771 C80.4279231,21.6236057 80.441,21.9915771 80.4686923,22.1450914 C80.4940769,22.2986057 80.5479231,22.4474914 80.6256154,22.5886629 L79.9733077,22.5886629 C79.9094615,22.4590629 79.8671538,22.3070914 79.8494615,22.1327486 C79.6171538,22.3294629 79.3948462,22.4690914 79.1817692,22.5508629 C78.9679231,22.6310914 78.7386923,22.6719771 78.4933077,22.6719771 C78.0886923,22.6719771 77.7786923,22.5732343 77.561,22.3749771 C77.3440769,22.17672 77.2356154,21.92292 77.2356154,21.6158914 C77.2356154,21.4338343 77.2756154,21.2687486 77.3586923,21.1198629 C77.4402308,20.9702057 77.5479231,20.8498629 77.6802308,20.7603771 C77.8140769,20.67012 77.9633077,20.6006914 78.1302308,20.5551771 C78.2517692,20.5227771 78.4363846,20.4911486 78.6840769,20.4610629 C79.1879231,20.40012 79.5594615,20.3291486 79.7971538,20.2450629 C79.7994615,20.1594343 79.801,20.1046629 79.801,20.0822914 C79.801,19.82772 79.7417692,19.6472057 79.6233077,19.5438343 C79.4648462,19.40112 79.2271538,19.33092 78.9133077,19.33092 C78.6194615,19.33092 78.4033077,19.3826057 78.2625385,19.4852057 C78.1225385,19.5885771 78.0194615,19.7714057 77.9525385,20.0336914 L77.3433077,19.9496057 C77.3986923,19.6888629 77.4894615,19.4759486 77.6163846,19.3162629 C77.7433077,19.1542629 77.9279231,19.0300629 78.1679231,18.9428914 C78.4079231,18.8564914 78.6863846,18.81252 79.0033077,18.81252 Z M86.8301538,18.8128286 C87.2301538,18.8128286 87.5578462,18.9146571 87.8109231,19.1175429 C88.0655385,19.3204286 88.2286154,19.6081714 88.3009231,19.9815429 L87.694,20.0756571 C87.6363077,19.8272571 87.5347692,19.6413429 87.3878462,19.5156 C87.2409231,19.3906286 87.0632308,19.3273714 86.8555385,19.3273714 C86.5401538,19.3273714 86.2847692,19.44 86.0886154,19.6668 C85.8916923,19.8928286 85.7932308,20.25 85.7932308,20.7383143 C85.7932308,21.2351143 85.8886154,21.5953714 86.0793846,21.8206286 C86.2686154,22.0451143 86.5155385,22.1577429 86.8209231,22.1577429 C87.0655385,22.1577429 87.2693846,22.0821429 87.434,21.9309429 C87.5986154,21.7805143 87.7024615,21.5490857 87.7463077,21.2358857 L88.3593846,21.3161143 C88.2924615,21.7404 88.1209231,22.0721143 87.844,22.3120286 C87.5686154,22.5519429 87.2293846,22.6715143 86.8270769,22.6715143 C86.324,22.6715143 85.9178462,22.5064286 85.6124615,22.1770286 C85.3063077,21.8468571 85.1524615,21.3732 85.1524615,20.7560571 C85.1524615,20.358 85.2186154,20.0085429 85.3501538,19.7092286 C85.4824615,19.4106857 85.6824615,19.1862 85.9524615,19.0365429 C86.2209231,18.8876571 86.514,18.8128286 86.8301538,18.8128286 Z M98.2773077,18.8127514 C98.7834615,18.8127514 99.1973077,18.9786086 99.5180769,19.3118657 C99.8403846,19.6443514 99.9996154,20.1033514 99.9996154,20.6904086 C99.9996154,21.1656086 99.9288462,21.5397514 99.7873077,21.8112943 C99.645,22.08438 99.4380769,22.2957514 99.1673077,22.44618 C98.895,22.5966086 98.5988462,22.6714371 98.2773077,22.6714371 C97.7626923,22.6714371 97.3457692,22.5071229 97.0273077,22.1746371 C96.7096154,21.8436943 96.5511538,21.36618 96.5511538,20.7420943 C96.5511538,20.0586086 96.7403846,19.55178 97.1196154,19.2231514 C97.4357692,18.9500657 97.8211538,18.8127514 98.2773077,18.8127514 Z M63.1575385,18.8127514 C63.6636923,18.8127514 64.0775385,18.9786086 64.3983077,19.3118657 C64.7198462,19.6443514 64.8798462,20.1033514 64.8798462,20.6904086 C64.8798462,21.1656086 64.8090769,21.5397514 64.6667692,21.8112943 C64.5244615,22.08438 64.3175385,22.2957514 64.0467692,22.44618 C63.7744615,22.5966086 63.4790769,22.6714371 63.1575385,22.6714371 C62.6421538,22.6714371 62.226,22.5071229 61.9075385,22.1746371 C61.5898462,21.8436943 61.4306154,21.36618 61.4306154,20.7420943 C61.4306154,20.0586086 61.6198462,19.55178 61.9998462,19.2231514 C62.316,18.9500657 62.7013846,18.8127514 63.1575385,18.8127514 Z M91.9823077,18.8127514 C92.4746154,18.8127514 92.8769231,18.9809229 93.1876923,19.3172657 C93.5007692,19.6528371 93.6569231,20.1264943 93.6569231,20.7351514 C93.6569231,20.7729514 93.6553846,20.8284943 93.6530769,20.90178 L90.9076923,20.90178 C90.93,21.3083229 91.0453846,21.6192086 91.2507692,21.8336657 C91.4569231,22.0496657 91.7123077,22.1576657 92.02,22.1576657 C92.2484615,22.1576657 92.4438462,22.0974943 92.6061538,21.97638 C92.7684615,21.8560371 92.8961538,21.6639514 92.9907692,21.3993514 L93.6353846,21.47958 C93.5338462,21.85758 93.3453846,22.1507229 93.0707692,22.35978 C92.7953846,22.5672943 92.4438462,22.6714371 92.0161538,22.6714371 C91.4784615,22.6714371 91.0515385,22.50558 90.7361538,22.1730943 C90.4207692,21.8406086 90.2630769,21.3746657 90.2630769,20.7737229 C90.2630769,20.1527229 90.4230769,19.67058 90.7407692,19.3272943 C91.0607692,18.98478 91.4730769,18.8127514 91.9823077,18.8127514 Z M83.128,18.8123657 C83.3503077,18.8123657 83.5541538,18.8532514 83.7395385,18.9327086 C83.9272308,19.0129371 84.0649231,19.11708 84.1572308,19.2482229 C84.2510769,19.3778229 84.3149231,19.5321086 84.3526154,19.7095371 C84.3756923,19.8260229 84.3872308,20.0289086 84.3872308,20.3189657 L84.3872308,22.5885086 L83.7626154,22.5885086 L83.7626154,20.3421086 C83.7626154,20.0883086 83.7387692,19.8969943 83.6895385,19.77048 C83.6410769,19.6447371 83.5549231,19.54368 83.4318462,19.4688514 C83.308,19.39248 83.1633846,19.3554514 82.9972308,19.3554514 C82.7303077,19.3554514 82.5018462,19.4403086 82.308,19.6092514 C82.1156923,19.7781943 82.0195385,20.0991086 82.0195385,20.5727657 L82.0195385,22.5885086 L81.3956923,22.5885086 L81.3956923,18.8972229 L81.9564615,18.8972229 L81.9564615,19.4217943 C82.228,19.0152514 82.618,18.8123657 83.128,18.8123657 Z M72.5484615,18.8972229 L72.5484615,22.5885086 L71.9238462,22.5885086 L71.9238462,18.8972229 L72.5484615,18.8972229 Z M52.7541538,18.8123657 C52.9649231,18.8123657 53.1772308,18.8802514 53.3956923,19.01448 L53.1803077,19.5961371 C53.0287692,19.5043371 52.8756923,19.4595943 52.7233846,19.4595943 C52.5856923,19.4595943 52.4641538,19.5012514 52.3556923,19.5830229 C52.2464615,19.6655657 52.1695385,19.7797371 52.1233846,19.9255371 C52.0533846,20.1477086 52.0195385,20.3907086 52.0195385,20.6553086 L52.0195385,22.5885086 L51.3956923,22.5885086 L51.3956923,18.8972229 L51.9564615,18.8972229 L51.9564615,19.4557371 C52.0995385,19.1949943 52.2318462,19.0214229 52.3541538,18.93888 C52.4749231,18.8555657 52.6087692,18.8123657 52.7541538,18.8123657 Z M75.231,18.8123657 C75.4533077,18.8123657 75.6571538,18.8532514 75.8425385,18.9327086 C76.0302308,19.0129371 76.1679231,19.11708 76.2602308,19.2482229 C76.3540769,19.3778229 76.4179231,19.5321086 76.4556154,19.7095371 C76.4786923,19.8260229 76.4902308,20.0289086 76.4902308,20.3189657 L76.4902308,22.5885086 L75.8656154,22.5885086 L75.8656154,20.3421086 C75.8656154,20.0883086 75.8417692,19.8969943 75.7933077,19.77048 C75.7440769,19.6447371 75.6586923,19.54368 75.5348462,19.4688514 C75.411,19.39248 75.2663846,19.3554514 75.1002308,19.3554514 C74.8333077,19.3554514 74.6048462,19.4403086 74.411,19.6092514 C74.2186923,19.7781943 74.1225385,20.0991086 74.1225385,20.5727657 L74.1225385,22.5885086 L73.4986923,22.5885086 L73.4986923,18.8972229 L74.0594615,18.8972229 L74.0594615,19.4217943 C74.331,19.0152514 74.721,18.8123657 75.231,18.8123657 Z M89.5207692,18.8972229 L89.5207692,22.5885086 L88.8961538,22.5885086 L88.8961538,18.8972229 L89.5207692,18.8972229 Z M95.7713077,18.8123657 C95.9820769,18.8123657 96.1943846,18.8802514 96.4120769,19.01448 L96.1966923,19.5961371 C96.0459231,19.5043371 95.8928462,19.4595943 95.7405385,19.4595943 C95.6028462,19.4595943 95.4813077,19.5012514 95.3720769,19.5830229 C95.2636154,19.6655657 95.1866923,19.7797371 95.1405385,19.9255371 C95.0705385,20.1477086 95.0366923,20.3907086 95.0366923,20.6553086 L95.0366923,22.5885086 L94.4128462,22.5885086 L94.4128462,18.8972229 L94.9736154,18.8972229 L94.9736154,19.4557371 C95.1166923,19.1949943 95.249,19.0214229 95.3713077,18.93888 C95.4920769,18.8555657 95.6259231,18.8123657 95.7713077,18.8123657 Z M71.1274615,17.49168 L71.1274615,18.0933943 L68.3713077,18.0933943 L68.3713077,19.6717371 L70.7559231,19.6717371 L70.7559231,20.2734514 L68.3713077,20.2734514 L68.3713077,22.5885086 L67.6982308,22.5885086 L67.6982308,17.49168 L71.1274615,17.49168 Z M79.7971538,20.73492 C79.5702308,20.8290343 79.2302308,20.9069486 78.7786923,20.97252 C78.5217692,21.0087771 78.3394615,21.0504343 78.2340769,21.09672 C78.1279231,21.1430057 78.0448462,21.2108914 77.9879231,21.3011486 C77.9302308,21.3898629 77.9002308,21.4886057 77.9002308,21.5973771 C77.9002308,21.7647771 77.9640769,21.9044057 78.0894615,22.0154914 C78.2148462,22.1258057 78.4002308,22.1813486 78.6425385,22.1813486 C78.8825385,22.1813486 79.0963846,22.1296629 79.2840769,22.0232057 C79.471,21.9182914 79.6086923,21.7732629 79.6963846,21.5904343 C79.7640769,21.4492629 79.7971538,21.2402057 79.7971538,20.9648057 L79.7971538,20.73492 Z M98.2773077,19.3311514 C97.9657692,19.3311514 97.7065385,19.4484086 97.5011538,19.6821514 C97.295,19.9166657 97.1919231,20.26998 97.1919231,20.7420943 C97.1919231,21.2157514 97.295,21.5690657 97.5011538,21.8043514 C97.7065385,22.0404086 97.9657692,22.1576657 98.2773077,22.1576657 C98.5873077,22.1576657 98.845,22.0396371 99.0511538,21.8028086 C99.2557692,21.5667514 99.3588462,21.2064943 99.3588462,20.7220371 C99.3588462,20.2653514 99.2557692,19.91898 99.0488462,19.6836943 C98.8419231,19.4484086 98.585,19.3311514 98.2773077,19.3311514 Z M63.1575385,19.3311514 C62.846,19.3311514 62.5867692,19.4484086 62.3806154,19.6821514 C62.1752308,19.9166657 62.0721538,20.26998 62.0721538,20.7420943 C62.0721538,21.2157514 62.1752308,21.5690657 62.3806154,21.8043514 C62.5867692,22.0404086 62.846,22.1576657 63.1575385,22.1576657 C63.4667692,22.1576657 63.7252308,22.0396371 63.9313846,21.8028086 C64.136,21.5667514 64.2383077,21.2064943 64.2383077,20.7220371 C64.2383077,20.2653514 64.136,19.91898 63.9290769,19.6836943 C63.7213846,19.4484086 63.4652308,19.3311514 63.1575385,19.3311514 Z M59.2927692,19.3024543 C59.0266154,19.3024543 58.7912308,19.4274257 58.5858462,19.6765971 C58.3812308,19.9257686 58.2796923,20.2891114 58.2796923,20.76354 C58.2796923,21.2379686 58.3758462,21.58974 58.5673846,21.8173114 C58.7589231,22.0441114 58.992,22.1575114 59.2643077,22.1575114 C59.5412308,22.1575114 59.7789231,22.0402543 59.9766154,21.8041971 C60.1743077,21.5689114 60.2735385,21.2047971 60.2735385,20.7110829 C60.2735385,20.23974 60.1766154,19.88874 59.9835385,19.6542257 C59.7904615,19.4204829 59.5604615,19.3024543 59.2927692,19.3024543 Z M91.9892308,19.3272943 C91.7030769,19.3272943 91.4615385,19.4237229 91.2661538,19.6158086 C91.0707692,19.8086657 90.9630769,20.0655514 90.9423077,20.3872371 L92.9976923,20.3872371 C92.9707692,20.0778943 92.8915385,19.84338 92.7623077,19.6898657 C92.5630769,19.4484086 92.3053846,19.3272943 91.9892308,19.3272943 Z M6.64469231,13.2786 C6.64469231,14.8314857 7.09469231,16.1845714 8.09469231,17.3872286 C8.99392308,18.5898857 10.1931538,19.3914 11.6916154,19.7424 L11.6916154,19.7424 L1.74930769,19.7424 C0.599307692,17.7382286 7.69230769e-05,15.5836286 7.69230769e-05,13.2786 L7.69230769e-05,13.2786 Z M13.0911538,7.46619429 C14.6396154,7.46619429 15.9888462,8.01776571 17.0880769,9.11936571 C18.1873077,10.2217371 18.7365385,11.5748229 18.7365385,13.12848 C18.7365385,14.7315086 18.1873077,16.0344514 17.0880769,17.1368229 C15.9888462,18.2893371 14.6396154,18.8409086 13.0911538,18.8409086 C11.5419231,18.8409086 10.1926923,18.2893371 9.09346154,17.1368229 C7.995,16.0344514 7.445,14.7315086 7.445,13.12848 C7.445,11.5748229 7.995,10.2217371 9.09346154,9.11936571 C10.1926923,8.01776571 11.5419231,7.46619429 13.0911538,7.46619429 Z M89.5207692,17.49168 L89.5207692,18.2121943 L88.8961538,18.2121943 L88.8961538,17.49168 L89.5207692,17.49168 Z M72.5484615,17.49168 L72.5484615,18.2121943 L71.9238462,18.2121943 L71.9238462,17.49168 L72.5484615,17.49168 Z M84.3910769,6.81526286 C85.5903077,6.81526286 86.4395385,7.01506286 86.8395385,7.46634857 C87.1887692,7.76643429 87.3387692,8.31800571 87.3387692,9.11952 L87.3387692,9.11952 L87.3387692,9.37023429 L84.9910769,9.37023429 C84.9910769,9.01923429 84.9403077,8.81943429 84.8403077,8.71914857 C84.6910769,8.61886286 84.3410769,8.56872 83.8410769,8.56872 L83.8410769,8.56872 L81.2433846,8.56872 C80.6433846,8.56872 80.3433846,8.76852 80.3433846,9.16966286 C80.3433846,9.32009143 80.3933846,9.46974857 80.4433846,9.52066286 C80.4941538,9.62094857 80.6433846,9.72123429 80.7933846,9.72123429 L80.7933846,9.72123429 L83.1418462,9.82152 C85.0403077,9.82152 86.2395385,9.92103429 86.7887692,10.2218914 C87.0887692,10.37232 87.3387692,10.6230343 87.4387692,10.9740343 C87.5887692,11.27412 87.6387692,11.6752629 87.6387692,12.2762057 C87.6387692,12.7776343 87.5887692,13.22892 87.4887692,13.5297771 C87.3887692,13.8298629 87.1887692,14.0805771 86.8887692,14.2310057 C86.4395385,14.5310914 85.3903077,14.68152 83.8410769,14.68152 L83.8410769,14.68152 L80.9933846,14.68152 C79.8941538,14.68152 79.0941538,14.5310914 78.6949231,14.2803771 C78.2449231,13.9802914 77.9956923,13.4294914 77.9956923,12.6272057 L77.9956923,12.6272057 L77.9956923,12.0764057 L80.3433846,12.0764057 C80.3433846,12.4767771 80.4433846,12.7274914 80.5933846,12.8270057 L80.5933846,12.8270057 L81.3433846,12.9782057 L84.2410769,12.9782057 L84.9403077,12.87792 C85.1403077,12.7776343 85.2403077,12.5770629 85.2403077,12.32712 L85.2403077,12.32712 L85.1403077,11.9259771 C85.0903077,11.8256914 84.9403077,11.7246343 84.7403077,11.7246343 L84.7403077,11.7246343 L81.9418462,11.6243486 C80.1933846,11.6243486 79.1441538,11.4746914 78.6449231,11.1738343 C78.3956923,10.9740343 78.1949231,10.7734629 78.1449231,10.4726057 C78.0449231,10.1717486 77.9956923,9.82152 77.9956923,9.26994857 C77.9956923,8.46843429 78.1449231,7.86672 78.4449231,7.51649143 C78.8449231,7.06520571 79.7441538,6.81526286 81.0933846,6.81526286 L81.0933846,6.81526286 Z M58.5087692,6.96522857 L58.5087692,11.3739429 C58.5087692,11.826 58.5587692,12.1762286 58.7595385,12.3768 C59.0087692,12.6267429 59.3087692,12.7270286 59.8087692,12.7270286 L59.8087692,12.7270286 L62.1064615,12.7270286 C62.5556923,12.7270286 62.9556923,12.6267429 63.1564615,12.3768 C63.3056923,12.1762286 63.4556923,11.826 63.4556923,11.3739429 L63.4556923,11.3739429 L63.4556923,6.96522857 L65.7541538,6.96522857 L65.7541538,11.8761429 C65.7541538,12.8273143 65.5041538,13.5293143 65.0041538,13.9806 C64.5049231,14.4812571 63.7056923,14.6818286 62.6564615,14.6818286 L62.6564615,14.6818286 L59.2587692,14.6818286 C58.2095385,14.6818286 57.4095385,14.4812571 56.9103077,13.9806 C56.4103077,13.5293143 56.1603077,12.8273143 56.1603077,11.8761429 L56.1603077,11.8761429 L56.1603077,6.96522857 L58.5087692,6.96522857 Z M36.7243077,6.96522857 L41.1712308,12.4770857 L41.1712308,6.96522857 L43.5196923,6.96522857 L43.5196923,14.5815429 L39.872,14.5815429 L35.4750769,9.01954286 L35.4750769,14.5815429 L33.1266154,14.5815429 L33.1266154,6.96522857 L36.7243077,6.96522857 Z M74.3472308,6.96546 C75.1972308,6.96546 75.7964615,7.11511714 76.1964615,7.56640286 C76.4964615,7.91740286 76.6464615,8.46820286 76.6464615,9.21957429 L76.6464615,9.21957429 L76.6464615,9.67086 C76.6464615,10.22166 76.5464615,10.6228029 76.3964615,10.92366 C76.1964615,11.2245171 75.8472308,11.47446 75.3472308,11.5747457 C75.7472308,11.6750314 76.0464615,11.82546 76.2472308,12.0260314 C76.4964615,12.2759743 76.5956923,12.72726 76.5956923,13.2788314 L76.5956923,13.2788314 L76.5956923,14.5817743 L74.248,14.5817743 L74.248,13.6799743 C74.248,13.2788314 74.198,12.9779743 74.048,12.8275457 C73.898,12.6771171 73.648,12.6269743 73.2987692,12.6269743 L73.2987692,12.6269743 L69.6010769,12.6269743 L69.6010769,14.5817743 L67.2526154,14.5817743 L67.2526154,6.96546 Z M95.4333846,6.96522857 L99.6303077,14.5815429 L97.0318462,14.5815429 L96.3326154,13.2284571 L91.5360769,13.2274629 L90.8856923,14.5815429 L88.238,14.5815429 L92.3849231,6.96522857 L95.4333846,6.96522857 Z M31.4784615,6.96553714 L31.4784615,14.5818514 L29.18,14.5818514 L29.18,6.96553714 L31.4784615,6.96553714 Z M51.7637692,6.96492 C52.713,6.96492 53.413,7.06520571 53.8622308,7.36529143 C54.3114615,7.71706286 54.5622308,8.21772 54.5622308,8.91894857 C54.5622308,9.52066286 54.4614615,9.97117714 54.2122308,10.2218914 C54.0614615,10.4224629 53.8122308,10.5728914 53.413,10.6731771 L53.413,10.6731771 L53.413,10.72332 C53.9122308,10.7734629 54.2622308,10.9740343 54.5122308,11.27412 C54.7114615,11.5248343 54.8114615,11.97612 54.8114615,12.5770629 C54.8114615,13.3284343 54.5622308,13.8792343 54.1622308,14.2310057 C53.8122308,14.4809486 53.263,14.5812343 52.5137692,14.5812343 L52.5137692,14.5812343 L45.0183846,14.5812343 L45.0183846,6.96492 Z M24.4334615,6.61446 C25.5819231,8.61863143 26.1819231,10.7732314 26.1819231,13.07826 L26.1819231,13.07826 L19.7865385,13.07826 C19.7865385,11.5246029 19.3365385,10.1715171 18.3373077,8.91871714 C17.4380769,7.76620286 16.2388462,6.96546 14.7396154,6.61446 L14.7396154,6.61446 Z M51.5637692,11.5248343 L47.3668462,11.5248343 L47.3668462,12.7274914 L51.5637692,12.7274914 C52.1137692,12.7274914 52.4137692,12.5770629 52.4137692,12.17592 C52.4137692,11.7755486 52.1137692,11.5248343 51.5637692,11.5248343 L51.5637692,11.5248343 Z M93.9341538,8.71868571 L92.4356923,11.5752857 L95.4333846,11.5752857 L93.9341538,8.71868571 Z M13.0911538,0.000462857143 L13.0911538,6.46426286 C11.5419231,6.46426286 10.1926923,6.96492 8.94346154,7.96700571 C7.795,8.86880571 6.99576923,10.0722343 6.645,11.5248343 L6.645,11.5248343 L6.645,1.70377714 C8.64423077,0.601405714 10.7926923,0.000462857143 13.0911538,0.000462857143 L13.0911538,0.000462857143 Z M73.2987692,8.81920286 L69.6010769,8.81920286 L69.6010769,10.6729457 L73.498,10.6729457 C74.048,10.6729457 74.3472308,10.4230029 74.3472308,9.87143143 L74.3472308,9.87143143 L74.3472308,9.62071714 C74.3472308,8.92566 73.9241538,8.81920286 73.2987692,8.81920286 L73.2987692,8.81920286 Z M51.5137692,8.76852 L47.3668462,8.76852 L47.3668462,9.97117714 L51.5137692,9.97117714 C51.9637692,9.97117714 52.213,9.77137714 52.213,9.37023429 C52.213,8.96986286 51.9637692,8.76852 51.5137692,8.76852 L51.5137692,8.76852 Z" id="Combined-Shape"></path>
            </g>
        </g>
    </g>
</svg>