<?xml version="1.0" encoding="UTF-8"?>
<svg width="40px" height="38px" viewBox="0 0 40 38" version="1.1" xmlns="http://www.w3.org/2000/svg" xmlns:xlink="http://www.w3.org/1999/xlink">
    <title>5F614DF9-78F4-413B-8D91-9E641C0982D0</title>
    <g id="logos-aseguradoras" stroke="none" stroke-width="1" fill="none" fill-rule="evenodd">
        <g id="logos-variantes" transform="translate(-363.000000, -2809.000000)" fill="#8A98A9">
            <g id="logo-axa-gris" transform="translate(363.000000, 2809.000000)">
                <path d="M36.933093,0.013285 L21.7413023,20.575385 L24.067814,20.575385 L39.260093,0.013285 L39.7266047,0.0136799996 L39.7266047,38.00038 L9.30232558e-05,38.00038 L9.30232558e-05,0.0136799996 L36.933093,0.013285 Z M13.6214884,21.29938 L10.9526512,21.29938 C10.8773023,21.66038 10.7377674,21.95773 10.5861395,22.21613 C10.4977674,22.38428 10.3963721,22.53913 10.2819535,22.69398 L10.2819535,22.69398 L2.06148837,33.78903 C1.68195349,34.30583 1.41683721,34.58988 0.392651163,35.49428 L0.392651163,35.49428 L3.08567442,35.49428 L7.42427907,29.61663 L12.975907,29.61663 L13.6093953,31.58028 L11.9898605,33.75008 C11.6363721,34.22793 11.2307907,34.75803 10.5861395,35.33943 C10.5349767,35.39073 10.4847442,35.44203 10.4214884,35.49428 L10.4214884,35.49428 L12.963814,35.49428 L14.3042791,33.73678 L14.8484651,35.49428 L17.3907907,35.49428 L18.6549767,33.72538 L19.1740465,35.49428 L22.335907,35.49428 C22.0066047,34.75803 21.8168372,34.30583 21.640093,33.72538 L21.640093,33.72538 L20.7424186,30.96088 L21.7414884,29.61663 L27.3061395,29.61663 L28.5582326,33.69878 C28.7228837,34.20228 28.8363721,34.61553 28.9628837,35.49428 L28.9628837,35.49428 L32.3014884,35.49428 C31.8717209,34.66778 31.7582326,34.30583 31.5935814,33.71208 L31.5935814,33.71208 L28.1917209,22.62938 C28.0652093,22.19048 28.0019535,21.77723 27.963814,21.29938 L27.963814,21.29938 L25.320093,21.29938 C25.2317209,21.66038 25.0931163,21.93208 24.9284651,22.19048 C24.8019535,22.35863 24.6754419,22.51348 24.5619535,22.69398 L24.5619535,22.69398 L20.0717209,28.68753 L19.5275349,26.93003 L22.6642791,22.68163 C23.0056744,22.22943 23.360093,21.75063 23.9163721,21.29938 L23.9163721,21.29938 L21.083814,21.29938 C20.8940465,21.77723 20.4642791,22.26743 20.148,22.70728 L20.148,22.70728 L18.7563721,24.59208 L18.1619535,22.72058 C18.0233488,22.25413 17.9349767,21.82853 17.8456744,21.29938 L17.8456744,21.29938 L14.6075349,21.29938 C14.8866047,21.84183 15.0252093,22.29308 15.1396279,22.64268 L15.1396279,22.64268 L16.6698605,27.40788 L15.708,28.70083 L13.8363721,22.70728 C13.7098605,22.24178 13.6214884,21.90548 13.6214884,21.29938 L13.6214884,21.29938 Z M17.3145116,29.617105 L17.9852093,31.541805 L17.0112558,32.846155 L16.403814,30.882505 L17.3145116,29.617105 Z M11.3326512,24.28219 L12.4833488,27.86084 L8.68893023,27.86084 L11.3326512,24.28219 Z M25.6116279,24.28219 L26.7623256,27.86084 L23.0944186,27.86084 L25.6116279,24.28219 Z" id="Combined-Shape"></path>
            </g>
        </g>
    </g>
</svg>