<?xml version="1.0" encoding="UTF-8"?>
<svg width="119px" height="42px" viewBox="0 0 119 42" version="1.1" xmlns="http://www.w3.org/2000/svg" xmlns:xlink="http://www.w3.org/1999/xlink">
    <title>BA62F653-10FA-428C-BB12-7896B27F79F7</title>
    <g id="logos-aseguradoras" stroke="none" stroke-width="1" fill="none" fill-rule="evenodd">
        <g id="logos-variantes" transform="translate(-820.000000, -1708.000000)">
            <rect id="Rectangle" fill="#989898" x="0" y="1211" width="1440" height="1299"></rect>
            <g id="logo-prevem-seguros-blanco" transform="translate(820.000000, 1708.000000)" fill="#FFFFFF" fill-rule="nonzero">
                <path d="M92.5602062,36.1156701 L96.5090722,40.0645361 L96.4960555,40.0772463 C96.2458144,40.3187395 92.4285773,43.8775876 88.6113402,40.0645361 L92.5602062,36.1156701 Z M101.575052,36.0983505 L105.523918,40.0472165 L105.510901,40.0599406 C105.26066,40.301699 101.443423,43.8644536 97.6261856,40.0472165 L101.575052,36.0983505 Z M88.1393814,31.6428866 L92.0925773,35.5874227 L88.1393814,39.5362887 L88.1266713,39.5232722 C87.885178,39.2730357 84.3263299,35.4559381 88.1393814,31.6428866 Z M97.0841022,31.6291135 L101.03201,35.5742662 L97.0868574,39.5221742 L93.1389494,35.5770214 L97.0841022,31.6291135 Z M106.190722,31.6082474 L106.203446,31.6212641 C106.445204,31.8715052 110.007959,35.6887423 106.190722,39.5059794 L102.241856,35.5571134 L106.190722,31.6082474 Z M111.633613,35.1645069 C112.350455,34.440198 113.433451,34.2199026 114.376289,34.6066113 C115.319126,34.99332 115.935528,35.9106312 115.93732,36.9296907 L115.93732,36.9296907 C115.946445,38.3149856 114.828584,39.4425337 113.443299,39.4496907 C112.424276,39.458459 111.500626,38.8515955 111.104168,37.9128162 C110.70771,36.974037 110.916771,35.8888158 111.633613,35.1645069 Z M113.443299,34.8383505 C112.591601,34.8313331 111.820016,35.3394474 111.49002,36.1246496 C111.160024,36.9098517 111.336984,37.8166091 111.937995,38.4201195 C112.539007,39.0236299 113.445022,39.2043502 114.231587,38.8776156 C115.018151,38.550881 115.529463,37.781411 115.525997,36.9296907 C115.516639,35.7819329 114.591008,34.8524537 113.443299,34.8383505 Z M113.521237,35.6480412 C114.183711,35.6480412 114.408866,36.0637113 114.408866,36.3624742 C114.412419,36.5690994 114.331904,36.768308 114.185776,36.9144357 C114.039648,37.0605634 113.84044,37.1410789 113.633814,37.1375258 L113.633814,37.1375258 L113.732241,37.1815064 C113.922504,37.286863 114.07732,37.4962887 114.270309,37.8043299 L114.270309,37.8043299 L114.599381,38.3325773 L114.066804,38.3325773 L113.82,37.8995876 C113.486598,37.2934021 113.348041,37.1764948 113.014639,37.1764948 L113.014639,37.1764948 L112.754845,37.1764948 L112.754845,38.3239175 L112.321856,38.3239175 L112.321856,35.6480412 Z M113.443299,35.994433 L112.754845,35.994433 L112.754845,36.8041237 L113.369691,36.8257732 C113.698763,36.8257732 113.928247,36.6395876 113.928247,36.3927835 C113.928247,36.1459794 113.729072,35.994433 113.443299,35.994433 L113.443299,35.994433 Z M101.601031,27.1138144 L105.545567,31.0583505 L101.601031,35.0072165 L97.6521649,31.0583505 L101.601031,27.1138144 Z M92.5731959,27.1138144 L96.5220619,31.0583505 L92.5731959,35.0072165 L88.6243299,31.0583505 L92.5731959,27.1138144 Z M35.8775258,27.5468041 L35.9035052,27.5468041 L35.9381443,26.5725773 L36.5096907,26.5725773 C36.4837113,27.005567 36.457732,27.4602062 36.457732,28.0620619 L36.457732,31.5129897 C36.457732,32.9938144 36.1329897,33.7298969 35.5917526,34.188866 C34.9852657,34.6596383 34.2330948,34.903213 33.4657732,34.8773196 C32.7718632,34.8988826 32.0855157,34.728045 31.4826804,34.3837113 L31.7035052,33.9247423 C32.265985,34.2510803 32.9064709,34.4186841 33.556701,34.4096907 C34.8556701,34.4096907 35.8298969,33.7731959 35.8298969,32.0585567 L35.8298969,31.2358763 L35.7995876,31.2358763 C35.3391942,31.9794987 34.507643,32.4102422 33.6346392,32.3573196 C32.8952611,32.3535578 32.1896194,32.047431 31.6817224,31.5100907 C31.1738253,30.9727503 30.907907,30.2509947 30.9457732,29.5125773 C30.9457732,27.5035052 32.383299,26.4383505 33.7645361,26.4383505 C34.6234965,26.3703865 35.4452213,26.8014552 35.8775258,27.5468041 Z M64.2946392,28.1183505 C64.2946392,28.1183505 68.2348454,28.3954639 68.2564948,29.5125773 C68.2564948,29.5125773 68.2568976,29.5142821 68.2572784,29.517659 L68.2574098,29.5440317 C68.245231,29.7021069 67.9950899,30.4461232 64.5934021,31.5519588 C64.5934021,31.5519588 61.0731959,32.7816495 59.7265979,32.5954639 C59.7265979,32.5954639 59.6356701,32.3876289 60.6531959,32.088866 C60.6531959,32.088866 65.3381443,30.7206186 66.1002062,29.7247423 C66.1002062,29.7247423 66.9358763,28.936701 65.4074227,28.728866 C63.7602251,28.5299649 62.0960729,28.5139913 60.4453608,28.6812371 C60.0887818,28.6823058 59.7350523,28.6177244 59.4018557,28.4907216 C59.4028872,28.437212 59.5143446,27.8276289 64.2946392,28.1183505 Z M56.4878351,26.4643299 C56.972503,26.4551022 57.4503628,26.5794356 57.8690722,26.8237113 L57.5876289,27.2783505 C57.2206165,27.0375654 56.7879558,26.9165414 56.3492784,26.9319588 C55.5525773,26.9319588 55.1369072,27.3995876 55.1369072,27.9278351 C55.1369072,28.5340206 55.5698969,28.7938144 56.4358763,29.1185567 C57.4534021,29.482268 58.0509278,29.9498969 58.0509278,30.8505155 C58.0509278,31.837732 57.2152577,32.5132124 55.9379381,32.5132124 C55.3803207,32.5149711 54.8316156,32.3733217 54.3445361,32.1018557 L54.5783505,31.6082474 C55.0064541,31.8572709 55.4904573,31.994281 55.985567,32.0065979 C56.9814433,32.0065979 57.4490722,31.5086598 57.4490722,30.9068041 C57.4490722,30.3049485 57.0160825,29.9282474 56.1501031,29.6078351 C55.1195876,29.2484536 54.556701,28.7418557 54.556701,28.0317526 C54.556701,27.2004124 55.2581443,26.4643299 56.4878351,26.4643299 Z M22.5804124,26.4556701 C23.0650803,26.4464424 23.5429401,26.5707758 23.9616495,26.8150515 L23.6975258,27.2783505 C23.3281246,27.0392866 22.8946482,26.9184569 22.4548454,26.9319588 C21.6581443,26.9319588 21.2424742,27.3995876 21.2424742,27.9278351 C21.2424742,28.5340206 21.6754639,28.7938144 22.5414433,29.1185567 C23.5546392,29.482268 24.1564948,29.9498969 24.1564948,30.8505155 C24.1564948,31.837732 23.3208247,32.5132038 22.0391753,32.5132038 C21.4829996,32.5144227 20.9358296,32.3727847 20.4501031,32.1018557 L20.6709278,31.6082474 C21.1011181,31.8549431 21.5866494,31.9889855 22.0824742,31.9979381 C23.0740206,31.9979381 23.5416495,31.5 23.5416495,30.8981443 C23.5416495,30.2962887 23.1086598,29.9195876 22.2426804,29.5991753 C21.2121649,29.2397938 20.6492784,28.7331959 20.6492784,28.0230928 C20.6492784,27.1917526 21.3550515,26.4556701 22.5804124,26.4556701 Z M27.7503093,26.4513402 C29.7983505,26.4513402 30.1880412,28.2352577 30.1880412,29.0492784 C30.1946018,29.1668173 30.185869,29.2847105 30.1620619,29.4 L25.5463918,29.4043299 C25.5463918,31.2618557 26.6418557,32.002268 27.9364948,32.002268 C28.5310368,32.0276816 29.123502,31.9165944 29.6684536,31.6775258 L29.8243299,32.1321649 C29.204768,32.405385 28.5307684,32.5327784 27.8542268,32.5045361 C27.0663477,32.5516481 26.2959442,32.259495 25.7374209,31.7017991 C25.1788975,31.1441032 24.8856026,30.3741337 24.9315464,29.5861856 C24.9315464,27.6550515 26.1309278,26.4513402 27.7503093,26.4513402 Z M38.7915464,26.5725773 L38.7915464,29.8243299 C38.7915464,31.0756701 39.2245361,31.9892784 40.4628866,31.9892784 C41.2508976,31.988736 41.967769,31.5333118 42.3030928,30.8202062 C42.3825109,30.6170422 42.4264485,30.4017482 42.4329897,30.1837113 L42.4329897,26.5725773 L43.0478351,26.5725773 L43.0608247,30.9457732 C43.0608247,31.4523711 43.0824742,31.9070103 43.1127835,32.3573196 L42.5369072,32.3573196 L42.4979381,31.331134 L42.4719588,31.331134 C42.0078946,32.0747657 41.1831157,32.5151976 40.3070103,32.4872165 C39.5103093,32.4872165 38.1810309,32.1278351 38.1810309,29.9325773 L38.1810309,26.5725773 L38.7915464,26.5725773 Z M50.6641237,26.4253608 C52.3917526,26.4383505 53.5738144,27.6334021 53.5738144,29.4043299 C53.619203,30.2194453 53.3200725,31.0161342 52.7494311,31.5999507 C52.1787896,32.1837671 51.3891348,32.5010013 50.5731959,32.4742268 C49.7876413,32.4938559 49.0298552,32.1831649 48.4841753,31.6177317 C47.9384953,31.0522986 47.6549355,30.2839481 47.7024742,29.4995876 C47.6511525,28.6893002 47.9427602,27.8947516 48.5060621,27.3100376 C49.0693641,26.7253236 49.8524861,26.4042902 50.6641237,26.4253608 Z M47.2045361,26.4426804 C47.2886168,26.4446559 47.3724918,26.4518865 47.4556701,26.4643299 L47.4556701,27.0185567 C47.3562245,26.9965844 47.2543115,26.987849 47.1525773,26.9925773 C46.2865979,26.9925773 45.6760825,27.676701 45.5115464,28.6076289 C45.4808135,28.7908672 45.4634481,28.9760981 45.4595876,29.1618557 L45.4595876,32.3573196 L44.8447423,32.3573196 L44.8447423,28.3045361 C44.8447423,27.7243299 44.8187629,27.1224742 44.7927835,26.5725773 L45.3643299,26.5725773 L45.3903093,27.7416495 L45.4162887,27.7416495 C45.6800923,26.9758328 46.3946786,26.4567629 47.2045361,26.4426804 Z M50.651134,26.9103093 C49.0057732,26.9103093 48.3303093,28.2352577 48.3303093,29.4736082 L48.3303093,29.4779381 C48.3303093,30.9241237 49.3348454,32.0109278 50.6164948,32.0109278 C51.8981443,32.0109278 52.9503093,30.9284536 52.9503093,29.443299 C52.9503093,28.3824742 52.2964948,26.9103093 50.651134,26.9103093 Z M33.8208247,26.9059794 C32.4915464,26.9059794 31.5779381,27.9191753 31.5779381,29.4476289 C31.5779381,30.7465979 32.3226804,31.8723711 33.7991753,31.8723711 C34.6521469,31.8890673 35.4242191,31.3697363 35.7303093,30.5734021 C35.8090274,30.3779014 35.850159,30.1693057 35.8515464,29.9585567 L35.8472165,28.7894845 C35.8485239,28.6005005 35.8222683,28.4123355 35.7692784,28.2309278 C35.4707951,27.4173967 34.6871178,26.8844961 33.8208247,26.9059794 Z M82.5971134,25.9793814 L86.5459794,29.9498969 L86.5329627,29.962621 C86.2827216,30.2043794 82.4654845,33.767134 78.6482474,29.9498969 L82.5971134,25.9793814 Z M111.906186,25.9793814 L115.859381,29.9195876 C115.859381,29.9195876 111.910515,33.8684536 107.961649,29.9195876 L111.906186,25.9793814 Z M101.016495,26.4123711 L97.0676289,30.3612371 L93.1187629,26.4123711 L93.1220353,26.4091353 L93.1478858,26.3842355 C93.5136495,26.0372289 97.2650722,22.6609485 101.016495,26.4123711 Z M116.448247,21.5109278 C116.448247,21.5109278 120.392784,25.4597938 116.448247,29.4086598 L112.499381,25.4597938 L116.448247,21.5109278 Z M107.397514,21.4723963 L111.347796,25.4212993 L107.398893,29.3715808 L103.448611,25.4226779 L107.397514,21.4723963 Z M87.0958763,21.4762887 L91.0404124,25.4251546 L87.0958763,29.3696907 L83.1426804,25.4251546 L87.0958763,21.4762887 Z M78.1243299,21.4676289 L82.0731959,25.4121649 L78.1243299,29.3610309 L78.1116058,29.3480145 C77.8698474,29.097778 74.3070928,25.2806804 78.1243299,21.4676289 Z M27.6723711,26.9103093 C26.291134,26.9103093 25.6892784,28.0534021 25.5853608,28.9453608 L29.5385567,28.9453608 C29.5385567,28.14 29.1878351,26.9103093 27.6723711,26.9103093 Z M67.0094845,24.7713402 C67.7077547,24.7713402 68.2738144,25.3374 68.2738144,26.0356701 C68.2738144,26.7339402 67.7077547,27.3 67.0094845,27.3 C66.3112144,27.3 65.7451546,26.7339402 65.7451546,26.0356701 C65.7451546,25.3374 66.3112144,24.7713402 67.0094845,24.7713402 Z M91.5729897,17.0078351 C91.5729897,17.0078351 95.5218557,20.956701 91.5729897,24.9012371 L87.6241237,20.9523711 L91.5729897,17.0078351 Z M102.925979,16.968866 L106.874845,20.917732 L102.925979,24.8665979 C102.925979,24.8665979 98.9814433,20.917732 102.925979,16.968866 Z M82.5739146,16.964428 L86.521134,20.9102698 L82.5752922,24.8574891 L78.6280729,20.9116474 L82.5739146,16.964428 Z M111.907085,16.9570719 L115.856677,20.9066643 L111.907085,24.8562566 L107.957492,20.9066643 L111.907085,16.9570719 Z M47.0703093,9.53443299 C49.1789691,9.53443299 51.0797938,10.7078351 51.0797938,13.4313402 L51.0797938,13.9465979 L44.2515464,13.9465979 C44.2515464,15.916701 45.2127835,19.9261856 49.1270103,19.9261856 C49.689603,19.9463701 50.2497757,19.8429081 50.7680412,19.6230928 L50.7680412,20.3505155 C49.8743297,20.669994 48.928097,20.8169245 47.9795876,20.7835052 C44.3468041,20.7835052 42.3074227,18.7917526 42.3074227,14.8558763 C42.3074227,11.4352577 43.6929897,9.53443299 47.0703093,9.53443299 Z M25.6459794,9.53443299 C27.7546392,9.53443299 29.6554639,10.7078351 29.6554639,13.4313402 L29.6554639,13.9465979 L22.8315464,13.9465979 C22.8315464,15.9037113 23.7884536,19.9175258 27.7113402,19.9175258 C28.2739536,19.9379931 28.8341872,19.8345198 29.3523711,19.614433 L29.3437113,20.3505155 C28.4499479,20.6697898 27.5037546,20.8167142 26.5552577,20.7835052 C22.9224742,20.7835052 20.8830928,18.7917526 20.8830928,14.8558763 C20.8830928,11.4352577 22.2643299,9.53443299 25.6459794,9.53443299 Z M34.3404124,9.75525773 L34.3404124,10.1536082 C33.7082474,10.1536082 33.3098969,10.3181443 33.3098969,10.7164948 C33.3425561,11.1226663 33.4466257,11.5198895 33.6173196,11.8898969 L36.2845361,18.2938144 L38.6486598,11.9635052 C38.7961552,11.6459086 38.8842071,11.3039736 38.9084536,10.9546392 C38.9084536,10.4393814 38.557732,10.205567 37.8519588,10.1579381 L37.8519588,9.75958763 L42.0952577,9.75958763 L42.0952577,10.1579381 C40.7962887,10.2531959 40.4542268,10.5346392 39.7960825,12.2449485 L36.496701,20.7835052 L35.3925773,20.7835052 L31.8074227,12.3185567 C31.2445361,11.0195876 30.8461856,10.2098969 29.3956701,10.1536082 L29.3956701,9.75525773 L34.3404124,9.75525773 Z M64.9527835,9.5257732 C67.0830928,9.5257732 67.6719588,10.1839175 67.6719588,12.3878351 L67.6719588,18.4107216 C67.6719588,19.9348454 68.4946392,20.1426804 69.4515464,20.1426804 L69.4515464,20.5410309 L64.0824742,20.5410309 L64.0824742,20.1426804 C65.0653608,20.1426804 65.8620619,19.9305155 65.8620619,18.4107216 L65.8620619,13.5828866 C65.8620619,11.7773196 65.6542268,10.6558763 64.3595876,10.6558763 C63.0649485,10.6558763 61.5927835,12.7169072 61.5927835,15.5313402 L61.5927835,18.4150515 C61.5927835,19.9391753 62.3894845,20.1470103 63.376701,20.1470103 L63.376701,20.5453608 L57.9643299,20.5453608 L57.9643299,20.1470103 C58.9472165,20.1470103 59.7439175,19.9348454 59.7439175,18.4150515 L59.7431065,13.167409 C59.7339985,11.4398969 59.6251546,10.6558763 58.3626804,10.6558763 C57.0030928,10.6558763 55.483299,12.9290722 55.483299,15.5313402 L55.483299,18.4150515 C55.483299,19.9391753 56.28,20.1470103 57.2628866,20.1470103 L57.2628866,20.5453608 L51.8721649,20.5453608 L51.8721649,20.1470103 C52.8550515,20.1470103 53.6517526,19.9348454 53.6517526,18.4150515 L53.6517526,12.011134 C53.6517526,10.6039175 52.5476289,10.5346392 51.8721649,10.4870103 L51.8721649,10.0886598 L55.483299,9.5257732 L55.483299,12.3618557 L55.5309278,12.3618557 C55.8340206,11.5651546 56.8298969,9.5257732 58.8562887,9.5257732 C60.4756701,9.5257732 61.5754639,10.1579381 61.5754639,12.3878351 L61.6230928,12.3878351 C61.9997938,11.3356701 63.0736082,9.5257732 64.9527835,9.5257732 Z M6.11814433,4.93175258 C9.19237113,4.93175258 11.6734021,5.44701031 11.6734021,8.98886598 C11.6734021,12.8554639 8.24347991,13.0132842 5.70906588,13.0197259 L4.12639175,13.02 L4.12639175,18.1509278 C4.12639175,19.908866 4.9014433,20.0734021 6.1657732,20.0734021 L6.1657732,20.5453608 L-8.8817842e-16,20.5453608 L-8.8817842e-16,20.0734021 C1.29896907,20.0734021 2.03938144,19.9131959 2.03938144,18.1509278 L2.03938144,7.32618557 C2.03938144,5.56391753 1.29896907,5.40371134 -8.8817842e-16,5.40371134 L-8.8817842e-16,4.93175258 L6.11814433,4.93175258 Z M19.5581443,9.5257732 C20.1774618,9.50606321 20.6988758,9.98514842 20.7315464,10.6039175 C20.7378351,10.8986023 20.6217326,11.182719 20.4108646,11.388664 C20.1999966,11.594609 19.9132169,11.7039687 19.6187629,11.6907216 C18.9173196,11.6907216 18.6098969,11.1278351 18.2808247,11.1278351 C17.8478351,11.1278351 16.4752577,12.0674227 16.4752577,14.8558763 L16.4752577,18.3934021 C16.4752577,19.9175258 17.2719588,20.1253608 18.2591753,20.1253608 L18.2591753,20.5237113 L12.8684536,20.5237113 L12.8684536,20.1470103 C13.8513402,20.1470103 14.6480412,19.9348454 14.6480412,18.4150515 L14.6480412,12.011134 C14.6480412,10.6039175 13.5698969,10.5346392 12.8684536,10.4870103 L12.8684536,10.0886598 L16.4795876,9.5257732 L16.4795876,12.0371134 L16.5272165,12.0371134 C16.9602062,10.8637113 17.7915464,9.5257732 19.5581443,9.5257732 Z M78.0940206,12.4874227 L82.0428866,16.4536082 L78.0940206,20.3851546 C78.0940206,20.3851546 74.1451546,16.4362887 78.0940206,12.4874227 Z M116.443918,12.474433 L116.472022,12.5035559 C116.818648,12.8693196 120.191227,16.6207423 116.443918,20.3721649 L112.495052,16.423299 L116.443918,12.474433 Z M87.0934886,12.4486774 L91.0451483,16.3962012 L87.0976246,20.347861 L83.1459648,16.4003372 L87.0934886,12.4486774 Z M107.394823,12.4450755 L111.345794,16.3932889 L107.397581,20.3442597 L103.44661,16.3960463 L107.394823,12.4450755 Z M97.2624742,11.465567 L101.21134,15.414433 C101.21134,15.414433 97.2624742,19.363299 93.3136082,15.414433 L97.2624742,11.465567 Z M115.894021,11.9505155 L111.945155,15.8993814 L107.996289,11.9505155 C107.996289,11.9505155 111.945155,8.00597938 115.894021,11.9505155 Z M86.5459794,11.9331959 L82.5971134,15.8820619 L78.6482474,11.9331959 L78.6612641,11.9204718 C78.9115052,11.6787134 82.7287423,8.11595876 86.5459794,11.9331959 Z M92.7367001,6.81022083 L96.685603,10.7605024 L92.7353214,14.7094053 L88.7864185,10.7591237 L92.7367001,6.81022083 Z M101.752044,6.80779359 L105.701636,10.7573859 L101.752044,14.7069782 L97.8024516,10.7573859 L101.752044,6.80779359 Z M25.3385567,10.2964948 C23.5459794,10.2964948 22.8315464,12.2882474 22.8315464,13.1585567 L27.5641237,13.1585567 C27.5641237,11.9158763 27.131134,10.2964948 25.3385567,10.2964948 Z M46.7585567,10.2921649 C44.9616495,10.2921649 44.2515464,12.2839175 44.2515464,13.1542268 L48.9884536,13.1542268 C48.9884536,11.9115464 48.5554639,10.2921649 46.7585567,10.2921649 Z M6.11814433,5.86701031 C4.30377785,5.86701031 4.13576343,5.9562215 4.12681179,7.61800893 L4.12639175,12.1237113 L5.39072165,12.1237113 C7.82845361,12.1237113 9.46948454,11.6907216 9.46948454,9.00618557 C9.46948454,6.68536082 8.20082474,5.86701031 6.11814433,5.86701031 Z M88.1393814,2.30783505 L92.0925773,6.25670103 L88.1393814,10.205567 C88.1393814,10.205567 84.1948454,6.25670103 88.1393814,2.30783505 Z M97.2441135,2.30080956 L101.195084,6.24902296 L97.2468708,10.1999937 L93.2959,6.25178029 L97.2441135,2.30080956 Z M106.190722,2.28185567 L106.203446,2.2948723 C106.445204,2.5451134 110.007959,6.36235052 106.190722,10.1795876 L102.241856,6.23072165 L106.190722,2.28185567 Z M96.7082474,1.77092784 L92.7593814,5.71979381 L88.8105155,1.77092784 L88.8235321,1.75820371 C89.0737732,1.51644536 92.8910103,-2.04630928 96.7082474,1.77092784 Z M105.718763,1.75360825 L101.752577,5.70247423 L97.8210309,1.75360825 C97.8210309,1.75360825 101.769897,-2.19525773 105.718763,1.75360825 Z" id="Combined-Shape"></path>
            </g>
        </g>
    </g>
</svg>