<?xml version="1.0" encoding="UTF-8"?>
<svg width="112px" height="40px" viewBox="0 0 112 40" version="1.1" xmlns="http://www.w3.org/2000/svg" xmlns:xlink="http://www.w3.org/1999/xlink">
    <title>57B98C9C-820F-4447-9898-DD820A9B94C1</title>
    <g id="logos-aseguradoras" stroke="none" stroke-width="1" fill="none" fill-rule="evenodd">
        <g id="logos-variantes" transform="translate(-502.000000, -1807.000000)">
            <rect id="Rectangle" fill="#989898" x="0" y="1211" width="1440" height="1299"></rect>
            <g id="logo-sura-blanco" transform="translate(502.000000, 1807.000000)" fill="#FFFFFF">
                <path d="M95.6120147,36.0177513 C95.658535,36.0207207 95.691858,36.0563532 95.6763512,36.1322374 C95.1382336,37.4126999 94.5278611,38.379398 93.3341705,38.9805324 C91.244387,40.0250942 90.1470362,39.4305584 90.0012067,39.3563239 C89.9602953,39.336858 89.9292817,39.2883581 89.932581,39.2421677 C89.9391797,39.1972971 89.9764619,39.1534163 90.0262815,39.1487972 C90.9355715,38.867696 93.6792784,37.8515082 95.548008,36.0322682 C95.5618651,36.0207207 95.5908991,36.0157717 95.6120147,36.0177513 Z M96.0805168,33.5125846 C96.1210983,33.5188533 96.1550812,33.553826 96.1392445,33.6306999 C95.7222117,34.1839943 95.0316659,34.8111933 94.1322738,35.4489501 C93.2440993,36.0774688 92.2031667,36.6865216 91.1170336,37.2107821 C89.9655742,37.7597874 88.955985,38.216412 87.8969063,38.4945439 C86.7127836,38.8033594 85.6758102,38.9125666 84.8179894,38.8129274 C84.1267838,38.7353936 83.556003,38.5255574 83.120494,38.1794597 C83.096409,38.1557047 83.087171,38.1210619 83.0901404,38.0916981 C83.096409,38.039239 83.1406198,38.0019568 83.1976979,37.9877698 C85.8576023,37.5595192 88.3089902,36.9036162 90.5825453,36.1197 C92.824097,35.3479912 94.6994253,34.453878 96.0805168,33.5125846 Z M95.8261399,32.0905816 C95.8729902,32.1001496 95.9036737,32.136442 95.8630922,32.2251935 C94.4199737,33.084664 91.4654408,34.3390619 88.8824104,35.0695293 C85.8104221,35.9431869 83.3441873,36.3671483 81.6879333,36.1246489 C80.2425052,35.9098638 79.5186364,35.2377942 79.2992322,34.9877064 C79.2685486,34.9530637 79.228627,34.9167713 79.2424841,34.87487 C79.2500725,34.8250504 79.2962629,34.77919 79.3563103,34.7719315 L79.9208224,34.7323398 C81.1418973,34.6478774 83.3441873,34.5934388 85.9110511,34.2242459 C88.8787812,33.7893968 93.6419962,32.9441133 95.8261399,32.0905816 Z M104.235093,28.2053132 C104.283263,28.2132316 104.312627,28.2508437 104.289202,28.331017 C103.239031,29.5428538 99.3649807,33.8012743 97.6110671,35.6716536 C97.429605,35.8620238 97.3352447,35.7742621 97.40585,35.5848817 C97.40585,35.5848817 97.7390803,34.7518057 97.879631,34.1094299 C97.9693722,33.716482 98.0607632,33.4027175 98.2715891,33.2255445 C100.548773,31.3109545 102.730278,29.4118712 104.171747,28.2287383 L104.235093,28.2053132 Z M74.6069194,9.80558472 L74.6069194,31.3068633 C72.229436,31.3068633 71.0486127,30.6265454 70.7721305,28.4348133 C70.7721305,28.4348133 69.1191757,31.7196071 64.4014912,31.7196071 C58.667289,31.7196071 55.2769172,27.1655684 55.4613487,20.64745 C55.6639264,13.4846462 60.3535668,9.82373093 65.3470737,9.80954389 L65.3470737,9.80954389 L66.2903467,9.80954389 L66.2903467,9.80558472 L74.6069194,9.80558472 Z M20.795556,9.63900252 C22.5441908,9.63900252 24.5396139,10.2186914 24.5511615,13.4012066 L24.5511615,13.4012066 L24.5653486,24.5713533 C24.5653486,26.7380107 26.2192931,27.8399805 28.7181911,27.8399805 C31.0946847,27.8399805 32.893139,26.7380107 32.893139,24.5713533 L32.893139,24.5713533 L32.8756526,9.64428141 C35.4887068,9.64428141 36.6520438,10.75219 36.6520438,13.8796067 L36.6520438,13.8796067 L36.6659009,25.4852624 C36.6659009,29.479738 32.668126,31.4457973 28.6017254,31.4457973 C24.3937844,31.4457973 20.795556,29.479738 20.795556,25.4852624 L20.795556,25.4852624 Z M55.1958532,9.63926646 C55.1958532,11.4766526 54.6649941,13.1731583 51.3749213,13.1731583 L51.3749213,13.1731583 L50.2607441,13.1731583 C47.3547111,13.1731583 45.8317492,14.8907795 45.8317492,17.7420439 L45.8317492,17.7420439 L45.8317492,31.1685892 L42.0721846,31.1659498 L42.0721846,17.8680775 C42.0721846,12.3384326 45.2758154,9.63926646 49.9397211,9.63926646 L49.9397211,9.63926646 Z M15.1375349,9.6443474 C15.1375349,12.5893122 12.9853945,13.1729603 11.1757225,13.1729603 L11.1757225,13.1729603 L7.08787642,13.1729603 C5.04461323,13.1729603 4.07659544,13.9628153 4.07659544,15.5695797 C4.07659544,17.1162966 5.22739505,17.6712407 6.48938144,18.0146989 L6.48938144,18.0146989 L11.0952193,19.278005 C14.6337302,20.2447031 15.9630225,21.896998 15.9630225,25.2705433 C15.9630225,28.6239628 13.2503291,31.1657518 8.51317869,31.1657518 L8.51317869,31.1657518 L0.707999107,31.1657518 L0.707999107,27.6876184 L8.38351577,27.6338396 C10.8721859,27.6038159 11.8834247,26.6344783 11.8834247,25.027384 C11.8834247,23.9564278 11.2938378,22.9234135 9.6395634,22.4789964 L9.6395634,22.4789964 L5.63057083,21.422887 C2.01947515,20.4674066 -3.2993108e-05,18.6580645 -3.2993108e-05,15.4692806 C-3.2993108e-05,12.0442661 2.71035084,9.65556506 7.44453192,9.64995623 L7.44453192,9.64995623 Z M107.810886,22.8099502 C107.858397,22.8198482 107.884461,22.8554807 107.858397,22.9435723 C107.457414,23.2805122 106.512601,24.0692201 105.351178,25.0356283 L104.841118,25.4598838 C104.232801,25.9656771 103.582019,26.5061074 102.929674,27.0469162 L102.371092,27.5097602 C101.256979,28.4324376 100.172616,29.3274623 99.3240693,30.0222437 L99.2316886,30.102087 C98.473177,30.6731977 97.9627736,30.8064899 97.879631,29.5524218 C97.8565358,29.2492152 97.8159543,29.0001172 97.8159543,29.0001172 C97.769434,28.7358424 97.8489474,28.7421111 97.9508961,28.6814038 C98.8014584,28.1571433 100.434947,27.2465335 101.735865,26.4695458 C102.013958,26.3034981 102.297728,26.1337066 102.583615,25.9623685 L103.44407,25.4459119 C105.258968,24.3550972 107.016016,23.2903827 107.810886,22.8099502 Z M70.558995,13.2612829 L66.2283196,13.2612829 C65.9986876,13.2777794 65.7594875,13.2856978 65.5054406,13.2856978 C62.2249359,13.2856978 59.7521024,15.5453957 59.6085824,20.6893512 C59.4455964,26.0550204 61.8276989,28.2771062 65.1471355,28.2771062 C68.8469826,28.2771062 70.558995,25.4495969 70.558995,22.4726287 L70.558995,22.4726287 L70.558995,13.2612829 Z M109.125332,20.7297348 C109.130281,20.7505204 109.179441,20.7924217 109.102237,20.8405916 C108.869065,20.9923479 106.319886,22.0733978 103.685471,23.1752315 L102.773581,23.55607 C100.149197,24.6506044 97.6969751,25.6610947 97.6476894,25.6790309 C97.0505142,25.8842481 96.3870228,25.9881763 95.9036737,25.1676377 C95.7882921,24.97213 95.6808827,24.7978456 95.5955431,24.6604211 L95.4858483,24.483884 C95.4709119,24.4597201 95.4577955,24.4383487 95.4467192,24.4200139 C95.4137261,24.3678848 95.2933012,24.2388818 95.6120147,24.1587085 C95.6120147,24.1587085 98.6737751,23.3384998 101.391417,22.6519133 C104.534341,21.8646977 108.088688,20.9636559 109.025693,20.709609 C109.059016,20.7033403 109.118733,20.6967417 109.125332,20.7297348 Z M110.166594,19.1543139 C110.209155,19.1589329 110.243468,19.2001743 110.239509,19.239766 C110.23654,19.2704496 110.209155,19.2981638 110.172533,19.3011332 C109.798036,19.3601857 106.49423,19.8154623 102.982718,20.2972336 L102.254128,20.3971671 L102.254128,20.3971671 L101.524966,20.4971291 C97.7653806,21.0124197 94.1974094,21.4997114 94.145471,21.5073823 C94.0616685,21.5218993 93.9715973,21.528168 93.877237,21.5308074 C93.7973937,21.5308074 93.709962,21.5308074 93.6254996,21.5182701 C92.9072397,21.4413961 92.2094354,21.092329 91.5835562,20.4278478 C91.2612135,20.087359 90.9758231,19.546272 90.8976295,19.3281875 C90.8788234,19.2981638 90.8788234,19.258902 90.9019186,19.2295382 C90.9256736,19.1912661 90.9688946,19.1744397 90.9995782,19.1675111 L91.356627,19.1669461 C91.3892986,19.1668964 91.4240183,19.1668441 91.4607043,19.1667893 L91.9901017,19.166032 C92.0412132,19.1659619 92.0939647,19.1658904 92.1482746,19.1658178 L92.8695699,19.1649064 C92.9350406,19.1648285 93.0017432,19.1647505 93.0695961,19.1646725 L93.7091257,19.1639805 C93.7831457,19.1639055 93.8580711,19.1638313 93.9338202,19.1637581 L94.8771296,19.1629501 C94.9581634,19.1628899 95.0396945,19.1628318 95.1216414,19.162776 L98.8144156,19.1627149 C98.9665262,19.1628587 99.1154029,19.163027 99.2603926,19.163222 C100.925786,19.1662244 102.670557,19.1682568 104.275616,19.169206 L107.808184,19.1688822 C108.859387,19.1673139 109.683905,19.163387 110.166594,19.1543139 Z M85.8130616,13.2016973 C85.8180105,13.2016973 109.217053,17.4584681 111.14649,17.8167733 C111.186411,17.8250215 111.215115,17.8576847 111.211816,17.899586 C111.208847,17.9358784 111.172224,17.9596334 111.122405,17.9596334 C110.15149,17.8890925 105.780326,17.5816725 101.181635,17.2589611 L100.029058,17.1780928 C99.772692,17.1601083 99.5164402,17.1421336 99.2608462,17.1242067 L98.4965817,17.0706073 C93.5487616,16.723637 89.0579337,16.4092873 89.0579337,16.4092873 C88.8725125,16.3927907 88.7260231,16.3766241 88.5475304,16.3188862 C86.974419,15.8160712 86.055231,14.6052241 85.6903272,13.3874485 C85.6756355,13.3386187 85.6662422,13.2957277 85.6903272,13.2528366 C85.7134224,13.2172041 85.767861,13.1898198 85.8130616,13.2016973 Z M84.1135866,6.36585524 L86.4838115,7.29362144 C88.6472711,8.13342294 92.1868264,9.50858154 95.8619508,10.939218 L96.7459484,11.2833902 C102.35304,13.4667815 108.044061,15.6896518 109.462521,16.266757 C109.497824,16.2789645 109.51828,16.3126175 109.516147,16.3419813 C109.504753,16.3828928 109.47143,16.4132464 109.408083,16.4053281 C108.781214,16.2228762 107.456211,15.8543432 105.777521,15.3947492 C101.940423,14.3409493 87.4445708,10.4583204 87.2024013,10.3887049 L87.1360852,10.3656097 C86.2660569,10.0944064 85.5517562,9.66285653 85.0050604,9.06898059 C84.8417445,8.9003858 84.6969047,8.71199516 84.561633,8.50446851 C84.0766343,7.76113378 83.9565394,6.67928977 83.9317945,6.48034133 C83.9317945,6.45823594 83.9420224,6.41732449 83.9684169,6.38961028 C83.9954712,6.36156614 84.0363827,6.35001855 84.1135866,6.36585524 Z M85.0050604,0.189875337 L86.3973695,1.04274718 L87.1459831,1.50234118 L91.2414176,4.00387863 C96.9564838,7.56845403 104.952694,12.6556614 107.033899,13.964168 C107.052375,14.0611678 107.009814,14.0898718 106.935249,14.0760147 C106.080398,13.638856 104.15789,12.7199979 102.226143,11.7579189 C100.588695,10.9416694 89.4000723,5.66937073 88.6415607,5.2784024 L87.3036902,4.59280561 C87.1054016,4.49415622 86.926579,4.38000006 86.7503958,4.2721126 C86.2198666,3.95240938 85.9473435,3.71782839 85.6596436,3.35193482 C85.4214334,3.05367712 85.2396413,2.67491624 85.0921622,2.31925053 C84.7737787,1.51355883 84.7902752,0.45942903 84.8071017,0.268069003 C84.8071017,0.24266431 84.8235983,0.201752856 84.8641798,0.185256302 C84.8938736,0.166120299 84.9298361,0.161831195 85.0050604,0.189875337 Z" id="Combined-Shape"></path>
            </g>
        </g>
    </g>
</svg>