<?xml version="1.0" encoding="UTF-8"?>
<svg width="60px" height="38px" viewBox="0 0 60 38" version="1.1" xmlns="http://www.w3.org/2000/svg" xmlns:xlink="http://www.w3.org/1999/xlink">
    <title>0C64CF59-1E29-4424-B01C-DBD8416C3EFA</title>
    <g id="logos-aseguradoras" stroke="none" stroke-width="1" fill="none" fill-rule="evenodd">
        <g id="logos-variantes" transform="translate(-694.000000, -2914.000000)" fill="#8A98A9" fill-rule="nonzero">
            <g id="logo-gmx-gris" transform="translate(694.000000, 2914.000000)">
                <path d="M13.0811111,16.535733 C17.4737592,15.8767368 21.9200511,15.6369913 26.3588889,15.819791 C30.5255556,16.0400809 34.9144444,15.9850084 38.47,16.5908055 C39.5811111,16.8110954 40.97,16.8661678 41.5255556,17.8574722 C39.3033333,19.0139939 36.3033333,18.9589214 33.2477778,19.1241388 C25.8033333,19.5096461 17.3588889,19.1241388 10.97,20.6110954 C10.9260185,20.6225688 10.8804938,20.6342334 10.8336269,20.6461331 L10.5379253,20.7207025 C9.45784722,20.9940211 7.96305556,21.4096461 7.91444444,22.3734142 C7.85888889,23.6951533 9.85888889,24.7966026 10.8588889,25.4023997 C14.6366667,27.6052983 19.0255556,29.1473272 23.3588889,30.6342838 C28.5255556,32.3415301 33.97,33.7734142 38.5255556,36.1415301 C39.0811111,36.4168925 39.9144444,36.6922548 40.0255556,37.4632693 C38.0811111,38.0690664 36.1366667,37.4081968 34.3033333,36.9676171 C28.8006406,35.9644908 23.3789071,34.5656254 18.0811111,32.7821099 C13.1366667,31.0748635 7.85888889,29.477762 3.63666667,26.7792113 C2.41444444,25.9531243 0.525555556,24.7415301 0.358888889,23.1995012 C0.136666667,21.4922548 1.47,20.3908055 2.41444444,19.7299359 C5.13666667,17.8574722 8.74777778,17.1415301 13.0811111,16.535733 Z M39.1922222,30.6893562 C39.46362,30.7111096 39.7279748,30.7859828 39.97,30.9096461 L39.97,30.9096461 L39.7477778,31.4603707 C39.6269781,31.350039 39.4675301,31.2907659 39.3033333,31.2951533 C39.1922222,31.2951533 39.0255556,31.3502258 39.0255556,31.5154432 C39.0255556,31.6255881 39.1922222,31.6806606 39.3033333,31.735733 L39.3033333,31.735733 L39.47,31.7908055 C39.8162431,31.8196999 40.0821246,32.1072302 40.0811111,32.4516751 C40.0983151,32.7029786 39.995453,32.9477009 39.8033333,33.1125446 C39.595735,33.2669487 39.340362,33.3448417 39.0811111,33.3328345 C38.7645475,33.3259839 38.4563927,33.2305229 38.1922222,33.0574722 L38.1922222,33.0574722 L38.47,32.5067475 C38.6080814,32.6716488 38.8096285,32.7715461 39.0255556,32.7821099 C39.193556,32.7949498 39.341334,32.6728724 39.3588889,32.5067475 C39.3588889,32.3415301 39.1366667,32.2864577 38.97,32.2313852 C38.5811111,32.1212403 38.3033333,32.0110954 38.3033333,31.5154432 C38.3026061,31.2863995 38.3979226,31.0673555 38.5664851,30.9107024 C38.7350475,30.7540493 38.9616967,30.6738752 39.1922222,30.6893562 Z M58.6922222,30.6893562 C58.96362,30.7111096 59.2279748,30.7859828 59.47,30.9096461 L59.47,30.9096461 L59.1922222,31.4603707 C59.0714225,31.350039 58.9119745,31.2907659 58.7477778,31.2951533 C58.6366667,31.2951533 58.47,31.3502258 58.47,31.5154432 C58.47,31.6255881 58.6366667,31.6806606 58.7477778,31.735733 L58.7477778,31.735733 L58.9144444,31.7908055 C59.2606876,31.8196999 59.526569,32.1072302 59.5255556,32.4516751 C59.5427587,32.7029785 59.4398968,32.9477004 59.2477778,33.1125446 C59.0401795,33.2669487 58.7848065,33.3448417 58.5255556,33.3328345 C58.208992,33.3259839 57.9008371,33.2305229 57.6366667,33.0574722 L57.6366667,33.0574722 L57.9144444,32.5067475 C58.0742148,32.6739047 58.2934561,32.7726932 58.5255556,32.7821099 C58.693556,32.7949498 58.841334,32.6728724 58.8588889,32.5067475 C58.8588889,32.3415301 58.6366667,32.2864577 58.47,32.2313852 C58.0811111,32.1212403 57.8033333,32.0110954 57.8033333,31.5154432 C57.8026061,31.2863995 57.8979226,31.0673555 58.0664851,30.9107024 C58.2350475,30.7540493 58.4616967,30.6738752 58.6922222,30.6893562 Z M55.3033333,30.6893617 C55.6581497,30.6701544 56.0057499,30.7938309 56.2672593,31.0323275 C56.5287687,31.2708241 56.6820141,31.6039187 56.6922222,31.9560284 C56.7229039,32.6860037 56.1508238,33.3024219 55.4144452,33.3328373 C54.6780667,33.3632527 54.0562409,32.7961476 54.0255582,32.0661723 C53.9948755,31.3361971 54.5669548,30.7197781 55.3033333,30.6893617 Z M48.1366667,30.7444342 L48.1369239,32.1485908 C48.1397531,32.4493859 48.1737037,32.7270429 48.5811111,32.7270429 C49.0255556,32.7270429 49.0255556,32.3966081 49.0255556,32.0661733 L49.0255556,30.7444342 L49.6922222,30.7444342 L49.6922222,32.1763183 C49.7473722,32.4971903 49.6440868,32.8248294 49.4144444,33.0574777 C48.9206173,33.4246274 48.2416049,33.4246274 47.7477778,33.0574777 C47.5181354,32.8248294 47.4148501,32.4971903 47.47,32.1763183 L47.47,32.1763183 L47.47,30.7444342 L48.1366667,30.7444342 Z M45.0811111,30.6342893 C45.5861588,30.5940777 46.0588846,30.8841727 46.2477778,31.3502313 L46.2477778,31.3502313 L45.6366667,31.6255936 C45.5485549,31.3964664 45.328446,31.24373 45.0811111,31.2400864 C44.6974906,31.2989459 44.4144547,31.6262881 44.4144547,32.0111009 C44.4144547,32.3959136 44.6974906,32.7232559 45.0811111,32.7821154 C45.3569824,32.8116066 45.6051338,32.6148117 45.6366667,32.3415357 L45.6366667,32.3415357 L45.0811111,32.3415357 L45.0811111,31.8458835 L46.3588889,31.8458835 C46.3791494,32.1976475 46.2814859,32.5461785 46.0811111,32.8371878 C45.7247414,33.2752468 45.1290493,33.4439325 44.5930326,33.2585759 C44.0570158,33.0732192 43.6964128,32.573843 43.6922222,32.0111009 C43.6695879,31.6395223 43.8086328,31.2761361 44.0741661,31.0129119 C44.3396993,30.7496876 44.7062731,30.6118517 45.0811111,30.6342893 Z M51.9144444,30.7444287 C52.4144444,30.7444287 52.8033333,30.9647186 52.8033333,31.5154432 C52.8136006,31.8547354 52.5812285,32.1541923 52.2477778,32.2313852 L52.2477778,32.2313852 L53.0255556,33.277762 L52.1922222,33.277762 L51.5811111,32.3415301 L51.5811111,33.277762 L50.9144444,33.277762 L50.9144444,30.7444287 Z M42.6366667,30.7442029 L42.6366667,31.2949275 L41.8588889,31.2949275 L41.8588889,31.7355072 L42.5811111,31.7355072 L42.5811111,32.2862319 L41.8588889,32.2862319 L41.8588889,32.7268116 L42.6366667,32.7268116 L42.6366667,33.2775362 L41.1922222,33.2775362 L41.1922222,30.7442029 L42.6366667,30.7442029 Z M55.3033333,31.2951588 C54.9261651,31.296528 54.6126132,31.5834438 54.5811111,31.9560284 C54.5610282,32.2244753 54.6941229,32.4815017 54.9258666,32.6218044 C55.1576103,32.7621072 55.4490564,32.7621072 55.6808001,32.6218044 C55.9125438,32.4815017 56.0456385,32.2244753 56.0255556,31.9560284 C55.994056,31.5834426 55.6805026,31.2965254 55.3033333,31.2951588 Z M51.5811111,31.2400809 L51.5811111,31.9009504 L51.6366667,31.9009504 C51.8588889,31.9009504 52.0811111,31.845878 52.0811111,31.5705157 C52.0811111,31.2951533 51.8588889,31.2400809 51.5811111,31.2400809 L51.5811111,31.2400809 Z M36.47,21.8226896 C37.1558388,22.2270325 37.7287768,22.7949885 38.1366669,23.4748635 L35.4144444,24.4661678 C35.2765327,24.2588126 35.107986,24.073167 34.9144444,23.9154432 C34.7083859,23.8092581 34.4800019,23.7526586 34.2477778,23.7502258 C33.8204593,23.7384394 33.4111662,23.9210197 33.1366669,24.245878 C32.8523866,24.647397 32.7151652,25.1332121 32.7477778,25.6226896 C32.7067461,26.1129987 32.844756,26.6016053 33.1366669,26.9995012 C33.4266893,27.335513 33.8578644,27.5186955 34.3033333,27.4951533 C34.5547224,27.5059031 34.8043398,27.4488 35.0255556,27.3299359 C35.1366669,27.3850139 35.2477778,27.219791 35.3033333,26.9995012 L33.97,26.9995012 L33.97,25.0168925 L38.6922222,25.0168925 L38.6922222,25.6226896 C38.6986521,26.0687929 38.6425609,26.5136206 38.5255556,26.9444287 C38.4390168,27.3075057 38.3084364,27.6588563 38.1366669,27.9908055 C37.7287768,28.6706805 37.1558388,29.2386365 36.47,29.6429794 C35.7561615,30.0307761 34.9502041,30.221002 34.1366669,30.1937041 C33.5278679,30.201114 32.9236274,30.0888041 32.3588889,29.8632693 C31.819098,29.6500793 31.3279285,29.3317227 30.9144444,28.9270374 C30.4999539,28.5221889 30.1778939,28.0339096 29.97,27.4951533 C29.5255559,26.3615784 29.5255559,25.1040906 29.97,23.9705157 C30.3980777,22.8852883 31.264142,22.026755 32.3588889,21.6023997 C32.9250842,21.381849 33.5283314,21.2697237 34.1366669,21.2719649 C34.9502041,21.244667 35.7561615,21.4348929 36.47,21.8226896 Z M47.2477778,30.0284867 L46.8588889,26.6690664 C46.8588889,26.3937041 46.8033333,26.1734142 46.8033333,25.8980519 C46.8033333,25.6226896 46.7477778,25.4023997 46.7477778,25.1270374 C46.6922222,25.3473272 46.6366667,25.6226896 46.5811111,25.8980519 C46.5255556,26.1734142 46.4144444,26.4487765 46.3588889,26.7792113 L45.3588889,30.0284867 L43.5255556,30.0284867 L42.5255556,26.7792113 C42.4318958,26.4906891 42.3576586,26.1963222 42.3033333,25.8980519 C42.2477778,25.6226896 42.1922222,25.3473272 42.1366667,25.1270374 C42.1366667,25.4023997 42.0811111,25.677762 42.0811111,25.8980519 C42.0811111,26.1734142 42.0255556,26.3937041 42.0255556,26.6690664 L41.6366667,30.0284867 L38.6366667,30.0284867 L40.0811111,21.5473272 L43.2477778,21.5473272 L43.8588889,23.6400809 C43.8808362,23.7371669 43.9183496,23.8301351 43.97,23.9154432 C44.1865617,24.6377322 44.3536094,25.3737102 44.47,26.1183417 L44.5255556,26.1183417 C44.577834,25.7290311 44.6520238,25.3429216 44.7477778,24.96182 C44.8588889,24.5763128 44.97,24.0806606 45.1366667,23.5850084 L45.7477778,21.5473272 L48.9144444,21.5473272 L50.1529955,29.427718 L52.8033333,25.5125446 L50.1366667,21.5473272 L53.6366667,21.5473272 L54.2477778,22.9241388 C54.2474625,22.9388386 54.2532143,22.9530288 54.2637021,22.9634254 C54.2741899,22.9738221 54.2885047,22.9795239 54.3033333,22.9792113 C54.4144444,23.2545736 54.47,23.419791 54.5255556,23.5850084 C54.5276437,23.4828934 54.5671369,23.385019 54.6366667,23.3096461 C54.7022759,23.1856475 54.7580014,23.0567521 54.8033333,22.9241388 L55.47,21.5473272 L58.97,21.5473272 L56.3033333,25.5125446 L59.3588889,30.0284867 L55.8588889,30.0284867 L54.6922222,28.1009504 C54.6214004,27.9602191 54.5655441,27.812564 54.5255556,27.6603707 C54.4852809,27.5742461 54.4662388,27.4798636 54.47,27.3850084 C54.4460424,27.4756347 54.4274918,27.5675814 54.4144444,27.6603707 L54.1922222,28.1009504 L53.2477778,30.0284867 L47.2477778,30.0284867 Z M0.914444444,3.20819681 C2.16854452,1.27443773 4.45748223,0.258774932 6.74777778,0.619791014 C9.79880337,1.02706594 11.9812149,3.74958969 11.6922222,6.78790696 C11.6233025,8.44372982 10.8562274,9.99479023 9.57802067,11.0629172 C8.29981399,12.1310442 6.62793066,12.6180873 4.97,12.4052983 C1.30333333,11.9647186 -1.53,7.11834174 0.914444444,3.20819681 Z" id="Combined-Shape"></path>
            </g>
        </g>
    </g>
</svg>