<?xml version="1.0" encoding="UTF-8"?>
<svg width="98px" height="50px" viewBox="0 0 98 50" version="1.1" xmlns="http://www.w3.org/2000/svg" xmlns:xlink="http://www.w3.org/1999/xlink">
    <title>E5A4B4A0-2465-426F-9243-B3D03BD8074C</title>
    <g id="logos-aseguradoras" stroke="none" stroke-width="1" fill="none" fill-rule="evenodd">
        <g id="logos-variantes" transform="translate(-982.000000, -2803.000000)" fill="#8A98A9" fill-rule="nonzero">
            <g id="logo-dentegra-gris" transform="translate(982.000000, 2803.000000)">
                <path d="M94.9502247,39.3981131 C95.4749406,39.0764173 97.1993773,40.9508513 97.4067229,40.8235989 C84.92076,48.4727846 70.1173906,51.6877974 55.8523019,47.6163696 C52.5741714,46.6791526 49.2538397,45.4316904 46.108557,43.864693 L46.108557,43.864693 L46.4074106,43.5471022 C49.8648962,45.1575253 53.5329573,46.3522717 57.269703,47.0743047 C70.4763162,49.6303707 83.5776415,46.366963 94.9502247,39.3981131 Z M38.7107479,37.6428512 C38.7417529,37.6512771 38.7695282,37.6512771 38.7871838,37.6772029 C39.0212283,38.0609045 38.8778303,38.7166107 38.6489532,39.2390152 C38.2676351,40.1191955 37.3964813,40.8092533 36.5574092,40.8092533 C36.3108765,40.8092533 36.0789851,40.7399019 35.8985533,40.6480814 C35.7347007,40.5631744 35.5316611,40.5093785 35.3253919,40.6480814 C35.1636924,40.7595622 35.0491462,40.9043145 35.0007009,41.041073 C34.8575182,41.372923 35.0110359,41.8849572 35.7769019,41.7412851 C36.0985786,41.6814398 36.3965708,41.6380141 36.6738931,41.6036624 C37.2334899,41.5436011 37.607918,41.561317 37.7965317,41.6708534 C37.9769634,41.7652665 38.0417724,41.9791542 37.9522025,42.2356033 C37.7295695,42.8595505 36.7563577,43.4904111 35.7110163,43.6269536 C34.5965596,43.7561504 34.03158,43.4573558 34.2492608,42.7912792 C34.3306489,42.5594595 34.5883777,42.3289361 34.8646235,42.175758 C34.9089779,42.1509125 34.9460115,42.0981967 34.9141453,42.0837215 C34.5603872,41.9368088 34.4305538,41.5261011 34.5842868,41.0927085 C34.7007708,40.7936978 34.9203894,40.5443782 35.2265635,40.3996259 C35.3718994,40.3397806 35.5028093,40.1948123 35.4840771,40.0759858 C35.4222824,39.8441661 35.4718043,39.4863904 35.5656805,39.2215152 C35.8419262,38.4353159 36.7727215,37.7277582 37.622344,37.7277582 C38.0798827,37.7277582 38.4355787,37.924362 38.6170871,38.2305023 C38.6035223,38.1207498 38.5779001,38.0174788 38.5550771,37.9077263 C38.5324693,37.7701036 38.5428042,37.6428512 38.7107479,37.6428512 Z M36.0944876,42.0236601 C35.6182167,42.0897709 35.2780232,42.108351 35.2780232,42.108351 C35.2440038,42.0981967 35.1893145,42.108351 35.1596014,42.1416224 C34.9244803,42.3289361 34.7965848,42.4922686 34.7233786,42.6970822 C34.555435,43.1749808 34.9707725,43.4221399 35.7749641,43.3197331 C36.5677442,43.2266163 37.3232752,42.7912792 37.4737785,42.363936 C37.6128703,41.9720246 37.2263846,41.8849572 36.0944876,42.0236601 Z M29.4628674,36.1974674 C29.7905728,36.1974674 30.0020096,36.2512633 30.3071071,36.4053057 C30.4698833,36.4975583 30.6473006,36.617465 30.5740944,36.8307046 L30.5153141,36.9929567 C30.4761273,37.1046536 30.3193799,37.1472152 30.2926812,37.0519379 C30.1729676,36.738452 29.8452621,36.5658295 29.3515509,36.5658295 C28.5927902,36.5658295 27.8536229,37.0519379 27.6247459,37.7005145 C27.4484051,38.205203 27.5691954,38.4793682 28.0814234,38.7101076 C28.2349411,38.7950145 28.4782441,38.8889955 28.742217,39.0091183 C29.4441352,39.2988389 29.7246872,39.5539918 29.767965,39.9813351 C29.7864819,40.1520132 29.7565535,40.3401911 29.686577,40.5378752 C29.3638238,41.4491664 28.3505639,42.1171874 27.2638825,42.1171874 C26.8743824,42.1171874 26.3845468,42.0057065 26.1505024,41.869164 L26.1042102,41.8503678 C25.9526303,41.7572511 25.7691841,41.6550603 25.8402372,41.4491664 L25.8886825,41.3137042 C25.9382044,41.1771618 26.1401673,41.1523162 26.2011007,41.2534268 C26.3856234,41.5783632 26.7639272,41.7572511 27.3011315,41.7572511 C28.1318065,41.7572511 28.9092994,41.2629329 29.1482961,40.5873502 C29.2606891,40.26371 29.2154735,39.9463353 29.0514055,39.7868917 C28.9133904,39.6494851 28.7122886,39.545782 28.0319016,39.2726971 C27.3319212,38.9831925 27.0782832,38.769953 27.0246705,38.3512516 C26.9938807,38.1628576 27.015412,37.9496181 27.0896948,37.7355143 C27.3988833,36.8657044 28.4194638,36.1974674 29.4628674,36.1974674 Z M65.3902296,37.7362273 C66.3787286,37.7362273 66.7518649,38.4798651 66.3427714,39.6383154 C66.3264076,39.6830374 66.3139195,39.717173 66.2943261,39.7759381 C66.2837758,39.8018639 66.2448043,39.8370797 66.2189668,39.8370797 L63.2427042,40.1339299 C63.2181587,40.1339299 63.2078236,40.1607199 63.2078236,40.1877259 C63.0706697,40.7256858 63.10878,40.7390809 63.1180384,41.0659618 C63.200503,41.5263604 63.5428497,41.8085193 64.0563696,41.8085193 C64.5759183,41.8085193 65.1426204,41.5356505 65.6169535,41.0411162 C65.6488197,40.9976905 65.6985568,41.0318261 65.6817625,41.0825975 L65.6055419,41.2975654 C65.563556,41.4166079 65.4920723,41.5438603 65.3624543,41.6285512 C64.9469015,41.9357717 64.3985009,42.1168201 63.8851963,42.1168201 C62.8079886,42.1168201 62.3676749,41.210714 62.8314577,39.9064312 C63.2706949,38.6578888 64.3560844,37.7362273 65.3902296,37.7362273 Z M87.7243849,37.7361625 C87.9616594,37.7361625 88.1913974,37.7860696 88.4626909,37.8904208 C88.618362,37.949186 88.8162339,38.0176732 88.754224,38.1976413 L88.7202049,38.2834125 C88.6780035,38.4013748 88.5008016,38.4355104 88.442021,38.3508195 C88.2975468,38.1561601 88.0378799,38.0446792 87.684337,38.0446792 C87.0926587,38.0446792 86.6327516,38.325974 86.4688987,38.7861566 C86.3287303,39.1793643 86.4729896,39.3500423 87.2069899,39.6654727 C88.0316362,40.0161188 88.2760153,40.3916106 88.0688852,40.981206 C87.8296727,41.6546282 87.1100994,42.1169713 86.2966493,42.1169713 C86.0587288,42.1169713 85.8339425,42.0836998 85.6360707,42.0134842 L85.3957825,41.918423 C85.2246088,41.8769418 85.0637704,41.783825 85.1277183,41.6038569 L85.1916662,41.424969 C85.2297761,41.3132721 85.3925525,41.2532107 85.4298015,41.3474077 C85.5648026,41.6639183 85.874206,41.8181767 86.3771756,41.8181767 C86.9598112,41.8181767 87.4399579,41.5096599 87.6100545,41.0319774 C87.7368731,40.6729053 87.6236191,40.433956 87.218401,40.2127227 C87.0648835,40.1269516 86.8822987,40.0409644 86.6852877,39.9459032 C86.030738,39.6501332 85.8453543,39.3241166 86.0236334,38.8205082 C86.2421752,38.204771 86.9729454,37.7361625 87.7243849,37.7361625 Z M49.574935,37.7360112 C50.6336259,37.7360112 51.1047292,38.6743085 50.6676452,39.9135608 C50.2264702,41.1599427 49.0863914,42.116604 48.0255474,42.116604 C46.9750385,42.116604 46.5019973,41.1599427 46.942957,39.9062151 C47.3802563,38.6743085 48.5233496,37.7360112 49.574935,37.7360112 Z M33.3601715,37.7362273 C34.3499624,37.7362273 34.7230987,38.4798651 34.3127134,39.6383154 C34.2974262,39.6830374 34.2860146,39.717173 34.2631915,39.7759381 C34.2550097,39.8018639 34.2179759,39.8370797 34.1899854,39.8370797 L31.2139381,40.1339299 C31.1883159,40.1339299 31.1809953,40.1607199 31.1809953,40.1877259 C31.040827,40.7256858 31.0789373,40.7390809 31.0892723,41.0659618 C31.1728134,41.5263604 31.5160213,41.8085193 32.0273882,41.8085193 C32.5469369,41.8085193 33.1119164,41.5356505 33.587972,41.0411162 C33.6211301,40.9976905 33.6715132,41.0318261 33.6510586,41.0825975 L33.5756992,41.2975654 C33.533498,41.4166079 33.4633062,41.5438603 33.3354106,41.6285512 C32.9189966,41.9357717 32.3695195,42.1168201 31.8572914,42.1168201 C30.7779306,42.1168201 30.3408466,41.210714 30.8005384,39.9064312 C31.2419287,38.6578888 32.3273182,37.7362273 33.3601715,37.7362273 Z M77.1441734,37.7362273 C77.7627661,37.7362273 78.1473136,37.9410409 78.2175052,38.299897 C78.2637976,38.5896176 78.2256877,38.7695857 77.9505181,39.546495 L77.9162835,39.649766 L77.7711634,40.0585291 L77.6400376,40.4245147 C77.5235536,40.7071057 77.4565919,40.8931232 77.4266631,40.9810548 C77.2905855,41.3649724 77.2440783,41.7486739 77.294892,42.0053392 C77.294892,42.0310489 77.2690547,42.0485488 77.2330977,42.0569747 C76.9514688,42.0982399 76.7884776,41.9109262 76.8235737,41.6639831 C76.8339084,41.5356505 76.8804156,41.3824723 76.9503924,41.1850043 C76.9514688,41.1765784 76.9277844,41.1953746 76.9155118,41.2025042 C76.4844563,41.7733035 75.8320602,42.1168201 75.1979656,42.1168201 C74.438128,42.1168201 74.013317,41.5944156 74.2454235,40.9387094 C74.4073383,40.4772304 74.8444226,40.0667389 75.3969138,39.878561 C75.6679918,39.7863084 75.9638313,39.6994571 76.3154362,39.6311858 C76.9628806,39.4957236 77.260873,39.4006624 77.5719988,39.2485645 C77.610325,39.2392745 77.6359467,39.2133486 77.6492965,39.179213 C77.915422,38.4014396 77.723579,38.044528 77.0701057,38.044528 C76.7884776,38.044528 76.5092172,38.1032932 76.2454594,38.2305455 C76.0236883,38.3331684 75.5937093,38.1715643 75.819572,38.0600835 C76.2691438,37.838418 76.6844818,37.7362273 77.1441734,37.7362273 Z M83.8544903,37.7362273 C84.8440659,37.7362273 85.2172023,38.4798651 84.8070324,39.6383154 C84.7923906,39.6830374 84.7790416,39.717173 84.7572952,39.7759381 C84.7480363,39.8018639 84.7101419,39.8370797 84.6840891,39.8370797 L81.709118,40.1339299 C81.6832807,40.1339299 81.6740225,40.1607199 81.6720845,40.1877259 C81.5351461,40.7256858 81.575194,40.7390809 81.5822993,41.0659618 C81.6669172,41.5263604 82.0092639,41.8085193 82.52063,41.8085193 C83.0429782,41.8085193 83.6070968,41.5356505 84.0812139,41.0411162 C84.1152336,40.9976905 84.1645398,41.0318261 84.1481762,41.0825975 L84.0708793,41.2975654 C84.0276014,41.4166079 83.9565481,41.5438603 83.8297295,41.6285512 C83.4131003,41.9357717 82.8627619,42.1168201 82.3516099,42.1168201 C81.2731108,42.1168201 80.8340891,41.210714 81.2967952,39.9064312 C81.7360324,38.6578888 82.821422,37.7362273 83.8544903,37.7362273 Z M73.4031429,37.2490818 L73.2104383,37.7950356 C73.2022566,37.8209613 73.2186201,37.8477514 73.244458,37.8477514 L74.5092024,37.8477514 C74.6052321,37.8477514 74.4125275,38.1210523 74.4125275,38.1210523 L73.148644,38.1210523 C73.1228067,38.1210523 73.0879261,38.1446016 73.0775908,38.1716076 L72.1239723,40.8694011 C71.8455734,41.6543041 71.878516,41.8085626 72.3289494,41.8085626 C72.5774201,41.8085626 72.8484988,41.6886558 73.0950307,41.4939964 C73.1609166,41.4341511 73.2672809,41.4341511 73.23929,41.5095519 C73.1837395,41.6635942 73.0775908,41.8178526 72.9113695,41.9109694 C72.6641908,42.039302 72.3980654,42.1168632 72.1506711,42.1168632 C71.5157149,42.1168632 71.3940636,41.783717 71.7064814,40.8942466 L72.6712962,38.1716076 C72.6794779,38.1446016 72.6723726,38.1210523 72.6362007,38.1210523 L72.1250487,38.1210523 C72.03634,38.1210523 72.2208628,37.8477514 72.2208628,37.8477514 L72.7330912,37.8477514 C72.7681867,37.8477514 72.7959619,37.8209613 72.8032828,37.7950356 L72.8062973,37.7857455 C72.8999577,37.5241111 73.0640261,37.3100075 73.3527603,37.2158105 C73.3919467,37.2065204 73.4197219,37.2065204 73.4031429,37.2490818 Z M53.5392659,37.7361625 C53.7774014,37.7361625 54.0071397,37.7860696 54.280371,37.8904208 C54.434104,37.949186 54.6330527,38.0176732 54.5680283,38.1976413 L54.5380999,38.2834125 C54.4958987,38.4013748 54.3154669,38.4355104 54.2577632,38.3508195 C54.1143652,38.1561601 53.8538372,38.0446792 53.5022322,38.0446792 C52.9105539,38.0446792 52.447417,38.325974 52.2855021,38.7861566 C52.1477023,39.1793643 52.2887319,39.3500423 53.0248848,39.6654727 C53.8452248,40.0161188 54.0917574,40.3916106 53.8854882,40.981206 C53.6454149,41.6546282 52.9258411,42.1169713 52.1136829,42.1169713 C51.8764087,42.1169713 51.6486083,42.0836998 51.4537506,42.0134842 L51.2126007,41.918423 C51.042504,41.8769418 50.8816657,41.783825 50.9445369,41.6038569 L51.0074081,41.424969 C51.0474562,41.3132721 51.2082945,41.2532107 51.2466201,41.3474077 C51.3826975,41.6639183 51.6910248,41.8181767 52.1929179,41.8181767 C52.7774909,41.8181767 53.2556996,41.5096599 53.4247198,41.0319774 C53.5526153,40.6729053 53.4421601,40.433956 53.0330666,40.2127227 C52.8784723,40.1269516 52.6980406,40.0409644 52.5010298,39.9459032 C51.8475568,39.6501332 51.6632495,39.3241166 51.8404515,38.8205082 C52.057917,38.204771 52.7886871,37.7361625 53.5392659,37.7361625 Z M43.4678803,37.8477945 L42.5771331,40.3643237 C42.3441653,41.0232706 42.2246669,41.3916328 42.1833269,41.6284216 C42.1493076,41.8509512 41.9430383,42.1581717 41.7729416,42.0391291 C41.7595922,42.0298391 41.7535635,42.0235737 41.7494725,42.0049936 C41.7244963,41.7310444 41.7576544,41.5860761 41.915263,41.0917579 L41.9576796,40.9716351 C41.960694,40.9623451 41.9329186,40.9893511 41.9318421,40.9975609 C41.4659062,41.688483 40.7844426,42.1166904 40.1040556,42.1166904 C39.6805362,42.1166904 39.382544,41.9356421 39.3112755,41.6377116 C39.2514187,41.4080524 39.2783327,41.177529 39.4247452,40.7679017 L40.3217363,38.2304159 C40.342191,38.1716508 40.3596313,38.1208795 40.366952,38.0772377 C40.3792248,37.9419915 40.4659956,37.7702332 40.6143458,37.7527334 C40.7710933,37.7358816 40.8989888,37.7451717 40.8628163,37.8477945 L39.8814226,40.6220692 C39.5668513,41.509595 39.6648184,41.8083897 40.2577886,41.8083897 C41.1039661,41.8083897 41.9699524,40.9385797 42.4337351,39.6228464 L42.9255085,38.2304159 C42.9472551,38.1716508 42.9646954,38.1208795 42.9638342,38.0772377 C42.9842888,37.9419915 43.0710597,37.7702332 43.2275918,37.7527334 C43.3761573,37.7358816 43.5038375,37.7451717 43.4678803,37.8477945 Z M80.9490443,36.2177327 C81.0933036,36.2332881 81.0582075,36.4050464 80.9735896,36.5394284 C80.9509816,36.5828541 80.9253599,36.6357859 80.9036128,36.6958473 L79.4397046,40.8353303 C79.1666886,41.6040297 79.185205,41.7839978 79.5449924,41.7839978 C79.5902076,41.7839978 79.6367156,41.7736275 79.6759019,41.7654177 C79.8223148,41.7239364 79.966789,41.7654177 79.9213582,41.8946145 L79.8944445,41.9721758 C79.7355434,42.0475766 79.5501597,42.0901381 79.3839385,42.0901381 C78.8099157,42.0901381 78.7119488,41.7414364 79.032764,40.8353303 L80.6325349,36.3099852 C80.6695684,36.2075784 80.803493,36.1980723 80.9490443,36.2177327 Z M70.1392663,37.7365514 C70.4936704,37.7365514 70.798768,37.8990196 70.9081467,38.1379689 C70.9916881,38.3509924 70.9669273,38.5722257 70.8063037,39.0263589 L70.115582,40.9805147 C69.9795046,41.3640002 69.9319205,41.7489981 69.9814424,42.0054472 C69.9876864,42.0385026 69.9648633,42.0560025 69.9248152,42.0646444 C69.649646,42.098564 69.475243,41.9185959 69.5114155,41.6640911 C69.5310089,41.5357585 69.5650283,41.3910062 69.6350048,41.1944024 L70.398933,39.0263589 C70.6443891,38.3324122 70.5350104,38.0448521 70.0051267,38.0448521 C69.3772759,38.0448521 68.5898786,38.6000959 68.059995,39.4269123 L67.2805643,41.6280111 C67.2713058,41.6548011 67.2702293,41.6807268 67.2609709,41.708597 C67.2228606,41.8421148 67.1475013,42.0054472 67.0133617,42.0054472 L66.8744852,42.0054472 C66.7403457,42.0054472 66.7814703,41.8421148 66.8464946,41.708597 C66.8538152,41.6878564 66.8663034,41.6548011 66.8744852,41.6280111 L68.0785118,38.2226597 C68.0877703,38.1978142 68.0961674,38.1721044 68.1043493,38.1450984 C68.145474,37.9837104 68.2012399,37.7791128 68.3650926,37.7613969 C68.5259309,37.7365514 68.6527499,37.7521068 68.6185152,37.847168 L68.247532,38.8969461 C68.2434411,38.905372 68.2651876,38.8969461 68.268202,38.8887363 C68.7052861,38.2226597 69.4969896,37.7365514 70.1392663,37.7365514 Z M46.6961229,37.735968 C46.8808609,37.735968 47.0137086,37.7618938 47.1683029,37.847881 C47.2322506,37.8725104 47.2148103,37.9667074 47.1788532,38.0691143 C47.1157667,38.2222925 46.9157415,38.2138666 46.8095925,38.1384657 C46.7486591,38.0866142 46.6674864,38.0691143 46.5600455,38.0691143 C46.250857,38.0691143 45.9138931,38.2747921 45.4591535,38.7351908 C45.2188649,38.9927202 45.1097016,39.1024727 44.8911596,39.3662675 C44.8704895,39.4004032 44.8416377,39.435403 44.8291496,39.4675942 L44.0624223,41.6367178 C44.0529485,41.6637238 44.0529485,41.6885693 44.0447667,41.7153594 C44.0055799,41.8426117 43.9312971,42.0050799 43.799526,42.0050799 L43.6664629,42.0050799 C43.5344764,42.0050799 43.576893,41.8354821 43.6294292,41.7153594 C43.6386876,41.6885693 43.6457929,41.6637238 43.6561279,41.6367178 L44.8582167,38.2387121 C44.8786714,38.1808112 44.896327,38.1289597 44.9036476,38.0866142 C44.9189348,37.9418619 45.0054904,37.7701036 45.1622378,37.7526037 C45.3179086,37.735968 45.4384835,37.7441779 45.4033876,37.847881 L45.0354188,38.888369 C45.0313278,38.897659 45.0601797,38.888369 45.0653472,38.8728135 C45.5541063,38.2646379 45.8064523,38.0267689 46.1395405,37.8632204 C46.3085607,37.7783134 46.5014805,37.735968 46.6961229,37.735968 Z M59.9332459,36.3100933 C60.9320799,36.3100933 61.477466,36.4632714 61.9311291,36.8564791 C62.5165634,37.3695936 62.6774017,38.2145579 62.3557251,39.1288738 C61.9929237,40.152078 61.105191,41.0921036 60.0290599,41.5855576 C59.3527638,41.8938584 58.7673295,42.0055552 57.8313668,42.0055552 L57.097367,42.0055552 C56.9580599,42.0055552 56.943634,41.8422228 57.0024143,41.7078409 C57.0105961,41.6808348 57.0220077,41.645619 57.0323427,41.6207734 L58.7673295,36.7115107 C58.7796023,36.6784554 58.7910139,36.6421593 58.8013489,36.6173138 C58.8435501,36.4736417 58.9621872,36.3100933 59.1135518,36.3100933 L59.9332459,36.3100933 Z M49.466633,38.044528 C48.6719151,38.044528 47.7482251,38.8791221 47.3802563,39.9217706 C47.0133641,40.9622586 47.3563567,41.8085193 48.1347108,41.8085193 C48.9294286,41.8085193 49.8645301,40.9622586 50.2346521,39.9135608 C50.6026209,38.8730728 50.2604896,38.044528 49.466633,38.044528 Z M77.4947018,39.5650751 L77.3545334,39.6136859 C76.9133589,39.7863084 76.6928791,39.8619253 76.2999335,39.9455359 C75.2403819,40.1950716 74.862939,40.4152246 74.6803542,40.9294193 C74.5091812,41.4166079 74.8104029,41.8085193 75.3588032,41.8085193 C76.189694,41.8085193 76.9968996,41.0493261 77.415252,39.8712154 L77.5164482,39.5804145 C77.5235536,39.5650751 77.5071901,39.5536245 77.4947018,39.5650751 Z M59.8053503,36.6514494 L59.3897975,36.6514494 C59.3361848,36.6514494 59.2672848,36.6959553 59.2498445,36.7467267 L57.5437095,41.5700021 C57.5260539,41.6207734 57.5611498,41.6715448 57.6115329,41.6715448 L58.0703635,41.6715448 C58.8403204,41.6715448 59.5310425,41.4935211 60.1197064,41.1521649 C60.8898786,40.6969515 61.5558397,39.9129126 61.8342386,39.1288738 C62.1083312,38.3500201 61.997876,37.6165366 61.5394759,37.1634835 C61.1650478,36.7983621 60.6693988,36.6514494 59.8053503,36.6514494 Z M37.5407406,38.0784044 C36.8687508,38.0784044 36.2038662,38.5647288 35.9728362,39.2130894 C35.7254423,39.9135176 36.0305399,40.4512615 36.6749697,40.4512615 C37.3191842,40.4512615 38.0458634,39.8958016 38.282061,39.2297251 C38.5251487,38.5388031 38.2284482,38.0784044 37.5407406,38.0784044 Z M65.2644872,38.044528 C64.4490993,38.0270281 63.7107933,38.8369928 63.3406714,39.8100737 C63.3346426,39.8277896 63.3232311,39.8619253 63.3499298,39.8619253 L65.8921227,39.5650751 C65.9190367,39.5650751 65.9416445,39.546495 65.9519795,39.5205691 L65.9900897,39.4088722 C66.2641824,38.6341235 65.9519795,38.044528 65.2644872,38.044528 Z M33.2333526,38.044528 C32.4201179,38.0270281 31.6820271,38.8369928 31.3119052,39.8100737 C31.3056612,39.8277896 31.2933884,39.8619253 31.3200871,39.8619253 L33.8633565,39.5650751 C33.8900553,39.5650751 33.912663,39.546495 33.9210602,39.5205691 L33.9613236,39.4088722 C34.2354162,38.6341235 33.922998,38.044528 33.2333526,38.044528 Z M83.7287481,38.044528 C82.9131445,38.0270281 82.178284,38.8369928 81.804932,39.8100737 C81.7989031,39.8277896 81.7864156,39.8619253 81.8152673,39.8619253 L84.3585363,39.5650751 C84.3832971,39.5650751 84.4059051,39.546495 84.415164,39.5205691 L84.4554268,39.4088722 C84.7305963,38.6341235 84.4171013,38.044528 83.7287481,38.044528 Z M60.5331276,25.4293239 C61.3256924,25.4293239 62.215363,25.5678107 62.8524722,25.7799701 L63.0647701,25.8668214 C63.5494382,26.0312341 64.0524079,26.2442576 64.0524079,26.5949038 L64.0524079,26.9340994 C64.0524079,27.1216292 63.6659222,27.1484192 63.5298448,26.9982657 C62.8154384,26.2939486 61.8876575,25.968148 60.6104247,25.968148 C57.8229911,25.968148 55.7745095,27.5995278 55.7745095,29.8222314 C55.7745095,32.0317561 57.7454787,33.5998337 60.5124576,33.5998337 C61.4783488,33.5998337 62.3505791,33.4632913 63.1638138,33.1746509 C63.2598431,33.1364104 63.3184081,33.0473986 63.3184081,32.973078 L63.3184081,30.8908057 C63.3184081,30.5762395 63.1638138,30.4492032 62.6804376,30.3364261 C62.6589064,30.3364261 62.6020639,30.3238952 62.5620158,30.3102842 C62.2536885,30.2111181 62.6804376,30.1977231 63.2598431,30.2111181 C64.0319532,30.2493586 64.399922,30.7883989 64.399922,31.3045379 L64.399922,32.7598384 C64.399922,33.1364104 64.1103269,33.4881369 63.6082185,33.6514693 C62.6020639,33.9649552 61.459832,34.1282876 60.3393465,34.1282876 C56.952914,34.1282876 54.6128994,32.4070318 54.6128994,29.896552 C54.6128994,27.3119677 57.1085848,25.4293239 60.5331276,25.4293239 Z M23.5443402,25.5921594 L31.2417565,32.7606378 C31.2828811,32.797582 31.3582405,32.7718723 31.3582405,32.7221812 L31.3582405,26.2571557 C31.3582405,26.1186688 31.3405848,26.0048114 31.2828811,25.9065094 C31.2057993,25.7680226 31.3405848,25.5921594 31.5931462,25.5921594 L31.8644397,25.5921594 C32.1540348,25.5921594 32.2117386,25.8177136 32.1725517,25.9922806 C32.1540348,26.0689777 32.1344415,26.155829 32.1344415,26.2571557 L32.1344415,33.9646743 C32.1344415,33.9893038 32.1344415,34.0141493 32.0952546,34.0277603 C31.5931462,34.3038699 31.06843,33.8270516 30.6810831,33.4887202 L23.4080475,26.7320295 C23.3699372,26.6968137 23.2719701,26.720795 23.2719701,26.7588195 L23.2719701,33.3748628 C23.2719701,33.4742449 23.29264,33.5518062 23.3133101,33.6140281 C23.3503438,33.7648297 23.3503438,33.9646743 23.1195289,33.9646743 L22.653593,33.9646743 C22.4421563,33.9646743 22.383376,33.8136566 22.4421563,33.6883487 C22.4883193,33.6171392 22.4975519,33.5321026 22.4993984,33.4103413 L22.49986,26.0318174 C22.4802666,25.7803373 22.5771571,25.4908328 22.9442647,25.4774378 C23.194673,25.464907 23.4483109,25.4908328 23.5443402,25.5921594 Z M70.8049693,25.5910791 C72.4286395,25.5910791 73.3379037,25.7038563 74.0914967,26.0050275 C75.0976514,26.3949944 75.697727,27.1116262 75.697727,27.9008502 C75.697727,28.6291486 75.1376993,29.3449162 74.2842013,29.7214882 C73.7820926,29.9345116 73.3183101,30.0226593 72.3689981,30.0868256 C72.2740449,30.0868256 72.1771544,30.1609301 72.2348585,30.223152 L75.523324,33.3117767 C75.8512445,33.6140281 75.9871064,33.7380398 76.123184,33.8011258 C76.2200745,33.8506008 76.3161034,33.8901377 76.5891201,33.9646743 C76.5891201,33.9646743 76.2779935,34.1031612 75.8131339,34.0772354 C75.3284658,34.0534701 74.8461663,33.9139029 74.5759492,33.6511884 L71.6543765,30.788118 C71.2474358,30.3875647 70.5700632,30.1488314 69.8164701,30.1488314 L68.7730664,30.1488314 C68.6546446,30.1488314 68.5400985,30.2119175 68.5400985,30.2987689 L68.5400985,33.3999244 C68.5400985,33.4999547 68.5586153,33.5755715 68.5586153,33.6375773 C68.5980175,33.8011258 68.4617247,33.9646743 68.21024,33.9646743 L67.8041608,33.9646743 C67.5535373,33.9646743 67.4185365,33.8011258 67.4370533,33.6375773 C67.4566467,33.5755715 67.4566467,33.4999547 67.4566467,33.3999244 L67.4566467,25.9924966 C67.4370533,25.7928681 67.6114563,25.5910791 67.9208601,25.5910791 L70.8049693,25.5910791 Z M52.5629321,25.6045821 C52.7752301,25.6045821 52.7956848,25.7804454 52.7545601,25.9926047 C52.7164498,26.1941776 52.2927151,26.1797024 51.9813735,26.1176966 C51.8864208,26.106246 51.7688602,26.0941473 51.6340747,26.0941473 L46.5651915,26.0941473 C46.4280375,26.0941473 46.3322235,26.1706284 46.3322235,26.2440847 L46.3322235,29.2199323 C46.3322235,29.2955491 46.4280375,29.3698698 46.5651915,29.3698698 L51.169,29.3698698 C51.2277803,29.3698698 51.2639528,29.3584192 51.3040008,29.3584192 C51.5948878,29.3450242 51.9432632,29.3821845 51.9432632,29.5705785 L51.9432632,29.6481398 C51.9432632,29.8479844 51.5554857,29.8963792 51.2465125,29.8715336 L46.5651915,29.8715336 C46.4280375,29.8715336 46.3322235,29.9346197 46.3322235,30.0091563 L46.3322235,33.3367303 C46.3322235,33.4123471 46.4280375,33.4888282 46.5651915,33.4888282 L51.7102952,33.4888282 C51.9628566,33.4888282 52.1566377,33.474353 52.311232,33.4371927 C52.6206358,33.3615758 53.0452317,33.3615758 53.0844186,33.5633648 C53.1236054,33.7774685 53.0844186,33.977097 52.8710441,33.977097 L45.6951143,33.977097 C45.4183661,33.977097 45.2663184,33.809465 45.2497078,33.6306423 L45.2498484,26.0051354 C45.2302549,25.8055069 45.3837726,25.6045821 45.6951143,25.6045821 L52.5629321,25.6045821 Z M19.4628579,25.6045821 C19.6742946,25.6045821 19.6958258,25.7804454 19.656639,25.9926047 C19.6174522,26.1941776 19.1907031,26.1797024 18.8825911,26.1176966 C18.7854853,26.106246 18.6700778,26.0941473 18.535077,26.0941473 L13.4653325,26.0941473 C13.3303317,26.0941473 13.2343024,26.1706284 13.2343024,26.2440847 L13.2343024,29.2199323 C13.2343024,29.2955491 13.3303317,29.3698698 13.4653325,29.3698698 L18.0691411,29.3698698 C18.1279214,29.3698698 18.1662469,29.3584192 18.2041419,29.3584192 C18.4958902,29.3450242 18.8434043,29.3821845 18.8434043,29.5705785 L18.8434043,29.6481398 C18.8434043,29.8479844 18.4569186,29.8963792 18.1485913,29.8715336 L13.4653325,29.8715336 C13.3303317,29.8715336 13.2343024,29.9346197 13.2343024,30.0091563 L13.2343024,33.3367303 C13.2343024,33.4123471 13.3303317,33.4888282 13.4653325,33.4888282 L18.6112975,33.4888282 C18.8651508,33.4888282 19.0557023,33.474353 19.2124496,33.4371927 C19.5207769,33.3615758 19.9453728,33.3615758 19.9845597,33.5633648 C20.0237465,33.7774685 19.9845597,33.977097 19.7731229,33.977097 L12.5952553,33.977097 C12.2849903,33.977097 12.130396,33.7649377 12.151066,33.5633648 L12.151066,26.0051354 C12.130396,25.8055069 12.2849903,25.6045821 12.5952553,25.6045821 L19.4628579,25.6045821 Z M82.2357507,25.5915544 C82.7202031,25.5915544 83.1665457,25.7922632 83.3387958,26.0817678 L87.6538703,33.3008015 L87.7890863,33.5520655 C87.8073878,33.5998121 87.8259049,33.6380526 87.8661684,33.6762932 C87.9826524,33.8016011 87.9034174,33.9649335 87.6930573,33.9649335 L86.8404202,33.9649335 C86.6270457,33.9649335 86.6270457,33.7890704 86.6270457,33.6514476 C86.6270457,33.5874974 86.6074522,33.5520655 86.4724518,33.3008015 L85.0991896,30.9784996 C85.0621561,30.9134691 84.963112,30.863778 84.867298,30.863778 L79.7986304,30.863778 C79.6832228,30.863778 79.5852559,30.9134691 79.5678152,30.9784996 L78.2130701,33.3008015 C78.1349116,33.4373439 78.0976625,33.514041 78.0976625,33.5874974 C78.0976625,33.7642248 78.0388827,33.9649335 77.788474,33.9649335 L77.3027295,33.9649335 C77.0708379,33.9649335 76.9750239,33.8016011 77.0915079,33.6762932 C77.1883984,33.5624358 77.2648345,33.4250292 77.4006965,33.1994749 L81.5396455,26.2317052 C81.6169431,26.1178478 81.6563451,26.0052867 81.6563451,25.9307501 C81.6563451,25.7682819 81.790269,25.5915544 82.0428306,25.5915544 L82.2357507,25.5915544 Z M42.5998056,25.5922026 C43.0061,25.5922026 43.3340206,25.8175408 43.3340206,26.0813356 C43.3340206,26.1794215 43.139163,26.2314892 43.0061,26.1794215 C42.8721757,26.118496 42.6762415,26.0936504 42.3668376,26.0936504 L39.387776,26.0936504 L39.387776,33.3995355 C39.387776,33.4999979 39.387776,33.5756147 39.408446,33.6387008 C39.446341,33.8020332 39.3094023,33.9645015 39.0589941,33.9645015 L38.6341828,33.9645015 C38.3816215,33.9645015 38.266214,33.7771877 38.2858075,33.6002442 C38.3043243,33.5136089 38.3043243,33.4120662 38.3043243,33.2869743 L38.3043243,26.0936504 L35.326124,26.0936504 C35.0343757,26.0936504 34.8425325,26.118496 34.7066704,26.1794215 C34.5899711,26.2435879 34.3972665,26.1794215 34.3972665,26.0813356 C34.3972665,25.8175408 34.7251872,25.5922026 35.1508597,25.5922026 L42.5998056,25.5922026 Z M2.24497568,25.591252 C4.43254909,25.591252 5.74681564,25.8176705 7.04278064,26.3960315 C8.72609254,27.1489593 9.73224712,28.3912363 9.73224712,29.7339757 C9.73224712,31.2411278 8.51379455,32.6210275 6.54067225,33.3501901 C5.30154971,33.8012987 4.10269058,33.9646311 2.05334769,33.9646311 L0.446041051,33.9646311 C0.171206806,33.9646311 0.0185211146,33.7765145 0.00174506371,33.5932914 L0.00185168616,26.0421445 C-0.0177417371,25.8293371 0.117259103,25.591252 0.446041051,25.591252 L2.24497568,25.591252 Z M2.22538226,26.0939961 L1.3171948,26.0939961 C1.20178738,26.0939961 1.0853034,26.1560019 1.0853034,26.2316188 L1.0853034,33.3253446 C1.0853034,33.3998812 1.20178738,33.4742017 1.3171948,33.4742017 L2.32334938,33.4742017 C4.00687659,33.4742017 5.37992341,33.2127834 6.40459485,32.7098233 C7.73953136,32.044827 8.59216823,30.8902655 8.59216823,29.7339757 C8.59216823,28.5910809 7.7787182,27.511056 6.42418827,26.8460597 C5.3222197,26.3080998 4.12228401,26.0939961 2.22538226,26.0939961 Z M82.2172336,26.4324139 L79.9347072,30.2616518 C79.8963818,30.3104787 79.9532243,30.361034 80.0315984,30.361034 L84.5757649,30.361034 C84.6549999,30.361034 84.712704,30.3104787 84.674809,30.2616518 L82.3530956,26.4324139 C82.3337176,26.3952536 82.2562051,26.3952536 82.2172336,26.4324139 Z M70.8226248,26.0938233 L68.7730664,26.0938233 C68.6546446,26.0938233 68.5400985,26.155829 68.5400985,26.2437607 L68.5400985,29.4825389 C68.5400985,29.5704704 68.6546446,29.6346368 68.7730664,29.6346368 L70.8618112,29.6346368 C72.3885916,29.6346368 72.8913456,29.5704704 73.4337177,29.3449162 C74.0914967,29.0679424 74.5563557,28.4770507 74.5563557,27.9008502 C74.5563557,27.3507915 74.1315447,26.7838811 73.5120911,26.4952408 C72.8913456,26.2057362 72.119451,26.0938233 70.8226248,26.0938233 Z M86.8386765,24.5359647 C87.4809529,24.5359647 88.003516,25.0583692 88.003516,25.7050013 C88.003516,26.3524977 87.4809529,26.8779269 86.8386765,26.8779269 C86.1931702,26.8779269 85.6675926,26.3524977 85.6675926,25.7050013 C85.6675926,25.0583692 86.1931702,24.5359647 86.8386765,24.5359647 Z M86.8386765,24.680933 C86.2685291,24.680933 85.8140048,25.1348502 85.8140048,25.7050013 C85.8140048,26.2799055 86.2685291,26.7331746 86.8386765,26.7331746 C87.403656,26.7331746 87.8560274,26.2799055 87.8560274,25.7050013 C87.8560274,25.1348502 87.403656,24.680933 86.8386765,24.680933 Z M86.9728161,25.0905604 C87.3087035,25.0905604 87.4241104,25.2167324 87.4241104,25.4286757 C87.4241104,25.6790756 87.24777,25.7730565 87.0231993,25.7784577 L87.4077468,26.3678371 L87.2210712,26.3678371 L86.8563321,25.7784577 L86.5572633,25.7784577 L86.5572633,26.3678371 L86.4138648,26.3678371 L86.4138648,25.0905604 L86.9728161,25.0905604 Z M86.9344906,25.2342324 L86.5572633,25.2342324 L86.5572633,25.6334894 L86.8076713,25.6334894 C86.9881032,25.6334894 87.2796362,25.6654645 87.2796362,25.4256511 C87.2796362,25.2590779 87.092099,25.2342324 86.9344906,25.2342324 Z M42.6747342,15.1164155 C42.7023691,15.3983865 42.7256815,15.7440644 42.7450459,16.1010218 L42.7631082,16.4597974 C42.8050434,17.3564271 42.8230845,18.2143303 42.8230845,18.2143303 L36.0945737,23.2281602 L38.2429603,15.1216007 C38.2429603,15.1216007 40.8962543,14.1420382 41.2119022,14.0633967 C41.9159736,13.885373 42.5950687,14.3436112 42.6747342,15.1164155 Z M45.3450164,14.0959984 C46.3922956,14.3565524 48.300609,14.9969192 48.300609,14.9969192 L50.7323466,23.0444977 L43.8503181,18.2810675 C43.8503181,18.2810675 43.8296481,15.4437069 43.862591,15.1179062 C43.9317062,14.3928486 44.5914232,13.9056599 45.3450164,14.0959984 Z M39.6125621,8.69027856 C39.6125621,8.69027856 40.0018765,9.20842049 40.4261364,9.77976783 L40.6588866,10.0938939 C41.04548,10.6169166 41.4077054,11.1140479 41.4793201,11.2359742 C41.8556861,11.8597053 41.6156128,12.6448244 40.8979768,12.9457794 C40.2044838,13.2364488 39.0680515,13.6272796 38.4405466,13.8382525 L38.2309474,13.9083897 C38.0792599,13.9589 37.9888918,13.988428 37.9888918,13.988428 L31.2552135,8.98194363 L39.6125621,8.69027856 Z M46.8472291,8.63732515 L55.2187884,9.04176735 L48.4366648,13.9458448 C48.4366648,13.9458448 45.763562,13.0127328 45.4709526,12.8742459 C44.8120968,12.5648649 44.5791289,11.7778014 45.0069545,11.1292248 C45.6059535,10.2239829 46.8472291,8.63732515 46.8472291,8.63732515 Z M43.1687684,2.16048175e-05 L46.0119679,7.88945279 C46.0119679,7.88945279 45.4103812,8.74980973 44.8914522,9.47843534 L44.6761096,9.77974589 C44.4354355,10.1151166 44.2398631,10.3821227 44.174923,10.4567533 C43.6943459,11.0050836 42.8770202,11.0193427 42.3718974,10.4256423 C42.1892938,10.210571 41.9740002,9.94045283 41.755499,9.65864404 L41.5370204,9.37454419 C40.9936107,8.66258138 40.4915747,7.96787828 40.4915747,7.96787828 L43.1687684,2.16048175e-05 Z" id="Combined-Shape"></path>
            </g>
        </g>
    </g>
</svg>