<?xml version="1.0" encoding="UTF-8"?>
<svg width="91px" height="21px" viewBox="0 0 91 21" version="1.1" xmlns="http://www.w3.org/2000/svg" xmlns:xlink="http://www.w3.org/1999/xlink">
    <title>36D2C1DB-583A-4D3D-88FB-D5DF983B13FA</title>
    <g id="logos-aseguradoras" stroke="none" stroke-width="1" fill="none" fill-rule="evenodd">
        <g id="logos-variantes" transform="translate(-550.000000, -1621.000000)">
            <rect id="Rectangle" fill="#989898" x="0" y="1211" width="1440" height="1299"></rect>
            <g id="logo-gbg-blanco" transform="translate(550.000000, 1621.000000)" fill="#FFFFFF">
                <path d="M51.3156258,1.80044477 C51.5487235,1.9865807 51.6606104,2.26420716 51.6606104,2.5607627 C51.7818212,4.15711486 51.9247878,5.74715733 52.0304587,7.34350949 C51.9154639,7.32773526 51.6916901,7.29303195 51.5798032,7.27725772 C51.1446875,5.96484172 50.48269,4.6587354 49.3513891,3.83532055 C47.741461,2.66487262 45.5441266,2.57653693 43.7259645,3.24851916 C41.7244322,4.02461132 40.5061082,6.06579679 40.0305889,8.10067257 C39.4587226,10.7002658 39.7726275,13.5490919 41.1183782,15.8584393 C41.9264503,17.2970491 43.3188205,18.3760065 44.9069929,18.7672075 C46.520029,19.186802 48.2138723,18.7798268 49.67151,18.0321283 C49.6746179,15.9530847 49.7616411,13.8614217 49.6093506,11.7886877 C49.5036796,10.7475885 48.3319752,10.5456784 47.4959314,10.5646074 L47.4949602,10.4569976 L47.4949602,10.4569976 L47.4906867,10.2003706 C47.490104,10.1601956 47.4897155,10.1237177 47.4897155,10.0945353 C49.6590781,10.1039999 51.8346567,10.081916 54.0040193,10.1071547 C54.0071273,10.2112647 54.0102352,10.4257942 54.0133432,10.5299041 C53.525392,10.6119301 52.9535257,10.5709171 52.5805693,10.9558084 C52.1578855,11.3659384 52.1765333,12.009527 52.1392377,12.5553154 C52.0864022,14.4671521 52.1330217,16.3821438 52.111266,18.2939805 C49.4508442,19.7893776 46.2620676,20.1648043 43.3157126,19.4644285 C41.1556738,18.9722725 39.2349488,17.5525917 38.1129718,15.618671 C36.8666761,13.5837952 36.6149306,11.0157504 37.2334165,8.72533211 C37.7959589,6.7156951 38.9832032,4.8638004 40.6273191,3.59870709 C42.4268333,2.20741993 44.791998,1.75312208 47.0048722,2.03074854 C48.0833376,2.16325208 49.0841038,2.61124024 50.1128416,2.93303455 C50.3583712,2.99297663 50.6784921,3.11917047 50.8742941,2.87624732 C51.0607723,2.53552393 51.1633353,2.15694239 51.3156258,1.80044477 Z M87.3633364,1.80044477 C87.5310709,2.02429667 87.6739559,2.27337132 87.6677435,2.56343294 C87.7919912,4.14616046 87.916239,5.72888797 88.0466992,7.30846265 C87.9379824,7.31161549 87.7112302,7.31792118 87.6025134,7.31792118 C87.1831772,6.08831215 86.5992127,4.85239744 85.580381,4.01689387 C84.0428148,2.74314503 81.8436293,2.57604431 79.9985499,3.15932039 C78.3833289,3.67638675 77.1967627,5.05417943 76.544462,6.59276714 C75.3019843,9.58796861 75.5442674,13.2074331 77.2153999,15.9913941 C78.1969573,17.6750126 80.0265057,18.8226477 81.9585585,18.9235387 C83.2569477,19.0055126 84.5366997,18.61456 85.6859916,18.0249782 C85.6642482,15.9157258 85.7978145,13.7907092 85.5990181,11.6877625 C85.4033279,10.6378656 84.1981245,10.6189485 83.3718769,10.5022933 L83.4223525,10.4171172 L83.4223525,10.4171172 L83.5361169,10.2136603 C83.5537834,10.1818855 83.5698967,10.1531158 83.5830981,10.1302577 C85.7232659,10.0608952 87.8665399,10.1081878 90.0098139,10.1113407 C90.0160263,10.2185373 90.0222387,10.426625 90.0222387,10.5306689 C89.5003981,10.60949 88.8667344,10.5811144 88.5095221,11.0414295 C88.1212478,11.5332732 88.1771593,12.2142874 88.1305664,12.807022 C88.1026107,14.6325185 88.1305664,16.4611678 88.1212478,18.2866643 C85.1921067,19.9387543 81.5764966,20.2508859 78.3957537,19.1820719 C75.4945683,18.1731619 73.3233385,15.3639782 72.9878696,12.2741914 C72.5778519,9.0740551 74.0035951,5.77302779 76.4543823,3.752055 C78.3833289,2.15986895 81.0453374,1.67748387 83.4557441,2.10942345 C84.5553369,2.29544123 85.5400004,2.87556446 86.6426994,3.03635949 C87.0899913,2.80304906 87.1086285,2.20085592 87.3633364,1.80044477 Z M62.7144891,1.80455365 C64.4662537,1.83930287 66.318119,1.81087169 67.9259887,2.63537588 C69.2272995,3.26086182 70.2376922,4.5750141 70.315896,6.05027639 C70.4316376,7.21911375 69.9530305,8.41954131 69.0740201,9.18718315 C68.5860285,9.63576397 67.9635265,9.88848556 67.3785622,10.1854334 C68.8487932,10.5076535 70.3503057,11.3289986 70.8727069,12.8421692 C71.6954106,14.9871437 70.3471775,17.4954055 68.2888542,18.2946375 C66.752932,18.8980103 65.0668586,18.8695791 63.4402201,18.9011693 C60.9189304,18.8916923 58.3945126,18.9264415 55.8669666,18.8790562 C55.8732229,18.7684905 55.8826073,18.5536771 55.8888636,18.4431114 C56.5457753,18.4209983 57.305916,18.4810197 57.8314454,18.0008487 C58.382,17.4859284 58.2662584,16.6551062 58.3225651,15.9759169 C58.3382058,12.2387964 58.3319495,8.50483485 58.3319495,4.76771431 C58.2881554,4.07272993 58.3632311,3.24506672 57.843958,2.70803334 C57.3309412,2.19627212 56.5676724,2.35422311 55.9326577,2.19943114 C55.9013762,2.10781956 55.8481977,1.91827837 55.813788,1.82350777 C58.112979,1.77928149 60.4184263,1.81403071 62.7144891,1.80455365 Z M60.7374977,10.6466503 C60.7343695,12.9843251 60.7406258,15.3219998 60.7343695,17.6596745 C62.2671635,17.9755765 63.8812894,18.1619587 65.4203397,17.7828763 C66.5902682,17.4922465 67.6757366,16.6551062 68.0542429,15.4704737 C68.5703878,13.928872 67.850913,12.0682093 66.4119636,11.3132035 C64.6883524,10.3497025 62.6331572,10.5044944 60.7374977,10.6466503 Z M28.7332981,14.593395 C28.1067434,14.6375059 27.3874657,14.5879937 26.8986449,14.1486851 C27.0435807,14.0478602 27.2011196,13.8966229 27.3919668,13.9731418 C27.443512,14.0101284 27.4966241,14.0438665 27.5510164,14.0749156 L27.3919668,13.9731418 L27.3919668,13.9731418 C27.5378028,13.9281307 27.6548317,14.0325565 27.7754615,14.0883702 C28.0599318,14.2333061 28.3678079,14.3242285 28.6738835,14.4097496 C28.7954135,14.4169514 28.8521275,14.5258783 28.9034402,14.6213019 C28.8746331,14.6165007 28.8274214,14.6088988 28.7866113,14.6022305 L28.7332981,14.593395 L28.7332981,14.593395 Z M60.7281132,2.93232375 C60.7468821,5.12152454 60.7249851,7.31072533 60.743754,9.49992612 C62.3172139,9.68630829 63.9438524,9.80635105 65.4954153,9.38936042 C66.8436484,9.02607313 67.7727093,7.6392634 67.7195307,6.24613562 C67.725787,4.79614549 66.6747283,3.48831125 65.3421359,3.03341239 C63.8625205,2.51217411 62.2390101,2.58799058 60.7281132,2.93232375 Z M31.2935306,14.9471824 C31.5734998,15.2100473 31.5608967,15.613347 31.6914289,15.9473295 C31.8597705,16.2263984 32.0227107,16.5135694 32.2441655,16.7566294 C32.3215846,17.0401995 32.2495668,17.3291708 32.0974292,17.5749316 C31.942591,17.803588 31.9957041,18.0871581 31.9533936,18.3446217 C31.9317883,18.5165642 31.7337394,18.5192648 31.6095087,18.5759788 C31.9389901,18.6723026 31.8300632,19.240343 31.5293889,19.2916556 C31.206209,19.2916556 31.084679,18.9747774 31.1341913,18.6975089 C31.2899297,18.6759035 31.4456682,18.6551984 31.6032071,18.6362937 L31.5969056,18.5714777 C31.5398915,18.5768791 31.4444679,18.5870816 31.3621142,18.5956837 L31.2548211,18.6065864 L31.2548211,18.6065864 C31.0999828,18.6245909 30.9451446,18.5903824 30.793007,18.5759788 C30.6489714,18.3347192 30.5202396,18.0799563 30.3230909,17.8783065 C30.0944344,17.6397476 29.7460483,17.5983373 29.4336712,17.5785324 C29.0294713,17.6190424 28.6756839,17.8404972 28.2984907,17.9728298 C28.1787612,18.0142401 27.9978165,17.9728298 27.9978165,17.8215925 C27.9339007,17.2940622 27.6692353,16.7602303 27.8231733,16.2299993 C27.9293996,15.9149215 28.3119941,15.9842386 28.5631561,15.8951166 C28.8125177,15.8005932 28.7188946,15.4846152 28.8350233,15.2964687 C28.9286464,15.1902424 29.0573782,15.1227258 29.1735069,15.0417058 L29.2356222,15.0939187 C29.3211434,15.1767391 29.4282698,15.2433556 29.5525005,15.2379542 L29.5642034,15.1857413 C29.6011125,15.05881 29.6065139,14.9192755 29.6803321,14.8076479 C29.813565,14.6555103 30.0341195,14.6861179 30.2132638,14.6474083 C30.5328427,14.6879184 30.4923327,15.0282024 30.3699024,15.237054 C30.4521228,15.3072714 30.5415448,15.3662859 30.6376353,15.4140977 L30.7867054,15.4774134 L30.7867054,15.4774134 C30.8326168,15.2730629 30.8488208,15.042606 31.036067,14.9093731 C31.1206879,14.9228764 31.206209,14.9345793 31.2935306,14.9471824 Z M33.5845966,19.7165606 C33.4864723,19.5212124 33.456765,19.240343 33.6683173,19.1062098 C33.8402597,18.8937573 34.0131024,18.6795044 34.262464,18.5516728 C34.2093509,18.325717 34.1310316,18.1078632 34.0329073,17.8990116 C34.0004993,17.7207676 34.149036,17.6388473 34.3029741,17.6370469 C34.4317059,17.657752 34.5910452,17.6784571 34.6207526,17.8350958 C34.7089744,18.0979608 34.9952451,18.236595 35.0213515,18.5264666 C34.7476839,18.677704 34.5316305,18.8847551 34.4146016,19.1764272 C34.1157278,19.2772521 33.9968984,19.7057579 33.6521133,19.6517446 L33.5845966,19.7165606 Z M20.7807336,15.8456043 C20.8185429,15.8699103 20.8968623,15.9140212 20.9355718,15.9383273 C20.9148667,16.2056933 20.8941616,16.5513787 20.5925871,16.6612058 L20.6502013,16.4829618 C20.5538775,16.722421 20.2856113,16.5747845 20.1460768,16.4631569 C19.895815,16.3128198 20.1343739,16.0175468 20.2000901,15.823999 C20.1802852,15.7843892 20.1415757,15.7060699 20.1235712,15.6655599 C20.1730835,15.5620343 20.2261966,15.4576085 20.2784095,15.3540829 C20.3333231,15.350482 20.4413497,15.3459809 20.4971635,15.3432803 C20.5628798,15.1578344 20.6484009,14.9750893 20.8356471,14.8823664 L21.0003878,14.9066724 C21.0039887,15.2244509 20.9751816,15.540429 20.9337714,15.8555068 C20.7933367,15.6421541 20.798738,15.3801894 20.8185429,15.1362291 C20.798738,15.3720874 20.7798334,15.6079456 20.7807336,15.8456043 Z M31.2359164,14.4034481 C31.1107855,14.2801176 30.9217388,14.3917452 30.8236145,14.496171 C30.6921821,14.552885 30.5211398,14.4970712 30.4347185,14.3872441 C30.3906076,14.2306054 30.3987096,14.0640642 30.384306,13.9038247 C30.1151395,13.8993235 29.8729797,13.779594 29.6443232,13.6472613 C29.5930105,13.5203299 29.3868596,13.1953496 29.6524252,13.2160548 C29.7352457,13.2313585 29.8180661,13.2484628 29.9008866,13.265567 C29.9873079,13.3861968 30.0791306,13.5806448 30.2591751,13.4942235 L30.3771042,13.4465117 L30.4275167,13.4636159 C30.8803285,13.4204052 31.1963066,13.7732924 31.5762004,13.9470353 C31.5951051,14.0703658 31.6131096,14.1945965 31.6338147,14.3197274 C31.7706485,14.4088494 31.8903781,14.5195768 31.9650965,14.6672132 C31.9011807,14.7041224 31.8381652,14.7419317 31.7742494,14.7806413 L31.7571451,14.7131246 C31.4987813,14.8517588 31.3736504,14.5564859 31.2359164,14.4034481 Z M29.0870855,12.9630923 C29.1167929,12.95409 29.1744071,12.9396865 29.202314,12.9315845 C29.3004383,13.2043519 29.0447751,13.3330837 28.8584291,13.4627157 C28.8206197,13.6778688 28.9655555,13.8228046 29.1257951,13.9371329 C29.0411742,14.0316562 28.9286464,14.0937716 28.7990144,14.0991729 C28.631573,14.136082 28.4398256,14.0757671 28.3768101,13.9038247 C28.3750096,13.7858955 28.3777103,13.6697668 28.3858123,13.5518377 C28.2570805,13.6157535 28.1202467,13.6616648 27.979812,13.6895717 C27.6728362,13.7282813 27.4684857,13.4960239 27.3109468,13.2709683 C27.3586586,13.1368352 27.3946675,12.9964005 27.4675855,12.8748705 C27.5846144,12.8064536 27.7268495,12.8118549 27.8555813,12.7821476 C27.9771113,12.5741962 28.060832,12.2330119 28.3624065,12.245615 C28.3930141,12.2411139 28.4524288,12.2348124 28.4821361,12.2321117 C28.5577548,12.5282848 28.388513,12.8145556 28.4083179,13.1143296 C28.5496528,12.8748705 28.8611297,12.9828972 29.0870855,12.9630923 Z M11.0313251,20.9453642 C10.6901408,20.8931513 10.3885663,20.7167077 10.0770894,20.5825745 C9.9123487,20.5393639 9.8961447,20.3530178 9.88264136,20.2143836 C9.85968569,19.8997559 9.8839917,19.5871536 9.91932543,19.2752266 L9.99396053,18.6518726 C10.0052717,18.5479969 10.0151241,18.4440963 10.0221758,18.3401206 C10.0617856,17.738772 10.5974179,17.1914368 10.342655,16.5747845 C10.1734132,16.1822875 10.4515819,15.6988681 10.1509076,15.350482 C9.78001601,14.9219762 9.38661883,14.4628628 9.26688925,13.8912215 C9.18316857,13.4654164 9.58736842,13.1458374 9.58916887,12.7335356 C9.46043706,12.476072 9.17596679,12.3176328 9.08954544,12.0385639 C9.33260549,11.8324129 9.70439733,12.1258854 9.94205604,11.8909274 C10.1473067,11.7099827 10.4182737,11.6568696 10.6856397,11.6919783 C10.9043938,11.7009805 11.1222476,11.7459916 11.3157954,11.8549185 C11.973858,12.1997037 12.5022885,12.743438 12.9992113,13.2880725 C13.2890829,13.6094519 13.7364934,13.6796693 14.0902808,13.901124 C14.2928308,14.022654 14.3720504,14.2909203 14.2910304,14.5087741 C14.139793,15.0128986 13.8328172,15.4513069 13.6581741,15.9473295 C13.5897572,16.27321 13.212564,16.3443275 13.0325195,16.5882878 C12.9641026,16.7683323 12.9532999,16.9609799 12.8866835,17.1428248 C12.5166921,17.969229 11.5786603,18.382431 11.2581812,19.2367421 C11.043028,19.5248132 10.7882651,19.8344897 10.8188726,20.2197849 C10.8197729,20.5204592 11.1132454,20.6879006 11.1951656,20.9579673 C11.140252,20.9354617 11.0295247,20.8904506 10.9737109,20.8670448 L11.0313251,20.9453642 Z M19.406094,9.47112962 L19.2841139,9.42139234 L19.2841139,9.42139234 L19.1648344,9.37030472 L19.1648344,9.37030472 C19.4745109,9.85192369 19.5897394,10.4271658 19.8886132,10.9132859 C19.8075932,10.4055605 19.5123202,9.96985283 19.406094,9.47112962 Z M17.4625139,4.46589315 C17.531831,4.54331228 17.6011481,4.6207314 17.6704652,4.69635008 C17.6749663,4.74676254 17.6821681,4.845787 17.6866692,4.89529923 L17.8577115,4.90430145 C17.7523855,5.00422614 17.981042,5.19687373 18.0170509,5.02853214 C18.0980709,4.97271836 18.1781907,4.9142039 18.2655122,4.86739234 C18.1034722,4.7494632 17.9063235,4.59912607 17.9549355,4.36776891 C17.9225275,4.05989286 18.3564347,3.90055349 18.2583105,3.60167966 C17.8145008,3.64308989 17.6272546,4.11660687 17.4625139,4.46589315 Z M29.8873832,2.70415794 C30.1097382,2.73116461 30.3383947,2.69335527 30.5013349,2.52771435 C30.752497,2.29095587 31.1161868,2.3404681 31.4330651,2.34226854 C31.6446173,2.47100034 31.7976552,2.73836639 32.0677219,2.73836639 C32.2135579,2.72396283 32.3584937,2.69965683 32.5061302,2.68975438 C32.7743964,2.83378996 32.9976516,3.09395423 33.327133,3.07775023 C33.5188804,3.09305401 33.7115279,3.09485446 33.9050758,3.10025579 C33.9434852,2.90180677 34.0942781,2.79440246 34.2790546,2.83873934 L34.3497856,2.86259708 L34.3497856,2.86259708 C34.8908193,2.89410486 35.387742,3.16327136 35.8351526,3.4504423 C36.1097204,3.70250457 36.4419024,4.00227862 36.4446031,4.40377781 C36.4139956,4.38847403 36.3527804,4.35876669 36.3221729,4.34346291 C35.9620839,4.35246513 35.7865405,3.92936061 35.4678618,3.8042297 C35.2779149,3.85194148 35.0897684,3.90775527 34.9151253,3.99687729 C34.9673382,4.04818996 35.071764,4.14991509 35.1257773,4.20032755 C34.8848778,4.47687587 34.5444857,4.59300455 34.1946305,4.6887162 L33.8449553,4.78280744 C33.7295684,4.81535948 33.6164645,4.85082824 33.5089779,4.89439901 C33.2776208,5.32290486 33.2353103,5.98636876 32.7041791,6.14930902 C32.2171588,6.09169478 32.3602941,5.4210291 32.5205337,5.10865194 C32.8428133,4.98982258 33.1902992,4.8016761 33.3262328,4.46679337 C33.3091285,4.43888648 33.2794212,4.38307269 33.2641174,4.35606602 C33.1993014,4.21473111 33.0408623,4.35606602 32.9679443,4.4154807 C32.8644187,4.43528559 32.7617933,4.43618581 32.6564673,4.41818137 L32.5259351,4.41097959 C32.3981035,4.57572028 32.2810746,4.75126365 32.1505423,4.91510412 C31.8921785,4.90340123 31.6536196,4.78727254 31.3997569,4.75036343 C31.052271,4.96281591 30.6642752,5.14105994 30.3906076,5.44983622 C30.3897073,5.50565001 30.3879069,5.61907803 30.3870067,5.67489182 L30.7290912,5.7946214 C30.8641245,6.24293214 30.7678007,6.76056002 30.4383193,7.10084408 C30.3329933,7.22939584 30.2049817,7.33202119 30.0712015,7.42777604 L29.8009619,7.61577128 C29.6614274,7.87863622 29.7613521,8.18471183 29.7460483,8.46738166 C29.7298443,8.59251257 29.5957112,8.60421546 29.5074894,8.65732859 C29.4057643,8.6339228 29.3049394,8.60871658 29.2050147,8.58170991 C29.0942873,8.38186054 29.1320967,8.11809538 28.9583537,7.94885357 C28.7729079,7.98756313 28.5874621,8.0307738 28.4056172,8.0829867 C28.485737,8.27563429 28.728797,8.20631717 28.8899368,8.26843251 C28.878234,8.41876965 28.6927881,8.45477855 28.6027659,8.55470323 C28.8602295,8.90669019 28.9682562,9.38740894 28.7783093,9.79520968 C28.6252715,10.1471966 28.275085,10.3704518 27.9014927,10.4181636 C27.8393773,10.6081105 27.7727609,10.8052592 27.6098206,10.9366917 C27.5080955,10.9456939 27.4072706,10.9573968 27.3073459,10.9681995 C27.4504812,11.1860533 27.6494304,11.4669227 27.4972928,11.731588 C27.3415543,11.9035305 27.1119976,11.9998543 26.8815407,12.0124574 C26.7357047,12.0277612 26.6456824,11.8909274 26.530454,11.8270116 C26.4710393,12.2510164 26.9562592,12.4544666 26.9283523,12.8748705 C26.8914431,12.864968 26.8194254,12.8451631 26.781616,12.8352607 L26.6258775,12.8451631 C26.7753145,13.0828218 26.9859665,13.2619661 27.1921174,13.4483121 C27.2056208,13.6346582 27.222725,13.9533369 26.9931683,13.9929467 C26.7546093,13.893022 26.4845426,13.8057004 26.3378064,13.5788444 C26.2162764,13.354689 26.2441832,13.0621167 26.0587374,12.8703694 C25.943509,12.7119302 25.7040498,12.5849989 25.8219789,12.3608435 L25.9390079,12.3725464 L25.9390079,12.3725464 C26.2009726,12.3635442 26.3612122,12.6120055 26.5511591,12.7551409 C26.3342055,12.4634688 26.1424581,12.1357879 26.1244537,11.763996 C26.129855,11.5164349 25.9606132,11.3372906 25.8048747,11.168949 C25.5888213,10.974501 25.6473358,10.6576227 25.5159033,10.4181636 C25.0864973,10.7008334 24.6552907,11.0132106 24.3762218,11.45612 C24.2780976,11.6901778 24.2600931,11.9512423 24.1484655,12.1825995 C24.069246,12.1825995 23.9909266,12.1825995 23.911707,12.1862003 C23.4805005,11.7675969 23.4570947,11.1059335 23.3472676,10.5477956 C23.2095336,10.5216891 23.0546953,10.5387934 22.9295644,10.4658754 C22.7783271,10.3506469 22.8035333,10.1399949 22.7729257,9.97345372 C22.308411,9.81951569 21.7691778,10.0436711 21.3397717,9.75920079 C21.150725,9.5989612 20.9562769,9.4180165 20.8653545,9.18125801 C20.8050396,9.20376357 20.7438245,9.22356847 20.6844098,9.24337336 C20.7530839,9.27539556 20.7701697,9.33403861 20.7753506,9.3994609 L20.7815971,9.53346543 C20.7862268,9.57722726 20.7973234,9.61812308 20.8266449,9.65027388 L21.0227926,9.85837649 C21.0955161,9.93725757 21.1638282,10.0195658 21.215998,10.1136685 L21.2623526,10.2120126 L21.2623526,10.2120126 C21.3997865,10.1928079 21.5380207,10.189207 21.6762548,10.1924078 L21.883506,10.20121 L21.883506,10.20121 C22.2120872,10.2948331 22.0113376,10.6450196 21.8483973,10.7926561 C21.4685035,11.144643 20.9724809,11.5182353 20.4296468,11.4426167 C20.3747333,11.4138095 20.2658064,11.3552951 20.2108928,11.326488 C20.2793097,11.4489182 20.3639306,11.7018807 20.1640812,11.73969 C20.1280723,11.6316634 20.1037663,11.520936 20.0650568,11.41561 C20.0677574,11.5515436 20.0668572,11.6874771 20.0695579,11.8243109 C20.2162941,11.8198098 20.3783342,11.8612201 20.5097666,11.7756989 C20.6484009,11.7252865 20.7861349,11.5434416 20.9292703,11.6847765 C20.9787825,11.8243109 20.9562769,11.9764485 20.9625785,12.1231848 C21.0156916,11.9773487 21.0120907,11.8216103 21.0390974,11.6712731 L21.0760065,11.5866522 C21.2929601,11.9206347 21.077807,12.3140319 20.9202681,12.621908 C20.758228,13.0072032 20.1613806,12.9369858 20.0596554,13.362791 C20.0200457,13.9794433 20.0263472,14.6050979 20.195589,15.204646 C20.0596554,15.5305265 19.7094689,15.6871652 19.4304,15.8699103 C19.4267991,16.0733606 19.4340009,16.2777111 19.4096949,16.4793609 L19.301805,16.5790695 L19.301805,16.5790695 L19.0672719,16.759042 C18.9906594,16.8207612 18.9194338,16.8882419 18.8650603,16.973583 C18.5706876,17.2760577 18.3501331,17.7567765 17.8811173,17.7963863 C17.7316804,17.8017876 17.539933,17.7855836 17.4742168,17.6262442 C17.212252,17.1176186 17.0187042,16.5783854 16.8215555,16.0436533 C16.5739944,15.4513069 16.8647662,14.8031468 16.7189302,14.1936963 C16.6379102,13.9632393 16.463267,13.7768933 16.3912492,13.5455361 C16.414655,13.2592654 16.6100033,12.9756954 16.4848723,12.6912251 C16.4704688,12.5444889 16.2922248,12.6201075 16.2310096,12.6876242 C16.0410627,12.8235578 15.8997278,12.5723957 15.8178076,12.4400631 C15.5270357,12.4427637 15.2398648,12.4940764 14.9544943,12.5543913 C14.629514,12.6183071 14.180303,12.6129058 14.0236643,12.2600186 C13.8259755,11.8929979 13.5604729,11.4873307 13.6301015,11.0600798 L13.6662761,10.9168868 C13.7941076,10.4739774 13.775203,9.91403904 14.180303,9.60976387 C14.483678,9.42791895 14.2604228,8.87248174 14.6664231,8.79506261 C15.2785744,8.82116906 15.7088807,8.27023296 16.3129299,8.26213096 C16.8125533,8.29453896 16.6307084,9.02101843 17.1051256,9.09483667 C17.6155517,9.10563933 18.1196762,9.01831776 18.6283019,9.02101843 C18.7336279,9.01651732 18.8128474,9.05792755 18.8686612,9.14794979 L18.7804394,8.97600731 C18.8470559,9.03092088 18.9793886,9.13714712 19.0469053,9.19206068 C19.0901159,8.88778552 19.4033933,8.66723103 19.3340762,8.34225075 L19.3313755,8.30264097 C19.1801382,8.28913763 19.0397035,8.34855231 18.908271,8.41336832 C18.7525325,8.46378077 18.5130734,8.48988722 18.4032463,8.34045031 C18.345632,8.09829048 18.3447318,7.74630353 18.6183994,7.63557618 C18.9910915,7.5680595 19.3934909,7.81382021 19.7553803,7.63017484 C19.7706841,7.59416595 19.8021918,7.52124793 19.8174956,7.48433882 C19.5780365,7.11344719 19.0505062,7.19536743 18.7165236,6.94420538 C18.6805148,6.9811145 18.6093972,7.05673318 18.5742885,7.09274208 C18.6598096,7.3267999 18.640905,7.71569597 18.3150245,7.71929686 L18.264387,7.71974697 L18.264387,7.71974697 L18.2123991,7.72019708 L18.2123991,7.72019708 C17.9801417,7.93895112 18.2925189,8.11449449 18.2736142,8.3521532 C18.1529844,8.35305342 18.0323546,8.35485386 17.9108246,8.35485386 C17.7838933,8.18381161 17.6911703,7.99296446 17.5876448,7.8093191 C17.6425583,8.0226718 17.4706159,8.05507981 17.3121767,8.0910887 C16.8773693,7.99206424 16.5974001,7.61397084 16.3993512,7.24397944 C15.9663443,7.25298166 16.0176569,7.76700864 15.7178829,7.95335468 C15.4721222,8.16040583 15.1966541,8.37195809 14.8599709,8.37015764 C14.678126,8.40616654 14.4395671,8.34315097 14.3909551,8.14060094 C14.3207377,7.91104423 14.3405426,7.6364764 14.4602722,7.42672458 C14.7366405,7.31959812 15.0436163,7.36821013 15.3235855,7.27998833 C15.5144326,7.18456476 15.2821752,7.00812117 15.1948537,6.92169982 C15.103031,6.80197025 14.8509687,6.72275068 14.9202858,6.54180598 C15.1084323,6.33025372 15.3929026,6.24743326 15.6395635,6.12140212 C15.9627434,5.98726899 16.2490141,5.77031539 16.5883979,5.67129093 L16.6757195,5.72440405 C16.7486375,5.80812473 16.9151787,5.9035483 16.9817951,5.7586125 C17.0637153,5.52635512 17.2752676,5.46964111 17.5012234,5.50294934 C17.4859196,5.43543266 17.4544119,5.30129953 17.4382079,5.23468307 C17.3364827,5.06814193 17.1546378,5.35081176 17.0484116,5.4129271 C16.7882473,5.55966335 16.7189302,5.24368529 16.6622162,5.06724171 C16.4614666,4.98892236 16.1977014,4.97361858 16.0743709,4.77376921 C16.0356614,4.54061161 16.2355107,4.35156491 16.3183312,4.14541398 C16.1400872,4.14541398 15.9591425,4.14271332 15.7808984,4.14091287 C15.6854749,4.01038062 15.5855502,3.88254905 15.5009293,3.74571524 C15.5000291,3.59627833 15.681874,3.58637588 15.7862998,3.5548681 C15.852016,3.75831836 16.0914752,3.74121413 16.260717,3.7160079 L16.2724199,3.69080168 C16.2922248,3.64399011 16.333635,3.54856654 16.3525397,3.50085475 C16.4623668,3.50085475 16.5730941,3.49995453 16.6838215,3.49905431 C16.6874224,3.58997677 16.7207306,3.66739589 16.7846464,3.73401235 C16.8116531,3.6998039 16.8647662,3.62868633 16.8917729,3.59357766 C17.1078262,3.3136085 17.2896712,2.99132888 17.5831437,2.78247729 C17.8280042,2.61143503 18.1394811,2.58802925 18.4293527,2.61503592 C18.9757877,2.63574104 19.5420276,2.85449508 19.9255223,3.24879248 C20.0866621,3.51435809 19.6743603,3.58277499 19.4943158,3.5629701 C19.4457038,3.56747121 19.3520807,3.58097455 19.3043689,3.58637588 C19.2611582,3.58637588 19.1738366,3.58457544 19.1288255,3.58457544 C19.1810384,3.75471747 19.2539564,3.93566217 19.4610076,3.95456684 C20.0857619,3.84203904 20.5628798,3.39192784 21.1219179,3.13086335 C21.6287431,3.01743533 22.1571736,3.03814045 22.6585975,2.89410486 C22.7585222,2.59253036 22.8458437,2.01998893 23.2950547,2.16042362 C23.4994052,2.26755008 23.7109574,2.40438389 23.9531173,2.34676965 C24.2159822,2.24594475 24.4914503,2.18472962 24.7633174,2.11631272 C25.0405859,2.07220183 25.0315837,1.67520375 25.3097524,1.62839219 C25.9975223,1.44474682 26.7213011,1.45554949 27.4288759,1.45014816 C27.563009,1.47805505 27.7457542,1.4438466 27.8366766,1.57347862 C27.9193846,1.70581131 27.9786586,1.91533807 27.8655383,2.03862458 L27.8060691,2.08570516 C28.1184463,2.17662762 28.4380252,2.03619293 28.7540033,2.07850338 C29.2167176,2.06409982 29.5732056,2.41068544 29.8873832,2.70415794 Z M6.33216427,1.58608174 C6.39517984,1.67790442 6.46629741,1.76252532 6.52841275,1.85524823 C6.49330408,1.87775379 6.42488718,1.92546558 6.39067872,1.94887136 C6.33396471,1.95517291 6.22233714,1.96777603 6.16652335,1.97497781 C6.05849666,1.9866807 5.95497109,2.01458759 5.85414618,2.05149671 C5.5732768,2.16222406 5.35812365,1.80933689 5.09705915,1.73011732 C5.07365337,1.71661398 5.02774203,1.69230798 5.00523647,1.67970486 C4.95662446,1.70581131 4.86210111,1.75802421 4.8134891,1.78413066 C4.69465975,1.83544334 4.56862861,1.84714623 4.43269503,1.82013956 C4.46600326,1.6571993 4.56322728,1.49876016 4.73967087,1.47265372 C5.00163558,1.44024571 5.16817672,1.22869345 5.38513032,1.10536298 C5.5453699,1.08465787 5.70831016,1.08645831 5.86854974,1.10536298 C5.99818176,1.10446276 6.13681601,1.09906142 6.25114426,1.17287966 C6.32046138,1.46095082 5.93336575,1.48615705 5.74521927,1.54287106 C5.77312617,1.57347862 5.82803973,1.63739441 5.85684685,1.6689022 C5.99458087,1.59868485 6.18002669,1.46095082 6.33216427,1.58608174 Z M16.928682,0.407690632 C17.1375336,0.731770691 16.6316086,0.861402715 16.438961,1.01714119 C16.0635683,1.23949612 16.4425619,1.73101754 16.1787967,2.01818848 C15.9780471,2.27835275 16.0410627,2.62403815 15.9393376,2.92111154 C15.7826989,3.15516936 15.5324371,3.23678952 15.2757737,3.29880484 L15.0202068,3.35920495 C14.9783335,3.36982238 14.93709,3.38112518 14.8968801,3.39372829 C14.6025073,3.59807877 14.3207377,3.84203904 13.9435446,3.85914326 C13.8697263,4.1985271 13.8553228,4.66124141 13.4736285,4.80347655 L13.5393447,4.64503741 C13.4952338,4.67744541 13.4088125,4.7413612 13.3647016,4.77376921 C12.8740804,4.62163162 12.4257696,4.26154267 12.281734,3.75381724 C12.2232196,3.4144334 12.6319205,3.18127581 12.5454992,2.85179441 C12.4923861,2.61233526 12.1944125,2.66184749 12.0107671,2.60333303 C12.02247,2.47550145 12.0350731,2.34766988 12.0494766,2.2198383 C11.7199953,2.01638804 11.5021414,1.53746973 11.0529305,1.63559397 C10.8440789,1.63019263 10.6226242,1.72291554 10.4254755,1.63559397 C10.3786639,1.47895527 10.3435552,1.23499501 10.5073957,1.1341701 C10.6847395,1.09095942 10.8683849,1.09185965 11.0493296,1.0738552 C11.0520302,1.00003696 11.0574316,0.852400491 11.0601322,0.778582255 C10.7549569,0.877606718 10.4335775,0.965828511 10.188717,1.186383 C9.85383425,1.44024571 9.64408243,1.838144 9.27229059,2.04249449 C8.87529251,2.14962095 8.40087532,2.16042362 8.10830304,2.48810457 C7.897651,2.75727106 8.24423662,3.00663266 8.41887976,3.18127581 C8.68264492,3.3658214 8.72945649,3.74751569 8.56561601,4.01308129 C8.45038755,4.258842 8.17131861,4.33446068 7.96966879,4.48749849 C7.8211321,4.65403963 7.95526523,4.89169834 8.08759792,5.02313081 C8.34866242,5.30850131 8.75376249,5.36611554 9.05893788,5.58306913 C9.27949236,5.7343065 9.29479615,6.02237766 9.35421082,6.25823592 L9.27328903,6.23098895 C9.29666497,6.24328353 9.32339339,6.25257558 9.35421082,6.25823592 C9.56306242,6.19792102 9.54415775,5.9476592 9.61437509,5.78021784 C9.65218443,5.55066113 9.81872557,5.38772088 9.96636205,5.22207996 C9.90694737,4.84848767 9.55676086,4.52710827 9.6791911,4.12830976 C9.83132869,4.00227862 10.0455816,3.97167106 10.1878168,3.82943592 C10.3201494,3.50625609 10.0482823,2.9841271 9.6467831,3.11105846 C9.52885397,3.12186113 9.41272528,3.13446424 9.29659659,3.14616713 C9.25788703,3.31991005 9.22007769,3.49365297 9.17956768,3.66559545 C8.8869954,3.45674386 8.67454292,3.14526691 8.46749177,2.85179441 C8.37926998,2.73116461 8.32615686,2.50700924 8.49989978,2.43409122 C8.87349207,2.2882552 9.29389592,2.2360423 9.68909355,2.31886276 C10.3777637,2.33956787 10.6019191,3.14526691 11.2041678,3.34061517 C11.3428021,3.40363074 11.5174452,3.47924942 11.5390506,3.65029167 C11.524647,3.94466439 11.1942654,4.0535913 11.0601322,4.28224779 C11.0502298,4.65133896 11.3148952,4.95471391 11.5300483,5.22928174 C11.7379997,5.50474979 12.0881862,5.7063996 12.1412993,6.07369034 C12.1530022,6.41037351 12.4995878,6.56971287 12.5959116,6.87218759 L12.4392729,6.87218759 C12.2754325,6.8766887 12.1061907,6.89739382 11.9477515,6.84698137 C11.8667315,7.26018344 11.4265228,7.4717357 11.0367265,7.46003281 C10.9386022,7.45913259 10.8413782,7.45823237 10.743254,7.45733214 C10.5947173,7.71659619 10.3705619,7.91914623 10.1040961,8.04967847 C10.0491825,8.23692473 10.0248765,8.43317321 9.94655715,8.61321769 C9.82952824,8.75545283 9.67198933,8.86077885 9.55496042,9.00481443 C9.50004685,9.32979471 9.73680534,9.8078128 9.3776166,10.0058617 L9.38121749,9.88703237 L9.27859214,9.99505905 C9.01392676,9.83481947 9.06884033,9.40361294 8.72675582,9.35410071 C8.60072468,9.29288559 8.48999733,9.42071717 8.38647176,9.47383029 C8.22623217,9.57375498 8.05158903,9.48553318 7.92195701,9.38380805 C7.71850675,9.64757321 7.56636916,9.99325861 7.66179274,10.3290416 C7.72390808,10.4748776 7.82855893,10.5943821 7.92789285,10.7171781 L8.02368213,10.8421683 L8.02368213,10.8421683 C8.13981082,10.6693256 8.25683973,10.4955827 8.4044762,10.3479462 C8.50620133,10.355148 8.60612602,10.3623498 8.70695093,10.3677511 C8.78527027,10.5847047 8.72855626,10.8187625 8.71685337,11.0429179 C8.75106182,11.0933304 8.82037895,11.193255 8.8545874,11.2445677 L8.96531475,11.2679735 C8.96441453,11.3741997 8.95991342,11.4813262 8.95451208,11.5884527 C8.96351431,11.4579204 8.96981586,11.3282884 8.97431698,11.1968559 C9.31190037,11.2706742 9.07064077,11.6973796 9.09494678,11.9350383 C9.04993566,11.9404396 8.95991342,11.9521425 8.91400208,11.9584441 C8.60162491,11.8486169 8.53230778,11.4903284 8.3117533,11.2805766 C7.81573076,11.1581464 7.26479466,11.2769757 6.79667902,11.0357161 C6.54551698,10.8844788 6.64454144,10.5594985 6.65804477,10.3218398 C6.55361898,10.217414 6.44559229,10.1174893 6.34746805,10.0085624 C6.24664314,9.8762297 6.13141468,9.75740034 5.98647887,9.67367966 C6.03959199,9.85732503 6.10440801,10.0373695 6.19082936,10.2084118 C6.1242129,10.2120126 5.98917954,10.2228153 5.92256308,10.2273164 C5.53996857,9.51073941 5.1348685,8.80766572 4.76307665,8.08658759 C4.55782595,7.71479575 4.66495241,7.282689 4.61724062,6.88659115 C4.18153299,6.29514504 3.77553269,5.66769004 3.24260104,5.15636372 C2.98693788,4.8979999 2.61604626,4.79087343 2.25865797,4.837685 C1.70142031,5.04113526 1.21349978,5.3805191 0.707574796,5.68299382 C0.658062565,5.68749493 0.561738769,5.69559693 0.512226538,5.70009804 L0.474417198,5.72530427 C0.385295182,5.7145016 0.205250704,5.69199604 0.115228466,5.68119337 C0.355587843,5.45343711 0.710275463,5.38592043 0.93173017,5.12755661 C0.481618977,5.08344571 0.0153037806,4.75936565 3.90798505e-14,4.27054489 C0.227756264,4.26334311 0.455512528,4.24623889 0.674266568,4.18052266 C0.57344166,3.93206128 0.243960267,4.07159575 0.0378093403,4.01668218 C0.0468115641,3.74121413 -0.00360088955,3.42973718 0.181844922,3.19747981 C0.375392735,2.96072132 0.701273239,2.89230442 0.991144848,2.86529775 C1.77253788,2.82838863 2.53412602,3.044442 3.30741705,3.1128589 C3.62429533,3.19747981 3.82054381,2.72756372 4.14102298,2.88420242 C4.26075256,2.98052621 4.37328036,3.1047569 4.53712083,3.1245618 L4.54342239,3.07865045 C4.59113417,2.83018907 4.58123173,2.57092503 4.65504996,2.32786498 C4.81168866,2.02989137 5.23119229,2.08210427 5.50305945,2.16042362 C5.75602194,2.24054341 6.01258532,2.30535942 6.27635048,2.33776743 C6.52391164,2.37467655 6.78857702,2.39358122 7.0208344,2.27835275 C7.13066153,2.04249449 6.64814233,1.89305757 6.80928213,1.62929241 C7.03883884,1.44654727 7.33951312,1.38623237 7.6041785,1.26830323 C7.49075048,1.46905283 7.89044922,1.53836995 7.77071964,1.29981102 C7.75811653,1.11346498 7.58077272,0.794786258 7.84723855,0.711065576 C8.36126553,0.502213982 8.92480474,0.48240909 9.46853907,0.400488852 C9.90244626,0.355477733 10.3381539,0.233947711 10.7783626,0.287961054 C10.9178971,0.32036906 11.0565314,0.357278178 11.1960658,0.395087518 C11.2095692,0.461703975 11.2338752,0.594936888 11.2455781,0.661553345 C11.2959905,0.635446895 11.3977156,0.582333775 11.4481281,0.555327103 C11.5840617,0.49771287 11.7001904,0.261854605 11.8613302,0.371681736 C11.9522526,0.458103085 12.0764833,0.57693244 12.2070156,0.494111981 C12.4023638,0.433797081 12.6202176,0.295162833 12.8263686,0.39958863 C12.9001868,0.461703975 12.9812068,0.59583711 13.0964353,0.540923545 C13.2683778,0.540023322 13.2089631,0.322169505 13.2575751,0.213242596 C13.2764798,0.0845107947 13.455624,0.089912129 13.5555487,0.073708126 L13.7124539,0.072599052 L14.0268259,0.0962640981 C14.131511,0.102011118 14.2359368,0.100354709 14.3396424,0.0755085708 C14.6583211,0.00169033506 14.989603,-0.0226156694 15.3154835,0.0232956723 C15.5126322,0.0124930037 15.7097809,0.0413001201 15.8709207,0.163730365 L15.8655193,0.359416206 L15.8655193,0.359416206 L15.8628187,0.554426881 L15.8628187,0.554426881 C16.1400872,0.398688408 16.4668679,0.417593078 16.774744,0.392386851 C16.7738437,0.453601973 16.7738437,0.577832663 16.7738437,0.639948007 C16.8224557,0.562528882 16.8755689,0.484209534 16.928682,0.407690632 Z" id="Combined-Shape"></path>
            </g>
        </g>
    </g>
</svg>