<?xml version="1.0" encoding="UTF-8"?>
<svg width="121px" height="20px" viewBox="0 0 121 20" version="1.1" xmlns="http://www.w3.org/2000/svg" xmlns:xlink="http://www.w3.org/1999/xlink">
    <title>1EF7C4FD-8850-4A8F-A819-DBFE4FE7A0FA</title>
    <g id="logos-aseguradoras" stroke="none" stroke-width="1" fill="none" fill-rule="evenodd">
        <g id="logos-variantes" transform="translate(-817.000000, -1517.000000)">
            <rect id="Rectangle" fill="#989898" x="0" y="1211" width="1440" height="1299"></rect>
            <g id="logo-vepormas-blanco" transform="translate(817.000000, 1517.000000)" fill="#FFFFFF">
                <path d="M27.8234677,5.03546822 L27.8234677,6.21679118 C27.4536397,6.31414527 27.084246,6.39959274 26.7220186,6.51258885 C26.5687018,6.56044877 26.4169051,6.6461297 26.2894306,6.75025422 C26.0959387,6.90830869 26.0948528,6.93072114 26.2549017,7.13710246 C26.8214791,7.86784176 26.976099,8.73142153 26.8612199,9.6309546 C26.7882533,10.2038729 26.5776055,10.7497095 26.1667337,11.1874527 C25.7315397,11.6515772 25.2681146,12.050332 24.6667911,12.217725 C24.3788334,12.2978029 24.0980421,12.4133671 23.786848,12.3993593 C23.349048,12.3795149 22.909728,12.4028612 22.4714937,12.3918885 C22.019361,12.3804488 21.7025207,12.6302542 21.4360621,12.982083 C21.3389904,13.1100208 21.4395367,13.4142231 21.6030602,13.5262853 C21.6586538,13.5643398 21.71099,13.6255071 21.7704926,13.6353126 C22.0530212,13.6822387 22.3366357,13.7373359 22.6211188,13.7476083 C23.1116892,13.7658184 23.6087746,13.7030169 24.0930473,13.7641842 C24.8433444,13.8589702 25.5995048,13.948153 26.2992029,14.3135227 C26.9022637,14.6286978 27.3717693,15.0671414 27.5441965,15.7794371 C27.7361683,16.5720441 27.6271526,17.3209935 27.118992,17.9606822 C26.5656615,18.6571025 25.8310002,18.9781141 25.0172917,19.2015383 C24.1360456,19.443406 23.2487189,19.4602153 22.366387,19.3906433 C21.8677815,19.3514215 21.351803,19.288153 20.8603638,19.0848067 C20.2555658,18.8347678 19.6379552,18.4432503 19.3298013,17.9072192 C19.1971149,17.6765577 19.1413041,17.3847289 19.0911396,17.1122776 C19.0542219,16.9124332 19.0787613,16.6985811 19.085059,16.4912659 C19.0991746,16.0206044 19.2948381,15.6083087 19.6023405,15.3171803 C19.8627185,15.0706433 20.1684836,14.8343787 20.542872,14.7683087 C20.6853307,14.7430947 20.7046582,14.6611492 20.6143185,14.5502542 C20.56828,14.4935227 20.5202871,14.4365577 20.4653449,14.3905655 C20.1087638,14.0924332 20.0099548,13.7013826 20.0214644,13.225118 C20.0318882,12.7845733 20.2394958,12.5139896 20.5378773,12.284262 C20.6145357,12.2251958 20.7202939,12.2121219 20.8073761,12.1665966 C21.1200904,12.0027056 21.1070606,12.0141453 20.8521117,11.7419274 C20.4566584,11.3193593 20.0138637,10.9409157 19.8129883,10.339048 C19.7109218,10.0336783 19.5875734,9.74488457 19.6092897,9.41126589 C19.6166732,9.29873671 19.6212336,9.18363943 19.6086382,9.07227756 C19.537626,8.44963165 19.7309008,7.87998184 20.0444837,7.40254994 C20.5274535,6.66690791 21.1854563,6.15702464 22.0289162,5.93219974 C22.6647685,5.76270558 23.3021409,5.816869 23.9336499,5.84651881 C24.3479963,5.86589624 24.774721,5.98192737 25.1630078,6.19064332 C25.432941,6.33562387 25.4644296,6.32044877 25.6129689,6.0802153 C25.9078758,5.6027834 26.3904112,5.26799741 26.9452619,5.14683009 C27.0560148,5.12254994 27.1602529,5.05227756 27.2707887,5.04037095 C27.4421301,5.02192737 27.6165117,5.03546822 27.8234677,5.03546822 Z M22.9718365,15.1075305 C22.6799698,15.0988923 22.4028703,15.1736005 22.1192558,15.2111881 C21.8334698,15.249476 21.574829,15.3293204 21.3109764,15.4444176 C20.9811063,15.5882309 20.7847912,15.8130558 20.6534078,16.177725 C20.4368966,16.7791258 20.6095409,17.3861297 21.0979398,17.7225499 C21.5515926,18.0351569 22.05541,18.0911881 22.5598789,18.1626278 L22.7859935,18.1780277 L22.7859935,18.1780277 L23.2432898,18.1679974 L23.2432898,18.1679974 C23.4713106,18.1679974 23.704109,18.1367134 23.9260493,18.1761686 C24.1794781,18.2214604 24.384914,18.0734449 24.6196668,18.0468301 C25.1721287,17.9847289 25.6422858,17.7162464 25.9903976,17.2460519 C26.2229788,16.9322776 26.1287302,16.5449624 26.1350279,16.1835616 C26.1352451,16.1704877 26.1117915,16.1569468 26.0994133,16.1438729 C25.8824678,15.9153126 25.6926676,15.6517328 25.3758272,15.5625499 C24.9970955,15.4558573 24.6229243,15.2567134 24.2431068,15.2457406 C23.812256,15.2336005 23.398344,15.1201375 22.9718365,15.1075305 Z M77.5870145,0.00587159533 C78.4338374,0.00587159533 79.2266126,0.0962217899 79.9432751,0.274354086 C80.6764306,0.456688716 81.322441,0.744898833 81.8633646,1.13092996 C82.4175495,1.52664981 82.855058,2.03793385 83.1638547,2.65054086 C83.4723171,3.26349805 83.6286657,3.99563813 83.6286657,4.827 C83.6286657,6.21236965 83.0781583,7.36789494 81.9907391,8.26917899 C82.8123769,8.69419844 83.4680825,9.21166926 83.9442602,9.81166926 C84.5331025,10.5543152 84.8315354,11.4915525 84.8315354,12.5977004 C84.8315354,13.5159105 84.6447641,14.3225253 84.2762362,14.9950156 C83.9104943,15.6626031 83.4012192,16.2173113 82.7626752,16.6438482 C82.1397327,17.0596459 81.411592,17.3703852 80.5987578,17.5676615 C79.8002992,17.7615525 78.9281797,17.8599572 78.0065813,17.8599572 L78.0065813,17.8599572 L68.7475822,17.8599572 L68.7475822,0.00587159533 Z M114.83636,0.136342412 L114.83636,6.47871595 L120.891273,6.47871595 L120.891273,11.1091051 L114.83636,11.1091051 L114.83636,17.4514786 L110.416031,17.4514786 L110.416031,11.1091051 L104.361119,11.1091051 L104.361119,6.47871595 L110.416031,6.47871595 L110.416031,0.136342412 L114.83636,0.136342412 Z M99.3807432,0.272883268 L102.506488,3.54720233 L97.4976513,8.79381712 L102.506488,14.0407821 L99.3807432,17.3148677 L94.3719062,12.0680195 L89.3630692,17.3148677 L86.237324,14.0406654 L91.2462724,8.79381712 L86.237324,3.5470856 L89.3630692,0.272883268 L94.3719062,5.51961479 L99.3807432,0.272883268 Z M46.8067426,5.82389624 C47.1214113,5.84233982 47.4380344,5.83183398 47.7535718,5.82693126 C48.2623839,5.81922698 48.7214658,6.01650324 49.1868454,6.20397406 C49.8203089,6.45914916 50.3006728,6.94872114 50.6731067,7.50179507 C51.0388087,8.04529702 51.3119993,8.66747601 51.4329589,9.36786511 C51.5191725,9.86887678 51.4789974,10.3589157 51.5180867,10.7639741 C51.5180867,10.9087211 51.5124405,10.9659196 51.5191725,11.0214838 C51.594528,11.6511336 51.4540237,12.2616394 51.2909345,12.8457639 C51.1526019,13.3423398 50.9100312,13.8251414 50.5923222,14.2264643 C50.0856817,14.8659196 49.4845755,15.3795383 48.7023555,15.59269 C48.4143978,15.6711336 48.1325207,15.7836628 47.8317504,15.7890324 C47.4810327,15.7953359 47.1270575,15.8217173 46.7802487,15.782262 C46.404123,15.7393048 46.0084526,15.6944799 45.6681587,15.5350246 C45.2505549,15.3391492 44.8412032,15.1019507 44.4920057,14.7568923 C43.9868853,14.2577484 43.6376877,13.6575149 43.3827387,12.9851414 C43.3093377,12.7913671 43.2209525,12.5903554 43.206837,12.387476 C43.1751312,11.9310558 43.0424448,11.4881764 43.0873975,11.0203165 C43.1197547,10.6845966 43.0815341,10.3416394 43.0965183,10.0028846 C43.1212749,9.44887678 43.2552642,8.92125032 43.4743814,8.41907134 C43.5225915,8.30840986 43.574059,8.19961608 43.6198804,8.08778729 C43.7701569,7.72008301 43.9955718,7.41728145 44.248132,7.11938262 C44.7143802,6.56934371 45.2792203,6.21844877 45.9294054,6.01019974 C46.21454,5.91914916 46.4959828,5.80568612 46.8067426,5.82389624 Z M56.0834324,5.8301297 C56.4371904,5.85511025 56.7881252,5.8301297 57.1490496,5.91581064 C57.4120336,5.97814527 57.6085658,6.23261997 57.895872,6.17472114 C58.1642851,6.38787289 58.4598435,6.57184176 58.6952478,6.82141375 C59.0379305,7.18514916 59.285496,7.63316472 59.4792051,8.10896239 C59.5176428,8.20398184 59.5167742,8.32188067 59.5172085,8.42927367 C59.5174257,8.46779507 59.4709529,8.53619974 59.4398986,8.54040208 C59.09461,8.58732815 58.7797241,8.78460441 58.4224915,8.77316472 C58.3275914,8.77036316 58.2952342,8.74608301 58.2485442,8.63728923 C58.1175951,8.33098573 57.9595007,8.04149157 57.7382119,7.78538262 C57.4863032,7.49425422 56.9844403,7.11861219 56.6400203,7.07612192 C56.4738909,7.05581064 56.3062413,7.09106355 56.1524901,6.96732815 C56.0964621,6.92203632 55.9416252,6.92040208 55.9018844,6.96732815 C55.770501,7.12374838 55.6132752,7.06491569 55.4645188,7.07215305 C54.8212829,7.10320363 54.2162677,7.65394293 54.0833642,8.33448768 L54.2308176,9.0271725 C54.291406,9.25059663 54.4414654,9.35425422 54.6267052,9.47285344 C54.9893668,9.70468223 55.3748306,9.81557717 55.7776673,9.90639429 C56.4052675,10.0481064 57.0356907,10.1940208 57.650261,10.3784565 C58.060047,10.5014916 58.4691815,10.7151102 58.8253283,11.0139429 C59.2253419,11.3494293 59.5621612,11.7260052 59.6666164,12.2725422 C59.7691172,12.8092737 59.8373063,13.3532425 59.571282,13.8698962 C59.4448934,14.114799 59.3360949,14.3718418 59.1923332,14.6043709 C59.1343507,14.69869 58.9940637,14.7295071 58.9093702,14.8109857 C58.3729784,15.3267056 57.7323485,15.5407912 57.0365593,15.6988457 C56.4977788,15.8211803 55.966816,15.8188457 55.4462771,15.7698184 C54.8673214,15.7151881 54.2957493,15.5510636 53.7637007,15.2333204 C52.9061253,14.7211025 52.4576844,13.9035149 52.1547425,12.9561219 C52.1256427,12.8653048 52.1143502,12.7509079 52.2874289,12.7259274 C52.6127386,12.6787678 52.9145947,12.4985344 53.2535856,12.507406 C53.4260128,12.3007912 53.4855153,12.4880285 53.5146151,12.6150324 C53.6581597,13.2397795 53.9893327,13.73869 54.4514549,14.1152659 C54.7472305,14.3561997 55.100337,14.5352659 55.4927499,14.5434371 C55.878648,14.5513748 56.264546,14.5464721 56.6504441,14.5448379 C56.9507801,14.5432036 57.7351716,14.2628145 57.925189,14.0403243 C58.0663447,13.8754994 58.194905,13.6658495 58.2455039,13.4531647 C58.3002289,13.2229702 58.2850275,12.9612581 58.2478927,12.7228923 C58.2250906,12.5776783 58.1126004,12.4429702 58.022695,12.3183009 C57.9747021,12.2517639 57.8889228,12.216511 57.8198651,12.1677173 C57.3733786,11.8537095 56.8650008,11.7267056 56.3546686,11.5999351 C55.779839,11.4570558 55.2011004,11.3242153 54.6362603,11.1423476 C54.0173467,10.9427367 53.4605416,10.5983787 53.0709518,10.0308301 C52.8490116,9.70725032 52.6950432,9.3271725 52.6770187,8.90787289 C52.653348,8.35923476 52.6772359,7.82904021 52.9866927,7.3471725 C53.1808361,7.0453048 53.5886676,6.58444877 53.8783626,6.39090791 C54.556996,5.9375227 55.2925259,5.76592737 56.0834324,5.8301297 Z M15.4488221,5.84826978 C16.1324502,5.92554604 16.7752517,6.2435227 17.3162039,6.71418418 C17.7603016,7.10033204 18.4107038,8.29239429 18.4589139,9.03083787 C18.4725951,9.24048768 18.5807421,9.43776394 18.5607632,9.6635227 C18.5414357,9.87994293 18.5881257,10.0856239 18.6497999,10.2992425 C18.7093024,10.5056239 18.6626125,10.7472581 18.6626125,11.0327834 L12.0662963,11.0327834 C11.968356,11.3600986 12.0873611,11.6488923 12.1225415,11.9493593 C12.1394802,12.0942231 12.1743891,12.2299818 12.2154871,12.3627931 L12.3455675,12.7585422 L12.3455675,12.7585422 C12.4936725,13.2306044 12.7460155,13.6333281 13.1065055,13.9447678 C13.5128169,14.2958962 13.9701615,14.5305266 14.5050331,14.5447678 C14.62773,14.5480363 14.7510784,14.5358962 14.8731239,14.546869 C15.4920375,14.6014994 15.9832594,14.3278807 16.3986916,13.8639896 C16.667539,13.5637562 16.995889,13.3144176 17.112071,12.8804099 C17.1333529,12.8012659 17.2232583,12.734262 17.2947048,12.6829001 C17.3413948,12.6492815 17.4234823,12.6257017 17.4699551,12.6469468 C17.738151,12.7704488 17.9987462,12.9128612 18.2652048,13.040799 C18.5718385,13.1883476 18.5811765,13.1895149 18.415047,13.5072581 C17.8667113,14.5545733 17.057346,15.2848457 15.9954205,15.6387756 C15.5658728,15.7821219 15.0970186,15.8029001 14.6322905,15.7996316 C13.7408377,15.7933281 12.9234374,15.5227445 12.210058,14.9857795 C11.5820236,14.5127834 11.1348856,13.8392425 10.8745076,13.0545733 C10.6545218,12.3910713 10.5064169,11.708192 10.5509352,10.9909935 C10.5696112,10.6907601 10.5405114,10.3870246 10.5581016,10.0867912 C10.5739545,9.81830869 10.601317,9.54562387 10.6642941,9.28624643 C10.7956775,8.74437873 10.9828718,8.22165499 11.252805,7.73978729 C11.5049308,7.28990402 11.8460934,6.90445655 12.2285168,6.60072114 C12.6150664,6.29371725 13.0741483,6.08406744 13.5477801,5.94048768 C14.1749459,5.7502153 14.8233936,5.77776394 15.4488221,5.84826978 Z M5.75633091,1.88285344 C6.51835472,1.92534371 7.21870434,2.23608301 7.84261269,2.73709468 C8.63655941,3.37491569 9.05503188,4.24993515 9.2910877,5.25265888 C9.30867788,5.32713359 9.37382668,5.42472114 9.34950446,5.4660441 C9.31128383,5.53141375 9.22050983,5.5771725 9.14428574,5.59818418 C8.8419953,5.68176394 8.53861905,5.76300908 8.23198536,5.82394293 C8.05890671,5.85802853 7.96009769,5.84728923 7.9001608,5.5690013 C7.79505406,5.08129702 7.5685534,4.61413748 7.28320165,4.21001297 C6.96397252,3.75802853 6.51270849,3.4986511 6.00433068,3.33125811 C5.44253085,3.14635538 4.86466099,3.17880674 4.31263348,3.24861219 C3.79079158,3.31468223 3.24701625,3.45522698 2.82637216,3.88433204 C2.2589261,4.4630869 2.09127652,5.26690013 2.35013442,6.1171725 C2.49215881,6.58293126 2.78967167,6.92378729 3.19685167,7.14277562 C3.45119259,7.27949157 3.71647851,7.38200052 3.98539192,7.47536519 L4.52588722,7.65732815 L4.52588722,7.65732815 C5.13415986,7.86511025 5.76306295,7.98020752 6.36634085,8.20153048 C7.00110734,8.43452659 7.62827313,8.70137484 8.16553358,9.12277562 C8.78509868,9.60907912 9.25308423,10.2543709 9.47871625,11.0682231 C9.40249215,11.5066667 9.78404696,11.9360052 9.50086684,12.3786511 C9.54885979,12.7897795 9.41704205,13.1584176 9.24874098,13.5104799 C8.97316155,14.0861997 8.57336507,14.542153 8.06846187,14.9012192 C7.46865857,15.3279896 6.81608474,15.5535149 6.10791727,15.6977951 C5.53656229,15.8140597 4.97215651,15.8107912 4.41252831,15.7753048 C3.62444497,15.7253437 2.84265936,15.5756939 2.14643584,15.113904 C1.79028906,14.8776394 1.4276274,14.6388067 1.14357862,14.3170947 C0.752034328,13.873048 0.211299279,12.8196628 0.135075181,12.4524254 C0.0729666573,12.1545266 0.0451698355,11.8482231 -2.66453526e-15,11.5309468 C0.326178331,11.4578729 0.60088911,11.438262 0.838682234,11.3271336 C0.97983797,11.261297 1.10405502,11.2771725 1.23500411,11.2654994 C1.40221936,11.2505577 1.47019128,11.371725 1.49820526,11.5311803 C1.64544156,12.3683787 2.00549726,13.0767056 2.60421475,13.6407523 C2.93278187,13.9503243 3.66288277,14.2697017 4.13173697,14.3219974 C4.29439181,14.3399741 4.45226907,14.410013 4.61492391,14.4277562 C4.78865405,14.4466667 4.96651028,14.4454994 5.14045758,14.4296239 C5.68575304,14.3789624 6.23235149,14.2848768 6.73117414,14.0535149 C7.29384262,13.7922698 7.72100159,13.2980285 7.89060564,12.6786511 C8.01091376,12.2395071 8.00895929,11.7118807 7.80656368,11.2706355 C7.6226269,10.869546 7.37136969,10.5088457 6.97135605,10.2903243 C6.25385059,9.89833982 5.49660436,9.65250324 4.71894483,9.43958495 C3.96473888,9.23297017 3.18903382,9.04666667 2.50214829,8.64581064 C1.58897926,8.1123476 0.902528059,7.35009079 0.760503673,6.16853437 C0.572657963,5.84402075 0.60175776,5.46044099 0.676027394,5.14619974 L0.715701684,4.95860096 L0.715701684,4.95860096 L0.787631279,4.57847413 C0.839838958,4.32519601 0.910625125,4.0753048 1.06040532,3.84744488 C1.3316415,3.43491569 1.57703531,3.02635538 1.98834141,2.74036316 C2.60725502,2.31009079 3.13821775,2.12448768 3.85051131,1.96199741 C4.49114119,1.81584955 5.12655917,1.84760052 5.75633091,1.88285344 Z M29.9305754,6.0543476 L29.9305754,6.58524254 C29.9305754,8.24399741 29.9464283,9.90298573 29.9212374,11.5610402 C29.9129852,12.1008067 29.9648871,12.6319351 30.0495805,13.1516239 C30.1512127,13.7749702 30.4984558,14.249834 31.0991277,14.4281997 C31.4680871,14.5374604 31.8394353,14.6607289 32.2246818,14.4401064 C32.3493332,14.3686667 32.5219775,14.3987834 32.6709511,14.3714682 C33.2425233,14.2657095 33.5576263,13.7747367 33.908344,13.3650091 C34.2117203,13.0106122 34.3874049,12.1636083 34.4701438,11.6943476 C34.5541548,11.218083 34.5667591,10.7418184 34.5649281,10.2655974 L34.5584765,9.55130396 C34.5579706,9.43226232 34.5583429,9.31322475 34.5604835,9.19419196 C34.5759021,8.34625422 34.5639581,7.49808301 34.5639581,6.64967834 L34.5639581,6.0543476 L34.8722002,6.05381137 L34.8722002,6.05381137 L35.4470705,6.05326419 C35.5399822,6.05364721 35.6320184,6.05440597 35.7240411,6.05574838 C35.9514104,6.05925032 36.0265487,6.14236316 36.0374068,6.38166278 C36.0417501,6.47551492 36.0382755,6.57006744 36.0382755,6.66415305 L36.0382755,14.9763709 C36.0382755,15.07069 36.0428359,15.1650091 36.0371897,15.2590947 C36.0254629,15.4584721 35.9405523,15.5583943 35.755964,15.5618962 C35.3720204,15.5691336 34.9880768,15.5639974 34.5674327,15.5639974 L34.5674327,13.8340363 C34.2301791,14.2271881 33.9365752,14.5748145 33.6375422,14.9168379 C33.3356861,15.2623632 32.9639036,15.4892892 32.5478199,15.6368379 C31.9975297,15.8322464 31.335835,15.7890558 30.7023715,15.6954371 C30.1942109,15.6204955 29.7939801,15.345476 29.4278438,15.0475772 C29.0510666,14.7410402 28.8063242,14.255904 28.676461,13.7565266 C28.5607133,13.311546 28.4497431,12.8595616 28.452094,12.3830636 C28.4616871,10.4983165 28.456258,8.61356939 28.456258,6.72858885 C28.456258,6.59668223 28.4532177,6.46477562 28.4569095,6.332869 C28.4616871,6.15870558 28.5552842,6.05995071 28.7103383,6.05691569 C29.1097005,6.04921141 29.5090626,6.0543476 29.9305754,6.0543476 Z M42.2686291,5.94398962 C42.4842716,5.94585733 42.5624502,6.04040986 42.5659248,6.28554604 C42.5709195,6.64367834 42.5672278,7.00181064 42.5672278,7.41293904 C42.362009,7.41293904 42.1572246,7.41597406 41.9526574,7.41223865 C41.5107314,7.40430091 41.112455,7.5716939 40.7139615,7.75076005 C40.0479236,8.0498262 39.6446525,8.6157406 39.4190205,9.31262776 C39.2665723,9.78398962 39.1801416,10.2800986 39.1890452,10.7997873 C39.2131503,12.2521608 39.1975146,13.7052348 39.1975146,15.1580752 L39.1975146,15.5523943 L37.741656,15.5523943 L37.741656,6.06609079 L39.2035951,6.06609079 L39.2035951,8.0283476 C39.4392166,7.64873671 39.607952,7.30017639 39.8431392,7.01488457 C40.2729041,6.49356161 40.8255831,6.194262 41.4664302,6.03877562 C41.7374492,5.97293904 41.998913,5.94142153 42.2686291,5.94398962 Z M46.6262804,7.08716472 C46.3346309,7.14599741 46.0427643,7.32436316 45.8006279,7.51907134 C45.4186388,7.82630869 45.127858,8.23953826 44.9067864,8.69642542 C44.7838723,8.9504332 44.5571545,10.1434293 44.5706185,10.4081764 C44.5962437,10.9012503 44.5634522,11.3887211 44.6535747,11.8901997 C44.8018968,12.7164254 45.0759561,13.4380597 45.6794511,13.9754916 C46.0796819,14.3319896 46.5315975,14.5932348 47.0864481,14.5481764 C47.3127316,14.5297328 47.5418382,14.5521453 47.7689904,14.5418729 C47.8656277,14.5376706 47.9598763,14.4907445 48.0569481,14.4751025 C48.6167934,14.3840519 48.9733745,13.9668534 49.3297385,13.5545577 C49.5297453,13.3231958 49.9082598,12.4201608 49.9375768,12.1325344 C49.9860041,11.6604721 50.0274821,11.187476 50.0720005,10.7149468 C50.1369321,10.0245966 49.9143404,9.39074449 49.717591,8.7666978 C49.5290938,8.16926589 49.1371152,7.70537484 48.6131017,7.40887678 C47.7805,6.93774838 47.4226159,6.92700908 46.6262804,7.08716472 Z M78.1185772,10.2853658 L72.6891704,10.2853658 L72.6891704,14.4690233 L77.9786102,14.4690233 C79.0580058,14.4690233 79.8471035,14.2677782 80.3241728,13.8711245 C80.7801801,13.4918638 81.0019432,12.9790623 81.0019432,12.303537 C81.0019432,11.5755992 80.7973416,11.0769222 80.3763261,10.7792568 C79.9129638,10.4515914 79.1533974,10.2853658 78.1185772,10.2853658 L78.1185772,10.2853658 Z M23.4185401,6.96153826 C23.096705,6.96153826 22.7820363,6.97344488 22.4597669,7.0616939 C21.83651,7.23235538 21.457344,7.6616939 21.1904511,8.24885344 C21.058199,8.53974838 21.0994599,8.85469001 21.0814354,9.16309468 C21.0423461,9.83453437 21.2634177,10.3810713 21.7552912,10.7837951 C21.9461772,10.9402153 22.1789756,11.0445733 22.4039561,11.1435616 C22.5540155,11.2096316 22.7220994,11.2416161 22.8847542,11.257725 C23.0758574,11.2766355 23.2704352,11.267297 23.4630584,11.261227 C23.9970614,11.2434838 24.4795969,11.049476 24.8544197,10.6493204 C25.2477013,10.2297873 25.4750706,9.71126589 25.3997151,9.11640208 C25.4587834,8.44052659 25.2231619,7.89749157 24.7825388,7.50433982 C24.40359,7.16605188 23.9340843,6.96153826 23.4185401,6.96153826 Z M14.7217615,6.96959274 C14.5465112,6.95698573 14.3636602,7.02772503 14.1875413,7.07488457 C13.8704838,7.16033204 13.5506032,7.27099351 13.2939169,7.48040986 C12.7727265,7.90554604 12.456972,8.50017639 12.2402436,9.15597406 C12.1624994,9.39083787 12.0654277,9.62756939 12.164671,9.89395071 L17.1253179,9.89395071 C17.0703758,9.53395071 17.048008,9.22414527 16.973304,8.92974838 C16.7567929,8.0757406 16.3444009,7.38959274 15.499421,7.12998184 C15.2459922,7.05200519 14.9834425,6.98826978 14.7217615,6.96959274 Z M77.363134,3.39692218 L72.6891704,3.39692218 L72.6891704,6.89419844 L77.2792207,6.89419844 C77.9948802,6.89419844 78.5731359,6.7340428 78.9978289,6.41816732 C79.3861929,6.12902335 79.5750816,5.60851751 79.5750816,4.827 C79.5750816,3.97602724 79.210454,3.78423735 79.0905459,3.72120233 C78.6813429,3.50606615 78.1000784,3.39692218 77.363134,3.39692218 L77.363134,3.39692218 Z" id="Combined-Shape"></path>
            </g>
        </g>
    </g>
</svg>