<?xml version="1.0" encoding="UTF-8"?>
<svg width="120px" height="39px" viewBox="0 0 120 39" version="1.1" xmlns="http://www.w3.org/2000/svg" xmlns:xlink="http://www.w3.org/1999/xlink">
    <title>9F90F7DC-2C79-4984-9F49-88C032B703AA</title>
    <g id="logos-aseguradoras" stroke="none" stroke-width="1" fill="none" fill-rule="evenodd">
        <g id="logos-variantes" transform="translate(-971.000000, -2718.000000)" fill="#8A98A9">
            <g id="logo-seguros-atlas-gris" transform="translate(971.000000, 2718.000000)">
                <path d="M24.1144325,24.6839034 C24.395493,24.6839034 24.657763,24.6993964 24.9011433,24.7306841 C25.1443248,24.7618712 25.3723944,24.805332 25.5849544,24.8607646 L28.3820381,24.8607646 C28.498459,24.8607646 28.5858492,24.918008 28.6442088,25.032495 C28.7023695,25.1468813 28.731599,25.3222334 28.731599,25.5579477 C28.731599,25.8008048 28.6989892,25.9760563 28.6339685,26.0834004 C28.568749,26.1910463 28.4848384,26.2447686 28.3820381,26.2447686 L27.0554764,26.2447686 C27.295377,26.4944668 27.463198,26.7702213 27.5593372,27.0719316 C27.6552775,27.3737425 27.7032974,27.6877264 27.7032974,28.0137827 C27.7032974,28.5547284 27.6174979,29.0334004 27.4461972,29.4496982 C27.274797,29.865996 27.0297266,30.2181087 26.7109859,30.5059356 C26.3922452,30.7937626 26.013256,31.0141851 25.5746147,31.1665996 C25.1358741,31.3193159 24.6492129,31.3955734 24.1144325,31.3955734 C23.7373322,31.3955734 23.3791218,31.3453722 23.0398012,31.2447686 C22.7004805,31.1442656 22.4382104,31.0176056 22.2531897,30.8648893 C22.1298094,30.989839 22.0285004,31.1320926 21.9497597,31.2915493 C21.8708202,31.4512072 21.8315493,31.6349095 21.8315493,31.8430584 C21.8315493,32.0859155 21.9428998,32.2870221 22.1657001,32.4465795 C22.388401,32.6062374 22.6850704,32.6928571 23.0552113,32.7067404 L25.4718144,32.8107646 C25.9310356,32.8247485 26.3525766,32.888833 26.7367357,33.0032193 C27.1204971,33.1177062 27.4529577,33.2807847 27.7342171,33.4923541 C28.0151781,33.7040241 28.2344988,33.9641851 28.3922784,34.2727364 C28.5499586,34.5815895 28.6287987,34.9403421 28.6287987,35.3496982 C28.6287987,35.7797787 28.5397183,36.1890342 28.3614582,36.577666 C28.1830986,36.9660966 27.9105882,37.3076459 27.5439271,37.6026157 C27.1770671,37.8973843 26.7091964,38.1296781 26.1403148,38.2997988 C25.571135,38.4697183 24.8993538,38.5547284 24.1246727,38.5547284 C23.3774316,38.5547284 22.7416404,38.4904427 22.2171997,38.3622736 C21.6926595,38.2337022 21.2623695,38.0586519 20.9265286,37.8367203 C20.5905882,37.6145875 20.347208,37.3492958 20.1964872,37.0406439 C20.0455675,36.731992 19.9702071,36.3971831 19.9702071,36.0366197 C19.9702071,35.8075453 19.9976471,35.5855131 20.0525269,35.3706237 C20.1073074,35.1555332 20.1913173,34.9508048 20.3044573,34.7566398 C20.4175973,34.5624748 20.5579785,34.3768612 20.7260978,34.2 C20.8939188,34.0230382 21.0875891,33.8479879 21.3070091,33.6744467 C20.9711682,33.5011066 20.7226181,33.2825956 20.5614582,33.0189135 C20.4003977,32.7552314 20.3198674,32.4709256 20.3198674,32.1655936 C20.3198674,31.7425553 20.4054681,31.3643863 20.5769677,31.0313883 C20.748169,30.6983903 20.9608285,30.4002012 21.2145485,30.1365191 C21.0019884,29.8798793 20.8340679,29.5901408 20.7105882,29.2676056 C20.587208,28.9449698 20.5255675,28.5547284 20.5255675,28.0969819 C20.5255675,27.5628773 20.6146479,27.0842052 20.7930075,26.6609658 C20.9711682,26.2379276 21.2179287,25.8804829 21.5332891,25.5891348 C21.8485501,25.2977867 22.2274399,25.0741449 22.6696603,24.918008 C23.1117813,24.7618712 23.593372,24.6839034 24.1144325,24.6839034 Z M22.7262303,34.0801811 C22.5067109,34.2537223 22.3266611,34.4185111 22.18628,34.5744467 C22.0457001,34.7305835 21.9343496,34.8797787 21.8521292,35.0220322 C21.7698094,35.1640845 21.7132394,35.3045272 21.6824192,35.4433602 C21.6514996,35.5820926 21.6361889,35.7243461 21.6361889,35.8700201 C21.6361889,36.3209256 21.8623695,36.6624748 22.3148302,36.8950704 C22.7672908,37.1273642 23.3980116,37.243662 24.2068931,37.243662 C24.7210936,37.243662 25.1511848,37.1932596 25.4975642,37.0927565 C25.8436454,36.9921529 26.1231152,36.8586519 26.3356752,36.6920523 C26.5480365,36.5256539 26.7006462,36.3347082 26.7932063,36.1198189 C26.8857664,35.9046278 26.9320961,35.6791751 26.9320961,35.4433602 C26.9320961,35.0409457 26.7691466,34.7305835 26.4436454,34.5120724 C26.1179453,34.2935614 25.6774151,34.1774648 25.1222535,34.1634809 L22.7262303,34.0801811 Z M98.8844739,24.1830986 C102.062635,24.1830986 102.836123,26.3779678 102.836123,28.4858149 L102.836123,32.4191147 C102.836123,33.3317907 102.878873,34.2227364 103.008119,34.939839 L101.290141,34.939839 L101.139022,33.6142857 L101.075394,33.6142857 C100.49478,34.4400402 99.3783927,35.1788732 97.8966363,35.1788732 C95.7921127,35.1788732 94.7183761,33.6794769 94.7183761,32.1583501 C94.7183761,29.6157948 96.9517481,28.2250503 100.96802,28.2467807 L100.96802,28.0294769 C100.96802,27.1602616 100.7314,25.5955734 98.6054018,25.5955734 C97.6389395,25.5955734 96.6296272,25.8998994 95.8994863,26.3779678 L95.4699917,25.117505 C96.3289809,24.5525151 97.5745153,24.1830986 98.8844739,24.1830986 Z M109.041922,24.1830986 C110.093786,24.1830986 111.017399,24.4874245 111.597017,24.8351107 L111.124772,26.2258551 C110.71715,25.9650905 109.965534,25.6174044 108.999171,25.6174044 C107.882684,25.6174044 107.259321,26.2693159 107.259321,27.0516097 C107.259321,27.9208249 107.882684,28.3119718 109.234797,28.833501 C111.039271,29.5288732 111.962883,30.4415493 111.962883,32.0062374 C111.962883,33.8533199 110.545153,35.1571429 108.075559,35.1571429 C106.9372,35.1571429 105.885336,34.8746479 105.154598,34.4400402 L105.626843,32.9841046 C106.185584,33.3535211 107.173819,33.744668 108.11831,33.744668 C109.493289,33.744668 110.137531,33.0492958 110.137531,32.1800805 C110.137531,31.2673038 109.600663,30.7676056 108.204805,30.2459759 C106.335708,29.5724346 105.455841,28.5293763 105.455841,27.2689135 C105.455841,25.5739437 106.808948,24.1830986 109.041922,24.1830986 Z M85.3366031,21.4016097 L85.3366031,24.4221328 L88.0424192,24.4221328 L88.0424192,25.878169 L85.3366031,25.878169 L85.3366031,31.5498994 C85.3366031,32.8537223 85.7016736,33.5925553 86.7539354,33.5925553 C87.2477548,33.5925553 87.6128252,33.5273642 87.8491466,33.462173 L87.9349461,34.8964789 C87.5699751,35.0484909 86.9901574,35.1571429 86.2600166,35.1571429 C85.3794532,35.1571429 84.6707871,34.8746479 84.2198177,34.3531187 C83.6829495,33.7881288 83.4896769,32.8537223 83.4896769,31.6149899 L83.4896769,25.878169 L81.8789727,25.878169 L81.8789727,24.4221328 L83.4896769,24.4221328 L83.4896769,21.9014085 L85.3366031,21.4016097 Z M53.3498923,24.6630785 C54.1109528,24.6630785 54.7742833,24.7775654 55.3397846,25.0064386 C55.9052858,25.2353119 56.3766363,25.5684105 56.7537365,26.0054326 C57.1307374,26.4423541 57.413488,26.9731388 57.6020878,27.5974849 C57.7905882,28.221831 57.8849379,28.9260563 57.8849379,29.7098592 C57.8849379,30.4730382 57.7855178,31.1754527 57.5867771,31.817002 C57.3878376,32.4587525 57.0912676,33.0120724 56.6971665,33.47666 C56.3028666,33.9415493 55.8093455,34.3040241 55.2164043,34.5641851 C54.6233637,34.8242455 53.9361723,34.954326 53.1545319,34.954326 C52.3935708,34.954326 51.7303397,34.839839 51.164739,34.6109658 C50.5991384,34.381992 50.1276885,34.0490946 49.7507871,33.6119718 C49.3736868,33.1749497 49.0926263,32.6442656 48.9076056,32.0199195 C48.7223861,31.3955734 48.6299254,30.6880282 48.6299254,29.8970825 C48.6299254,29.1341046 48.7275559,28.4317907 48.9230157,27.7900402 C49.1183761,27.1483903 49.4130572,26.5950704 49.8073571,26.1302817 C50.2014582,25.6655936 50.6933886,25.304829 51.2829495,25.0480885 C51.8725104,24.7914487 52.5615907,24.6630785 53.3498923,24.6630785 Z M4.37040597,21.0938632 C4.66508699,21.0938632 4.961657,21.1198189 5.25991715,21.1719316 C5.5581773,21.2239437 5.83913836,21.2933602 6.10319801,21.3799799 C6.36705882,21.4668008 6.60188898,21.5638833 6.80758906,21.6714286 C7.01328915,21.7790744 7.14850041,21.8656942 7.21381939,21.9315895 C7.2788401,21.9975855 7.32178956,22.049497 7.34236951,22.0876258 C7.36294946,22.1258551 7.37985087,22.1744467 7.39376968,22.2332998 C7.40739022,22.2922535 7.41763049,22.3633803 7.42458989,22.4466801 C7.43135046,22.5298793 7.43483016,22.6375252 7.43483016,22.7692153 C7.43483016,22.8940644 7.42966031,23.0050302 7.41942005,23.1021127 C7.40908036,23.1993964 7.39376968,23.2808853 7.37318973,23.3466801 C7.35260978,23.4126761 7.32338028,23.461167 7.28570008,23.4923541 C7.24792046,23.5236419 7.20516984,23.5392354 7.15714996,23.5392354 C7.08178956,23.5392354 6.9634797,23.4908451 6.80241922,23.3935614 C6.64125932,23.2964789 6.44410936,23.1872233 6.21116819,23.0657948 C5.97802817,22.9444668 5.70213753,22.8334004 5.38339685,22.7326962 C5.06455675,22.6322938 4.70624689,22.5818913 4.30876553,22.5818913 C3.93852527,22.5818913 3.61620547,22.6322938 3.34210439,22.7326962 C3.06780447,22.8334004 2.84162386,22.9669014 2.66336371,23.1334004 C2.48500414,23.2998994 2.35128418,23.4975855 2.26240265,23.7264588 C2.17312345,23.9554326 2.12868268,24.1983903 2.12868268,24.4549296 C2.12868268,24.8294769 2.21438277,25.1521127 2.38578293,25.4227364 C2.55708368,25.6932596 2.78505385,25.9325956 3.06959403,26.1406439 C3.35393538,26.3487928 3.67794532,26.5396378 4.0413256,26.7129779 C4.40470588,26.8864185 4.77484673,27.0615694 5.15194698,27.2384306 C5.52884838,27.4153924 5.89908865,27.6096579 6.26256835,27.8211268 C6.62594863,28.0328974 6.94975973,28.2825956 7.23439934,28.5704225 C7.51874068,28.8583501 7.74859983,29.1983903 7.92328086,29.5901408 C8.09816073,29.9821932 8.18555095,30.445171 8.18555095,30.9793763 C8.18555095,31.610664 8.0707208,32.1725352 7.84106048,32.6650905 C7.61130075,33.1576459 7.29256007,33.5756539 6.88473902,33.9190141 C6.47681856,34.2623742 5.99681856,34.5208249 5.4451367,34.6942656 C4.89315659,34.8676056 4.29842585,34.954326 3.66084507,34.954326 C3.21514499,34.954326 2.8021541,34.9160966 2.42167357,34.839839 C2.04119304,34.7634809 1.70187241,34.6700201 1.40371168,34.5589537 C1.10545153,34.4480885 0.855211268,34.3336016 0.652990886,34.215493 C0.450671085,34.0976861 0.310091135,33.9969819 0.231350456,33.9137827 C0.152510356,33.8305835 0.0941507871,33.7248491 0.0565700083,33.5963783 C0.0187903894,33.4681087 1.24344979e-14,33.2963783 1.24344979e-14,33.0813883 C1.24344979e-14,32.9287726 0.00676056338,32.8021127 0.0205799503,32.7015091 C0.0342999171,32.601006 0.0548798674,32.5194165 0.0823198012,32.4570423 C0.109660315,32.3944668 0.143960232,32.3513078 0.185120133,32.3269618 C0.226180613,32.3026157 0.274200497,32.2904427 0.329179785,32.2904427 C0.425020713,32.2904427 0.56053024,32.349497 0.735310688,32.4674044 C0.910091135,32.5854125 1.13458161,32.7136821 1.40888152,32.8523139 C1.6829826,32.9912475 2.01375311,33.121328 2.40119304,33.2425553 C2.78843413,33.3640845 3.23572494,33.4247485 3.74316487,33.4247485 C4.12702568,33.4247485 4.47837614,33.3726358 4.79721624,33.2686117 C5.11595692,33.1645875 5.39015742,33.0173038 5.61981773,32.8263581 C5.84947804,32.6356137 6.02604805,32.4015091 6.14952775,32.1239437 C6.27290804,31.8465795 6.33454847,31.5308853 6.33454847,31.1770624 C6.33454847,30.795674 6.24874896,30.4695171 6.07744822,30.1988934 C5.90604805,29.9283702 5.67976802,29.6907445 5.39880696,29.4861167 C5.11764706,29.2815895 4.79721624,29.0942656 4.43731566,28.9241449 C4.07741508,28.754326 3.70876553,28.5807847 3.33186413,28.4039235 C2.95476388,28.2270624 2.58790389,28.0310865 2.23148302,27.815996 C1.87496272,27.6011066 1.55612262,27.3476861 1.27516156,27.0564386 C0.994001657,26.7649899 0.766130903,26.4234406 0.591251036,26.0313883 C0.416470588,25.6395372 0.329179785,25.1695171 0.329179785,24.6214286 C0.329179785,24.0595573 0.430091135,23.5583501 0.632410936,23.1178068 C0.834631317,22.6773642 1.11579122,22.3079477 1.4756918,22.0095573 C1.83559238,21.7113682 2.26399337,21.4841046 2.76119304,21.3279678 C3.25809445,21.1719316 3.79456504,21.0938632 4.37040597,21.0938632 Z M38.7819718,24.8087525 C38.946512,24.8087525 39.0836123,24.8138833 39.193372,24.8242455 C39.3028335,24.8348089 39.3887324,24.8556338 39.4504722,24.8868209 C39.5121127,24.918008 39.5584424,24.9528169 39.5892626,24.9908451 C39.6200829,25.0290744 39.635493,25.0758551 39.635493,25.1312877 L39.635493,34.4964789 C39.635493,34.5521127 39.6234631,34.598994 39.5995029,34.6370221 C39.5754432,34.6751509 39.5326926,34.7082495 39.4710522,34.7358149 C39.4093123,34.7634809 39.3285833,34.7842052 39.2293621,34.7982897 C39.1298426,34.8120724 39.0081524,34.8190141 38.8642916,34.8190141 C38.7064126,34.8190141 38.5778625,34.8120724 38.4786413,34.7982897 C38.3791218,34.7842052 38.3002817,34.7634809 38.242121,34.7358149 C38.1837614,34.7082495 38.1443911,34.6751509 38.1239105,34.6370221 C38.1033306,34.598994 38.0929909,34.5521127 38.0929909,34.4964789 L38.0929909,33.2581489 C37.5650704,33.8479879 37.0441094,34.2779678 36.5300083,34.5485915 C36.0158078,34.8190141 35.4947473,34.954326 34.9669263,34.954326 C34.3499254,34.954326 33.8305551,34.8503018 33.4089147,34.6421529 C32.9873737,34.4341046 32.646164,34.1514085 32.3857829,33.794165 C32.1251036,33.4369215 31.9383927,33.0206237 31.8252527,32.5453722 C31.7122121,32.0703219 31.6556421,31.4928571 31.6556421,30.8128773 L31.6556421,25.1312877 C31.6556421,25.0758551 31.6674731,25.0290744 31.6916321,24.9908451 C31.7155924,24.9528169 31.7619221,24.918008 31.8304225,24.8868209 C31.8989229,24.8556338 31.9881027,24.8348089 32.0978625,24.8242455 C32.2074234,24.8138833 32.344623,24.8087525 32.5091632,24.8087525 C32.6737034,24.8087525 32.8107042,24.8138833 32.920464,24.8242455 C33.0301243,24.8348089 33.1174151,24.8556338 33.1827341,24.8868209 C33.2477548,24.918008 33.2940845,24.9528169 33.3215244,24.9908451 C33.348865,25.0290744 33.3626843,25.0758551 33.3626843,25.1312877 L33.3626843,30.5839034 C33.3626843,31.1320926 33.4020547,31.5708249 33.4809942,31.9002012 C33.5597349,32.2298793 33.6797349,32.5107646 33.8408948,32.7430584 C34.0018558,32.9756539 34.2059652,33.1559356 34.4527258,33.2842052 C34.6995857,33.4126761 34.9874068,33.47666 35.3165866,33.47666 C35.7415079,33.47666 36.1649379,33.3242455 36.5864789,33.0189135 C37.0081193,32.7136821 37.4554101,32.2661972 37.9284507,31.6765594 L37.9284507,25.1312877 C37.9284507,25.0758551 37.9403811,25.0290744 37.9644408,24.9908451 C37.9885004,24.9528169 38.0346313,24.918008 38.1033306,24.8868209 C38.1717316,24.8556338 38.2591218,24.8348089 38.3656007,24.8242455 C38.4717813,24.8138833 38.6104722,24.8087525 38.7819718,24.8087525 Z M62.9443248,24.6630785 C63.1911848,24.6630785 63.4379453,24.6839034 63.6848053,24.7254527 C63.9314664,24.7671026 64.1541674,24.8191147 64.3531069,24.8815895 C64.5518476,24.9440644 64.7215576,25.01167 64.8621375,25.084507 C65.0025186,25.1573441 65.1089975,25.2216298 65.1808782,25.2769618 C65.2529577,25.3325956 65.3007788,25.3810865 65.3249379,25.4227364 C65.3488981,25.4642857 65.3660978,25.511167 65.376338,25.5631791 C65.3866777,25.6151911 65.3968186,25.6793763 65.4071582,25.7556338 C65.4173985,25.8320926 65.4225684,25.9257545 65.4225684,26.0366197 C65.4225684,26.1546278 65.4173985,26.2569416 65.4071582,26.3435614 C65.3968186,26.4303823 65.3796189,26.5014085 65.3557581,26.5569416 C65.3316984,26.6125755 65.3025684,26.6523139 65.2682684,26.67666 C65.2339685,26.701006 65.1963877,26.7129779 65.1552278,26.7129779 C65.093488,26.7129779 65.0043082,26.6749497 64.8878873,26.5984909 C64.7711682,26.5222334 64.6205468,26.4408451 64.4353273,26.3540241 C64.2503065,26.2673038 64.0325766,26.1859155 63.7824358,26.1094567 C63.5319967,26.0331992 63.2458658,25.9949698 62.9237448,25.9949698 C62.6358244,25.9949698 62.3821044,26.0279678 62.1627838,26.0938632 C61.9432643,26.1598592 61.763314,26.2534205 61.6228335,26.3748491 C61.4822535,26.4962777 61.3760729,26.6401408 61.3040928,26.8067404 C61.2322121,26.9731388 61.1961226,27.1536217 61.1961226,27.3476861 C61.1961226,27.6183099 61.264623,27.845674 61.4018227,28.0293763 C61.5389229,28.2131791 61.7170837,28.3744467 61.9366031,28.5131791 C62.1559238,28.6520121 62.4060646,28.7768612 62.6872245,28.887827 C62.9681856,28.9988934 63.2544159,29.1132797 63.5459155,29.2311871 C63.8372162,29.3491952 64.1251367,29.4809859 64.4096769,29.62666 C64.6941176,29.7722334 64.9460481,29.9491952 65.1654681,30.1572435 C65.3847887,30.365493 65.5613587,30.6151911 65.6950787,30.9064386 C65.8287987,31.1978873 65.8956089,31.5448692 65.8956089,31.9470825 C65.8956089,32.4257545 65.8082187,32.8523139 65.6333389,33.2269618 C65.4585584,33.6016097 65.2100083,33.9173038 64.8878873,34.1739437 C64.5655675,34.4306841 64.1817067,34.6249497 63.736106,34.7566398 C63.290406,34.88833 62.8003645,34.954326 62.2655841,34.954326 C61.9366031,34.954326 61.6228335,34.9283702 61.3246727,34.8762575 C61.0264126,34.8242455 60.7591715,34.7583501 60.5225518,34.678672 C60.2860315,34.598994 60.0855012,34.5155936 59.9209611,34.4288732 C59.7565203,34.3422535 59.6364209,34.2640845 59.5610605,34.1947686 C59.4855012,34.1255533 59.4307208,34.0282696 59.3965203,33.9034205 C59.362121,33.7784708 59.3451201,33.6086519 59.3451201,33.3934608 C59.3451201,33.2618712 59.3517813,33.1507042 59.3657001,33.0605634 C59.3793206,32.9704225 59.3965203,32.8975855 59.4171002,32.8420523 C59.4376802,32.7865191 59.4668103,32.7466801 59.5045899,32.722334 C59.5421707,32.6980885 59.5850207,32.6859155 59.63314,32.6859155 C59.708401,32.6859155 59.8198509,32.7326962 59.9672908,32.8263581 C60.1145319,32.9200201 60.2962717,33.0225352 60.5123115,33.1332998 C60.7282519,33.2443662 60.9835626,33.3465795 61.278343,33.4403421 C61.573024,33.534004 61.9124441,33.5807847 62.2965037,33.5807847 C62.5844242,33.5807847 62.8448053,33.5495976 63.0779453,33.4871227 C63.3109859,33.4247485 63.5133057,33.3328974 63.6848053,33.2114688 C63.8560066,33.0901408 63.9880365,32.9356137 64.0805965,32.7482897 C64.1731566,32.5610664 64.2193869,32.3391348 64.2193869,32.0823944 C64.2193869,31.8188129 64.1526761,31.5968813 64.0189561,31.4163984 C63.8852361,31.2361167 63.7086661,31.0765594 63.4893455,30.9377264 C63.269826,30.798994 63.0230655,30.6759557 62.748865,30.5683099 C62.4746645,30.4608652 62.1919138,30.3481891 61.9005137,30.2301811 C61.6091135,30.1122736 61.3246727,29.9787726 61.0469925,29.8294769 C60.7693123,29.6803823 60.5207622,29.4982897 60.3014416,29.2831992 C60.0819221,29.0683099 59.905551,28.8114688 59.771831,28.5131791 C59.6382104,28.2150905 59.5713007,27.8576459 59.5713007,27.4413481 C59.5713007,27.0738431 59.6415907,26.721831 59.7821707,26.3852113 C59.9226512,26.0487928 60.1334217,25.7541247 60.4145816,25.5007042 C60.6956421,25.2474849 61.0469925,25.044668 61.468633,24.8919517 C61.8902734,24.7395372 62.3821044,24.6630785 62.9443248,24.6630785 Z M14.3452196,24.6630785 C15.0718807,24.6630785 15.6905717,24.7810865 16.2013919,25.0168008 C16.7121127,25.2527163 17.132063,25.5701207 17.4611433,25.9689135 C17.7901243,26.368008 18.0318144,26.8362173 18.1861143,27.3737425 C18.3404143,27.9114688 18.4174648,28.4855131 18.4174648,29.0958753 L18.4174648,29.4080483 C18.4174648,29.6785714 18.3502568,29.8711268 18.2160398,29.9856137 C18.0816239,30.1001006 17.928517,30.1572435 17.7563215,30.1572435 L11.6612759,30.1572435 C11.6612759,30.6775654 11.7129743,31.1457746 11.8162717,31.5620724 C11.9195692,31.9783702 12.0917647,32.3357143 12.3329577,32.6338028 C12.5739519,32.9321932 12.8874234,33.161167 13.2732726,33.3207243 C13.6590224,33.4802817 14.1309693,33.5599598 14.6889147,33.5599598 C15.1298426,33.5599598 15.5223529,33.5235412 15.8669428,33.4507042 C16.2114333,33.3778672 16.5092958,33.2963783 16.7607291,33.2062374 C17.0121624,33.1160966 17.2187572,33.034507 17.3807125,32.96167 C17.5427672,32.888833 17.6650539,32.8523139 17.7477713,32.8523139 C17.7959901,32.8523139 17.8389395,32.8645875 17.8768186,32.888833 C17.9146976,32.9131791 17.9439271,32.9495976 17.9646065,32.9979879 C17.9851864,33.0466801 18.0008948,33.1143863 18.011135,33.201006 C18.0214747,33.2877264 18.0266446,33.3934608 18.0266446,33.5183099 C18.0266446,33.6086519 18.0231649,33.6866197 18.0164043,33.7525151 C18.0095443,33.8185111 18.0009942,33.8773642 17.9906545,33.9293763 C17.9805137,33.9813883 17.9632146,34.0282696 17.9392543,34.0699195 C17.9151947,34.1114688 17.8843745,34.1514085 17.8467937,34.1895372 C17.8090141,34.2277666 17.6976636,34.2901408 17.5124441,34.3768612 C17.3274234,34.4636821 17.0873239,34.5485915 16.7926429,34.6317907 C16.4978625,34.7149899 16.1567523,34.7894366 15.7695112,34.8554326 C15.3821707,34.921328 14.9689809,34.954326 14.5303397,34.954326 C13.7693786,34.954326 13.1025684,34.8466801 12.5302071,34.6317907 C11.9577465,34.4168008 11.4762552,34.0976861 11.085435,33.6744467 C10.6946147,33.2514085 10.3998343,32.7207243 10.2009942,32.0823944 C10.0021541,31.444165 9.90283347,30.7019115 9.90283347,29.8555332 C9.90283347,29.0509054 10.0057332,28.327666 10.2113339,27.6859155 C10.417034,27.0443662 10.7135046,26.4996982 11.1008451,26.0522133 C11.4880862,25.6047284 11.9560563,25.2613682 12.5045568,25.0220322 C13.0529577,24.7826962 13.6665783,24.6630785 14.3452196,24.6630785 Z M76.7711682,20.2932596 L81.7104557,34.939839 L79.7133057,34.939839 L78.1671251,30.3328974 L73.034565,30.3328974 L71.5313339,34.939839 L69.5986081,34.939839 L74.5164209,20.2932596 L76.7711682,20.2932596 Z M92.6545153,19.5110664 L92.6545153,34.939839 L90.764739,34.939839 L90.764739,19.5110664 L92.6545153,19.5110664 Z M47.0326429,24.6630785 C47.1217233,24.6630785 47.2228335,24.6683099 47.3359735,24.678672 C47.4492129,24.6890342 47.5674234,24.7082495 47.6908036,24.7359155 C47.8142833,24.7636821 47.9255344,24.7948692 48.0250539,24.8294769 C48.1243745,24.8642857 48.1946645,24.898994 48.2358244,24.9336016 C48.2769843,24.9684105 48.3042254,25.0012072 48.3180447,25.032495 C48.3317647,25.0636821 48.3437945,25.1037223 48.3540348,25.1521127 C48.3643745,25.2008048 48.371135,25.271831 48.3746147,25.3653924 C48.3780944,25.4590543 48.3797846,25.5858149 48.3797846,25.7452716 C48.3797846,25.8978873 48.3762055,26.0262575 48.3695443,26.1302817 C48.3625849,26.2343058 48.3489644,26.315996 48.3283844,26.3748491 C48.3078045,26.4338028 48.2821541,26.4788732 48.2512345,26.5100604 C48.2204143,26.5413481 48.1774648,26.5569416 48.1226843,26.5569416 C48.0677051,26.5569416 48.0009942,26.5413481 47.9222535,26.5100604 C47.843314,26.4788732 47.7541342,26.4475855 47.6548136,26.416499 C47.5552941,26.3852113 47.4440431,26.3557344 47.3206628,26.3279678 C47.1972825,26.3003018 47.0635626,26.2864185 46.9196023,26.2864185 C46.7481027,26.2864185 46.5802817,26.3211268 46.4156421,26.3904427 C46.2511019,26.4598592 46.0779122,26.5743461 45.8963712,26.7338028 C45.7146313,26.8934608 45.5243413,27.1049296 45.3256007,27.3685111 C45.1266611,27.6322938 44.9073405,27.9549296 44.6674399,28.3363179 L44.6674399,34.4964789 C44.6674399,34.5521127 44.65372,34.598994 44.6263795,34.6370221 C44.5989395,34.6751509 44.5543993,34.7082495 44.4926595,34.7358149 C44.4309196,34.7634809 44.3452196,34.7842052 44.2356587,34.7982897 C44.1258989,34.8120724 43.985319,34.8190141 43.8139188,34.8190141 C43.649478,34.8190141 43.512179,34.8120724 43.4027175,34.7982897 C43.2928583,34.7842052 43.2054681,34.7634809 43.1404474,34.7358149 C43.0752278,34.7082495 43.0306877,34.6751509 43.0067274,34.6370221 C42.9826678,34.598994 42.9707374,34.5521127 42.9707374,34.4964789 L42.9707374,25.1312877 C42.9707374,25.0758551 42.9809776,25.0290744 43.0015576,24.9908451 C43.0221375,24.9528169 43.0633969,24.918008 43.1250373,24.8868209 C43.1867771,24.8556338 43.2654184,24.8348089 43.3615576,24.8242455 C43.4573985,24.8138833 43.5842585,24.8087525 43.7420381,24.8087525 C43.8926595,24.8087525 44.0179287,24.8138833 44.1173488,24.8242455 C44.2166694,24.8348089 44.29372,24.8556338 44.3486993,24.8868209 C44.4034797,24.918008 44.44285,24.9528169 44.4670091,24.9908451 C44.4909693,25.0290744 44.5029992,25.0758551 44.5029992,25.1312877 L44.5029992,26.4944668 C44.7565203,26.1198189 44.9947307,25.8146881 45.2176305,25.5787726 C45.4404308,25.3430584 45.6512013,25.1573441 45.8501408,25.0220322 C46.0488815,24.8868209 46.2459321,24.793159 46.4413919,24.7410463 C46.6367523,24.6890342 46.8337034,24.6630785 47.0326429,24.6630785 Z M96.6081524,31.9410463 C96.6081524,33.1796781 97.4241922,33.7663984 98.3906545,33.7663984 C99.7431649,33.7663984 100.602154,32.8971831 100.903397,32.0062374 C100.96802,31.810664 101.010771,31.5933602 101.010771,31.3976861 L101.010771,29.5724346 C98.9488981,29.5288732 96.6081524,29.8983903 96.6081524,31.9410463 Z M53.2832809,26.098994 C52.778227,26.098994 52.3441591,26.189336 51.9809776,26.3696177 C51.6177962,26.5501006 51.3187407,26.8050302 51.0834134,27.1344064 C50.8481856,27.4639839 50.6735046,27.8542254 50.5594698,28.3050302 C50.4453355,28.7560362 50.3883679,29.2485915 50.3883679,29.7826962 C50.3883679,30.2961771 50.4349959,30.7782696 50.5284507,31.2290744 C50.6218061,31.6800805 50.7774979,32.0737425 50.9954267,32.410161 C51.213256,32.7466801 51.5054515,33.0136821 51.8720133,33.2114688 C52.2387738,33.4090543 52.6952113,33.5079477 53.2418227,33.5079477 C53.7399171,33.5079477 54.1721955,33.4178068 54.5387572,33.2373239 C54.9055178,33.0570423 55.2062635,32.8039235 55.4414913,32.4777666 C55.6767191,32.1517103 55.8496106,31.7633803 55.9602651,31.3123742 C56.0710191,30.8614688 56.1264954,30.365493 56.1264954,29.8243461 C56.1264954,29.318008 56.0796686,28.839336 55.9863132,28.38833 C55.8927589,27.9375252 55.7389561,27.5420523 55.524507,27.2020121 C55.310058,26.8622736 55.0195526,26.5932596 54.6528915,26.395674 C54.2862303,26.1978873 53.8297929,26.098994 53.2832809,26.098994 Z M24.0835128,25.9949698 C23.7545319,25.9949698 23.4682022,26.0506036 23.2249213,26.1614688 C22.9814416,26.2725352 22.7792212,26.4252515 22.6182601,26.6193159 C22.4571002,26.8136821 22.3370008,27.0373239 22.2582601,27.2905433 C22.17942,27.5438632 22.1399503,27.8091549 22.1399503,28.0865191 C22.1399503,28.7041247 22.31314,29.1895372 22.6593206,29.5433602 C23.0054018,29.8970825 23.4904722,30.0740443 24.1144325,30.0740443 C24.4502734,30.0740443 24.7416736,30.0204225 24.9885336,29.9127767 C25.2352941,29.8052314 25.4392046,29.6562374 25.6003645,29.4652918 C25.7613256,29.2746479 25.881425,29.0542254 25.9602651,28.8045272 C26.0390058,28.5547284 26.078575,28.294668 26.078575,28.0241449 C26.078575,27.3859155 25.9052858,26.8882294 25.5592046,26.5308853 C25.213024,26.1737425 24.7210936,25.9949698 24.0835128,25.9949698 Z M14.2583264,26.0054326 C13.8375808,26.0054326 13.4684341,26.0853119 13.1512842,26.2447686 C12.8339354,26.404326 12.5683844,26.6158954 12.3545319,26.8794769 C12.14058,27.143159 11.975145,27.4502012 11.8578293,27.8003018 C11.7405137,28.1508048 11.6751947,28.5168008 11.6612759,28.8982897 L16.7104225,28.8982897 C16.7310025,27.9964789 16.5325601,27.288833 16.115493,26.7754527 C15.6981276,26.2620724 15.0790389,26.0054326 14.2583264,26.0054326 Z M75.6115327,21.9665996 L75.5686827,21.9665996 C75.3539354,22.8358149 75.1177133,23.7267606 74.8384424,24.6178068 L73.4211102,28.8552314 L77.78058,28.8552314 L76.3632477,24.6395372 C76.0411268,23.6834004 75.8263795,22.8140845 75.6115327,21.9665996 Z M118.355592,12.5305835 L119.934383,14.488833 C119.237448,15.2442656 118.428169,15.8938632 117.532394,16.4113682 L117.532394,16.4113682 L117.177572,16.607328 C116.339602,17.0485114 115.43227,17.3762953 114.476222,17.5695171 L114.476222,17.5695171 L112.429163,15.0315895 C113.646065,15.0279678 114.798343,14.7682093 115.828335,14.3076459 L115.828335,14.3076459 L116.146083,14.1575006 C116.982466,13.7400725 117.729909,13.1875922 118.355592,12.5305835 L118.355592,12.5305835 Z M106.403314,12.4765594 C107.092295,13.2141851 107.934383,13.8236419 108.881856,14.2620724 C109.919801,14.7427565 111.085998,15.0182093 112.319801,15.0301811 L112.319801,15.0301811 L110.343331,17.5526157 C109.235791,17.3192153 108.193869,16.9050302 107.250373,16.3428571 L107.250373,16.3428571 L106.924108,16.1400475 C106.172411,15.6529615 105.48865,15.0696429 104.890141,14.4071429 L104.890141,14.4071429 Z M112.278045,9.93189135 L115.740845,14.2260563 C114.740679,14.7380282 113.610273,15.028169 112.412262,15.028169 C111.165534,15.028169 109.992378,14.7143863 108.962386,14.1625755 L108.962386,14.1625755 L112.278045,9.93189135 Z M112.412262,0.0775653924 C116.492461,0.0775653924 119.800166,3.42454728 119.800166,7.55291751 C119.800166,9.05593561 119.360729,10.4545272 118.606131,11.6265594 L118.606131,11.6265594 L118.588235,11.6044266 L112.278045,3.78028169 L106.194532,11.5416499 L106.189561,11.5487928 L106.181607,11.5584507 C105.449876,10.4031187 105.025352,9.02867203 105.025352,7.55291751 C105.025352,3.42454728 108.333057,0.0775653924 112.412262,0.0775653924 Z" id="Combined-Shape"></path>
            </g>
        </g>
    </g>
</svg>