<?xml version="1.0" encoding="UTF-8"?>
<svg width="133px" height="46px" viewBox="0 0 133 46" version="1.1" xmlns="http://www.w3.org/2000/svg" xmlns:xlink="http://www.w3.org/1999/xlink">
    <title>3687D5CF-275B-4DD0-9FB7-5C42C208003E</title>
    <g id="logos-aseguradoras" stroke="none" stroke-width="1" fill="none" fill-rule="evenodd">
        <g id="logos-variantes" transform="translate(-289.000000, -147.000000)" fill="#3BBBD2">
            <g id="logo-aba" transform="translate(289.000000, 147.000000)">
                <path d="M79.3771,-1.42108547e-13 L79.3771,45.564 L72.3391,45.564 L72.3391,-1.42108547e-13 L79.3771,-1.42108547e-13 Z M107.29,27.2185 C107.902,27.2185 108.435,27.3685 108.892,27.6705 C109.139,27.8415 109.391,28.0895 109.648,28.4155 L109.648,27.4305 L110.861,27.4305 L110.861,34.5435 C110.861,35.5365 110.715,36.3205 110.423,36.8955 C109.88,37.9575 108.854,38.4875 107.345,38.4875 C106.505,38.4875 105.799,38.2995 105.226,37.9225 C104.654,37.5445 104.333,36.9545 104.265,36.1505 L105.602,36.1505 C105.664,36.5015 105.79,36.7715 105.98,36.9615 C106.275,37.2535 106.739,37.3995 107.374,37.3995 C108.376,37.3995 109.032,37.0445 109.343,36.3335 C109.527,35.9145 109.612,35.1675 109.597,34.0915 C109.335,34.4895 109.02,34.7875 108.652,34.9815 C108.282,35.1775 107.795,35.2735 107.189,35.2735 C106.345,35.2735 105.606,34.9745 104.974,34.3715 C104.341,33.7705 104.024,32.7755 104.024,31.3885 C104.024,30.0785 104.343,29.0565 104.981,28.3205 C105.618,27.5855 106.389,27.2185 107.29,27.2185 Z M90.0953,24.1792 C91.1883,24.1792 92.1193,24.4502 92.8843,24.9932 C93.6493,25.5362 94.0323,26.4052 94.0323,27.5972 L92.6663,27.5972 C92.5963,27.0232 92.4463,26.5822 92.2183,26.2762 C91.7933,25.7162 91.0723,25.4362 90.0543,25.4362 C89.2323,25.4362 88.6413,25.6152 88.2823,25.9762 C87.9233,26.3362 87.7433,26.7552 87.7433,27.2322 C87.7433,27.7582 87.9553,28.1432 88.3803,28.3862 C88.6583,28.5422 89.2883,28.7372 90.2693,28.9712 L91.7273,29.3142 C92.4313,29.4802 92.9733,29.7062 93.3553,29.9932 C94.0163,30.4942 94.3463,31.2232 94.3463,32.1772 C94.3463,33.3652 93.9253,34.2152 93.0813,34.7262 C92.2383,35.2382 91.2593,35.4922 90.1433,35.4922 C88.8423,35.4922 87.8233,35.1532 87.0883,34.4702 C86.3503,33.7942 85.9903,32.8752 86.0053,31.7172 L87.3703,31.7172 C87.4033,32.3252 87.5423,32.8202 87.7863,33.1992 C88.2503,33.9102 89.0683,34.2662 90.2413,34.2662 C90.7663,34.2662 91.2453,34.1882 91.6773,34.0322 C92.5123,33.7312 92.9293,33.1902 92.9293,32.4102 C92.9293,31.8262 92.7523,31.4102 92.3983,31.1612 C92.0393,30.9182 91.4783,30.7062 90.7143,30.5272 L89.3063,30.1972 C88.3863,29.9842 87.7353,29.7472 87.3533,29.4892 C86.6923,29.0412 86.3633,28.3712 86.3633,27.4812 C86.3633,26.5172 86.6863,25.7252 87.3363,25.1072 C87.9853,24.4882 88.9053,24.1792 90.0953,24.1792 Z M129.2909,27.1304 C130.2929,27.1304 131.1389,27.4664 131.8299,28.1374 C132.5219,28.8094 132.8679,29.7964 132.8679,31.1004 C132.8679,32.3594 132.5629,33.4014 131.9539,34.2234 C131.3449,35.0454 130.3989,35.4564 129.1179,35.4564 C128.0489,35.4564 127.2009,35.0934 126.5729,34.3654 C125.9439,33.6394 125.6289,32.6614 125.6289,31.4364 C125.6289,30.1224 125.9599,29.0764 126.6229,28.2974 C127.2849,27.5194 128.1749,27.1304 129.2909,27.1304 Z M99.4506,27.181 C100.0026,27.181 100.5366,27.312 101.0546,27.573 C101.5726,27.832 101.9666,28.169 102.2386,28.583 C102.4996,28.978 102.6726,29.438 102.7606,29.964 C102.8376,30.325 102.8776,30.899 102.8776,31.688 L97.1876,31.688 C97.2116,32.484 97.3976,33.122 97.7456,33.603 C98.0926,34.084 98.6306,34.325 99.3616,34.325 C100.0426,34.325 100.5866,34.097 100.9926,33.642 C101.2186,33.378 101.3796,33.073 101.4746,32.725 L102.7676,32.725 C102.7336,33.012 102.6196,33.332 102.4276,33.686 C102.2356,34.039 102.0206,34.328 101.7846,34.551 C101.3876,34.941 100.8976,35.204 100.3126,35.34 C99.9986,35.417 99.6426,35.456 99.2476,35.456 C98.2796,35.456 97.4596,35.103 96.7866,34.394 C96.1136,33.686 95.7776,32.693 95.7776,31.417 C95.7776,30.162 96.1166,29.141 96.7946,28.358 C97.4706,27.574 98.3566,27.181 99.4506,27.181 Z M114.177,27.3569 L114.177,32.5499 C114.177,32.9489 114.239,33.2749 114.362,33.5289 C114.589,33.9959 115.014,34.2299 115.635,34.2299 C116.527,34.2299 117.133,33.8209 117.455,33.0029 C117.631,32.5639 117.719,31.9629 117.719,31.1989 L117.719,27.3569 L119.034,27.3569 L119.034,35.1789 L117.792,35.1789 L117.807,34.0249 C117.64,34.3229 117.431,34.5729 117.183,34.7779 C116.691,35.1869 116.094,35.3909 115.392,35.3909 C114.297,35.3909 113.552,35.0179 113.156,34.2739 C112.941,33.8749 112.833,33.3409 112.833,32.6739 L112.833,27.3569 L114.177,27.3569 Z M124.599,27.1809 C124.623,27.1809 124.665,27.1839 124.723,27.1879 C124.781,27.1939 124.882,27.2039 125.023,27.2179 L125.023,28.6059 C124.946,28.5909 124.873,28.5819 124.808,28.5769 C124.741,28.5719 124.669,28.5689 124.592,28.5689 C123.93,28.5689 123.42,28.7819 123.065,29.2089 C122.709,29.6339 122.532,30.1259 122.532,30.6799 L122.532,35.1789 L121.218,35.1789 L121.218,27.3569 L122.466,27.3569 L122.466,28.7079 C122.569,28.4449 122.82,28.1249 123.219,27.7479 C123.618,27.3699 124.077,27.1809 124.599,27.1809 Z M129.2559,28.2764 C128.4609,28.2764 127.8829,28.5834 127.5229,29.1964 C127.1609,29.8094 126.9809,30.5484 126.9809,31.4144 C126.9809,32.2454 127.1609,32.9394 127.5229,33.4934 C127.8829,34.0474 128.4559,34.3244 129.2409,34.3244 C130.1029,34.3244 130.6949,33.9954 131.0139,33.3364 C131.3339,32.6774 131.4939,31.9434 131.4939,31.1374 C131.4939,30.4064 131.3789,29.8144 131.1479,29.3574 C130.7829,28.6374 130.1509,28.2764 129.2559,28.2764 Z M107.533,28.3795 C106.613,28.3795 105.984,28.8125 105.644,29.6795 C105.465,30.1425 105.375,30.7485 105.375,31.4975 C105.375,32.3795 105.553,33.0505 105.909,33.5105 C106.265,33.9705 106.744,34.2005 107.345,34.2005 C108.284,34.2005 108.946,33.7745 109.328,32.9225 C109.541,32.4405 109.648,31.8785 109.648,31.2345 C109.648,30.2665 109.449,29.5475 109.052,29.0805 C108.655,28.6125 108.149,28.3795 107.533,28.3795 Z M34.1793,11.9612 C40.0043,11.9612 42.9163,13.7702 42.9163,17.3892 C42.9163,18.3792 42.6613,19.2912 42.1513,20.1242 C41.6423,20.9482 40.9353,21.6112 40.0333,22.1112 C41.2793,22.4632 42.2003,23.0802 42.7993,23.9642 C43.3963,24.8362 43.6963,25.9252 43.6963,27.2292 C43.6963,31.4852 40.6903,33.6132 34.6793,33.6132 L23.8093,33.6132 L23.8093,11.9612 L34.1793,11.9612 Z M14.989,11.9615 L22.756,33.6125 L15.652,33.6125 L14.842,30.7885 L7.782,30.7885 L7.002,33.6125 L1.27897692e-13,33.6125 L7.767,11.9615 L14.989,11.9615 Z M58.1775,11.9615 L65.9445,33.6125 L58.8405,33.6125 L58.0305,30.7885 L50.9705,30.7885 L50.1905,33.6125 L43.1885,33.6125 L50.9565,11.9615 L58.1775,11.9615 Z M99.3676,28.328 C98.7686,28.328 98.2666,28.545 97.8606,28.982 C97.4556,29.417 97.2406,29.972 97.2156,30.643 L101.5256,30.643 C101.4716,30.074 101.3486,29.619 101.1566,29.278 C100.7986,28.645 100.2036,28.328 99.3676,28.328 Z M33.3553,24.5812 L30.9143,24.5812 L30.9143,28.5522 L34.1943,28.5522 C36.0863,28.5522 37.0333,27.9062 37.0333,26.6112 C37.0333,25.7582 36.7283,25.2092 36.1213,24.9632 C35.5223,24.7092 34.6013,24.5812 33.3553,24.5812 Z M11.327,18.5655 L9.135,26.2875 L13.577,26.2875 L11.327,18.5655 Z M54.5155,18.5655 L52.3235,26.2875 L56.7655,26.2875 L54.5155,18.5655 Z M33.7233,17.0212 L30.9143,17.0212 L30.9143,20.6242 L33.8703,20.6242 C35.4593,20.6242 36.2533,19.9672 36.2533,18.6542 C36.2533,17.5662 35.4103,17.0212 33.7233,17.0212 Z M111.827,12.1714 C112.829,12.1714 113.675,12.5074 114.366,13.1784 C115.058,13.8504 115.404,14.8384 115.404,16.1424 C115.404,17.4014 115.099,18.4424 114.489,19.2654 C113.88,20.0874 112.935,20.4974 111.654,20.4974 C110.585,20.4974 109.737,20.1344 109.109,19.4064 C108.48,18.6804 108.165,17.7034 108.165,16.4774 C108.165,15.1634 108.496,14.1174 109.159,13.3394 C109.821,12.5614 110.711,12.1714 111.827,12.1714 Z M97.5373,12.3979 L97.5373,17.5909 C97.5373,17.9909 97.5993,18.3169 97.7233,18.5699 C97.9503,19.0379 98.3753,19.2709 98.9963,19.2709 C99.8873,19.2709 100.4943,18.8619 100.8163,18.0439 C100.9923,17.6059 101.0803,17.0039 101.0803,16.2399 L101.0803,12.3979 L102.3943,12.3979 L102.3943,20.2199 L101.1533,20.2199 L101.1673,19.0669 C101.0003,19.3639 100.7923,19.6139 100.5443,19.8189 C100.0523,20.2279 99.4553,20.4319 98.7523,20.4319 C97.6583,20.4319 96.9133,20.0599 96.5163,19.3149 C96.3013,18.9159 96.1933,18.3819 96.1933,17.7149 L96.1933,12.3979 L97.5373,12.3979 Z M106.1349,10.2143 L106.1349,12.3983 L107.3829,12.3983 L107.3829,13.4723 L106.1349,13.4723 L106.1349,18.5773 C106.1349,18.8503 106.2269,19.0323 106.4119,19.1253 C106.5149,19.1793 106.6849,19.2053 106.9239,19.2053 C106.9869,19.2053 107.0549,19.2033 107.1279,19.2003 C107.2009,19.1973 107.2859,19.1893 107.3829,19.1763 L107.3829,20.2203 C107.2329,20.2643 107.0769,20.2963 106.9119,20.3153 C106.7489,20.3343 106.5739,20.3453 106.3829,20.3453 C105.7699,20.3453 105.3539,20.1883 105.1339,19.8733 C104.9149,19.5593 104.8059,19.1523 104.8059,18.6513 L104.8059,13.4723 L103.7459,13.4723 L103.7459,12.3983 L104.8059,12.3983 L104.8059,10.2143 L106.1349,10.2143 Z M91.1921,9.4907 L95.0881,20.2197 L93.4951,20.2197 L92.3751,17.0067 L88.1651,17.0067 L87.0021,20.2197 L85.5121,20.2197 L89.5531,9.4907 L91.1921,9.4907 Z M111.791,13.3184 C110.997,13.3184 110.419,13.6244 110.058,14.2374 C109.697,14.8504 109.516,15.5904 109.516,16.4554 C109.516,17.2874 109.697,17.9804 110.058,18.5344 C110.419,19.0884 110.992,19.3654 111.777,19.3654 C112.639,19.3654 113.23,19.0364 113.55,18.3774 C113.87,17.7184 114.03,16.9854 114.03,16.1784 C114.03,15.4484 113.915,14.8554 113.684,14.3984 C113.318,13.6784 112.687,13.3184 111.791,13.3184 Z M90.3111,11.0837 L88.5941,15.8237 L91.9631,15.8237 L90.3111,11.0837 Z" id="Combined-Shape"></path>
            </g>
        </g>
    </g>
</svg>