<?xml version="1.0" encoding="UTF-8"?>
<svg width="75px" height="32px" viewBox="0 0 75 32" version="1.1" xmlns="http://www.w3.org/2000/svg" xmlns:xlink="http://www.w3.org/1999/xlink">
    <title>28918BF6-EBBF-4A5F-A094-A9C09EF11E62</title>
    <g id="logos-aseguradoras" stroke="none" stroke-width="1" fill="none" fill-rule="evenodd">
        <g id="logos-variantes" transform="translate(-807.000000, -154.000000)">
            <g id="logo-seguros-argos" transform="translate(807.000000, 154.000000)">
                <path d="M30.3721354,24.6257231 L28.3438277,24.6257231 L22.9693046,18.6249846 L18.9702892,18.6249846 L18.9702892,24.6257231 L17.3279508,24.6257231 L17.3279508,11.0710154 L22.1112123,11.0710154 C22.8516431,11.0710154 23.46752,11.0729846 23.9583508,11.0808615 C24.4491815,11.0862769 24.86912,11.1000615 25.21472,11.1182769 C25.5617969,11.1384615 25.8591508,11.1660308 26.1077662,11.2059077 C26.3588431,11.2443077 26.6192738,11.3009231 26.8934892,11.3777231 C27.5837046,11.5692308 28.1341046,11.8345846 28.53632,12.1737846 C28.9390277,12.5115077 29.24032,12.8615385 29.4421662,13.2189538 C29.6430277,13.5778462 29.7680738,13.9150769 29.81632,14.2345846 C29.8645662,14.5550769 29.8886892,14.7963077 29.8886892,14.9641846 C29.8886892,15.3211077 29.8453662,15.6381538 29.7557662,15.9123692 C29.6676431,16.1875692 29.5583508,16.4307692 29.4308431,16.6424615 C29.2993969,16.8521846 29.1654892,17.0343385 29.0197662,17.1884308 C28.87552,17.3400615 28.7371815,17.4690462 28.6081969,17.5704615 C28.3014892,17.8008615 27.9765662,17.9825231 27.6319508,18.1193846 C27.2848738,18.2518154 26.94272,18.3547077 26.6040123,18.4241231 C26.2653046,18.4950154 25.9433354,18.5422769 25.6376123,18.5683692 C25.3309046,18.5929846 25.0655508,18.6131692 24.8400738,18.6249846 L30.3721354,24.6257231 Z M18.9702892,17.5143385 L22.9693046,17.5143385 C23.5339815,17.5143385 24.0592738,17.5089231 24.5481354,17.4941538 C25.0389662,17.4818462 25.4677662,17.4429538 25.8365046,17.3799385 C26.2864738,17.3016615 26.6685046,17.1844923 26.9806277,17.0249846 C27.2961969,16.8654769 27.5467815,16.6729846 27.7402585,16.4489846 C27.9327508,16.2269538 28.0730585,15.9788308 28.1621662,15.7105231 C28.2507815,15.4422154 28.2950892,15.1739077 28.2950892,14.9046154 C28.2950892,14.2414769 28.0893046,13.6787692 27.6792123,13.2189538 C27.2701046,12.7586462 26.6478277,12.4578462 25.8123815,12.3170462 C25.6848738,12.3047385 25.5677046,12.2924308 25.4628431,12.2796308 C25.3604431,12.2663385 25.2107815,12.2574769 25.0187815,12.2500923 C24.8253046,12.2441846 24.5688123,12.2368 24.2463508,12.2308923 C23.9268431,12.224 23.5000123,12.2210462 22.9693046,12.2210462 L18.9702892,12.2210462 L18.9702892,17.5143385 Z" id="Fill-2" fill="#068948"></path>
                <path d="M44.5509415,24.3201969 L43.1739569,24.3201969 L43.1739569,22.1087508 C43.1242338,22.2086892 43.0538338,22.3440738 42.9558646,22.5114585 C42.85888,22.6817969 42.7230031,22.8614892 42.5433108,23.0559508 C42.3675569,23.24992 42.1406031,23.4424123 41.8663877,23.6373662 C41.59168,23.8298585 41.2529723,24.0075815 40.8502646,24.1710277 C40.04288,24.4949662 39.0912492,24.65792 37.9943877,24.65792 C36.8158031,24.65792 35.7765415,24.4806892 34.87168,24.1326277 C33.96928,23.7825969 33.2111262,23.2991508 32.5967262,22.6817969 C31.9847877,22.0634585 31.5210338,21.3382892 31.2059569,20.5067815 C30.89088,19.6747815 30.7353108,18.7797662 30.7353108,17.81632 C30.7353108,16.7933046 30.8997415,15.8500431 31.23008,14.98752 C31.5589415,14.1259815 32.0507569,13.3816123 32.70208,12.7588431 C33.3543877,12.1336123 34.1504492,11.6432738 35.0946954,11.2863508 C36.0354954,10.9309046 37.1279262,10.7517046 38.3690338,10.7517046 C39.4619569,10.7517046 40.3801108,10.8767508 41.1205415,11.1278277 C41.86048,11.37792 42.4689723,11.6777354 42.9445415,12.0267815 C43.4181415,12.3758277 43.7888492,12.7421046 44.0537108,13.1221662 C44.3210338,13.5037046 44.5282954,13.8315815 44.6715569,14.1077662 L43.1739569,14.74432 C43.1242338,14.6074585 43.0277415,14.3760738 42.8825108,14.0501662 C42.7377723,13.72672 42.4921108,13.3978585 42.1445415,13.0655508 C41.7974646,12.7357046 41.33568,12.4472123 40.7522954,12.1951508 C40.1703877,11.9450585 39.4215877,11.8200123 38.5029415,11.8200123 C37.6281108,11.8200123 36.8226954,11.9558892 36.0807877,12.2241969 C35.3378954,12.4925046 34.6954338,12.8799508 34.15488,13.3855508 C33.6153108,13.8911508 33.1958646,14.5104738 32.8975262,15.2415508 C32.6001723,15.9711508 32.4480492,16.8065969 32.4480492,17.7434585 C32.4480492,18.5921969 32.5691569,19.3700431 32.8123569,20.0760123 C33.0535877,20.7824738 33.4080492,21.3953969 33.8762338,21.91232 C34.3458954,22.4317046 34.9337108,22.8334277 35.6450954,23.1209354 C36.3545108,23.4074585 37.1697723,23.5536738 38.0903877,23.5536738 C39.1055262,23.5536738 39.9503262,23.3902277 40.6198646,23.0662892 C41.29088,22.7413662 41.8132185,22.3297969 42.1937723,21.8281354 C42.5728492,21.3279508 42.8357415,20.7883815 42.9814646,20.2074585 C43.1242338,19.6250585 43.1882338,19.1499815 43.1739569,18.6251815 L36.8926031,18.6251815 L36.8926031,17.48352 L44.5509415,17.48352 L44.5509415,24.3201969 Z" id="Fill-4" fill="#068948"></path>
                <path d="M60.8305231,17.61152 C60.8305231,18.1240123 60.7783385,18.6296123 60.6734769,19.1288123 C60.5681231,19.6289969 60.4278154,20.1055508 60.2515692,20.5633969 C60.0728615,21.0202585 59.8464,21.4500431 59.5741538,21.8557046 C59.3009231,22.2623508 58.9937231,22.6222277 58.6550154,22.9333662 C58.2390154,23.3085046 57.8033231,23.6102892 57.3518769,23.8421662 C56.9004308,24.0750277 56.4494769,24.2488123 56.0009846,24.3684431 C55.5485538,24.4865969 55.1153231,24.5643815 54.6934154,24.6017969 C54.2754462,24.6392123 53.8899692,24.6574277 53.536,24.6574277 C52.4745846,24.6574277 51.5086769,24.5200738 50.6481231,24.2443815 C49.7880615,23.9711508 49.0023385,23.5078892 48.2939077,22.8585354 C47.6814769,22.3086277 47.1709538,21.6036431 46.7598769,20.7401354 C46.3488,19.8795815 46.1435077,18.8614892 46.1435077,17.6873354 C46.1435077,16.7741046 46.2936615,15.9007508 46.5910154,15.0613662 C46.8883692,14.22592 47.3383385,13.4884431 47.9433846,12.8509046 C48.5469538,12.2133662 49.3110154,11.7057969 50.2360615,11.3247508 C51.1640615,10.9432123 52.2643692,10.7517046 53.536,10.7517046 C54.9533538,10.7517046 56.1284923,10.96832 57.0638769,11.4000738 C57.9958154,11.8308431 58.7465846,12.3817354 59.3088,13.0576738 C59.8715077,13.7306585 60.2668308,14.4730585 60.4908308,15.2789662 C60.7182769,16.0843815 60.8305231,16.8622277 60.8305231,17.61152 M59.0921846,17.63072 C59.0921846,17.0315815 59.0055385,16.3910892 58.8381538,15.7087508 C58.6683077,15.0288738 58.3689846,14.4036431 57.9436308,13.8345354 C57.5163077,13.2673969 56.9447385,12.79232 56.2294154,12.4112738 C55.5106462,12.0297354 54.6131692,11.8392123 53.536,11.8392123 C52.4386462,11.8392123 51.5303385,12.0267815 50.8056615,12.40192 C50.08,12.7760738 49.5025231,13.2516431 49.0673231,13.8266585 C48.6311385,14.4001969 48.3204923,15.0318277 48.1358769,15.7190892 C47.9532308,16.4068431 47.8582154,17.0670277 47.8582154,17.7055508 C47.8582154,18.3165046 47.9483077,18.96832 48.1255385,19.6536123 C48.3017846,20.3413662 48.6045538,20.9720123 49.0299077,21.5470277 C49.4572308,22.1230277 50.0283077,22.5961354 50.7456,22.9712738 C51.4624,23.34592 52.3687385,23.53152 53.4641231,23.53152 C54.3320615,23.53152 55.0774154,23.4104123 55.6967385,23.1672123 C56.3165538,22.9249969 56.8359385,22.6133662 57.2563692,22.2392123 C57.6738462,21.8655508 58.0036923,21.4480738 58.2454154,20.9838277 C58.4871385,20.5220431 58.6722462,20.0730585 58.8017231,19.6353969 C58.9297231,19.1982277 59.0099692,18.7989662 59.0439385,18.4366277 C59.0744615,18.0747815 59.0921846,17.8049969 59.0921846,17.63072" id="Fill-6" fill="#068948"></path>
                <path d="M72.5216492,14.2932677 C72.4389415,14.1189908 72.3478646,13.9299446 72.2434954,13.7221908 C72.1386338,13.5183754 71.9894646,13.3135754 71.7959877,13.1136985 C71.3785108,12.6519138 70.8418954,12.3141908 70.1895877,12.1020062 C69.53728,11.8893292 68.83968,11.7824985 68.0992492,11.7824985 C67.6330338,11.7824985 67.16288,11.8228677 66.6858338,11.9055754 C66.2117415,11.9872985 65.7819569,12.1202215 65.3959877,12.3077908 C65.0105108,12.49536 64.6939569,12.7395446 64.4517415,13.0373908 C64.21248,13.3386831 64.0913723,13.7069292 64.0913723,14.1440985 C64.0913723,14.5443446 64.1952492,14.8776369 64.4034954,15.1469292 C64.6132185,15.4162215 64.8672492,15.6382523 65.16608,15.8125292 C65.4639262,15.9882831 65.7760492,16.1251446 66.1073723,16.2250831 C66.4372185,16.3250215 66.7242338,16.3998523 66.9639877,16.4500677 C67.0786954,16.47616 67.3002338,16.52096 67.6295877,16.5884062 C67.9584492,16.6588062 68.3094646,16.7296985 68.6782031,16.8064985 C69.0498954,16.8808369 69.3999262,16.9546831 69.7317415,17.0314831 C70.0596185,17.1058215 70.2910031,17.1614523 70.4194954,17.1988677 C70.6454646,17.2613908 70.97728,17.3578831 71.4223262,17.4893292 C71.8639262,17.6212677 72.3055262,17.82016 72.7382646,18.0894523 C73.1719877,18.3587446 73.5520492,18.7058215 73.8735262,19.1287138 C74.1945108,19.5540677 74.3574646,20.0788677 74.3574646,20.7036062 C74.3574646,21.1663754 74.2270031,21.6316062 73.9700185,22.0988062 C73.7115569,22.5684677 73.3206646,22.9923446 72.7988185,23.3748677 C72.2750031,23.7549292 71.6128492,24.0645908 70.8197415,24.3018831 C70.0212185,24.5391754 69.0740185,24.6578215 67.9806031,24.6578215 C67.0629415,24.6578215 66.2757415,24.5800369 65.6224492,24.4229908 C64.9721108,24.2674215 64.4212185,24.0759138 63.9697723,23.8509292 C63.31008,23.5141908 62.7946338,23.1055754 62.4234338,22.6250831 C62.0532185,22.1431138 61.7967262,21.59616 61.6490338,20.9837292 L63.2682338,20.32896 C63.2864492,20.5903754 63.3179569,20.8527754 63.3662031,21.1151754 C63.4144492,21.3790523 63.5183262,21.6276677 63.6802954,21.8654523 C63.8727877,22.1790523 64.1233723,22.4414523 64.4290954,22.6526523 C64.7348185,22.8643446 65.0769723,23.0405908 65.4560492,23.1779446 C65.8326646,23.3152985 66.2388185,23.4152369 66.6754954,23.4767754 C67.1087262,23.5402831 67.5454031,23.5703138 67.9806031,23.5703138 C68.8002954,23.5703138 69.5102031,23.4885908 70.1058954,23.3271138 C70.7006031,23.1646523 71.1914338,22.95296 71.5778954,22.69056 C71.9653415,22.4276677 72.2498954,22.1278523 72.4379569,21.7906215 C72.6215877,21.4538831 72.7136492,21.1087754 72.7136492,20.7597292 C72.7136492,20.2866215 72.59648,19.9036062 72.3641108,19.6165908 C72.1307569,19.33056 71.9008492,19.1183754 71.67488,18.9800369 C71.4818954,18.8549908 71.2687262,18.7461908 71.03488,18.65216 C70.8020185,18.5566523 70.5282954,18.4700062 70.2142031,18.3882831 C69.9010954,18.3085292 69.53728,18.2238523 69.12768,18.1357292 C68.7156185,18.0490831 68.2297108,17.94816 67.6665108,17.8354215 C67.0550646,17.71136 66.44608,17.5680985 65.8405415,17.4046523 C65.2384492,17.2431754 64.68608,17.0280369 64.1863877,16.7587446 C63.6886646,16.4914215 63.2864492,16.14976 62.9787569,15.7386831 C62.6725415,15.32416 62.5204185,14.8136369 62.5204185,14.2016985 C62.5204185,13.5518523 62.6897723,13.0048985 63.0274954,12.5613292 C63.3662031,12.1182523 63.8043569,11.7613292 64.3439262,11.4925292 C64.8834954,11.2242215 65.4875569,11.0336985 66.1556185,10.9199754 C66.8231877,10.8087138 67.48928,10.7520985 68.1494646,10.7520985 C69.2433723,10.7520985 70.1457723,10.8672985 70.8527262,11.10016 C71.5621415,11.33056 72.13568,11.6047754 72.5689108,11.9232985 C73.0036185,12.2413292 73.3300185,12.5632985 73.5486031,12.8901908 C73.7627569,13.2136369 73.9232492,13.4701292 74.0177723,13.6576985 L72.5216492,14.2932677 Z" id="Fill-8" fill="#068948"></path>
                <path d="M5.85915077,0.163446154 L6.37361231,0.163446154 C8.33348923,0.362338462 9.90592,2.35963077 8.95330462,4.32984615 C8.39305846,5.48578462 6.86985846,6.44529231 5.25065846,5.91261538 C4.41619692,5.6384 3.81902769,4.97673846 3.51527385,4.28258462 C2.64093538,2.28381538 3.99330462,0.350030769 5.85915077,0.163446154" id="Fill-10" fill="#068948"></path>
                <path d="M0.656246154,31.6297846 C0.288492308,31.2674462 0.303261538,30.6564923 0.2816,30.1356308 C0.0964923077,25.8845538 0.695138462,22.0219077 1.35975385,18.3645538 C1.71963077,16.3825231 2.17206154,14.3473231 2.81353846,12.4327385 C3.42547692,10.6018462 4.37809231,7.69132308 6.37341538,7.45501538 C7.16898462,7.35753846 7.90646154,7.56824615 8.43815385,7.86166154 C10.6422154,9.07027692 12.0669538,12.2180923 12.9846154,15.0144 C13.6876308,17.1579077 14.3113846,19.4673231 14.3443692,22.3488 C14.3542154,23.3270154 14.2483692,24.5843692 13.7796923,24.6577231 C13.2499692,24.7394462 12.8713846,23.6430769 12.7030154,23.2078769 C11.5076923,20.1521231 10.9169231,16.8334769 9.70387692,13.7905231 C9.38535385,12.9949538 8.64541538,10.9769846 7.5456,10.9405538 C6.71015385,10.9105231 6.12578462,11.9665231 5.76590769,12.6587077 C4.60504615,14.9026462 3.98178462,17.9460923 3.42203077,20.6276923 C2.82732308,23.4825846 2.3552,26.4231385 1.68812308,29.2307692 C1.48184615,30.0923077 1.31495385,31.0636308 0.656246154,31.6297846" id="Fill-12" fill="#068948"></path>
                <path d="M4.04376615,20.6499938 C4.04376615,20.6499938 6.20204308,18.5212554 9.66198154,18.1584246 C12.5183508,17.8605785 8.78665846,17.0674708 6.81496615,17.7586708 C5.26813538,18.3011938 3.82321231,19.02784 4.04376615,20.6499938" id="Fill-14" fill="#D23D44"></path>
                <path d="M27.9427938,4.75864615 C27.9925169,4.84726154 28.0589785,4.94916923 28.1431631,5.06338462 C28.2273477,5.17907692 28.3819323,5.28738462 28.6069169,5.38830769 C28.8240246,5.49710769 29.0908554,5.57292308 29.4069169,5.61723077 C29.7224862,5.66153846 30.0139323,5.68270769 30.2807631,5.68270769 C30.6805169,5.68270769 31.0561477,5.63938462 31.4071631,5.55076923 C31.7586708,5.46363077 32.0146708,5.32775385 32.17664,5.14510769 C32.2327631,5.08356923 32.2775631,5.01267692 32.3130092,4.93193846 C32.3484554,4.85070769 32.3651938,4.76553846 32.3651938,4.67790769 C32.3651938,4.62424615 32.3533785,4.55581538 32.3287631,4.47409231 C32.3041477,4.39335385 32.2495015,4.31556923 32.1658092,4.24123077 C32.0594708,4.14621538 31.9196554,4.08172308 31.7448862,4.04824615 C31.56864,4.01427692 31.3229785,3.98769231 31.0069169,3.96750769 C30.8040862,3.95273846 30.6056862,3.94141538 30.4131938,3.93156923 C30.2197169,3.92123077 30.0218092,3.90941538 29.8179938,3.89612308 C29.4728862,3.88184615 29.17504,3.86707692 28.9224862,3.84984615 C28.6704246,3.8336 28.44544,3.78732308 28.2485169,3.71249231 C28.1495631,3.67212308 28.0525785,3.62092308 27.9541169,3.56036923 C27.8551631,3.49981538 27.7680246,3.42301538 27.6907323,3.33292308 C27.61344,3.24036923 27.5484554,3.13255385 27.4962708,3.00750769 C27.4431015,2.88147692 27.4170092,2.73821538 27.4170092,2.57476923 C27.4170092,2.48073846 27.4283323,2.37390769 27.4539323,2.25575385 C27.4780554,2.1376 27.5223631,2.02043077 27.5848862,1.90572308 C27.6552862,1.78363077 27.7379938,1.67975385 27.8325169,1.59507692 C27.92704,1.5104 28.0225477,1.44147692 28.1170708,1.38732308 C28.2120862,1.33366154 28.2997169,1.28935385 28.3809477,1.25489231 C28.4607015,1.22092308 28.52864,1.19827692 28.5852554,1.18350769 C28.8387938,1.10966154 29.1016862,1.06043077 29.3754092,1.03630769 C29.6491323,1.01366154 29.8834708,1.00086154 30.0808862,1.00086154 C30.25024,1.00086154 30.4264862,1.00578462 30.6125785,1.01612308 C30.7986708,1.02695385 30.9832862,1.04713846 31.1649477,1.07766154 C31.3475938,1.10769231 31.5248246,1.14707692 31.69664,1.19433846 C31.8689477,1.24209231 32.0250092,1.30018462 32.1658092,1.36713846 C32.4114708,1.50301538 32.5901785,1.64627692 32.7029169,1.79790769 C32.8146708,1.95101538 32.8988554,2.07803077 32.9549785,2.17993846 L32.1859938,2.33156923 C32.1579323,2.27790769 32.1210092,2.21735385 32.0762092,2.14990769 C32.0304246,2.08344615 31.9516554,2.01649231 31.8394092,1.95003077 C31.7187938,1.87667692 31.5809477,1.81710769 31.4229169,1.77033846 C31.2658708,1.72307692 31.1034092,1.68861538 30.9394708,1.66547692 C30.7740554,1.64233846 30.6125785,1.62609231 30.4545477,1.61526154 C30.2970092,1.60590769 30.1621169,1.60098462 30.0493785,1.60098462 C29.9651938,1.60098462 29.8593477,1.60393846 29.7333169,1.61033846 C29.6072862,1.61723077 29.4714092,1.63052308 29.3276554,1.65169231 C29.1839015,1.67187692 29.0416246,1.70190769 28.9008246,1.74227692 C28.7610092,1.78363077 28.6379323,1.83630769 28.5325785,1.90473846 C28.4346092,1.96529231 28.3592862,2.02781538 28.3061169,2.09230769 C28.2544246,2.1568 28.21504,2.21735385 28.1899323,2.27495385 C28.1663015,2.33156923 28.1525169,2.38276923 28.1490708,2.42707692 C28.1451323,2.4704 28.1431631,2.49895385 28.1431631,2.51273846 C28.1431631,2.66830769 28.1963323,2.80270769 28.3011938,2.9184 C28.4001477,3.01932308 28.5311015,3.08578462 28.6960246,3.11532308 C28.8604554,3.14633846 29.1159631,3.17095385 29.4595938,3.19113846 C29.71904,3.20492308 29.9784862,3.21723077 30.2384246,3.22707692 C30.4978708,3.23741538 30.7587938,3.25267692 31.0177477,3.27286154 C31.3333169,3.29993846 31.5760246,3.33095385 31.7448862,3.36344615 C31.9127631,3.39692308 32.0491323,3.43187692 32.1544862,3.46535385 C32.4843323,3.58055385 32.7201477,3.75089231 32.8604554,3.97686154 C33.0007631,4.20283077 33.0701785,4.43175385 33.0701785,4.66067692 C33.0701785,4.78916923 33.0539323,4.91076923 33.0175015,5.02596923 C32.9825477,5.14116923 32.9377477,5.24504615 32.8811323,5.34055385 C32.8250092,5.43458462 32.7605169,5.51926154 32.6866708,5.59310769 C32.6123323,5.66744615 32.5306092,5.73538462 32.43904,5.79593846 C32.1731938,5.97907692 31.8561477,6.10461538 31.4923323,6.176 C31.1260554,6.24689231 30.7400862,6.28283077 30.3324554,6.28283077 C30.0247631,6.28283077 29.7047631,6.2656 29.3754092,6.23163077 C29.0455631,6.19815385 28.7344246,6.13366154 28.4439631,6.03864615 C28.1525169,5.94412308 27.8940554,5.80676923 27.6695631,5.62707692 C27.4445785,5.44787692 27.28704,5.21550769 27.1954708,4.93193846 L27.9427938,4.75864615 Z" id="Fill-16" fill="#DE413A"></path>
                <path d="M40.0615385,4.77981538 C39.9645538,4.91421538 39.8286769,5.07864615 39.6563692,5.27113846 C39.4840615,5.46412308 39.2512,5.64627692 38.9568,5.81563077 C38.6614154,5.98350769 38.3478154,6.10461538 38.0145231,6.176 C37.6802462,6.24738462 37.3700923,6.28283077 37.0820923,6.28283077 C36.6331077,6.28283077 36.2171077,6.21243077 35.8350769,6.07409231 C35.4520615,5.93526154 35.1222154,5.74424615 34.8445538,5.50006154 C34.5683692,5.25686154 34.3497846,4.96738462 34.1922462,4.63261538 C34.0337231,4.29686154 33.9559385,3.9296 33.9559385,3.53083077 C33.9559385,3.14436923 34.0248615,2.80566154 34.1656615,2.51421538 C34.3059692,2.22375385 34.4713846,1.98350769 34.6604308,1.79298462 C34.8992,1.56356923 35.2152615,1.37009231 35.6081231,1.21452308 C36.0024615,1.05846154 36.4366769,0.980676923 36.9137231,0.980676923 C37.0540308,0.980676923 37.2194462,0.991015385 37.4089846,1.0112 C37.5985231,1.03187692 37.7959385,1.07372308 38.0032,1.13870769 C38.2109538,1.20270769 38.4206769,1.29033846 38.6353231,1.4016 C38.8499692,1.51433846 39.0503385,1.66153846 39.2413538,1.84418462 C39.4161231,2.01353846 39.5564308,2.18486154 39.6617846,2.35667692 C39.7666462,2.52947692 39.8473846,2.69686154 39.9035077,2.85932308 C39.9601231,3.02178462 39.9970462,3.17587692 40.0142769,3.32209231 C40.0315077,3.46732308 40.0482462,3.59778462 40.0615385,3.71249231 L34.6825846,3.71249231 C34.7022769,4.04529231 34.7869538,4.33526154 34.9336615,4.58633846 C35.0818462,4.83643077 35.2674462,5.04516923 35.4929231,5.21058462 C35.7174154,5.37698462 35.9724308,5.50006154 36.2609231,5.58178462 C36.5489231,5.66252308 36.8433231,5.70289231 37.1451077,5.70289231 C37.2356923,5.70289231 37.3262769,5.69993846 37.4144,5.69353846 C37.5015385,5.68664615 37.5842462,5.6768 37.6615385,5.66252308 C37.8648615,5.62855385 38.0455385,5.57981538 38.2040615,5.51532308 C38.3611077,5.45083077 38.4999385,5.38338462 38.6195692,5.31249231 C38.7387077,5.24110769 38.8386462,5.17218462 38.9198769,5.10375385 C39.0006154,5.0368 39.0651077,4.97575385 39.1143385,4.92209231 C39.2196923,4.81329231 39.2984615,4.72024615 39.3511385,4.64196923 C39.4033231,4.56467692 39.4555077,4.48443077 39.5037538,4.40369231 L40.0615385,4.77981538 Z M39.2196923,3.15470769 C39.1985231,3.07298462 39.1704615,2.98141538 39.136,2.87950769 C39.0995692,2.77858462 39.0503385,2.67470769 38.9878154,2.57033846 C38.9252923,2.46547692 38.8406154,2.35864615 38.7357538,2.25083077 C38.6299077,2.14203077 38.4999385,2.03667692 38.3458462,1.93526154 C38.1912615,1.84123077 37.9982769,1.75064615 37.7673846,1.66646154 C37.5355077,1.58178462 37.2401231,1.53944615 36.8832,1.53944615 C36.7556923,1.53944615 36.6208,1.54781538 36.4765538,1.56504615 C36.3332923,1.58178462 36.1875692,1.61427692 36.0398769,1.66153846 C35.8926769,1.70830769 35.7449846,1.77772308 35.5982769,1.87027692 C35.4505846,1.96135385 35.3102769,2.07753846 35.1763692,2.22030769 C34.9942154,2.41624615 34.8731077,2.60086154 34.8135385,2.77316923 C34.7539692,2.94596923 34.7170462,3.07298462 34.7022769,3.15470769 L39.2196923,3.15470769 Z" id="Fill-18" fill="#DE413A"></path>
                <path d="M41.9988185,6.52598154 C42.0057108,6.58653538 42.0165415,6.65496615 42.0308185,6.72881231 C42.0441108,6.80364308 42.0726646,6.87699692 42.1154954,6.94788923 C42.1568492,7.01927385 42.2164185,7.08918154 42.2932185,7.16056615 C42.3710031,7.23195077 42.4763569,7.29792 42.60928,7.35847385 C42.7845415,7.43379692 43.0011569,7.49041231 43.2571569,7.53176615 C43.5126646,7.57213538 43.7568492,7.59232 43.9887262,7.59232 C44.0167877,7.59232 44.1049108,7.59035077 44.2521108,7.58739692 C44.3988185,7.58345846 44.5691569,7.56918154 44.7636185,7.54112 C44.9551262,7.51453538 45.1540185,7.47121231 45.3573415,7.40967385 C45.5611569,7.34912 45.7300185,7.26345846 45.8634338,7.15564308 C45.9751877,7.06062769 46.0638031,6.95084308 46.1268185,6.82579692 C46.1898338,6.69976615 46.2351262,6.56339692 46.2626954,6.41422769 C46.2912492,6.26555077 46.3065108,6.10456615 46.3099569,5.93176615 C46.3143877,5.75945846 46.3153723,5.57090462 46.3153723,5.36807385 C46.2247877,5.47687385 46.1278031,5.57779692 46.02688,5.67281231 C45.9239877,5.76733538 45.7723569,5.86235077 45.5680492,5.95785846 C45.3017108,6.07995077 45.0265108,6.16708923 44.7419569,6.22222769 C44.4569108,6.27588923 44.1703877,6.30198154 43.8843569,6.30198154 C43.4836185,6.30198154 43.1030646,6.24733538 42.7407262,6.13558154 C42.3798646,6.02382769 42.0618338,5.85595077 41.7890954,5.63244308 C41.51488,5.40844308 41.2992492,5.12979692 41.1402338,4.79404308 C40.9826954,4.45976615 40.9049108,4.06838154 40.9049108,3.62136615 C40.9049108,3.21521231 40.9826954,2.84992 41.1402338,2.52499692 C41.2992492,2.20007385 41.5168492,1.92388923 41.7930338,1.69693538 C42.0711877,1.46998154 42.4010338,1.29422769 42.7835569,1.16918154 C43.1665723,1.04413538 43.5776492,0.980627692 44.0202338,0.980627692 C44.1398646,0.980627692 44.2929723,0.989489231 44.4790646,1.00573538 C44.6641723,1.02296615 44.8650338,1.06235077 45.0786954,1.12290462 C45.2928492,1.18345846 45.5065108,1.27404308 45.7206646,1.39219692 C45.9353108,1.51035077 46.1337108,1.67232 46.3153723,1.87515077 L46.3153723,1.14308923 L46.9790031,1.14308923 L46.9790031,5.64228923 C46.9790031,5.82493538 46.97408,6.01447385 46.9642338,6.21139692 C46.9524185,6.40782769 46.9184492,6.59982769 46.85888,6.79035077 C46.7983262,6.97988923 46.7038031,7.16056615 46.5733415,7.33385846 C46.4443569,7.50567385 46.2597415,7.65681231 46.0209723,7.78579692 C45.8590031,7.87982769 45.6798031,7.95268923 45.4848492,8.00388923 C45.2869415,8.05459692 45.0959262,8.09496615 44.9103262,8.12598154 C44.7237415,8.15650462 44.5534031,8.17521231 44.3988185,8.18161231 C44.2452185,8.18850462 44.1265723,8.19145846 44.0418954,8.19145846 C43.8592492,8.19145846 43.63968,8.17964308 43.38368,8.15650462 C43.1266954,8.13287385 42.8834954,8.08955077 42.6521108,8.02899692 C42.5255877,7.99502769 42.3882338,7.94825846 42.2410338,7.88672 C42.0938338,7.82616615 41.9530338,7.73952 41.8201108,7.62776615 C41.6866954,7.51650462 41.5690338,7.37028923 41.4671262,7.19108923 C41.3647262,7.01139692 41.3007262,6.79035077 41.2726646,6.52598154 L41.9988185,6.52598154 Z M43.9572185,1.53939692 C43.6347569,1.55268923 43.3329723,1.60782769 43.0523569,1.70284308 C42.7717415,1.79687385 42.5275569,1.93472 42.3202954,2.11441231 C42.1130338,2.29508923 41.9495877,2.51072 41.8304492,2.76130462 C41.7113108,3.01238154 41.6512492,3.29792 41.6512492,3.61644308 C41.6512492,3.92216615 41.7078646,4.20179692 41.8201108,4.45681231 C41.9323569,4.71133538 42.0903877,4.93188923 42.2932185,5.11847385 C42.4970338,5.30456615 42.7426954,5.44881231 43.0306954,5.55072 C43.3177108,5.65262769 43.6411569,5.70284308 43.9990646,5.70284308 C44.4347569,5.70284308 44.8138338,5.63539692 45.1367877,5.50001231 C45.4597415,5.36462769 45.7058954,5.20462769 45.8727877,5.02099692 C46.0421415,4.82505846 46.1593108,4.60598154 46.2267569,4.36425846 C46.2937108,4.12401231 46.3257108,3.87392 46.3257108,3.61644308 C46.3257108,3.44708923 46.3060185,3.23638154 46.2626954,2.98579692 C46.2213415,2.73373538 46.1223877,2.50382769 45.9682954,2.29312 C45.8004185,2.06912 45.5326031,1.88352 45.1682954,1.73828923 C44.8039877,1.59207385 44.3988185,1.52610462 43.9572185,1.53939692 L43.9572185,1.53939692 Z" id="Fill-20" fill="#DE413A"></path>
                <path d="M53.7495138,1.13363692 L54.4333292,1.13363692 L54.4333292,6.16059077 L53.7495138,6.16059077 L53.7495138,5.43000615 C53.6717292,5.49696 53.5678523,5.57966769 53.4383754,5.67763692 C53.3084062,5.77609846 53.1405292,5.87111385 52.9332677,5.96268308 C52.7260062,6.05376 52.47936,6.13154462 52.1903754,6.19603692 C51.9023754,6.26052923 51.5661292,6.29252923 51.18016,6.29252923 C51.0679138,6.29252923 50.8832985,6.28268308 50.6263138,6.26151385 C50.3717908,6.24132923 50.09216,6.18372923 49.7888985,6.08920615 C49.4112985,5.96711385 49.1301908,5.79726769 48.9480369,5.57572923 C48.7648985,5.35665231 48.6403446,5.12969846 48.5738831,4.89634462 C48.5074215,4.66249846 48.4734523,4.44637538 48.4734523,4.24600615 C48.4734523,4.04612923 48.4700062,3.90976 48.4636062,3.83443692 L48.4636062,1.13363692 L49.1479138,1.13363692 L49.1479138,3.88563692 C49.1479138,3.97326769 49.1488985,4.07025231 49.1523446,4.17511385 C49.1557908,4.27997538 49.1690831,4.38828308 49.18976,4.50003692 C49.2109292,4.61129846 49.2448985,4.72206769 49.2911754,4.82988308 C49.3359754,4.93868308 49.40096,5.04059077 49.4861292,5.13462154 C49.5978831,5.26360615 49.7879138,5.38569846 50.0552369,5.49991385 C50.3230523,5.61560615 50.6986831,5.67320615 51.1845908,5.67320615 C51.3317908,5.67320615 51.4952369,5.66434462 51.6749292,5.64711385 C51.8541292,5.63086769 52.03776,5.60182154 52.2228677,5.56145231 C52.4099446,5.52009846 52.5906215,5.46643692 52.7683446,5.39899077 C52.9431138,5.33056 53.1006523,5.24637538 53.2419446,5.14496 C53.3684677,5.05683692 53.4644677,4.97216 53.5274831,4.89142154 C53.5904985,4.80969846 53.63776,4.72896 53.6687754,4.64723692 C53.70176,4.56649846 53.7204677,4.48379077 53.72736,4.39812923 C53.7347446,4.31443692 53.7426215,4.22385231 53.7495138,4.12982154 L53.7495138,1.13363692 Z" id="Fill-22" fill="#DE413A"></path>
                <path d="M56.6129723,1.95672615 C56.6474338,1.90208 56.6917415,1.84398769 56.7444185,1.78343385 C56.7956185,1.72189538 56.8714338,1.65198769 56.9703877,1.57026462 C57.1599262,1.42109538 57.3553723,1.30589538 57.5547569,1.22515692 C57.7546338,1.14343385 57.9530338,1.08534154 58.1499569,1.05186462 C58.3458954,1.01838769 58.5359262,1.00017231 58.7175877,0.996233846 C58.9002338,0.99328 59.0651569,0.991310769 59.2128492,0.991310769 L59.2128492,1.69235692 C59.1070031,1.67906462 59.0159262,1.66823385 58.9396185,1.66134154 C58.8618338,1.65494154 58.7742031,1.65198769 58.6747569,1.65198769 C58.50048,1.65198769 58.3045415,1.67217231 58.0869415,1.71254154 C57.8688492,1.75291077 57.6517415,1.83069538 57.4331569,1.94638769 C57.3154954,2.01334154 57.2002954,2.09801846 57.0910031,2.19992615 C56.9831877,2.30084923 56.8921108,2.41654154 56.82368,2.54503385 C56.7385108,2.70749538 56.6823877,2.85961846 56.6543262,3.00189538 C56.6262646,3.14417231 56.6129723,3.29038769 56.6129723,3.43857231 L56.6129723,6.16054154 L55.9271877,6.16054154 L55.9271877,1.14343385 L56.6129723,1.14343385 L56.6129723,1.95672615 Z" id="Fill-24" fill="#DE413A"></path>
                <path d="M63.2033477,0.980775385 C63.7507938,0.987667692 64.2234092,1.07332923 64.6197169,1.23480615 C65.0160246,1.39726769 65.3424246,1.60699077 65.5989169,1.86446769 C65.8549169,2.12243692 66.0424862,2.41142154 66.1611323,2.73289846 C66.2802708,3.05486769 66.3403323,3.37536 66.3403323,3.69240615 C66.3403323,4.07246769 66.2605785,4.42052923 66.0986092,4.73856 C65.9376246,5.05708308 65.71264,5.33080615 65.4241477,5.56169846 C65.1376246,5.79160615 64.7905477,5.97326769 64.3883323,6.10471385 C63.98464,6.23665231 63.5410708,6.30212923 63.0556554,6.30212923 C62.5224862,6.30212923 62.0543015,6.22976 61.6501169,6.08452923 C61.2474092,5.93880615 60.9082092,5.74434462 60.6344862,5.50016 C60.3612554,5.25696 60.1535015,4.97585231 60.0131938,4.65782154 C59.8728862,4.33929846 59.8029785,4.00797538 59.8029785,3.66237538 C59.8029785,3.26951385 59.8817477,2.90668308 60.0392862,2.57536 C60.1978092,2.24452923 60.4237785,1.95997538 60.7181785,1.72219077 C61.0135631,1.48588308 61.3714708,1.30126769 61.7923938,1.16932923 C62.2133169,1.03689846 62.6844554,0.974375385 63.2033477,0.980775385 M63.0241477,1.53954462 C62.6874092,1.54643692 62.3723323,1.59911385 62.0764554,1.69708308 C61.7825477,1.79554462 61.5245785,1.93486769 61.30304,2.11357538 C61.0829785,2.29228308 60.9082092,2.51431385 60.7816862,2.77917538 C60.6556554,3.04256 60.5916554,3.34040615 60.5916554,3.67222154 C60.5916554,4.01732923 60.65664,4.31911385 60.7875938,4.57609846 C60.9165785,4.83357538 61.0923323,5.04822154 61.3123938,5.22151385 C61.5349169,5.39332923 61.7943631,5.52428308 62.0927015,5.61142154 C62.39104,5.70003692 62.7080862,5.74434462 63.0458092,5.74434462 C63.4170092,5.74434462 63.7576862,5.69511385 64.0658708,5.59714462 C64.3760246,5.49917538 64.6399015,5.35985231 64.86144,5.18065231 C65.0824862,5.00096 65.2543015,4.78286769 65.3768862,4.52489846 C65.4994708,4.26840615 65.5619938,3.98089846 65.5619938,3.66237538 C65.5619938,3.31086769 65.4901169,3.00120615 65.3517785,2.73289846 C65.2104862,2.46557538 65.0234092,2.24256 64.7871015,2.06237538 C64.5522708,1.88366769 64.2824862,1.74926769 63.9777477,1.66163692 C63.6720246,1.57302154 63.3544862,1.53265231 63.0241477,1.53954462" id="Fill-26" fill="#DE413A"></path>
                <path d="M67.8673231,4.75864615 C67.9170462,4.84726154 67.9825231,4.94916923 68.0681846,5.06338462 C68.1518769,5.17907692 68.3064615,5.28738462 68.5314462,5.38830769 C68.7485538,5.49710769 69.0148923,5.57292308 69.3314462,5.61723077 C69.6455385,5.66153846 69.9379692,5.68270769 70.2043077,5.68270769 C70.6055385,5.68270769 70.9806769,5.63938462 71.3307077,5.55076923 C71.6827077,5.46363077 71.9387077,5.32775385 72.0996923,5.14510769 C72.1568,5.08356923 72.2016,5.01267692 72.2365538,4.93193846 C72.2715077,4.85070769 72.2892308,4.76553846 72.2892308,4.67790769 C72.2892308,4.62424615 72.2774154,4.55581538 72.2518154,4.47409231 C72.2272,4.39335385 72.1735385,4.31556923 72.0888615,4.24123077 C71.9844923,4.14621538 71.8436923,4.08172308 71.6684308,4.04824615 C71.4931692,4.01427692 71.2475077,3.98769231 70.9314462,3.96750769 C70.7271385,3.95273846 70.5292308,3.94141538 70.3367385,3.93156923 C70.1432615,3.92123077 69.9458462,3.90941538 69.7415385,3.89612308 C69.3974154,3.88184615 69.0995692,3.86707692 68.8465231,3.84984615 C68.5944615,3.8336 68.3689846,3.78732308 68.1720615,3.71249231 C68.0745846,3.67212308 67.9761231,3.62092308 67.8771692,3.56036923 C67.7792,3.49981538 67.6920615,3.42301538 67.6142769,3.33292308 C67.5369846,3.24036923 67.4724923,3.13255385 67.4203077,3.00750769 C67.3671385,2.88147692 67.3405538,2.73821538 67.3405538,2.57476923 C67.3405538,2.48073846 67.3528615,2.37390769 67.3774769,2.25575385 C67.4030769,2.1376 67.4468923,2.02043077 67.5094154,1.90572308 C67.5793231,1.78363077 67.6630154,1.67975385 67.7565538,1.59507692 C67.8520615,1.5104 67.9456,1.44147692 68.0406154,1.38732308 C68.1366154,1.33366154 68.2227692,1.28935385 68.304,1.25489231 C68.3847385,1.22092308 68.4536615,1.19827692 68.5097846,1.18350769 C68.7613538,1.10966154 69.0247385,1.06043077 69.2989538,1.03630769 C69.5731692,1.01366154 69.808,1.00086154 70.0044308,1.00086154 C70.1732923,1.00086154 70.3505231,1.00578462 70.5361231,1.01612308 C70.7217231,1.02695385 70.9068308,1.04713846 71.0889846,1.07766154 C71.2711385,1.10769231 71.4488615,1.14707692 71.6206769,1.19433846 C71.7934769,1.24209231 71.9480615,1.30018462 72.0888615,1.36713846 C72.3355077,1.50301538 72.5142154,1.64627692 72.6274462,1.79790769 C72.7387077,1.95101538 72.8224,2.07803077 72.8785231,2.17993846 L72.1105231,2.33156923 C72.0829538,2.27790769 72.0455385,2.21735385 72.0002462,2.14990769 C71.9539692,2.08344615 71.8761846,2.01649231 71.7629538,1.95003077 C71.6443077,1.87667692 71.5049846,1.81710769 71.3474462,1.77033846 C71.1889231,1.72307692 71.0279385,1.68861538 70.8630154,1.66547692 C70.6971077,1.64233846 70.5361231,1.62609231 70.3785846,1.61526154 C70.2200615,1.60590769 70.0846769,1.60098462 69.9724308,1.60098462 C69.8882462,1.60098462 69.7843692,1.60393846 69.6578462,1.61033846 C69.5303385,1.61723077 69.3954462,1.63052308 69.2521846,1.65169231 C69.1084308,1.67187692 68.9646769,1.70190769 68.8258462,1.74227692 C68.6850462,1.78363077 68.5624615,1.83630769 68.4576,1.90473846 C68.3581538,1.96529231 68.2833231,2.02781538 68.2306462,2.09230769 C68.1779692,2.1568 68.1395692,2.21735385 68.1149538,2.27495385 C68.0898462,2.33156923 68.0770462,2.38276923 68.0731077,2.42707692 C68.0691692,2.4704 68.0681846,2.49895385 68.0681846,2.51273846 C68.0681846,2.66830769 68.1208615,2.80270769 68.2252308,2.9184 C68.3241846,3.01932308 68.4556308,3.08578462 68.6195692,3.11532308 C68.784,3.14633846 69.04,3.17095385 69.3846154,3.19113846 C69.6420923,3.20492308 69.9025231,3.21723077 70.1624615,3.22707692 C70.4224,3.23741538 70.6813538,3.25267692 70.9412923,3.27286154 C71.2578462,3.29993846 71.4995692,3.33095385 71.6684308,3.36344615 C71.8368,3.39692308 71.9731692,3.43187692 72.0790154,3.46535385 C72.4088615,3.58055385 72.6436923,3.75089231 72.7844923,3.97686154 C72.9248,4.20283077 72.9947077,4.43175385 72.9947077,4.66067692 C72.9947077,4.78916923 72.9769846,4.91076923 72.9420308,5.02596923 C72.9070769,5.14116923 72.8617846,5.24504615 72.8061538,5.34055385 C72.7495385,5.43458462 72.6840615,5.51926154 72.6102154,5.59310769 C72.5368615,5.66744615 72.4546462,5.73538462 72.3640615,5.79593846 C72.0957538,5.97907692 71.7806769,6.10461538 71.4148923,6.176 C71.0510769,6.24689231 70.6651077,6.28283077 70.2569846,6.28283077 C69.9492923,6.28283077 69.6292923,6.2656 69.2989538,6.23163077 C68.9686154,6.19815385 68.6579692,6.13366154 68.368,6.03864615 C68.0770462,5.94412308 67.8176,5.80676923 67.5931077,5.62707692 C67.3686154,5.44787692 67.2115692,5.21550769 67.12,4.93193846 L67.8673231,4.75864615 Z" id="Fill-28" fill="#DE413A"></path>
            </g>
        </g>
    </g>
</svg>