<?xml version="1.0" encoding="UTF-8"?>
<svg width="77px" height="34px" viewBox="0 0 77 34" version="1.1" xmlns="http://www.w3.org/2000/svg" xmlns:xlink="http://www.w3.org/1999/xlink">
    <title>20D63062-54B8-413E-AEE9-70D755449A37</title>
    <defs>
        <polygon id="path-1" points="0 0.000595 76.2604615 0.000595 76.2604615 34 0 34"></polygon>
    </defs>
    <g id="logos-aseguradoras" stroke="none" stroke-width="1" fill="none" fill-rule="evenodd">
        <g id="logos-variantes" transform="translate(-439.000000, -244.000000)">
            <g id="icn-bupa-color" transform="translate(439.000000, 244.000000)">
                <mask id="mask-2" fill="white">
                    <use xlink:href="#path-1"></use>
                </mask>
                <g id="Clip-2"></g>
                <path d="M38.6188,18.046945 C40.5387231,18.046945 41.5668,17.193545 42.1921077,16.219445 L42.1582615,16.366495 C41.9763385,17.280245 42.7328,17.840395 43.4435692,17.840395 L44.0629538,17.840395 L45.7789538,8.031395 L43.6542615,8.031395 L43.3716462,9.528245 C42.9874923,8.754745 41.9035692,7.829095 40.1537231,7.829095 C37.0644154,7.829095 35.2324923,10.385895 34.9244923,13.110145 C34.5741846,16.224545 36.5753385,18.046945 38.6188,18.046945 L38.6188,18.046945 Z M40.4600308,9.427095 C44.0214923,9.625995 42.8614154,16.462545 39.2415692,16.260245 C35.9669538,16.078345 36.9848769,9.233295 40.4600308,9.427095 L40.4600308,9.427095 Z M11.1611077,7.370095 C11.1611077,5.150745 9.7438,4.118845 7.25187692,4.118845 C5.72033846,4.118845 3.30964615,4.114595 2.43049231,4.114595 L-0.000507692308,17.840395 C0.299030769,17.840395 2.92887692,17.838695 4.41472308,17.837845 C5.42249231,17.837845 6.38287692,17.804695 6.92526154,17.691645 C9.40110769,17.165495 10.4063385,15.355845 10.6060308,14.028995 C10.8818769,12.191295 9.72687692,10.977495 8.41449231,10.682545 C9.40026154,10.468345 11.1611077,9.449195 11.1611077,7.370095 L11.1611077,7.370095 Z M5.98264615,16.153145 C5.70595385,16.222845 5.26341538,16.259395 4.33941538,16.259395 L2.73256923,16.259395 L3.54487692,11.657495 L5.92595385,11.657495 C9.07026154,11.657495 8.78426154,15.456145 5.98264615,16.153145 L5.98264615,16.153145 Z M6.9168,9.897145 C6.61387692,9.998295 6.21110769,10.026345 5.47749231,10.026345 L3.83341538,10.026345 L4.60510769,5.634395 L6.75687692,5.634395 C9.33849231,5.634395 9.13541538,9.163595 6.9168,9.897145 L6.9168,9.897145 Z M20.5432615,8.041595 L19.9086462,8.041595 C19.9086462,8.041595 18.9711077,13.430595 18.8661846,14.045145 C18.6394154,15.365195 18.0073385,16.267895 16.2261846,16.267895 C15.2158769,16.267895 14.2284154,15.654195 14.4585692,14.278045 C14.5491077,13.745945 15.2209538,9.829145 15.2784923,9.513795 C15.4654923,8.455545 14.5677231,8.041595 13.8264923,8.041595 L13.2646462,8.041595 C13.1275692,8.859295 12.5115692,12.306045 12.2771846,13.655845 C12.1807231,14.198995 12.1460308,14.750645 12.1874923,15.106795 C12.3981846,16.936845 13.9974154,18.053745 15.9765692,18.053745 C19.3924923,18.053745 20.6769538,16.260245 21.0856462,14.130145 C21.2201846,13.428045 21.8674923,9.871645 21.9182615,9.513795 C22.0663385,8.455545 21.1964923,8.041595 20.5432615,8.041595 L20.5432615,8.041595 Z M24.0573385,21.710445 L25.0481846,16.300195 C25.4331846,17.072845 26.5314923,18.053745 28.2821846,18.053745 C31.4341077,18.053745 33.3844923,15.581095 33.5808,12.687695 C33.7889538,9.612395 31.9908769,7.840995 29.9034154,7.840995 C28.0943385,7.840995 26.8606462,8.724995 26.2311077,9.646395 L26.2590308,9.513795 C26.4570308,8.567745 25.6540308,8.041595 24.9728769,8.041595 L24.2976462,8.041595 C24.2976462,8.041595 22.4598,18.596045 22.2076462,19.868495 C21.9106462,21.362795 23.1172615,21.710445 23.4997231,21.710445 L24.0573385,21.710445 Z M29.1951846,9.599645 C32.4689538,9.784095 31.4501846,16.646995 27.9750308,16.453195 C24.4152615,16.255995 25.5736462,9.399045 29.1951846,9.599645 L29.1951846,9.599645 Z M74.9848,21.967145 C74.0726462,21.967145 72.8304923,21.915295 72.0901077,21.661995 C71.2160308,21.361095 70.4451846,20.764395 69.6278,20.132845 C69.2174154,19.816645 68.7951846,19.488545 68.3391077,19.183395 C67.7806462,18.811945 67.3178,18.638545 66.8752615,18.638545 C66.2787231,18.638545 65.6991077,18.963245 64.9951077,19.694245 C64.0423385,20.678545 62.5234923,22.915745 61.9168,23.831195 C61.8770308,23.887295 61.8262615,23.951045 61.7484154,23.951045 C61.5994923,23.951045 61.5961077,23.755545 61.5961077,23.690945 C61.5656462,21.130745 61.1671077,7.161845 60.8878769,2.990895 C60.7643385,1.145545 60.1948769,0.000595 59.3986462,0.000595 C58.7598,0.000595 57.8028,0.853995 57.2028769,3.260345 C55.6781077,9.387145 52.4238,23.005845 51.0251077,29.924845 C50.9836462,30.114395 50.7712615,30.113545 50.7314923,29.924845 C50.5758,29.216795 50.4378769,28.415245 50.3058769,27.739495 C49.8878769,25.606845 49.5274154,23.762345 48.8141077,22.748295 C48.0001077,21.597395 46.7977231,21.524295 45.3398,22.494145 C45.0191077,22.710045 44.7085692,22.977795 44.3811077,23.261695 C43.4452615,24.069195 42.3892615,24.988045 40.6318,24.988045 L23.4591077,24.988045 L23.0385692,27.274545 L41.1073385,27.274545 C42.9544923,27.274545 44.6688,26.206095 45.6918,25.468295 C46.2113385,25.095145 46.5709538,24.877545 46.8586462,24.877545 C47.2546462,24.877545 47.4323385,25.282145 47.5795692,25.891595 C47.6523385,26.189945 47.7411846,26.601345 47.8418769,27.078195 C48.1845692,28.658345 48.6973385,31.147995 49.3505692,32.803795 C49.6551846,33.574745 50.1053385,34.000595 50.6223385,34.000595 C51.4126462,34.000595 52.2173385,33.061345 52.6717231,31.610395 C53.2809538,29.676645 56.9346462,13.772295 58.4754923,7.113395 C58.5389538,6.839695 58.5736462,6.684995 58.5778769,6.673095 C58.6049538,6.556645 58.6819538,6.479295 58.7733385,6.479295 C58.8545692,6.479295 58.9442615,6.547295 58.9484923,6.698595 L58.9493385,6.723245 C59.0669538,13.462045 59.3994923,25.298295 59.8995692,26.513795 C60.1754154,27.186145 60.5984923,27.541445 61.1239538,27.541445 C61.7323385,27.541445 62.4634154,27.048445 62.9821077,26.286845 C63.2444154,25.905195 63.5786462,25.404545 63.9306462,24.877545 C64.8030308,23.575345 65.7921846,22.101445 66.0832615,21.785245 C66.5190308,21.321145 67.0182615,21.321145 67.7298769,21.807345 C67.8322615,21.877895 67.9566462,21.967145 68.1004923,22.071695 C68.8586462,22.624195 70.1270308,23.384095 71.5511077,23.779345 C72.4962615,24.038595 73.7113385,24.094695 74.5625692,24.094695 C75.1134154,24.094695 75.6989538,24.071745 75.8690308,24.060695 L76.2608,21.941645 C76.0551846,21.950995 75.4992615,21.967145 74.9848,21.967145 L74.9848,21.967145 Z" id="Fill-1" fill="#00ADEE" mask="url(#mask-2)"></path>
            </g>
        </g>
    </g>
</svg>