<?xml version="1.0" encoding="UTF-8"?>
<svg width="26px" height="26px" viewBox="0 0 26 26" version="1.1" xmlns="http://www.w3.org/2000/svg" xmlns:xlink="http://www.w3.org/1999/xlink">
    <title>7E66AA45-0E63-43B8-8260-07D418B5D678</title>
    <g id="Landing-B" stroke="none" stroke-width="1" fill="none" fill-rule="evenodd">
        <g transform="translate(-1218.000000, -1853.000000)" fill="#FFFFFF" id="icn-facebook-footer">
            <g transform="translate(1218.000000, 1853.000000)">
                <path d="M15.5614621,4.9765625 C12.6513674,4.9765625 10.749375,6.74025625 10.749375,9.93321875 L10.749375,9.93321875 L10.749375,12.74 L7.51460937,12.74 L7.51460938,16.4226563 L10.749375,16.4226563 L10.749375,25.3252289 C4.65883387,24.3694801 4.4408921e-14,19.0989023 4.4408921e-14,12.74 C4.4408921e-14,5.70388711 5.70388711,8.8817842e-15 12.74,8.8817842e-15 C19.7761129,8.8817842e-15 25.48,5.70388711 25.48,12.74 C25.48,19.0989023 20.8211661,24.3694801 14.730625,25.3252289 L14.730625,25.3252289 L14.730625,16.4226563 L17.6991445,16.4226563 L18.2639844,12.74 L14.730625,12.74 L14.730625,10.35018 C14.730625,9.34267496 15.2241756,8.360625 16.8067971,8.360625 L18.4132812,8.360625 L18.4132813,5.22539063 C18.4132813,5.22539063 16.9553226,4.9765625 15.5614621,4.9765625 Z" id="Combined-Shape"></path>
            </g>
        </g>
    </g>
</svg>