<?xml version="1.0" encoding="UTF-8"?>
<svg width="120px" height="28px" viewBox="0 0 120 28" version="1.1" xmlns="http://www.w3.org/2000/svg" xmlns:xlink="http://www.w3.org/1999/xlink">
    <title>60AC8836-A910-425B-A3F4-5D5BCF807B45</title>
    <g id="logos-aseguradoras" stroke="none" stroke-width="1" fill="none" fill-rule="evenodd">
        <g id="logos-variantes" transform="translate(-296.000000, -449.000000)" fill="#CC0A1A">
            <g id="icn-insignia" transform="translate(296.000000, 449.000000)">
                <path d="M4.30336481,26.959905 C-6.49560515,15.853005 4.96413734,1.787205 19.6597597,0.36708 C20.5687725,0.277305 22.1833648,0.24108 23.3720343,0.26733 C5.02181974,2.165205 8.0856824,20.88093 21.4283433,26.550405 C21.8614764,26.73363 22.2915193,26.868555 22.7328927,26.959905 L4.30336481,26.959905 Z" id="Fill-1983"></path>
                <polygon id="Fill-1985" points="73.2659227 8.156925 75.0381116 8.156925 75.0381116 6.42075 73.2659227 6.42075"></polygon>
                <polygon id="Fill-1987" points="73.2659227 20.095425 75.0381116 20.095425 75.0381116 10.71735 73.2659227 10.71735"></polygon>
                <path d="M70.9498197,14.4290475 L70.9498197,20.0953725 L69.1766009,20.0953725 L69.1766009,14.8212225 C69.1766009,13.8625725 69.0004635,13.1490975 68.6533391,12.6839475 C68.3031245,12.2187975 67.7659571,11.9841225 67.0351416,11.9841225 C66.2409785,11.9841225 65.6111073,12.2781225 65.1537682,12.8655975 C64.6964292,13.4509725 64.4687897,14.2699725 64.4687897,15.3178725 L64.4687897,20.0953725 L62.6950558,20.0953725 L62.6950558,10.7172975 L64.3178884,10.7172975 L64.3178884,12.4492725 C64.6732532,11.8014225 65.1305923,11.3094975 65.6914506,10.9808475 C66.251279,10.6553475 66.9074163,10.4904975 67.6557425,10.4904975 C68.7408927,10.4904975 69.5582318,10.8238725 70.115485,11.4927225 C70.6717082,12.1615725 70.9498197,13.1412225 70.9498197,14.4290475" id="Fill-1988"></path>
                <polygon id="Fill-1989" points="47.615794 8.156925 49.3905579 8.156925 49.3905579 6.42075 47.615794 6.42075"></polygon>
                <polygon id="Fill-1990" points="47.615794 20.095425 49.3905579 20.095425 49.3905579 10.71735 47.615794 10.71735"></polygon>
                <path d="M45.5575622,10.965255 L45.4875193,12.38118 C45.1002232,12.202155 44.7046867,12.067755 44.2978197,11.98008 C43.8888927,11.890305 43.4794506,11.84148 43.0622833,11.84148 C42.5786781,11.84148 42.1867468,11.939655 41.8957597,12.134955 C41.6037425,12.327105 41.4569614,12.585405 41.4569614,12.910905 C41.4569614,13.196505 41.5774764,13.450605 41.8185064,13.67583 C42.0554163,13.89948 42.5544721,14.18718 43.3130987,14.532105 C44.3194506,14.98833 45.0136996,15.431955 45.3906953,15.865605 C45.7702661,16.292955 45.9618541,16.81323 45.9618541,17.42433 C45.9618541,18.27483 45.6116395,18.94998 44.9117253,19.45293 C44.2154163,19.954305 43.2646867,20.203155 42.071897,20.203155 C41.6361888,20.203155 41.2051159,20.16378 40.7797082,20.08923 C40.3532704,20.009955 39.9407382,19.88973 39.5441717,19.74063 L39.6028841,18.281655 C40.0360172,18.49218 40.4696652,18.654405 40.9007382,18.761505 C41.3328412,18.866505 41.7474335,18.91953 42.14503,18.91953 C42.7300944,18.91953 43.1956738,18.79248 43.5391931,18.54888 C43.8888927,18.30318 44.0562747,17.97033 44.0562747,17.55138 C44.0562747,17.240055 43.9563605,16.97283 43.7482918,16.749705 C43.5464034,16.52448 43.0669185,16.23153 42.312927,15.87348 C41.3070901,15.39048 40.6164464,14.94528 40.2440858,14.532105 C39.8717253,14.11788 39.6842575,13.632255 39.6842575,13.071555 C39.6842575,12.33708 40.0030558,11.74068 40.6370472,11.28813 C41.2694936,10.83558 42.1187639,10.609305 43.1740429,10.609305 C43.5567039,10.609305 43.9532704,10.63713 44.352927,10.697505 C44.7541288,10.75263 45.1553305,10.84398 45.5575622,10.965255" id="Fill-1991"></path>
                <path d="M37.8236395,14.4290475 L37.8236395,20.0953725 L36.0535107,20.0953725 L36.0535107,14.8212225 C36.0535107,13.8625725 35.8768584,13.1490975 35.5307639,12.6839475 C35.1800343,12.2187975 34.643382,11.9841225 33.9125665,11.9841225 C33.1173734,11.9841225 32.4875021,12.2781225 32.0322232,12.8655975 C31.572309,13.4509725 31.3446695,14.2699725 31.3446695,15.3178725 L31.3446695,20.0953725 L29.5714506,20.0953725 L29.5714506,10.7172975 L31.1932532,10.7172975 L31.1932532,12.4492725 C31.5506781,11.8014225 32.0090472,11.3094975 32.5668155,10.9808475 C33.1276738,10.6553475 33.7838112,10.4904975 34.5341974,10.4904975 C35.6183176,10.4904975 36.4351416,10.8238725 36.9929099,11.4927225 C37.549133,12.1615725 37.8236395,13.1412225 37.8236395,14.4290475" id="Fill-1992"></path>
                <polygon id="Fill-1993" points="25.0398283 20.095425 26.8949356 20.095425 26.8949356 7.13475 25.0398283 7.13475"></polygon>
                <path d="M55.6969442,11.8579125 C54.924412,11.8579125 54.3063863,12.1655625 53.8500773,12.7787625 C53.388103,13.3919625 53.1578884,14.2261875 53.1578884,15.2788125 C53.1578884,16.3256625 53.3911931,17.1556875 53.8578026,17.7688875 C54.3223519,18.3831375 54.9455279,18.6907875 55.7144549,18.6907875 C56.508618,18.6907875 57.156515,18.3831375 57.6483605,17.7683625 C58.1427811,17.1472875 58.3910215,16.3361625 58.3910215,15.3360375 C58.3910215,14.2466625 58.1530815,13.3919625 57.6725665,12.7787625 C57.1966867,12.1655625 56.5384893,11.8579125 55.6969442,11.8579125 M58.5656137,12.3949875 L58.5656137,10.7176125 L60.1910215,10.7176125 L60.1910215,19.0273125 C60.1910215,20.7493125 59.7898197,22.0376625 58.9920515,22.9012875 C58.1932532,23.7601875 57.0004635,24.1901625 55.4167725,24.1901625 C54.8487039,24.1901625 54.2888755,24.1408125 53.7429528,24.0426375 C53.1996052,23.9418375 52.6820086,23.7937875 52.2050987,23.6074125 L52.3384893,22.0376625 C52.8396052,22.2938625 53.3304206,22.4833875 53.8063004,22.6141125 C54.2821803,22.7395875 54.7271588,22.8041625 55.1453562,22.8041625 C56.2063004,22.8041625 57.0303348,22.5028125 57.6107639,21.8974875 C58.1932532,21.2916375 58.4826953,20.4353625 58.4826953,19.3291875 L58.4826953,18.2088375 C58.0990043,18.8330625 57.6334249,19.3066125 57.0936824,19.6226625 C56.5508498,19.9355625 55.9472446,20.0956875 55.2751416,20.0956875 C54.0854421,20.0956875 53.1259571,19.6630875 52.3889614,18.7984125 C51.6514506,17.9279625 51.2821803,16.7866125 51.2821803,15.3696375 C51.2821803,13.8807375 51.6488755,12.6952875 52.3776309,11.8138125 C53.1099914,10.9323375 54.0808069,10.4908125 55.2936824,10.4908125 C56.0244979,10.4908125 56.6682747,10.6504125 57.2172876,10.9711875 C57.7611502,11.2877625 58.212824,11.7628875 58.5656137,12.3949875" id="Fill-1994"></path>
                <path d="M81.8466438,15.4629825 C80.7779742,15.4629825 79.9616652,15.6283575 79.3894764,15.9543825 C78.8193476,16.2856575 78.5376309,16.7544825 78.5376309,17.3692575 C78.5376309,17.8375575 78.7008927,18.2213325 79.020206,18.5226825 C79.3446695,18.8261325 79.7664721,18.9757575 80.2809785,18.9757575 C81.0916223,18.9757575 81.7451845,18.7200825 82.2385751,18.2087325 C82.7293906,17.6994825 82.9740258,17.0143575 82.9740258,16.1575575 L82.9740258,15.4629825 L81.8466438,15.4629825 Z M84.6926524,14.3961825 L84.6926524,20.0955825 L83.1063863,20.0955825 L83.1063863,18.5253075 C82.7340258,19.1001825 82.2705064,19.5264825 81.7225236,19.8036825 C81.1776309,20.0829825 80.5431245,20.2242075 79.8226094,20.2242075 C78.9089614,20.2242075 78.1709356,19.9690575 77.6064721,19.4571825 C77.0445837,18.9468825 76.764412,18.2817075 76.764412,17.4574575 C76.764412,16.4379075 77.1898197,15.6588075 78.0411502,15.1180575 C78.8929957,14.5762575 80.1213219,14.3037825 81.7271588,14.3037825 L82.9740258,14.3037825 L82.9740258,14.1205575 C82.9740258,13.3923825 82.764927,12.8222325 82.3451845,12.4158825 C81.924927,12.0074325 81.3444979,11.8042575 80.6075021,11.8042575 C80.1893047,11.8042575 79.7572017,11.8704075 79.3111931,11.9995575 C78.8615794,12.1318575 78.4021803,12.3271575 77.9283605,12.5896575 L77.9113648,11.1663825 C78.3918798,10.9427325 78.8929957,10.7700075 79.4214077,10.6592325 C79.9503348,10.5474075 80.5142833,10.4907075 81.1189185,10.4907075 C82.308618,10.4907075 83.19703,10.8183075 83.79497,11.4698325 C84.3898197,12.1192575 84.6926524,13.0926075 84.6926524,14.3961825 L84.6926524,14.3961825 Z" id="Fill-1995"></path>
                <path d="M115.753236,8.3536425 L115.753236,6.5255925 L116.127657,6.5255925 L116.56903,7.8218175 C116.612807,7.9399425 116.641648,8.0323425 116.658644,8.0921925 C116.678215,8.0249925 116.712721,7.9268175 116.757528,7.7976675 L117.207142,6.5255925 L117.53933,6.5255925 L117.53933,8.3536425 L117.300361,8.3536425 L117.300361,6.8248425 L116.757528,8.3536425 L116.533494,8.3536425 L115.992206,6.7985925 L115.992206,8.3536425 L115.753236,8.3536425 Z" id="Fill-1996"></path>
                <path d="M108.783605,6.22083 L108.725923,7.62363 C108.52867,7.561155 108.355107,7.510755 108.203176,7.48083 C108.057425,7.449855 107.925064,7.43463 107.805579,7.43463 C107.295193,7.43463 106.919227,7.595805 106.681288,7.91658 C106.443348,8.24313 106.321803,8.74608 106.321803,9.43278 L106.321803,10.817205 L108.54927,10.817205 L108.54927,12.140205 L106.321803,12.140205 L106.321803,20.19423 L104.549614,20.19423 L104.549614,12.140205 L102.54515,12.140205 L102.54515,10.817205 L104.549614,10.817205 L104.549614,9.34143 C104.549614,8.270955 104.807124,7.45773 105.325236,6.90648 C105.842318,6.35208 106.603004,6.074355 107.616052,6.074355 C107.797339,6.074355 107.983777,6.088005 108.181545,6.113205 C108.375708,6.13788 108.576567,6.17148 108.783605,6.22083" id="Fill-1997"></path>
                <polygon id="Fill-1998" points="99.3728755 8.25405 101.144034 8.25405 101.144034 6.5205 99.3728755 6.5205"></polygon>
                <polygon id="Fill-1999" points="99.3728755 20.194125 101.144034 20.194125 101.144034 10.8171 99.3728755 10.8171"></polygon>
                <polygon id="Fill-2000" points="91.1860944 7.234815 93.0422318 7.234815 93.0422318 18.68244 98.3294421 18.68244 98.3294421 20.193915 91.1860944 20.193915"></polygon>
                <path d="M117.664532,15.2057325 L117.664532,15.9165825 L110.873974,15.9165825 C110.942987,16.9193325 111.272086,17.6994825 111.85715,18.2554575 C112.444275,18.8119575 113.243073,19.0902075 114.24273,19.0902075 C114.685648,19.0902075 115.119811,19.0345575 115.556549,18.9211575 C115.992258,18.8082825 116.440326,18.6297825 116.897665,18.3924825 L116.897665,19.8934575 C116.477408,20.0698575 116.015433,20.2000575 115.516378,20.2898325 C115.015262,20.3775075 114.461099,20.4231825 113.859039,20.4231825 C112.406163,20.4231825 111.25612,19.9737825 110.41921,19.0760325 C109.57921,18.1809075 109.158438,16.9592325 109.158438,15.4173075 C109.158438,13.9677825 109.568395,12.7991325 110.391399,11.9150325 C111.218009,11.0319825 112.293888,10.5888825 113.624704,10.5888825 C114.882901,10.5888825 115.870712,11.0004825 116.589682,11.8210575 C117.303502,12.6400575 117.664532,13.7698575 117.664532,15.2057325 L117.664532,15.2057325 Z M115.997923,14.7589575 C115.931485,13.8207825 115.68788,13.1031075 115.257837,12.6006825 C114.832429,12.0998325 114.255605,11.8467825 113.533545,11.8467825 C112.818695,11.8467825 112.226936,12.1082325 111.763931,12.6274575 C111.294747,13.1493075 111.014575,13.8591075 110.922386,14.7589575 L115.997923,14.7589575 Z" id="Fill-2001"></path>
                <path d="M117.888618,8.3536425 L117.888618,6.5255925 L118.717288,6.5255925 C118.881579,6.5255925 119.009305,6.5423925 119.094283,6.5744175 C119.181322,6.6095925 119.25188,6.6652425 119.302352,6.7492425 C119.356429,6.8327175 119.382695,6.9251175 119.382695,7.0264425 C119.382695,7.1550675 119.337888,7.2647925 119.25188,7.3529925 C119.165356,7.4427675 119.033511,7.4978925 118.854283,7.5230925 C118.919691,7.5530175 118.969133,7.5834675 119.002094,7.6133925 C119.075742,7.6795425 119.142695,7.7614425 119.209133,7.8564675 L119.534627,8.3536425 L119.222009,8.3536425 L118.974798,7.9740675 C118.90115,7.8659175 118.842438,7.7803425 118.794026,7.7241675 C118.751794,7.6643175 118.709047,7.6238925 118.671451,7.6023675 C118.634369,7.5787425 118.595227,7.5608925 118.559691,7.5519675 C118.532395,7.5472425 118.483983,7.5435675 118.419605,7.5435675 L118.133253,7.5435675 L118.133253,8.3536425 L117.888618,8.3536425 Z M118.133253,7.3335675 L118.666815,7.3335675 C118.77703,7.3335675 118.869219,7.3214925 118.932052,7.2978675 C118.994369,7.2768675 119.041236,7.2401175 119.075742,7.1907675 C119.111794,7.1387925 119.124155,7.0852425 119.124155,7.0264425 C119.124155,6.9392925 119.094283,6.8668425 119.028876,6.8117175 C118.966558,6.7560675 118.863039,6.7277175 118.725528,6.7277175 L118.133253,6.7277175 L118.133253,7.3335675 Z" id="Fill-2002"></path>
            </g>
        </g>
    </g>
</svg>