<?xml version="1.0" encoding="UTF-8"?>
<svg width="24px" height="24px" viewBox="0 0 24 24" version="1.1" xmlns="http://www.w3.org/2000/svg" xmlns:xlink="http://www.w3.org/1999/xlink">
    <title>logo-color-linkedin</title>
    <defs>
        <polygon id="path-1" points="0 3.28038614e-05 23.8563401 3.28038614e-05 23.8563401 23.8446424 0 23.8446424"></polygon>
    </defs>
    <g id="registro-landing---1.0-v4" stroke="none" stroke-width="1" fill="none" fill-rule="evenodd">
        <g id="Artboard" transform="translate(-240.000000, -88.000000)">
            <g id="logo-color-linkedin" transform="translate(240.000000, 88.000000)">
                <mask id="mask-2" fill="white">
                    <use xlink:href="#path-1"></use>
                </mask>
                <g id="Clip-2"></g>
                <path d="M5.29222326,7.38889302 C6.44329302,7.38889302 7.36608372,6.47540465 7.36738785,5.33419535 C7.36887442,4.1768 6.44757209,3.24768372 5.29780465,3.24731151 C4.14022326,3.24693953 3.22506047,4.1660093 3.22598999,5.32824186 C3.22673488,6.47614884 4.14189767,7.38889302 5.29222326,7.38889302 L5.29222326,7.38889302 Z M3.49538605,14.6370791 C3.49538605,16.4594047 3.49780465,18.2817302 3.49185116,20.1042419 C3.49129302,20.2893581 3.53054884,20.3723349 3.73501395,20.3708662 C4.77650233,20.3632186 5.81780465,20.3643349 6.85910698,20.3701023 C7.04664186,20.3712186 7.09892093,20.2995907 7.09873488,20.1194977 C7.09482791,16.4672186 7.09445581,12.8151256 7.09966549,9.16284651 C7.09985116,8.96154419 7.03064186,8.9128 6.84068837,8.91428837 C5.81426977,8.92228837 4.78766512,8.92433488 3.76124651,8.9129275 C3.54022326,8.91056744 3.49017674,8.98275349 3.49109434,9.19205581 C3.49854884,11.0071256 3.49538605,12.8220093 3.49538605,14.6370791 L3.49538605,14.6370791 Z M12.7219907,10.4043349 C12.7219907,9.9952186 12.7119442,9.58591628 12.7260837,9.17735814 C12.7331535,8.96991628 12.6622698,8.91186977 12.4585488,8.91373023 C11.491293,8.92340465 10.5240372,8.91782326 9.55659535,8.91819535 C9.2604093,8.91819535 9.25929302,8.91893953 9.25929302,9.20991628 C9.25910698,12.8337302 9.26115349,16.4573581 9.25445255,20.080986 C9.25389767,20.3094512 9.3247814,20.3740093 9.54692093,20.3718352 C10.551386,20.3621023 11.5558512,20.3680558 12.5603163,20.3673116 C12.8587349,20.3671256 12.859293,20.3656372 12.8594791,20.0742884 C12.8596651,18.2512186 12.8544558,16.4281488 12.8635721,14.6052651 C12.8656186,14.2283349 12.8898047,13.8460093 12.9562233,13.4757767 C13.0946419,12.704614 13.4498047,12.0822884 14.2745488,11.876893 C14.5227349,11.8153116 14.7889674,11.8034047 15.0466419,11.8067535 C15.8965023,11.8171721 16.4284093,12.2153116 16.6148279,13.0413581 C16.7182698,13.5001488 16.7592,13.9810791 16.763293,14.4525209 C16.7794791,16.3274977 16.7731535,18.2026605 16.7658977,20.0776372 C16.7649674,20.3020093 16.8341767,20.3741953 17.059293,20.3718352 C18.0637581,20.3619163 19.0684093,20.3624744 20.0728744,20.3715907 C20.2896186,20.3734512 20.3671005,20.3189395 20.3660837,20.0854512 C20.3573395,17.912614 20.3828279,15.7397767 20.3485953,13.5674977 C20.3370605,12.8463814 20.239014,12.1139163 20.0778977,11.4102884 C19.7880372,10.144614 19.0518512,9.22014884 17.7575256,8.85717209 C17.3126884,8.73233488 16.8397581,8.70163721 16.3774326,8.64731163 C15.595107,8.55540465 14.8568744,8.71391628 14.1647814,9.08619535 C13.5763163,9.40284651 13.1119442,9.8540093 12.7219907,10.4043349 L12.7219907,10.4043349 Z M11.923293,0.00675348837 C15.3093395,0.00675348837 18.6952,0.0168 22.0810605,3.28038614e-05 C22.9839442,-0.00440930233 23.7134326,0.641544186 23.8339907,1.43540465 C23.847386,1.52303256 23.855386,1.61233488 23.855386,1.70089302 C23.8563401,8.51745116 23.8566884,15.3340093 23.8559442,22.1507535 C23.8557581,23.0547535 23.1372465,23.8030326 22.2367814,23.8421023 C22.1774326,23.8446424 22.1178977,23.8446424 22.0581767,23.8446424 C15.3011535,23.8446424 8.54413023,23.844893 1.78710698,23.8443349 C0.93892093,23.8441488 0.297618605,23.3890791 0.0749209302,22.6203349 C0.0280372093,22.4588465 0.00310697674,22.284893 0.00292093023,22.116707 C-0.000427906977,15.3226605 -0.000241860465,8.52824186 0.00031627907,1.7340093 C0.00031627907,0.766381395 0.728130233,0.0210790698 1.69836279,0.00917209302 C2.51696744,-0.000874418605 3.33557209,0.00675348837 4.15417674,0.00675348837 L11.923293,0.00675348837 Z" id="Fill-1" fill="#2867B2" mask="url(#mask-2)"></path>
            </g>
        </g>
    </g>
</svg>