<?xml version="1.0" encoding="UTF-8"?>
<svg width="86px" height="20px" viewBox="0 0 86 20" version="1.1" xmlns="http://www.w3.org/2000/svg" xmlns:xlink="http://www.w3.org/1999/xlink">
    <title>7D537A6D-9887-49A2-AEE1-22161C321704</title>
    <defs>
        <polygon id="path-1" points="0.442769697 0.749820264 10.3701232 0.749820264 10.3701232 19.1304348 0.442769697 19.1304348"></polygon>
        <polygon id="path-3" points="8.68686869e-05 0.749600314 13.1740887 0.749600314 13.1740887 19.1304348 8.68686869e-05 19.1304348"></polygon>
    </defs>
    <g id="logos-aseguradoras" stroke="none" stroke-width="1" fill="none" fill-rule="evenodd">
        <g id="logos-variantes" transform="translate(-635.000000, -453.000000)">
            <g id="icn-metlife-color" transform="translate(635.000000, 453.000000)">
                <g id="Group-3" transform="translate(9.555556, 0.119739)">
                    <mask id="mask-2" fill="white">
                        <use xlink:href="#path-1"></use>
                    </mask>
                    <g id="Clip-2"></g>
                    <path d="M9.38329495,0.749820264 C9.06014343,0.750695652 8.64056768,0.848956522 8.08721414,1.04026087 C5.7547899,1.84721739 3.67254747,3.19591304 1.76925455,5.13504348 L0.442769697,6.70286957 L0.954426263,7.43417391 C1.83093131,8.67243478 2.74739596,10.7706957 3.17652727,12.5376522 C3.43973939,13.5515652 3.54311313,14.1776522 3.58654747,15.2237391 C3.59349697,15.3993913 3.60305253,15.5846087 3.60739596,15.788087 C3.61173939,15.9898261 3.61521414,16.2072174 3.61695152,16.4446087 C3.62650707,17.6976522 3.64214343,19.1306957 3.51097172,19.1306957 L9.76291111,19.1306957 L10.1173354,18.7698261 C10.3379818,18.4524348 10.3701232,17.335913 10.3701232,9.87156522 C10.3701232,2.15504348 10.3440626,1.3046087 10.1025677,1.03504348 C9.93143636,0.845478261 9.70644646,0.748956522 9.38329495,0.749820264" id="Fill-1" fill="#A4CE4E" mask="url(#mask-2)"></path>
                </g>
                <g id="Group-6" transform="translate(0.000000, 0.119739)">
                    <mask id="mask-4" fill="white">
                        <use xlink:href="#path-3"></use>
                    </mask>
                    <g id="Clip-5"></g>
                    <path d="M1.02774343,0.749826087 C0.714147475,0.744608696 0.485682828,0.829826087 0.29370303,1.0046087 C0.0139858586,1.25852174 8.68686869e-05,1.74808696 8.68686869e-05,9.84113043 C8.68686869e-05,17.3306957 0.0322282828,18.4524348 0.252874747,18.7698261 L0.506531313,19.1306957 L6.72285455,19.1306957 C11.5223495,19.1306957 12.9695818,19.0837391 13.0660061,18.9263478 C13.135501,18.8150435 13.1824101,17.6976522 13.1728545,16.4446087 C13.1580869,14.5498261 13.0833798,13.8898261 12.7324303,12.5376522 C11.9627737,9.57678261 10.5129354,6.90808696 8.42634949,4.91852174 C6.61166263,3.18895652 4.52160202,1.81417391 2.28299596,1.04026087 C1.74267273,0.853304348 1.34133939,0.755913043 1.02774343,0.749826087" id="Fill-4" fill="#0192D5" mask="url(#mask-4)"></path>
                </g>
                <path d="M9.9987596,6.82147826 L9.60350707,7.3006087 C8.90160808,8.15973913 7.62203232,11.0084348 7.1937697,12.6623478 C6.84368889,14.0136522 6.77071919,14.671913 6.75855758,16.5745217 C6.74987071,17.8310435 6.72815354,19.2501739 6.85411313,19.2501739 L13.0660929,19.2501739 C13.1972646,19.2501739 13.182497,17.818 13.1729414,16.564087 C13.1581737,14.6693043 13.0626182,14.0153913 12.7316485,12.6571304 C12.3033859,10.8910435 11.3886586,8.79452174 10.5112848,7.55626087 L9.9987596,6.82147826 Z" id="Fill-7" fill="#0065A5"></path>
                <path d="M75.1380263,3.78990532 C74.2641273,3.79165217 73.4128141,4.09773913 72.8038646,4.63513043 C72.0793798,5.2733913 71.8144303,5.80034783 71.6754404,6.85165217 L71.5642485,7.69165217 L70.9361879,7.69165217 L70.3081273,7.69165217 L70.3081273,8.74991304 L70.3081273,9.80817391 L70.9561677,9.80817391 L71.6042081,9.80817391 L71.6042081,12.9568696 C71.6042081,14.6881739 71.6511172,16.1533913 71.7101879,16.2125217 C71.7701273,16.2725217 72.3530162,16.3194783 73.0062687,16.3194783 L74.1963697,16.3194783 L74.1963697,13.0638261 L74.1963697,9.80817391 L75.1684303,9.80817391 L76.1404909,9.80817391 L76.1404909,8.74991304 L76.1404909,7.69165217 L75.1684303,7.69165217 L74.1963697,7.69165217 L74.1963697,7.15252174 C74.1963697,6.35947826 74.7948949,5.84556522 75.6036424,5.94208696 C75.9441677,5.98208696 76.3368141,6.06643478 76.4792788,6.12991304 C76.6712586,6.216 76.8693192,6.04208696 77.2437232,5.46382609 L77.7553798,4.67947826 L77.3905313,4.40556522 C76.9648747,4.08034783 75.8929152,3.78817391 75.1380263,3.78990532" id="Fill-9" fill="#000000"></path>
                <path d="M67.5289374,3.80521739 C66.2623919,3.87130435 65.6299879,5.78782609 66.880897,6.47043478 C67.5124323,6.81565217 67.9528566,6.76521739 68.5105535,6.29217391 C68.9110182,5.95478261 69.0126545,5.74521739 69.0126545,5.23478261 C69.0126545,4.51565217 68.6278263,4.02434783 67.9389576,3.85130435 C67.7956242,3.81478261 67.6601091,3.79826087 67.5289374,3.80521739" id="Fill-11" fill="#000000"></path>
                <path d="M38.0699414,4.09982609 L36.7538808,4.14591304 L35.4430323,4.19113043 L33.9897192,6.87721739 C33.1905273,8.35547826 32.4851535,9.61547826 32.4252141,9.67547826 C32.3661434,9.73634783 31.6268909,8.5093913 30.7799212,6.94852174 L29.2406081,4.11026087 L27.945396,4.15113043 L26.6493152,4.19113043 L26.4616788,8.34330435 C26.3600424,10.625913 26.2297394,13.3554783 26.1732747,14.4076522 L26.0716384,16.3198261 L27.3477394,16.3198261 L28.6229717,16.3198261 L28.7298202,14.2441739 C28.7880222,13.1033043 28.8453556,11.545913 28.8566485,10.7841739 C28.894002,8.15634783 28.9087697,8.15808696 30.369901,10.7641739 L31.6616384,13.0641739 L32.3392141,13.0641739 L33.0228707,13.0641739 L34.2937596,10.6624348 L35.5594364,8.26156522 L35.6810525,11.1111304 C35.7470727,12.6772174 35.846103,14.4902609 35.8982242,15.1389565 L35.9894364,16.3198261 L37.2750929,16.3198261 L38.5564061,16.3198261 L38.5511939,15.5467826 C38.5494566,15.1215652 38.4426081,12.612 38.3131737,9.97113043 C38.1837394,7.3293913 38.0768909,4.92852174 38.0751535,4.6346087 L38.0699414,4.09982609 Z" id="Fill-13" fill="#000000"></path>
                <path d="M57.1860909,4.11008696 L57.1860909,10.1074783 C57.1860909,13.4057391 57.233,16.1535652 57.2929394,16.2126957 C57.3520101,16.2726957 59.1380303,16.3196522 61.261101,16.3196522 L65.1241515,16.3196522 L65.1241515,15.1796522 L65.1241515,14.0405217 L62.5319899,14.0405217 L59.9398283,14.0405217 L59.9398283,9.07530435 L59.9398283,4.11008696 L58.5629596,4.11008696 L57.1860909,4.11008696 Z" id="Fill-15" fill="#000000"></path>
                <path d="M50.382101,5.40252174 L50.382101,6.53730435 L50.382101,7.67643478 L49.694101,7.72252174 L49.0052323,7.77382609 L49.0052323,8.75034783 L49.0052323,9.72686957 L49.694101,9.77730435 L50.382101,9.8286087 L50.3873131,11.9755652 C50.3968687,14.8242609 50.6783232,15.6225217 51.8910101,16.2233913 C52.7292929,16.6390435 54.4458182,16.566 55.4091919,16.0755652 L56.2092525,15.6686087 L55.7227879,14.8755652 L55.2371919,14.0807826 L54.5335556,14.3407826 C53.8794343,14.5773043 53.7925657,14.5746957 53.3999192,14.3155652 C52.9768687,14.0373043 52.9742626,14.0251304 52.9742626,11.9242609 L52.9742626,9.80773913 L54.0271111,9.80773913 L55.0799596,9.80773913 L55.0799596,8.75034783 L55.0799596,7.69208696 L54.0323232,7.69208696 L52.9890303,7.69208696 L52.9386465,6.59295652 L52.8934747,5.49382609 L51.6373535,5.4486087 L50.382101,5.40252174 Z" id="Fill-17" fill="#000000"></path>
                <path d="M44.0743919,9.47269565 C44.5738869,9.464 45.0421091,9.63182609 45.3704727,9.9613913 C45.6310788,10.2222609 45.8465131,10.5883478 45.8465131,10.7744348 C45.8465131,11.0961739 45.7605131,11.1109565 44.0639677,11.1109565 C42.9277253,11.1109565 42.2822909,11.0509565 42.2822909,10.9422609 C42.2822909,10.557913 42.7704929,9.86313043 43.1683515,9.68052174 C43.4628364,9.54573913 43.7746949,9.47704348 44.0743919,9.47269565 M44.0544121,7.49356522 C42.2918465,7.504 40.9002101,8.39704348 40.1913616,9.97095652 C39.7040283,11.0535652 39.7240081,13.030087 40.237402,14.1370435 C40.6708768,15.0726957 41.5578061,15.8796522 42.5203111,16.224 C43.9623313,16.7370435 46.5067152,16.4483478 47.6638061,15.6387826 L48.1042303,15.3326957 L47.6134222,14.5344348 L47.1269576,13.7405217 L46.2860687,14.1318261 C45.3913212,14.5518261 44.2368364,14.6518261 43.5019273,14.3718261 C42.9563919,14.1631304 42.2822909,13.430087 42.2822909,13.0431304 C42.2822909,12.7605217 42.4690586,12.7387826 45.2792606,12.7387826 L48.2762303,12.7387826 L48.2762303,11.9544348 C48.2762303,9.28834783 46.5605737,7.47791304 44.0544121,7.49356522" id="Fill-19" fill="#000000"></path>
                <path d="M81.0814081,9.48286957 C81.6477919,9.48286957 81.9092667,9.58026087 82.2810646,9.93069565 C82.5434081,10.1767826 82.8057515,10.5428696 82.8630848,10.7437391 C82.9673273,11.1089565 82.9595091,11.1106957 81.0814081,11.1106957 C79.2033071,11.1106957 79.1954889,11.1089565 79.2997313,10.7437391 C79.3570646,10.5428696 79.6194081,10.1767826 79.8817515,9.93069565 C80.2535495,9.58026087 80.5150242,9.48286957 81.0814081,9.48286957 M81.2082364,7.50373913 C78.6812263,7.50373913 77.006398,9.06286957 76.8283172,11.5837391 C76.6815091,13.6715652 77.4407414,15.155913 79.0816909,15.9889565 C80.0633071,16.4872174 80.1814485,16.5072174 81.6538727,16.4524348 C82.9438727,16.4037391 83.3504182,16.3185217 84.1235495,15.9385217 C84.6334687,15.688087 85.0504384,15.4289565 85.0504384,15.3637391 C85.0504384,15.2976522 84.8341354,14.902 84.5691859,14.4837391 L84.088802,13.7202609 L83.5111253,14.0663478 C82.7397313,14.5237391 81.0735899,14.6637391 80.4238121,14.3254783 C79.8478727,14.0263478 79.458701,13.595913 79.3092869,13.1046087 L79.1980949,12.7385217 L82.3010444,12.7385217 L85.4048626,12.7385217 L85.2936707,11.8837391 C84.9123172,8.89678261 83.6136303,7.50373913 81.2082364,7.50373913" id="Fill-21" fill="#000000"></path>
                <path d="M68.8502101,7.68173913 L67.5949576,7.72782609 L66.3388364,7.77304348 L66.2936646,11.8426087 C66.2702101,14.08 66.2858465,16.0026087 66.3292808,16.1165217 C66.3831394,16.2573913 66.7940283,16.32 67.6305737,16.32 L68.8502101,16.32 L68.8502101,12.0008696 L68.8502101,7.68173913 Z" id="Fill-23" fill="#000000"></path>
            </g>
        </g>
    </g>
</svg>