<?xml version="1.0" encoding="UTF-8"?>
<svg width="119px" height="32px" viewBox="0 0 119 32" version="1.1" xmlns="http://www.w3.org/2000/svg" xmlns:xlink="http://www.w3.org/1999/xlink">
    <title>A26A54EC-C1C0-4485-B280-E1D7222A57F4</title>
    <defs>
        <linearGradient x1="101.999998%" y1="0%" x2="101.999998%" y2="100.999999%" id="linearGradient-1">
            <stop stop-color="#256C9D" offset="0%"></stop>
            <stop stop-color="#174F7C" offset="100%"></stop>
        </linearGradient>
        <linearGradient x1="0%" y1="22.7493279%" x2="100%" y2="22.7493279%" id="linearGradient-2">
            <stop stop-color="#20294F" offset="0%"></stop>
            <stop stop-color="#114A7C" offset="100%"></stop>
        </linearGradient>
        <linearGradient x1="50%" y1="0%" x2="50%" y2="100%" id="linearGradient-3">
            <stop stop-color="#154E7D" offset="0%"></stop>
            <stop stop-color="#256FA4" offset="100%"></stop>
        </linearGradient>
        <linearGradient x1="0%" y1="0%" x2="100%" y2="0%" id="linearGradient-4">
            <stop stop-color="#154D7F" offset="0%"></stop>
            <stop stop-color="#1F2B52" offset="100%"></stop>
        </linearGradient>
    </defs>
    <g id="logos-aseguradoras" stroke="none" stroke-width="1" fill="none" fill-rule="evenodd">
        <g id="logos-variantes" transform="translate(-296.000000, -545.000000)">
            <g id="logo-sisnova" transform="translate(296.000000, 545.000000)">
                <path d="M21.2117647,21.3458824 L21.1651765,21.3458824 C20.4931765,21.3458824 12.6381176,21.5124706 9.96282353,29.3068235 L9.96282353,29.3068235 L9.96282353,29.7952941 C9.96282353,30.6254118 10.6404706,31.3072941 11.4691765,31.3072941 L11.4691765,31.3072941 L19.8381176,31.3072941 C20.6668235,31.3072941 21.3458824,30.6254118 21.3458824,29.7952941 L21.3458824,29.7952941 L21.3458824,22.8508235 C21.3458824,22.0235294 22.0263529,21.3458824 22.8536471,21.3458824 L22.8536471,21.3458824 L21.2117647,21.3458824 Z" id="Fill-36" fill="url(#linearGradient-1)"></path>
                <path d="M29.8009412,9.96 L29.7981176,9.96 C25.3637647,9.96 21.9218824,10.7929412 19.2423529,12.1072941 L19.2423529,12.1072941 C17.8870588,14.784 15.6691765,17.4225882 12.0635294,19.1915294 L12.0635294,19.1915294 C9.73270588,23.7896471 9.93176471,28.4837647 9.96282353,28.9891765 L9.96282353,28.9891765 C9.96423529,29.0202353 9.96564706,29.0357647 9.96564706,29.0357647 L9.96564706,29.0357647 L9.96282353,29.0851765 L9.94588235,29.3534118 C9.95152941,29.3392941 9.95576471,29.3237647 9.96282353,29.3068235 L9.96282353,29.3068235 C12.6381176,21.5124706 20.4931765,21.3458824 21.1651765,21.3458824 L21.1651765,21.3458824 L21.2117647,21.3458824 L22.8536471,21.3458824 L29.7981176,21.3458824 L29.8418824,21.3458824 L29.8418824,21.3444706 L29.8418824,21.3416471 C30.4362353,21.3232941 30.9472941,20.9576471 31.1774118,20.4437647 L31.1774118,20.4437647 C31.1774118,20.4437647 31.1774118,20.4423529 31.1788235,20.4423529 L31.1788235,20.4423529 C31.1830588,20.4338824 31.1872941,20.4225882 31.1915294,20.4127059 L31.1915294,20.4127059 C31.1929412,20.4098824 31.1929412,20.4084706 31.1943529,20.4070588 L31.1943529,20.4070588 C31.1985882,20.3971765 31.2014118,20.3887059 31.2056471,20.3788235 L31.2056471,20.3788235 C31.2056471,20.376 31.2070588,20.3731765 31.2084706,20.3717647 L31.2084706,20.3717647 C31.2112941,20.3647059 31.2141176,20.3548235 31.2169412,20.3449412 L31.2169412,20.3449412 C31.2183529,20.3435294 31.2197647,20.3392941 31.2225882,20.3364706 L31.2225882,20.3364706 C31.2254118,20.328 31.2268235,20.3195294 31.2296471,20.3124706 L31.2296471,20.3124706 C31.2310588,20.3082353 31.2324706,20.304 31.2338824,20.2997647 L31.2338824,20.2997647 L31.2395294,20.2785882 C31.2423529,20.2729412 31.2437647,20.2687059 31.2451765,20.2630588 L31.2451765,20.2630588 C31.248,20.256 31.2494118,20.2489412 31.2508235,20.2432941 L31.2508235,20.2432941 C31.2522353,20.2390588 31.2536471,20.232 31.2550588,20.2263529 L31.2550588,20.2263529 C31.2578824,20.2207059 31.2592941,20.2150588 31.2607059,20.208 L31.2607059,20.208 C31.2635294,20.2037647 31.2635294,20.1952941 31.2649412,20.1910588 L31.2649412,20.1910588 C31.2663529,20.184 31.2677647,20.1783529 31.2691765,20.1727059 L31.2691765,20.1727059 C31.2705882,20.1670588 31.272,20.16 31.2734118,20.1543529 L31.2734118,20.1543529 L31.2776471,20.136 C31.2790588,20.1303529 31.2804706,20.1232941 31.2804706,20.1162353 L31.2804706,20.1162353 C31.2818824,20.1105882 31.2832941,20.1063529 31.2847059,20.1007059 L31.2847059,20.1007059 C31.2861176,20.0936471 31.2875294,20.0865882 31.2889412,20.0795294 L31.2889412,20.0795294 C31.2889412,20.0752941 31.2889412,20.0682353 31.2903529,20.064 L31.2903529,20.064 C31.2903529,20.0569412 31.2917647,20.0484706 31.2931765,20.0414118 L31.2931765,20.0414118 C31.2945882,20.0357647 31.2945882,20.0315294 31.296,20.0272941 L31.296,20.0272941 C31.2974118,20.0188235 31.2974118,20.0117647 31.2988235,20.0032941 L31.2988235,20.0032941 C31.2988235,19.9990588 31.3002353,19.9948235 31.3002353,19.9891765 L31.3002353,19.9891765 C31.3002353,19.9821176 31.3016471,19.9736471 31.3016471,19.9651765 L31.3016471,19.9651765 C31.3016471,19.9623529 31.3030588,19.9552941 31.3030588,19.9510588 L31.3030588,19.9510588 L31.3044706,19.9270588 C31.3044706,19.9228235 31.3058824,19.9185882 31.3058824,19.9143529 L31.3058824,19.9143529 C31.3058824,19.9058824 31.3058824,19.8988235 31.3058824,19.8889412 L31.3058824,19.8889412 C31.3072941,19.8861176 31.3072941,19.8804706 31.3072941,19.8748235 L31.3072941,19.8748235 C31.3072941,19.8635294 31.3072941,19.8508235 31.3072941,19.8367059 L31.3072941,19.8367059 L31.3072941,11.4691765 C31.3072941,11.4564706 31.3072941,11.4437647 31.3072941,11.4310588 L31.3072941,11.4310588 C31.3072941,11.4254118 31.3058824,11.4197647 31.3058824,11.4127059 L31.3058824,11.4127059 C31.3058824,11.4056471 31.3058824,11.4 31.3058824,11.3929412 L31.3058824,11.3929412 C31.3044706,11.3872941 31.3044706,11.3788235 31.3044706,11.3717647 L31.3044706,11.3717647 C31.3044706,11.3647059 31.3030588,11.3618824 31.3030588,11.3562353 L31.3030588,11.3562353 C31.3030588,11.3463529 31.3016471,11.3378824 31.3002353,11.3294118 L31.3002353,11.3294118 C31.3002353,11.3251765 31.3002353,11.3223529 31.3002353,11.3181176 L31.3002353,11.3181176 C31.2988235,11.3096471 31.2988235,11.2983529 31.2974118,11.2898824 L31.2974118,11.2898824 C31.2974118,11.2856471 31.296,11.2842353 31.296,11.2814118 L31.296,11.2814118 C31.2945882,11.2701176 31.2917647,11.2602353 31.2903529,11.2475294 L31.2903529,11.2475294 C31.2903529,11.2475294 31.2903529,11.2461176 31.2903529,11.2447059 L31.2903529,11.2447059 C31.2635294,11.0668235 31.2028235,10.8974118 31.1195294,10.7449412 L31.1195294,10.7449412 C31.0729412,10.6630588 31.0065882,10.6009412 30.9458824,10.5289412 L30.9458824,10.5289412 C30.8950588,10.4682353 30.8555294,10.3962353 30.7948235,10.344 L30.7948235,10.344 C30.7115294,10.2705882 30.6070588,10.2183529 30.5082353,10.1632941 L30.5082353,10.1632941 C30.4545882,10.1336471 30.4108235,10.0941176 30.3543529,10.0701176 L30.3543529,10.0701176 C30.2625882,10.0334118 30.1595294,10.0277647 30.0607059,10.0065882 L30.0607059,10.0065882 C29.9745882,9.99247059 29.8927059,9.96 29.8009412,9.96 L29.8009412,9.96 Z" id="Fill-39" fill="url(#linearGradient-2)"></path>
                <path d="M11.4691765,1.95399252e-14 C10.6376471,1.95399252e-14 9.96282353,0.680470588 9.96282353,1.50917647 L9.96282353,1.50917647 L9.96282353,8.45364706 C9.96282353,9.28094118 9.28517647,9.96 8.45364706,9.96 L8.45364706,9.96 L1.50917647,9.96 C1.50776471,9.96 1.50776471,9.96141176 1.50635294,9.96141176 L1.50635294,9.96141176 L10.0941176,9.96141176 C10.0941176,9.96141176 18.5576471,10.1392941 21.3458824,1.98070588 L21.3458824,1.98070588 L21.3458824,1.50917647 C21.3458824,0.680470588 20.6668235,1.95399252e-14 19.8381176,1.95399252e-14 L19.8381176,1.95399252e-14 L11.4691765,1.95399252e-14 Z" id="Fill-42" fill="url(#linearGradient-3)"></path>
                <path d="M10.0941176,9.96141176 L1.50635294,9.96141176 C1.40752941,9.96141176 1.32141176,9.99811765 1.22682353,10.0164706 L1.22682353,10.0164706 C1.11811765,10.0390588 1.00094118,10.0475294 0.902117647,10.0927059 L0.902117647,10.0927059 C0.844235294,10.1181176 0.799058824,10.1647059 0.745411765,10.1971765 L0.745411765,10.1971765 C0.635294118,10.2635294 0.522352941,10.3256471 0.433411765,10.4188235 L0.433411765,10.4188235 C0.375529412,10.4752941 0.343058824,10.5529412 0.296470588,10.6192941 L0.296470588,10.6192941 C0.234352941,10.7096471 0.159529412,10.7901176 0.117176471,10.8903529 L0.117176471,10.8903529 C0.0437647059,11.0696471 -3.19744231e-14,11.2644706 -3.19744231e-14,11.4691765 L-3.19744231e-14,11.4691765 L-3.19744231e-14,19.8367059 C-3.19744231e-14,20.0414118 0.0437647059,20.2376471 0.117176471,20.4155294 L0.117176471,20.4155294 C0.155294118,20.5044706 0.223058824,20.5750588 0.276705882,20.6569412 L0.276705882,20.6569412 C0.328941176,20.7331765 0.368470588,20.8207059 0.433411765,20.8884706 L0.433411765,20.8884706 C0.522352941,20.9788235 0.636705882,21.0409412 0.745411765,21.1058824 L0.745411765,21.1058824 C0.799058824,21.1383529 0.844235294,21.1849412 0.900705882,21.2117647 L0.900705882,21.2117647 C1.02070588,21.264 1.15623529,21.2809412 1.28894118,21.3007059 L1.28894118,21.3007059 C1.36376471,21.312 1.42870588,21.3444706 1.50635294,21.3444706 L1.50635294,21.3444706 L1.50917647,21.3444706 C5.94776471,21.3444706 9.384,20.5058824 12.0635294,19.1915294 L12.0635294,19.1915294 C15.6691765,17.4225882 17.8870588,14.784 19.2423529,12.1072941 L19.2423529,12.1072941 C21.4856471,7.67717647 21.3825882,3.17223529 21.3458824,2.4 L21.3458824,2.4 C21.3416471,2.32517647 21.3388235,2.27294118 21.3388235,2.27294118 L21.3388235,2.27294118 L21.3458824,2.15717647 L21.3458824,1.98070588 C18.5576471,10.1392941 10.0941176,9.96141176 10.0941176,9.96141176" id="Fill-45" fill="url(#linearGradient-4)"></path>
                <path d="M40.6006588,7.05444706 L40.7545412,7.05585882 L40.7954824,7.05585882 C40.8985412,7.05585882 41.0072471,7.06432941 41.1145412,7.06856471 C41.2006588,7.0728 41.2825412,7.0728 41.3700706,7.07985882 C41.5041882,7.08974118 41.6439529,7.11232941 41.7823059,7.13209412 C41.8543059,7.14197647 41.9248941,7.14621176 41.9968941,7.15891765 C42.1634824,7.18856471 42.3314824,7.22950588 42.4980706,7.27327059 L42.4980706,7.27327059 L42.6420706,7.30715294 C42.8580706,7.36785882 43.0726588,7.44127059 43.2844235,7.53162353 C44.2387765,7.92127059 45.0096,8.51844706 45.3117176,9.55750588 C45.3992471,9.86527059 45.4373647,10.1730353 45.4147765,10.4765647 C45.3921882,10.7800941 45.3088941,11.0793882 45.1550118,11.3673882 C44.9672471,11.7090353 44.6891294,11.9095059 44.3517176,12.0210353 C44.2387765,12.0577412 44.1201882,12.0831529 43.9973647,12.1029176 C43.9790118,12.1057412 43.9634824,12.1057412 43.9493647,12.1057412 C43.9098353,12.1057412 43.8985412,12.0831529 43.8801882,12.0662118 C43.8717176,12.0577412 43.8519529,12.0577412 43.8463059,12.0450353 C43.8293647,12.0069176 43.8265412,11.9560941 43.8237176,11.8982118 C43.8067765,11.3645647 43.7559529,10.8323294 43.6048941,10.3156235 C43.2604235,9.12268235 42.4966588,8.40127059 41.2500706,8.21915294 C41.0114824,8.18385882 40.7757176,8.16691765 40.5427765,8.16409412 C40.5074824,8.16409412 40.4721882,8.17115294 40.4383059,8.17115294 C40.1827765,8.1768 39.9314824,8.20927059 39.6844235,8.26291765 C39.6110118,8.27985882 39.5376,8.29821176 39.4641882,8.31938824 C39.1874824,8.39844706 38.9150118,8.50150588 38.6524235,8.66103529 C37.7728941,9.19750588 37.2985412,9.99656471 37.2434824,10.8238588 C37.1898353,11.6525647 37.5540706,12.5080941 38.3559529,13.1575059 C39.1648941,13.8182118 40.1150118,14.2332706 41.0538353,14.6652706 C41.5225412,14.8812706 41.9954824,15.0916235 42.4599529,15.3189176 C42.9230118,15.5490353 43.3776,15.7932706 43.8110118,16.0812706 C44.0270118,16.2210353 44.2303059,16.3720941 44.4265412,16.5316235 C44.6891294,16.7462118 44.9220706,16.9890353 45.1310118,17.2530353 C45.3385412,17.5113882 45.5263059,17.7895059 45.6646588,18.1128 C45.8397176,18.5208 45.9343059,18.9429176 45.9583059,19.3622118 C46.0274824,20.6172706 45.4359529,21.8553882 44.3107765,22.6742118 C43.2110118,23.4718588 41.9559529,23.7937412 40.6260706,23.8572706 C40.4665412,23.8643294 40.3084235,23.8671529 40.1503059,23.8671529 L40.1503059,23.8671529 L40.1390118,23.8685647 C40.0726588,23.8685647 40.0077176,23.8615059 39.9413647,23.8600941 C39.8326588,23.8572706 39.7253647,23.8530353 39.6180706,23.8473882 C39.4543059,23.8389176 39.2905412,23.8233882 39.1281882,23.8050353 C39.0265412,23.7923294 38.9234824,23.7824471 38.8218353,23.7669176 C38.6467765,23.7386824 38.4731294,23.7019765 38.3008941,23.6624471 C38.2147765,23.6412706 38.1272471,23.6257412 38.0411294,23.6031529 C37.7827765,23.5325647 37.5286588,23.4492706 37.2773647,23.3476235 C36.4218353,22.9932706 35.6919529,22.4793882 35.2147765,21.6591529 C34.9917176,21.2822118 34.8830118,20.8826824 34.8999529,20.4648 C34.9070118,20.3250353 34.9267765,20.1852706 34.9620706,20.0412706 C35.0990118,19.4991529 35.4307765,19.1377412 35.9488941,18.9259765 C36.0110118,18.9019765 36.0576,18.8864471 36.0971294,18.8864471 C36.1070118,18.8864471 36.1126588,18.8977412 36.1225412,18.9005647 C36.1338353,18.9033882 36.1451294,18.9090353 36.1536,18.9160941 C36.1903059,18.9429176 36.2185412,18.9866824 36.2354824,19.0826824 C36.3583059,19.7193882 36.5672471,20.3038588 36.8891294,20.8106824 C37.2124235,21.3189176 37.6472471,21.7523294 38.2260706,22.0855059 C38.4378353,22.2083294 38.6566588,22.3015059 38.8768941,22.3791529 C38.9404235,22.4017412 39.0053647,22.4215059 39.0688941,22.4398588 C39.2383059,22.4920941 39.4091294,22.5316235 39.5827765,22.5612706 C39.6420706,22.5711529 39.7013647,22.5852706 39.7620706,22.5923294 C39.9879529,22.6205647 40.2152471,22.6375059 40.4467765,22.6360941 C40.7136,22.6346824 40.9832471,22.6163294 41.2543059,22.5838588 C42.0971294,22.4822118 42.8594824,22.2069176 43.4651294,21.5744471 C43.6176,21.4163294 43.7446588,21.2257412 43.8576,21.0252706 C43.9183059,20.9137412 43.9733647,20.8008 44.0199529,20.6808 C44.1216,20.4196235 44.1907765,20.1415059 44.2020706,19.8549176 C44.2077176,19.6925647 44.1978353,19.5273882 44.1681882,19.3622118 C44.0820706,18.8680941 43.8251294,18.3824471 43.3408941,17.9716235 C42.6943059,17.4280941 41.9785412,17.0130353 41.2274824,16.6544471 C40.9790118,16.5344471 40.7248941,16.4200941 40.4679529,16.3113882 C39.2312471,15.7777412 38.0100706,15.2172706 36.9710118,14.3349176 C36.3328941,13.7942118 35.8387765,13.1518588 35.6298353,12.3245647 C35.5140706,11.8643294 35.4731294,11.4111529 35.5041882,10.9735059 C35.5973647,9.66338824 36.3328941,8.50574118 37.5794824,7.78997647 C37.8096,7.65868235 38.0439529,7.54715294 38.2853647,7.45115294 C38.3601882,7.42291765 38.4392471,7.40456471 38.5168941,7.37915294 C38.6848941,7.32127059 38.8543059,7.26338824 39.0307765,7.22244706 C39.1296,7.19985882 39.2354824,7.18856471 39.3371294,7.17021176 C39.4980706,7.14197647 39.6590118,7.10950588 39.8270118,7.09256471 C39.9427765,7.08268235 40.0656,7.08268235 40.1827765,7.07562353 C40.3225412,7.06856471 40.4566588,7.05444706 40.6006588,7.05444706 L40.6006588,7.05444706 Z M59.6538353,7.05164754 C59.9587765,7.05035294 60.2665412,7.06164706 60.5771294,7.08847059 C61.4284235,7.16470588 62.2458353,7.35952941 62.9912471,7.78870588 C63.2227765,7.92 63.4331294,8.06682353 63.6208941,8.22776471 C63.8086588,8.39011765 63.9724235,8.568 64.1093647,8.76282353 C64.2477176,8.95764706 64.3578353,9.17223529 64.4383059,9.40658824 C64.5187765,9.63952941 64.5696,9.89364706 64.5851294,10.1689412 C64.6006588,10.464 64.5554824,10.7548235 64.4637176,11.0343529 C64.4538353,11.0682353 64.4510118,11.1007059 64.4383059,11.1331765 C64.3846588,11.2715294 64.3183059,11.3957647 64.2392471,11.5044706 C64.0048941,11.832 63.6604235,12.0225882 63.2227765,12.0945882 C63.1550118,12.1058824 63.1183059,12.0931765 63.0844235,12.0776471 C63.0688941,12.072 63.0491294,12.072 63.0406588,12.0607059 C63.0110118,12.0268235 62.9940706,11.9788235 62.9912471,11.8983529 L62.9912471,11.8983529 L62.9776828,11.5735115 C62.9521129,11.1410824 62.8938353,10.7119059 62.7696,10.2917647 C62.5860706,9.66211765 62.2839529,9.17505882 61.8674824,8.82635294 C61.4496,8.47764706 60.9159529,8.26870588 60.2707765,8.19388235 C60.0801882,8.17270588 59.8910118,8.16141176 59.7018353,8.16141176 C59.6891294,8.16141176 59.6750118,8.16282353 59.6623059,8.16282353 C59.6213647,8.16423529 59.5804235,8.16847059 59.5394824,8.17129412 C59.3898353,8.17694118 59.2401882,8.18964706 59.0933647,8.21082353 C59.0326588,8.22070588 58.9733647,8.23341176 58.9140706,8.24470588 C58.7813647,8.27152941 58.6500706,8.30823529 58.5201882,8.35058824 C58.4651294,8.36894118 58.4100706,8.38447059 58.3550118,8.40564706 C58.1757176,8.47623529 57.9992471,8.55529412 57.8298353,8.66117647 C57.6081882,8.79529412 57.4133647,8.94635294 57.2439529,9.10870588 C56.9037176,9.43482353 56.6665412,9.81317647 56.5338353,10.2127059 C56.4674824,10.4131765 56.4279529,10.6164706 56.4138353,10.824 C56.3573647,11.6512941 56.7230118,12.5068235 57.5234824,13.1576471 C58.3084235,13.7943529 59.2246588,14.2037647 60.1338353,14.6216471 C60.6180706,14.8461176 61.1065412,15.0635294 61.5851294,15.2978824 C62.0651294,15.5322353 62.5352471,15.7835294 62.9856,16.08 C63.8284235,16.6334118 64.5470118,17.3025882 64.9013647,18.2809412 C65.0594824,18.7214118 65.1343059,19.1647059 65.1329137,19.5981176 C65.1300706,20.0315294 65.0496,20.4564706 64.8985412,20.8574118 C64.8223059,21.0592941 64.7291294,21.2527059 64.6176,21.4418824 C64.2844235,22.0051765 63.7931294,22.5035294 63.1620706,22.8917647 C62.8966588,23.0555294 62.6227765,23.1967059 62.3263059,23.3181176 C62.0312471,23.4395294 61.7150118,23.5411765 61.3705412,23.6202353 C60.6830118,23.7811765 59.8783059,23.8616471 58.8872471,23.8630588 C58.0091294,23.8503529 56.7103059,23.6357647 55.5597176,22.8748235 C55.0980706,22.5698824 54.7056,22.2 54.4359529,21.7454118 C54.2961882,21.5082353 54.1790118,21.2555294 54.1225412,20.9632941 C54.0787765,20.7331765 54.0660706,20.5129412 54.0844235,20.3068235 C54.1041882,20.0992941 54.1536,19.9044706 54.2354824,19.728 C54.4020706,19.3764706 54.6957176,19.0969412 55.1220706,18.9261176 C55.2025412,18.8950588 55.2533647,18.8894118 55.2928941,18.9007059 C55.3041882,18.9035294 55.3140706,18.9091765 55.3225412,18.9162353 C55.3239529,18.9176471 55.3239529,18.9176471 55.3253647,18.9176471 C55.3592471,18.9444706 55.3832471,18.9882353 55.4016,19.0814118 C55.4877176,19.5007059 55.6232471,19.8875294 55.7884235,20.2545882 C56.1187765,20.9943529 56.6114824,21.6268235 57.3752471,22.0757647 C57.5503059,22.1788235 57.7281882,22.2649412 57.9088941,22.3369412 C57.9441882,22.3510588 57.9808941,22.3581176 58.0161882,22.3694118 C58.0825412,22.3948235 58.1503059,22.4131765 58.2180706,22.4329412 C58.3761882,22.4823529 58.5371294,22.5218824 58.6994824,22.5515294 C58.7686588,22.5642353 58.8392471,22.5783529 58.9084235,22.5882353 C59.1103059,22.6136471 59.3136,22.6305882 59.5197176,22.6334118 C59.5437176,22.6334118 59.5663059,22.6376471 59.5903059,22.6376471 L59.5903059,22.6376471 L59.6044235,22.6376471 C59.8514824,22.6376471 60.1013647,22.6221176 60.3526588,22.5952941 C60.5107765,22.5783529 60.6632471,22.5501176 60.8143059,22.5204706 C61.3888941,22.4061176 61.9267765,22.1929412 62.3954824,21.8047059 C62.8006588,21.4757647 63.0957176,21.0197647 63.2510118,20.5341176 C63.4077176,20.0456471 63.4246588,19.5247059 63.2750118,19.0616471 C63.1451294,18.6691765 62.9051294,18.3515294 62.6086588,18.0748235 C62.5917176,18.0607059 62.5818353,18.0423529 62.5663059,18.0268235 C62.5296,17.9957647 62.4900706,17.9703529 62.4547765,17.9392941 C62.0608941,17.5962353 61.6359529,17.304 61.1884235,17.0512941 C60.6971294,16.7774118 60.1832471,16.5416471 59.6623059,16.3171765 C58.4651294,15.8061176 57.2877176,15.2583529 56.2599529,14.4367059 C55.6147765,13.9214118 55.1601882,13.3298824 54.9032471,12.6649412 C54.6477176,12.0014118 54.5912471,11.2630588 54.7437176,10.4555294 C54.8608941,9.84705882 55.1107765,9.32752941 55.4637176,8.88564706 C55.8180706,8.44235294 56.2726588,8.07529412 56.7992471,7.76894118 C56.8006588,7.76752941 56.8034824,7.76752941 56.8063059,7.76611765 C57.0717176,7.61082353 57.3441882,7.49223529 57.6208941,7.39341176 C57.7084235,7.36235294 57.7973647,7.33835294 57.8848941,7.31152941 C58.0839529,7.25223529 58.2844235,7.20141176 58.4877176,7.16470588 C58.5823059,7.14635294 58.6797176,7.13082353 58.7771294,7.11670588 C58.9945412,7.08705882 59.2161882,7.07152941 59.4378353,7.06305882 C59.5098353,7.06023529 59.5804235,7.05317647 59.6538353,7.05164754 Z M47.7478588,12.2758588 C47.8932706,12.2815059 48.0372706,12.2843294 48.1826824,12.2843294 C48.2617412,12.2843294 48.3408,12.2829176 48.4212706,12.2829176 C48.6866824,12.2815059 48.9520941,12.2800941 49.2189176,12.2942118 C50.3342118,12.3676235 50.7789176,12.8575059 50.7817412,13.9869176 C50.7859765,15.2462118 50.7859765,16.5055059 50.7859765,17.7619765 C50.7859765,18.9888 50.7789176,20.2099765 50.7859765,21.4353882 C50.7859765,21.8885647 50.9144471,22.2429176 51.1572706,22.4843294 C51.4000941,22.7257412 51.7586824,22.8528 52.2160941,22.8528 L52.2160941,22.8528 L52.2697412,22.8528 L52.6113882,22.8979765 C52.6184471,22.9106824 52.6142118,22.9276235 52.6184471,22.9403294 C52.6720941,23.0913882 52.6410353,23.2692706 52.6283294,23.4316235 L52.6283294,23.4316235 L52.4631529,23.5092706 C50.8170353,23.5120941 49.1680941,23.5092706 47.5219765,23.5120941 C47.4542118,23.5120941 47.4076235,23.4979765 47.3808,23.4655059 C47.3525647,23.4358588 47.3426824,23.3892706 47.3469176,23.3243294 L47.3469176,23.3243294 L47.3469176,23.1676235 C47.3285647,23.0532706 47.3440941,22.9756235 47.3878588,22.9219765 C47.4019765,22.9050353 47.4372706,22.9050353 47.4584471,22.8937412 C47.5092706,22.8697412 47.5572706,22.8415059 47.6518588,22.8513882 C47.7280941,22.8584471 47.8043294,22.8626824 47.8819765,22.8626824 C47.8918588,22.8626824 47.9017412,22.8584471 47.9116235,22.8584471 C48.0400941,22.8570353 48.1685647,22.8457412 48.2928,22.8104471 C48.4353882,22.7666824 48.5624471,22.7088 48.6739765,22.6353882 C48.8970353,22.4871529 49.0579765,22.2768 49.1412706,22.0099765 C49.1836235,21.8772706 49.2048,21.7318588 49.2062118,21.5737412 C49.2132706,19.0904471 49.2175059,16.6085647 49.2048,14.1266824 C49.2033882,13.9219765 49.1765647,13.7440941 49.1229176,13.5916235 C48.9633882,13.1356235 48.5695059,12.9182118 47.9525647,12.9139765 L47.9525647,12.9139765 L47.7196235,12.9168 C47.6208,12.9323294 47.5742118,12.9040941 47.5276235,12.8744471 C47.5092706,12.8645647 47.4782118,12.8645647 47.4655059,12.8462118 C47.4273882,12.7911529 47.4118588,12.7106824 47.4076235,12.5991529 C47.4033882,12.4664471 47.4259765,12.3873882 47.4768,12.3393882 C47.4951529,12.3210353 47.5375059,12.3224471 47.5643294,12.3125647 C47.6151529,12.2942118 47.6603294,12.2716235 47.7478588,12.2758588 Z" id="Combined-Shape" fill="#11437D"></path>
                <path d="M55.3994824,3.48917647 C55.3783059,3.45811765 55.3585412,3.44258824 55.3387765,3.43411765 C55.3331294,3.43129412 55.3288941,3.42988235 55.3232471,3.42988235 C55.3077176,3.42564706 55.2921882,3.42705882 55.2780706,3.43129412 C55.2328941,3.44682353 55.1919529,3.48494118 55.1608941,3.50470588 C54.5453647,3.88729412 53.9707765,4.31788235 53.4300706,4.788 C52.8907765,5.25811765 52.3839529,5.76635294 51.9067765,6.30988235 C51.2220706,7.08352941 50.6418353,7.93482353 50.1011294,8.82564706 C49.9726588,9.036 49.8343059,9.23364706 49.7114824,9.44964706 C49.5434824,9.18423529 49.3881882,8.93576471 49.2258353,8.69011765 C49.0677176,8.45152941 48.8940706,8.22988235 48.7063059,8.02517647 C48.5185412,7.81905882 48.3180706,7.63129412 48.1048941,7.45623529 C47.6785412,7.10752941 47.2041882,6.81388235 46.6917176,6.56964706 L46.4841882,6.55270588 C47.8747765,7.72729412 48.9096,9.15458824 49.5816,10.8472941 C49.6183059,10.9390588 49.6663059,11.0237647 49.7016,11.1183529 C49.7185412,11.0350588 49.7538353,10.9644706 49.7919529,10.8981176 C49.8314824,10.8331765 49.8738353,10.7710588 49.9048941,10.7047059 C50.2761882,9.87176471 50.7110118,9.07129412 51.1896,8.292 C51.4719529,7.83317647 51.7698353,7.38705882 52.0832471,6.95505882 C52.3980706,6.52164706 52.7284235,6.10517647 53.0771294,5.70282353 C53.7745412,4.89811765 54.5453647,4.15835294 55.3994824,3.48917647" id="Fill-54" fill="#11437D"></path>
                <path d="M46.6917176,6.56908235 C47.2041882,6.81472941 47.6785412,7.10696471 48.1048941,7.45567059 C48.3180706,7.63072941 48.5185412,7.81990588 48.7063059,8.02461176 C48.8940706,8.23072941 49.0677176,8.45096471 49.2258353,8.68955294 C49.3881882,8.93661176 49.5434824,9.18508235 49.7114824,9.44908235 C49.8343059,9.23449412 49.9726588,9.03543529 50.1011294,8.82649412 C50.6418353,7.93567059 51.2220706,7.08296471 51.9067765,6.30931765 C52.3839529,5.7672 52.8907765,5.25755294 53.4300706,4.78743529 C53.9707765,4.31731765 54.5453647,3.88814118 55.1608941,3.50414118 C55.1608941,3.50414118 55.1608941,3.50414118 55.1608941,3.50272941 C55.1919529,3.48437647 55.2328941,3.44484706 55.2780706,3.43072941 C55.2808941,3.43072941 55.2823059,3.42649412 55.2851294,3.42649412 C55.2921882,3.42508235 55.2992471,3.42367059 55.3063059,3.42367059 C55.3119529,3.42367059 55.3176,3.42790588 55.3232471,3.42931765 C55.3288941,3.42931765 55.3331294,3.43072941 55.3387765,3.43355294 C55.3416,3.43496471 55.3458353,3.43496471 55.3500706,3.43637647 C55.3627765,3.44484706 55.3754824,3.45614118 55.3881882,3.47308235 C55.3910118,3.47872941 55.3952471,3.48296471 55.3994824,3.48861176 C55.3952471,3.48296471 55.3910118,3.47872941 55.3881882,3.47308235 C55.3910118,3.47872941 55.3952471,3.48296471 55.3994824,3.48861176 C55.6888941,3.36437647 55.9063059,3.13849412 56.1928941,2.97755294 L55.9783059,2.94790588 C55.5081882,3.08202353 55.0564235,3.27967059 54.6286588,3.50978824 C53.6503059,4.03355294 52.7736,4.67308235 51.9632471,5.39167059 C51.1528941,6.11025882 50.4117176,6.90649412 49.7058353,7.74508235 C49.6225412,7.84531765 49.5618353,7.89331765 49.4968941,7.89755294 C49.4954824,7.89755294 49.4926588,7.90178824 49.4912471,7.90178824 C49.4333647,7.90178824 49.3698353,7.86225882 49.2823059,7.7832 C49.0719529,7.5912 48.8517176,7.41472941 48.6244235,7.25378824 C47.9411294,6.77661176 47.1773647,6.45614118 46.3077176,6.34743529 C46.3091294,6.41237647 46.3317176,6.45331765 46.3656,6.48296471 C46.3980706,6.51402353 46.4418353,6.53378824 46.4841882,6.55214118 L46.6917176,6.56908235 Z" id="Fill-56" fill="#0081AC"></path>
                <path d="M106.032988,11.8173176 C106.3704,11.9344941 106.539812,12.1815529 106.607576,12.5189647 C106.700753,12.9961412 106.628753,13.4592 106.498871,13.9194353 C106.1304,15.2253176 105.569929,16.4563765 104.995341,17.6817882 C104.216047,19.3321412 103.4184,20.9754353 102.623576,22.6187294 C102.414635,23.0436706 102.197224,23.4686118 101.796282,23.7523765 C101.408047,24.0304941 100.772753,23.9923765 100.422635,23.6817882 C100.292753,23.5688471 100.280047,23.4784941 100.409929,23.3415529 C100.765694,22.9646118 100.858871,22.5312 100.6824,22.0314353 C99.8466353,19.6596706 98.9727529,17.3034353 97.9760471,14.9909647 C97.8094588,14.5956706 97.6499294,14.1947294 97.4551059,13.8107294 C97.1529882,13.2276706 96.6955765,12.8592 95.9981647,12.8916706 C95.8132235,12.8987294 95.7440471,12.8281412 95.7652235,12.6502588 L95.7652235,12.4455529 C95.7440471,12.2817882 95.8132235,12.2380235 95.9699294,12.2408471 C96.6927529,12.2464941 97.4198118,12.2436706 98.1412235,12.2436706 C98.8315765,12.2436706 99.5219294,12.2563765 100.212282,12.2366118 C100.469224,12.2295529 100.555341,12.3156706 100.511576,12.5556706 L100.511576,12.6093176 C100.555341,12.8535529 100.4424,12.9326118 100.212282,12.8987294 L100.006165,12.9001412 C99.5035765,12.9241412 99.2522824,13.1824941 99.2480471,13.6822588 C99.2438118,14.1904941 99.4767529,14.6352 99.6405176,15.0912 C100.258871,16.8276706 100.896988,18.5584941 101.529459,20.2879059 C101.633929,20.5773176 101.756753,20.8639059 101.873929,21.1519059 L101.991106,21.3255529 L102.109694,21.1646118 C102.575576,20.2526118 103.025929,19.3321412 103.4424,18.3933176 C103.9944,17.1340235 104.532282,15.8648471 104.866871,14.5236706 C105.006635,13.9688471 105.085694,13.4097882 104.976988,12.8366118 C104.9304,12.5994353 104.8344,12.3919059 104.677694,12.2154353 L104.721459,11.9796706 C105.136518,11.7410824 105.568518,11.6563765 106.032988,11.8173176 Z M91.6208471,11.8699765 C93.3672,12.2751529 94.5672,13.3184471 95.1869647,14.9956235 C95.8632,16.8337412 95.8984941,18.6930353 95.2067294,20.5283294 C94.5474353,22.2845647 93.2655529,23.3589176 91.4232,23.7302118 C90.0481412,24.0055059 88.6928471,23.9292706 87.3954353,23.3786824 C85.8777882,22.7377412 84.9389647,21.5603294 84.4335529,20.0229176 C84.1977882,19.3029176 84.1017882,18.5631529 84.1031847,17.8092706 C84.1173176,16.6488 84.3036706,15.5306824 84.8330824,14.4845647 C85.6363765,12.8963294 86.9761412,12.0506824 88.6956706,11.7895059 C89.6683765,11.6426824 90.6509647,11.6426824 91.6208471,11.8699765 Z M69.1118118,7.36997647 C69.3546353,7.36997647 69.5833412,7.39397647 69.8007529,7.43774118 C69.8275765,7.44338824 69.8473412,7.45468235 69.8727529,7.46032941 C70.0548706,7.50127059 70.2327529,7.55068235 70.3979294,7.62268235 L70.3979294,7.62268235 L70.3979294,7.64668235 C70.9809882,7.9008 71.4793412,8.31727059 71.8859294,8.92150588 C73.3626353,11.1139765 74.8520471,13.2993882 76.3386353,15.4862118 C77.3946353,17.0448 78.4492235,18.5920941 79.5066353,20.1464471 L79.5066353,20.1464471 L79.6026353,20.2650353 L79.6520471,19.9586824 C79.6562824,16.5464471 79.6576941,13.1299765 79.6520471,9.71632941 C79.6520471,9.43256471 79.6365176,9.15021176 79.5616941,8.87209412 C79.4318118,8.39491765 79.0548706,8.09985882 78.5593412,8.09421176 C78.3376941,8.0928 78.1146353,8.09138824 77.8873412,8.09844706 C77.7588706,8.10127059 77.7108706,8.05468235 77.7052235,7.91915294 C77.6741647,7.37985882 77.6699294,7.37985882 78.2021647,7.37985882 C79.7226353,7.37985882 81.2388706,7.38409412 82.7565176,7.37562353 C82.9753412,7.37421176 83.0642824,7.41797647 83.0544,7.65938824 C83.0346353,8.11397647 83.0699294,8.10691765 82.7664,8.09703529 C82.7212235,8.09421176 82.6661647,8.0928 82.6040471,8.0928 C82.0915765,8.0928 81.6186353,8.16762353 81.3546353,8.68715294 C81.2515765,8.89044706 81.2106353,9.11068235 81.2106353,9.33656471 C81.2106353,13.3375059 81.2021647,17.3384471 81.2148706,21.3393882 C81.2176941,22.0975059 81.4873412,22.7553882 82.1776941,23.1676235 C82.0972235,23.3017412 81.9842824,23.3864471 81.8558118,23.4415059 C81.0454588,23.7732706 79.9315765,23.7535059 79.3089882,22.8513882 C78.2925176,21.3746824 77.2478118,19.9205647 76.2200471,18.4495059 C74.3847529,15.8123294 72.5551059,13.1695059 70.7240471,10.5309176 L70.7240471,10.5309176 L70.5602824,10.3742118 L70.5038118,10.6424471 C70.5038118,14.1563294 70.4995765,17.6631529 70.5094588,21.1742118 C70.5094588,21.7685647 70.6718118,22.3078588 71.2591059,22.5986824 C71.5993412,22.7666824 71.9635765,22.7356235 72.3249882,22.7426824 C72.3546353,22.7440941 72.3885176,22.7398588 72.4238118,22.7342118 C72.5212235,22.7215059 72.6214588,22.7073882 72.6539294,22.8062118 C72.7061647,22.9982118 72.6976941,23.2156235 72.6482824,23.4189176 L72.6482824,23.4189176 L72.4887529,23.4640941 C70.7353412,23.4640941 68.9847529,23.4626824 67.2369882,23.4655059 C67.0915765,23.4655059 67.0407529,23.4189176 67.0379294,23.2735059 C67.0153412,22.7398588 67.0111059,22.7398588 67.5391059,22.7398588 C68.4144,22.7384471 68.9099294,22.2415059 68.9099294,21.3520941 L68.9099294,21.3520941 L68.9099294,9.50597647 C68.9099294,8.62503529 68.4016941,8.11256471 67.5193412,8.09421176 L67.5193412,8.09421176 L67.1847529,8.09421176 C67.1565176,8.09421176 67.1438118,8.0928 67.1240471,8.09138824 C67.0901647,8.09138824 67.0520471,8.09138824 67.0308706,8.08856471 C67.0111059,8.08432941 67.0040471,8.07162353 66.9913412,8.06174118 C66.9828706,8.05609412 66.9673412,8.05327059 66.9631059,8.0448 C66.9518118,8.0208 66.9475765,7.98409412 66.9461647,7.93327059 C66.9461647,7.93044706 66.9447529,7.93044706 66.9447529,7.92621176 C66.9419294,7.86974118 66.9419294,7.79350588 66.9362824,7.69327059 C66.9306353,7.57609412 66.9447529,7.49703529 66.9856941,7.44621176 C67.0012235,7.42785882 67.0435765,7.42927059 67.0661647,7.41938824 C67.1056941,7.40103529 67.1339294,7.37421176 67.2031059,7.37421176 L67.2031059,7.37421176 L67.2426353,7.37421176 C67.7918118,7.3968 68.3480471,7.40385882 68.8986353,7.37562353 C68.9692235,7.37138824 69.0412235,7.36997647 69.1118118,7.36997647 Z M113.810259,11.7057882 C114.370729,11.7552 114.912847,11.8610824 115.432376,12.0926118 C116.385318,12.5175529 116.924612,13.2728471 117.170259,14.2681412 C117.287435,14.7297882 117.326965,15.1984941 117.325553,15.6770824 L117.325553,18.1843765 C117.325553,19.1570824 117.321318,20.1340235 117.3312,21.1067294 C117.3312,21.3312 117.348141,21.5556706 117.387671,21.7759059 C117.517553,22.5043765 117.863435,22.8050824 118.649788,22.8304941 C119.021082,22.8460235 118.846024,23.0916706 118.881318,23.2483765 C118.920847,23.4446118 118.802259,23.4742588 118.638494,23.4657882 C118.096376,23.4375529 117.554259,23.5081412 117.014965,23.4079059 C116.268141,23.2709647 115.7472,22.7048471 115.735906,21.9368471 C115.716141,20.6973176 115.720376,19.4549647 115.726024,18.2140235 C115.728847,17.9655529 115.666729,17.8879059 115.414024,17.8949647 C114.490729,17.9147294 113.571671,17.8610824 112.649788,17.9683765 C111.876141,18.0559059 111.116612,18.2013176 110.465788,18.6728471 C109.728847,19.2008471 109.526965,19.9533176 109.635671,20.7961412 C109.748612,21.6474353 110.234259,22.2389647 111.061553,22.4959059 C112.193788,22.8474353 113.167906,22.5481412 113.976847,21.6996706 C114.102494,21.5683765 114.170259,21.5782588 114.290259,21.6714353 C114.812612,22.0921412 114.631906,22.7599059 114.204141,23.0959059 C113.766494,23.4432 113.234259,23.5575529 112.704847,23.5928471 C111.887435,23.6507294 111.064376,23.6817882 110.273788,23.4008471 C109.138729,22.9956706 108.260612,22.3250824 108.016376,21.0742588 C107.742494,19.6737882 108.238024,18.2648471 109.702024,17.5716706 C110.588612,17.1523765 111.534494,16.9984941 112.497318,16.9053176 C113.468612,16.8079059 114.444141,16.8502588 115.415435,16.8502588 C115.641318,16.8502588 115.735906,16.8008471 115.728847,16.5523765 C115.707671,15.8803765 115.758494,15.2069647 115.610259,14.5434353 C115.378729,13.5072 114.788612,12.9594353 113.734024,12.7829647 C112.925082,12.6417882 112.138729,12.7039059 111.401788,13.0935529 C110.577318,13.5241412 110.177788,14.2497882 110.081788,15.1547294 C110.049318,15.4639059 110.045082,15.4780235 109.748612,15.3989647 C109.073788,15.2140235 108.825318,14.6747294 108.876141,14.0563765 C108.956612,13.1344941 109.566494,12.6022588 110.334494,12.2309647 C111.431435,11.6973176 112.606024,11.5984941 113.810259,11.7057882 Z M89.8123765,12.8271529 C88.1394353,12.8709176 86.9323765,13.6318588 86.2730824,15.1777412 C85.6236706,16.7066824 85.5700235,18.2878588 86.0457882,19.8746824 C86.6020235,21.7255059 87.9982588,22.7476257 89.9253176,22.7476257 C91.5657882,22.7490353 92.7996706,22.0699765 93.5112,20.5593882 C93.9234353,19.6939765 94.0730824,18.7735059 94.0575529,17.7598588 C94.0702588,17.1937412 94.0081412,16.5683294 93.8584941,15.9556235 C93.6170824,14.9462118 93.1723765,14.0624471 92.2956706,13.4539765 C91.5474353,12.9358588 90.6989647,12.8031529 89.8123765,12.8271529 Z" id="Combined-Shape" fill="#0081AC"></path>
            </g>
        </g>
    </g>
</svg>