<?xml version="1.0" encoding="UTF-8"?>
<svg width="113px" height="40px" viewBox="0 0 113 40" version="1.1" xmlns="http://www.w3.org/2000/svg" xmlns:xlink="http://www.w3.org/1999/xlink">
    <title>C5570D9C-ACB8-43FF-8B19-A15502646F5D</title>
    <defs>
        <polygon id="path-1" points="0 0.0763460521 15.9630225 0.0763460521 15.9630225 21.5977505 0 21.5977505"></polygon>
        <polygon id="path-3" points="0.0561939399 0.169914507 32.0283896 0.169914507 32.0283896 39.5917297 0.0561939399 39.5917297"></polygon>
    </defs>
    <g id="logos-aseguradoras" stroke="none" stroke-width="1" fill="none" fill-rule="evenodd">
        <g id="logos-variantes" transform="translate(-455.000000, -541.000000)">
            <g id="logo-sura" transform="translate(455.000000, 541.000000)">
                <path d="M70.558995,22.4726287 C70.558995,25.4495969 68.8469826,28.2771062 65.1471355,28.2771062 C61.8276989,28.2771062 59.4455964,26.0550204 59.6085824,20.6893512 C59.7521024,15.5453957 62.2249359,13.2856978 65.5054406,13.2856978 C65.7594875,13.2856978 65.9986876,13.2777794 66.2283196,13.2612829 L70.558995,13.2612829 L70.558995,22.4726287 Z M66.2903467,9.80558472 L66.2903467,9.80954389 L65.3470737,9.80954389 C60.3535668,9.82373093 55.6639264,13.4846462 55.4613487,20.64745 C55.2769172,27.1655684 58.667289,31.7196071 64.4014912,31.7196071 C69.1191757,31.7196071 70.7721305,28.4348133 70.7721305,28.4348133 C71.0486127,30.6265454 72.229436,31.3068633 74.6069194,31.3068633 L74.6069194,12.8620663 L74.6069194,9.80558472 L66.2903467,9.80558472 Z" id="Fill-1" fill="#0030A6"></path>
                <path d="M32.8756526,9.64428141 L32.893139,24.5713533 C32.893139,26.7380107 31.0946847,27.8399805 28.7181911,27.8399805 C26.2192931,27.8399805 24.5653486,26.7380107 24.5653486,24.5713533 L24.5511615,13.4012066 C24.5396139,10.2186914 22.5441908,9.63900252 20.795556,9.63900252 L20.795556,25.4852624 C20.795556,29.479738 24.3937844,31.4457973 28.6017254,31.4457973 C32.668126,31.4457973 36.6659009,29.479738 36.6659009,25.4852624 L36.6520438,13.8796067 C36.6520438,10.75219 35.4887068,9.64428141 32.8756526,9.64428141" id="Fill-3" fill="#0030A6"></path>
                <path d="M42.0721846,17.8680775 L42.0721846,31.1659498 L45.8317492,31.1685892 L45.8317492,17.7420439 C45.8317492,14.8907795 47.3547111,13.1731583 50.2607441,13.1731583 L51.3749213,13.1731583 C54.6649941,13.1731583 55.1958532,11.4766526 55.1958532,9.63926646 L49.9397211,9.63926646 C45.2758154,9.63926646 42.0721846,12.3384326 42.0721846,17.8680775" id="Fill-5" fill="#0030A6"></path>
                <g id="Group-9" transform="translate(0.000000, 9.568001)">
                    <mask id="mask-2" fill="white">
                        <use xlink:href="#path-1"></use>
                    </mask>
                    <g id="Clip-8"></g>
                    <path d="M11.0952193,9.71000368 L6.48938144,8.44669758 C5.22739505,8.10323932 4.07659544,7.54829524 4.07659544,6.00157833 C4.07659544,4.39481397 5.04461323,3.60495896 7.08787642,3.60495896 L11.1757225,3.60495896 C12.9853945,3.60495896 15.1375349,3.02131088 15.1375349,0.0763460521 L7.44453192,0.0819548805 C2.71035084,0.0875637089 -3.29931081e-05,2.47626473 -3.29931081e-05,5.90127929 C-3.29931081e-05,9.09006318 2.01947515,10.8994052 5.63057083,11.8548856 L9.6395634,12.910995 C11.2938378,13.3554122 11.8834247,14.3884264 11.8834247,15.4593827 C11.8834247,17.066477 10.8721859,18.0358145 8.38351577,18.0658382 L0.707999107,18.119617 L0.707999107,21.5977505 L8.51317869,21.5977505 C13.2503291,21.5977505 15.9630225,19.0559614 15.9630225,15.7025419 C15.9630225,12.3289966 14.6337302,10.6767018 11.0952193,9.71000368" id="Fill-7" fill="#0030A6" mask="url(#mask-2)"></path>
                </g>
                <g id="Group-12" transform="translate(79.183459, 0.000000)">
                    <mask id="mask-4" fill="white">
                        <use xlink:href="#path-3"></use>
                    </mask>
                    <g id="Clip-11"></g>
                    <path d="M30.279062,16.266757 C30.3143647,16.2789645 30.3348204,16.3126175 30.3326876,16.3419813 C30.3212932,16.3828928 30.2879702,16.4132464 30.2246234,16.4053281 C29.5977543,16.2228762 28.2727511,15.8543432 26.5940618,15.3947492 C22.7569633,14.3409493 8.26111134,10.4583204 8.01894193,10.3887049 L7.95262578,10.3656097 C7.08259752,10.0944064 6.36829673,9.66285653 5.82160093,9.06898059 C5.65828504,8.9003858 5.5134453,8.71199516 5.37817356,8.50446851 C4.89317487,7.76113378 4.77307995,6.67928977 4.74833512,6.48034133 C4.74833512,6.45823594 4.75856299,6.41732449 4.78495747,6.38961028 C4.81201182,6.36156614 4.85292328,6.35001855 4.93012715,6.36585524 L7.30035203,7.29362144 C12.925347,9.47710533 27.8527489,15.2796033 30.279062,16.266757 L30.279062,16.266757 Z M27.8504393,13.964168 C27.8689155,14.0611678 27.8263544,14.0898718 27.7517899,14.0760147 C26.8969385,13.638856 24.9744301,12.7199979 23.0426836,11.7579189 C21.4052357,10.9416694 10.2166129,5.66937073 9.4581013,5.2784024 L8.12023077,4.59280561 C7.92194219,4.49415622 7.74311954,4.38000006 7.56693635,4.2721126 C7.03640717,3.95240938 6.7638841,3.71782839 6.47618419,3.35193482 C6.23797395,3.05367712 6.05618193,2.67491624 5.90870274,2.31925053 C5.59031924,1.51355883 5.6068158,0.45942903 5.62364228,0.268069003 C5.62364228,0.24266431 5.64013884,0.201752856 5.68072036,0.185256302 C5.71041416,0.166120299 5.74637664,0.161831195 5.82160093,0.189875337 L7.21391009,1.04274718 L7.96252371,1.50234118 L12.0579582,4.00387863 C17.7730244,7.56845403 25.7692341,12.6556614 27.8504393,13.964168 L27.8504393,13.964168 Z M31.9630303,17.8167733 C32.0029519,17.8250215 32.0316559,17.8576847 32.0283566,17.899586 C32.0253872,17.9358784 31.9887649,17.9596334 31.9389453,17.9596334 C29.7274173,17.798957 9.87447433,16.4092873 9.87447433,16.4092873 C9.68905306,16.3927907 9.54256366,16.3766241 9.36407095,16.3188862 C7.79095955,15.8160712 6.87177156,14.6052241 6.50686778,13.3874485 C6.49217612,13.3386187 6.48278282,13.2957277 6.50686778,13.2528366 C6.52996296,13.2172041 6.58440159,13.1898198 6.62960215,13.2016973 C6.63455111,13.2016973 30.0335933,17.4584681 31.9630303,17.8167733 L31.9630303,17.8167733 Z M30.983135,19.1543139 C31.0256961,19.1589329 31.0600089,19.2001743 31.0560497,19.239766 C31.0530803,19.2704496 31.0256961,19.2981638 30.9890737,19.3011332 C30.1625964,19.431456 15.0692392,21.4915456 14.9620116,21.5073823 C14.8782091,21.5218993 14.7881379,21.528168 14.6937776,21.5308074 C14.6139343,21.5308074 14.5265026,21.5308074 14.4420402,21.5182701 C13.7237802,21.4413961 13.025976,21.092329 12.4000968,20.4278478 C12.0777541,20.087359 11.7923637,19.546272 11.71417,19.3281875 C11.695364,19.2981638 11.695364,19.258902 11.7184591,19.2295382 C11.7422142,19.1912661 11.7854351,19.1744397 11.8161187,19.1675111 C11.8161187,19.1675111 16.8871595,19.1589329 20.0769331,19.163222 C22.4560662,19.1675111 24.9971954,19.1698206 27.0615741,19.1698206 C28.8557393,19.1698206 30.2810416,19.1675111 30.983135,19.1543139 L30.983135,19.1543139 Z M29.8422333,20.709609 C29.8755563,20.7033403 29.9352738,20.6967417 29.9418725,20.7297348 C29.9468214,20.7505204 29.9959812,20.7924217 29.9187773,20.8405916 C29.4255303,21.1616146 18.5684882,25.6410889 18.46423,25.6790309 C17.8670548,25.8842481 17.2035634,25.9881763 16.7202143,25.1676377 C16.5182965,24.8254992 16.3407936,24.5483571 16.2632598,24.4200139 C16.2302667,24.3678848 16.1098418,24.2388818 16.4285553,24.1587085 C16.4285553,24.1587085 19.4903157,23.3384998 22.207958,22.6519133 C25.3508815,21.8646977 28.905229,20.9636559 29.8422333,20.709609 L29.8422333,20.709609 Z M25.051634,28.2053132 C25.0998039,28.2132316 25.1291678,28.2508437 25.1057427,28.331017 C24.055572,29.5428538 20.1815213,33.8012743 18.4276077,35.6716536 C18.2461456,35.8620238 18.1517853,35.7742621 18.2223905,35.5848817 C18.2223905,35.5848817 18.5556209,34.7518057 18.6961716,34.1094299 C18.7859128,33.716482 18.8773037,33.4027175 19.0881297,33.2255445 C21.365314,31.3109545 23.5468183,29.4118712 24.9882872,28.2287383 L25.051634,28.2053132 Z M28.627427,22.8099502 C28.6749371,22.8198482 28.7010017,22.8554807 28.6749371,22.9435723 C27.6151985,23.8340563 22.7569633,27.8800012 20.1406098,30.0222437 L20.0482291,30.102087 C19.2897176,30.6731977 18.7793142,30.8064899 18.6961716,29.5524218 C18.6730764,29.2492152 18.6324949,29.0001172 18.6324949,29.0001172 C18.5859746,28.7358424 18.665488,28.7421111 18.7674367,28.6814038 C19.617999,28.1571433 21.2514878,27.2465335 22.552406,26.4695458 C24.869842,25.0858148 27.5815455,23.4420982 28.627427,22.8099502 L28.627427,22.8099502 Z M16.8970574,33.5125846 C16.9376389,33.5188533 16.9716218,33.553826 16.9557851,33.6306999 C16.5387522,34.1839943 15.8482065,34.8111933 14.9488144,35.4489501 C14.0606399,36.0774688 13.0197073,36.6865216 11.9335742,37.2107821 C10.7821147,37.7597874 9.77252562,38.216412 8.71344685,38.4945439 C7.5293242,38.8033594 6.49235082,38.9125666 5.63453001,38.8129274 C4.94332439,38.7353936 4.37254362,38.5255574 3.9370346,38.1794597 C3.91294963,38.1557047 3.90371156,38.1210619 3.90668094,38.0916981 C3.91294963,38.039239 3.95716039,38.0019568 4.01423847,37.9877698 C6.67414284,37.5595192 9.12553077,36.9036162 11.3990859,36.1197 C13.6406376,35.3479912 15.5159659,34.453878 16.8970574,33.5125846 L16.8970574,33.5125846 Z M16.6796328,32.2251935 C15.2365143,33.084664 12.2819814,34.3390619 9.69895099,35.0695293 C6.6269627,35.9431869 4.16072787,36.3671483 2.50447384,36.1246489 C1.05904578,35.9098638 0.335176985,35.2377942 0.115772816,34.9877064 C0.0850892258,34.9530637 0.045167565,34.9167713 0.0590246704,34.87487 C0.0666130852,34.8250504 0.112803437,34.77919 0.172850893,34.7719315 L0.737362973,34.7323398 C1.9584379,34.6478774 4.16072787,34.5934388 6.72759168,34.2242459 C9.69532175,33.7893968 14.4585368,32.9441133 16.6426805,32.0905816 C16.6895307,32.1001496 16.7202143,32.136442 16.6796328,32.2251935 L16.6796328,32.2251935 Z M16.4285553,36.0177513 C16.4750755,36.0207207 16.5083986,36.0563532 16.4928918,36.1322374 C15.9547742,37.4126999 15.3444017,38.379398 14.1507111,38.9805324 C12.0609276,40.0250942 10.9635768,39.4305584 10.8177473,39.3563239 C10.7768358,39.336858 10.7458223,39.2883581 10.7491216,39.2421677 C10.7557202,39.1972971 10.7930025,39.1534163 10.8428221,39.1487972 C11.7521121,38.867696 14.495819,37.8515082 16.3645486,36.0322682 C16.3784057,36.0207207 16.4074397,36.0157717 16.4285553,36.0177513 L16.4285553,36.0177513 Z" id="Fill-10" fill="#00ABC3" mask="url(#mask-4)"></path>
                </g>
            </g>
        </g>
    </g>
</svg>