<?xml version="1.0" encoding="UTF-8"?>
<svg width="133px" height="30px" viewBox="0 0 133 30" version="1.1" xmlns="http://www.w3.org/2000/svg" xmlns:xlink="http://www.w3.org/1999/xlink">
    <title>4B8359A4-EA7D-4CCC-9EF6-136AC5B918A1</title>
    <g id="logos-aseguradoras" stroke="none" stroke-width="1" fill="none" fill-rule="evenodd">
        <g id="logos-variantes" transform="translate(-754.000000, -546.000000)">
            <g id="logo-thona-seguros" transform="translate(754.000000, 546.000000)">
                <polygon id="Fill-1" fill="#1D1160" points="39.8021739 10.4572174 39.8021739 12.0439565 36.9671739 12.0439565 36.9671739 18.960913 35.2669565 18.960913 35.2669565 12.0439565 32.4319565 12.0439565 32.4319565 10.4572174"></polygon>
                <polygon id="Fill-2" fill="#1D1160" points="41.0667391 18.9606522 41.0667391 10.4569565 42.7676087 10.4569565 42.7676087 13.8593478 46.7308696 13.8593478 46.7308696 10.4504348 48.431087 10.4504348 48.431087 18.9554348 46.7308696 18.9606522 46.7308696 15.4454348 42.7676087 15.4454348 42.7676087 18.9606522"></polygon>
                <path d="M54.2895,17.5292609 C55.0838478,17.5292609 55.7314565,17.2592609 56.2310217,16.7186087 C56.730587,16.179913 56.9803696,15.5107826 56.9803696,14.7112174 C56.9803696,13.9123043 56.730587,13.2418696 56.2310217,12.7025217 C55.7314565,12.1625217 55.0786304,11.8931739 54.2758043,11.8931739 C53.4801522,11.8931739 52.8331957,12.1625217 52.3336304,12.7025217 C51.833413,13.2418696 51.5842826,13.9123043 51.5842826,14.7112174 C51.5842826,15.5107826 51.833413,16.179913 52.3336304,16.7186087 C52.8331957,17.2592609 53.4847174,17.5292609 54.2895,17.5292609 M51.0749348,17.9146957 C50.2160217,17.0538261 49.7849348,15.9855652 49.7849348,14.7112174 C49.7849348,13.4323043 50.2160217,12.3633913 51.0749348,11.5031739 C51.9338478,10.6436087 53.003413,10.2144783 54.2823261,10.2144783 C55.5618913,10.2144783 56.6308043,10.6436087 57.4903696,11.5031739 C58.3499348,12.3633913 58.7790652,13.4323043 58.7790652,14.7112174 C58.7790652,15.9907826 58.3499348,17.0596957 57.4903696,17.9186087 C56.6308043,18.7775217 55.5618913,19.2079565 54.2823261,19.2079565 C53.003413,19.2079565 51.9338478,18.7775217 51.0749348,17.9146957" id="Fill-3" fill="#1D1160"></path>
                <polygon id="Fill-5" fill="#1D1160" points="60.219587 18.9530217 60.219587 10.4493261 60.7869783 10.4493261 66.1165435 15.7788913 66.1165435 10.4493261 67.8180652 10.4493261 67.8180652 18.9530217 67.1939348 18.9530217 61.9211087 13.6808478 61.9211087 18.9530217"></polygon>
                <path d="M73.4295652,12.728413 L72.1382609,15.960587 L74.688913,15.960587 L73.4295652,12.728413 Z M69.1323913,18.9651522 L72.5341304,10.4614565 L74.2356522,10.4614565 L77.6302174,18.9651522 L75.8223913,18.9651522 L75.3130435,17.6614565 L71.4573913,17.6614565 L70.9473913,18.9651522 L69.1323913,18.9651522 Z" id="Fill-7" fill="#1D1160"></path>
                <path d="M84.8865652,11.9676522 C85.2563478,12.1287391 85.602,12.3700435 85.9248261,12.6922174 L84.9589565,13.6561304 C84.6374348,13.2706957 84.1861304,13.0783043 83.6076522,13.0783043 C83.0278696,13.0783043 82.658087,13.2146087 82.4976522,13.4885217 C82.335913,13.7617826 82.335913,13.9946087 82.4976522,14.1883043 C82.658087,14.3813478 83.0278696,14.5261304 83.6076522,14.622 C84.218087,14.6865652 84.7737391,14.888087 85.2726522,15.2265652 C85.770913,15.563087 86.0193913,16.1017826 86.0193913,16.8426522 C86.0193913,17.4211304 85.7539565,17.9193913 85.2217826,18.3387391 C84.6896087,18.7567826 84.0693913,18.9648261 83.3617826,18.9648261 C82.6887391,18.9648261 82.1278696,18.8689565 81.6772174,18.675913 C81.2272174,18.4828696 80.8398261,18.225913 80.5189565,17.9037391 L81.4841739,16.9391739 C81.8043913,17.3246087 82.3528696,17.5502609 83.1243913,17.6148261 C83.768087,17.6148261 84.1691739,17.4778696 84.3289565,17.2033043 C84.488087,16.9300435 84.488087,16.6567826 84.3289565,16.3841739 C84.1691739,16.1102609 83.768087,15.9406957 83.1243913,15.8767826 C82.5465652,15.8128696 82.0143913,15.6361304 81.5317826,15.3465652 C81.0491739,15.057 80.8085217,14.558087 80.8085217,13.8498261 C80.8085217,13.2100435 81.083087,12.6954783 81.630913,12.308087 C82.1800435,11.9206957 82.7441739,11.727 83.322,11.727 C83.9950435,11.727 84.5161304,11.8072174 84.8865652,11.9676522" id="Fill-9" fill="#1D1160"></path>
                <polygon id="Fill-11" fill="#1D1160" points="87.2647174 18.9651522 87.2647174 11.7312391 92.5831957 11.7266739 92.5831957 13.0779783 88.7131957 13.0779783 88.7131957 14.6223261 91.6127609 14.6223261 91.6127609 15.968413 88.7131957 15.968413 88.7131957 17.6145 92.573413 17.6145 92.573413 18.9651522"></polygon>
                <path d="M94.6602391,17.9263696 C93.9663261,17.2350652 93.6200217,16.371587 93.6200217,15.3320217 C93.6232826,14.3146304 93.9708913,13.4602826 94.6621957,12.7670217 C95.3541522,12.0731087 96.2117609,11.7268043 97.2350217,11.7268043 C98.267413,11.7268043 99.1543696,12.0489783 99.8932826,12.6920217 L98.9287174,13.7472391 C98.4369783,13.3631087 97.8708913,13.1700652 97.2350217,13.1700652 C96.5854565,13.1726739 96.0604565,13.3755 95.6639348,13.7785435 C95.2667609,14.1796304 95.0678478,14.6948478 95.0678478,15.3222391 C95.0711087,15.9946304 95.2719783,16.5287609 95.6711087,16.9239783 C96.0702391,17.3198478 96.5939348,17.5174565 97.2448043,17.5174565 C97.7658913,17.5174565 98.1663261,17.4150652 98.4467609,17.2089783 L98.4467609,15.9685435 L97.4808913,15.9731087 L97.4808913,14.6224565 L99.8932826,14.6224565 L99.8932826,18.0007174 C99.1569783,18.644413 98.2706739,18.9652826 97.2350217,18.9652826 C96.2117609,18.9626739 95.3528478,18.6157174 94.6602391,17.9263696" id="Fill-13" fill="#1D1160"></path>
                <path d="M102.658304,11.7268696 L102.658304,15.924913 C102.658304,16.472087 102.819391,16.8744783 103.141565,17.132087 C103.462435,17.3896957 103.86613,17.5175217 104.347435,17.5175217 C104.830043,17.5175217 105.233087,17.3896957 105.553957,17.132087 C105.87613,16.8744783 106.036565,16.472087 106.036565,15.924913 L106.036565,11.7268696 L107.485696,11.7268696 L107.485696,16.3116522 C107.485696,17.0505652 107.187,17.6792609 106.591565,18.1938261 C105.99613,18.7083913 105.248087,18.9653478 104.347435,18.9653478 C103.446783,18.9653478 102.698739,18.7083913 102.102652,18.1938261 C101.50787,17.6792609 101.21113,17.0505652 101.21113,16.3116522 L101.21113,11.7268696 L102.658304,11.7268696 Z" id="Fill-15" fill="#1D1160"></path>
                <path d="M110.465935,14.6221957 L112.492891,14.6221957 C113.075283,14.6117609 113.373978,14.3469783 113.390935,13.8265435 C113.373978,13.3498043 113.0805,13.1019783 112.507891,13.082413 L110.465935,13.082413 L110.465935,14.6221957 Z M113.376587,15.8091522 L115.1805,18.9650217 L113.52137,18.9650217 L111.788543,15.9735 L110.465935,15.9735 L110.465935,18.9650217 L109.018761,18.9650217 L109.018761,11.7271957 L112.175283,11.7271957 C113.863761,11.7271957 114.708326,12.422413 114.708326,13.8115435 C114.708326,14.8576304 114.264848,15.5235 113.376587,15.8091522 L113.376587,15.8091522 Z" id="Fill-17" fill="#1D1160"></path>
                <path d="M119.162348,17.6146304 C119.80213,17.6146304 120.32387,17.3974565 120.725609,16.9631087 C121.128652,16.5287609 121.328217,15.989413 121.328217,15.3463696 C121.328217,14.7026739 121.128652,14.1633261 120.725609,13.7289783 C120.32387,13.2952826 119.799522,13.0781087 119.152565,13.0781087 C118.51213,13.0781087 117.991696,13.2952826 117.589304,13.7289783 C117.186261,14.1633261 116.985391,14.7026739 116.985391,15.3463696 C116.985391,15.989413 117.186261,16.5287609 117.589304,16.9631087 C117.991696,17.3974565 118.515391,17.6146304 119.162348,17.6146304 M116.575826,17.9263696 C115.88387,17.2331087 115.536913,16.3728913 115.536913,15.3463696 C115.536913,14.3159348 115.88387,13.4563696 116.575826,12.764413 C117.267783,12.0724565 118.128,11.7268043 119.157783,11.7268043 C120.186913,11.7268043 121.047783,12.0724565 121.739739,12.764413 C122.431043,13.4563696 122.776696,14.3159348 122.776696,15.3463696 C122.776696,16.3755 122.431043,17.2363696 121.739739,17.9289783 C121.047783,18.6202826 120.186913,18.9652826 119.157783,18.9652826 C118.128,18.9652826 117.267783,18.6183261 116.575826,17.9263696" id="Fill-19" fill="#1D1160"></path>
                <path d="M127.7415,11.9676522 C128.112587,12.1287391 128.458239,12.3700435 128.779109,12.6922174 L127.813891,13.6561304 C127.493022,13.2706957 127.041717,13.0783043 126.463239,13.0783043 C125.884761,13.0783043 125.514326,13.2146087 125.353239,13.4885217 C125.192152,13.7617826 125.192152,13.9946087 125.353239,14.1883043 C125.514326,14.3813478 125.884761,14.5261304 126.463239,14.622 C127.074978,14.6865652 127.629326,14.888087 128.128239,15.2265652 C128.627152,15.563087 128.87563,16.1017826 128.87563,16.8426522 C128.87563,17.4211304 128.610196,17.9193913 128.07737,18.3387391 C127.545196,18.7567826 126.923674,18.9648261 126.21737,18.9648261 C125.544326,18.9648261 124.982152,18.8689565 124.533457,18.675913 C124.0815,18.4828696 123.69737,18.225913 123.374543,17.9037391 L124.339761,16.9391739 C124.66063,17.3246087 125.208457,17.5502609 125.98063,17.6148261 C126.624326,17.6148261 127.025413,17.4778696 127.185196,17.2033043 C127.343674,16.9300435 127.343674,16.6567826 127.185196,16.3841739 C127.025413,16.1102609 126.624326,15.9406957 125.98063,15.8767826 C125.4015,15.8128696 124.87063,15.6361304 124.388022,15.3465652 C123.905413,15.057 123.664761,14.558087 123.664761,13.8498261 C123.664761,13.2100435 123.938022,12.6954783 124.487152,12.308087 C125.034978,11.9206957 125.598457,11.727 126.178239,11.727 C126.85063,11.727 127.37237,11.8072174 127.7415,11.9676522" id="Fill-21" fill="#1D1160"></path>
                <path d="M5.49586957,12.0997921 C6.46043478,12.0965217 7.10869565,11.0054348 6.52956522,10.1413043 C6.31565217,9.81913043 5.88782609,9.55108696 5.35695652,9.60782609 C4.89065217,9.65673913 4.55021739,9.9573913 4.39826087,10.2247826 C4.19413043,10.5854348 4.19673913,11.1169565 4.39826087,11.471087 C4.5873913,11.801087 4.96956522,12.1017391 5.49586957,12.0997921 M5.74043478,19.7263043 C6.58565217,19.6441304 7.19608696,18.6345652 6.66782609,17.7984783 C6.48391304,17.5076087 6.0423913,17.1913043 5.52782609,17.2343478 C5.27804348,17.253913 5.03086957,17.3373913 4.85608696,17.4684783 C4.56782609,17.6836957 4.32717391,18.0619565 4.35652174,18.5432609 C4.37543478,18.8654348 4.51043478,19.1367391 4.7073913,19.3428261 C4.94347826,19.5886957 5.27673913,19.7719565 5.74043478,19.7263043 M12.1845652,23.9119565 C12.2158696,23.478913 12.033913,23.1528261 11.8336957,22.9428261 C11.5982609,22.698913 11.235,22.5332609 10.7902174,22.5815217 C10.4973913,22.6128261 10.2319565,22.7504348 10.0656522,22.9115217 C9.85630435,23.1130435 9.68413043,23.4084783 9.68150784,23.8056522 C9.68021739,24.0645652 9.77086957,24.33 9.88434783,24.5093478 C10.0747826,24.8067391 10.4491304,25.0734783 10.938913,25.0734783 C11.576087,25.0734783 12.1369565,24.5947826 12.1845652,23.9119565 M11.8656522,6.45521739 C12.0567391,6.24847826 12.2080435,6.00521739 12.2061057,5.60282609 C12.2047826,5.24217391 12.0286957,4.91478261 11.8232609,4.71847826 C11.5995652,4.50326087 11.2708696,4.34086957 10.886087,4.3676087 C10.5234783,4.39108696 10.26,4.5273913 10.076087,4.7073913 C9.86217391,4.91804348 9.66782609,5.2623913 9.7023913,5.71956522 C9.75065217,6.32413043 10.2463043,6.81391304 10.8319565,6.85891304 C11.3269565,6.8973913 11.6328261,6.70565217 11.8656522,6.45521739 M19.608913,6.1773913 C19.8463043,5.70913043 19.7243478,5.16326087 19.4817391,4.8573913 C19.2521739,4.56782609 18.888913,4.32130435 18.3632609,4.37869565 C18.1278261,4.40282609 17.981087,4.46347826 17.8304348,4.55869565 C17.52,4.75369565 17.276087,5.06673913 17.2454348,5.52782609 C17.2063043,6.09782609 17.5304348,6.51065217 17.8519565,6.69978261 C18.0221739,6.80021739 18.2373913,6.86478261 18.4584783,6.87065217 C19.023913,6.88304348 19.4276087,6.5373913 19.608913,6.1773913 M19.7054348,24.0834783 C19.8195652,23.5493478 19.5632609,23.1071739 19.3004348,22.878913 C19.0852174,22.6930435 18.7623913,22.5417391 18.3632609,22.5815217 C18.225,22.593913 18.1421739,22.6056522 18.0645652,22.6336957 C17.808913,22.7236957 17.6184783,22.8782609 17.4782609,23.0595652 C17.3582609,23.2167391 17.2232609,23.5186957 17.2232609,23.8271739 C17.2232609,24.2967391 17.4926087,24.6952174 17.8519565,24.9026087 C18.2523913,25.1341304 18.7845652,25.1269565 19.1830435,24.8608696 C19.4041304,24.7128261 19.6284783,24.4428261 19.7054348,24.0834783 M23.8917391,19.6943478 C24.528913,19.6513043 25.076087,19.1308696 25.0741357,18.4265217 C25.0715217,18.0254348 24.8686957,17.7221739 24.6684783,17.5317391 C24.4571739,17.3302174 24.1363043,17.1593478 23.6993478,17.2017391 C23.5115217,17.2206522 23.3523913,17.2663043 23.2304348,17.3302174 C22.9082609,17.4971739 22.6108696,17.8421739 22.5704348,18.3097826 C22.5267391,18.8073913 22.7347826,19.1523913 22.9858696,19.3747826 C23.2082609,19.5723913 23.5493478,19.7171739 23.8917391,19.6943478 M25.0741304,10.9917391 C25.0813043,10.7191304 24.993913,10.4452174 24.8602174,10.2463043 C24.6671739,9.95869565 24.2445652,9.66195652 23.7104348,9.71347826 C23.5186957,9.7323913 23.3908696,9.7773913 23.2630435,9.84195652 C22.8971739,10.0245652 22.6069565,10.3617391 22.5704348,10.8430435 C22.5286957,11.3830435 22.8123913,11.8115217 23.1671739,12.0254348 C23.5878261,12.2784783 24.1513043,12.255 24.5413043,11.9830435 C24.8191304,11.7886957 25.061087,11.4723913 25.0741304,10.9917391 M27.5021739,15.0182609 C27.5921739,14.52 27.446087,14.1521739 27.2563043,13.8782609 C27.0547826,13.5847826 26.8271739,13.3956522 26.4156522,13.2926087 C26.0628261,13.2045652 25.4986957,13.2541304 25.0415217,13.2397826 C24.1917391,13.2123913 23.3015217,13.1556522 22.6134783,12.813913 C22.2867391,12.6515217 22.0376087,12.4363043 21.8354348,12.1643478 C21.7343478,12.0280435 21.6469565,11.8695652 21.6006522,11.6843478 C21.555,11.4965217 21.5086957,11.2715217 21.5158696,11.0563043 C21.5230435,10.833913 21.6084783,10.6004348 21.6873913,10.3963043 C21.9182609,9.78913043 22.2997826,9.30326087 22.676087,8.87282609 C22.9526087,8.55782609 23.1926087,8.30347826 23.4854348,8.01 C23.6243478,7.87043478 23.7841304,7.73934783 23.9015217,7.59456522 C24.0313043,7.43347826 24.1128261,7.23847826 24.1676087,7.02 C24.2334783,6.75717391 24.2002174,6.51586957 24.146087,6.29543478 C24.09,6.05478261 23.9713043,5.89108696 23.8480435,5.75282609 C23.7143478,5.59891304 23.58,5.46717391 23.3895652,5.37913043 C23.2063043,5.29304348 22.9506522,5.22521739 22.7086957,5.21869565 C22.4595652,5.21217391 22.2267391,5.2976087 22.0486957,5.38956522 C21.8680435,5.48282609 21.731087,5.63217391 21.5895652,5.77369565 C21,6.3626087 20.4684783,6.88043478 19.8006522,7.33891304 C19.4667391,7.56913043 19.1184783,7.74847826 18.6502174,7.86130435 C18.3847826,7.92326087 18.1421739,7.89782609 17.9047826,7.86130435 C17.6354348,7.8176087 17.4841304,7.73413043 17.3086957,7.61608696 C17.1358696,7.49869565 16.9721739,7.37608696 16.8606522,7.22086957 C16.7458696,7.05978261 16.6532609,6.88304348 16.5632609,6.67826087 C16.2319565,5.9223913 16.1784783,4.79217391 16.1784783,3.7173913 C16.1784783,3.42 16.1967391,3.16108696 16.1263043,2.94 C15.9919565,2.51869565 15.708913,2.24152174 15.3378261,2.04521739 C15.1252174,1.9323913 14.8552174,1.90304348 14.6243478,1.91804348 L14.6034783,1.91804348 C14.2493478,1.89782609 13.9558696,2.11108696 13.7086957,2.31130435 C13.4673913,2.50630435 13.3056522,2.82586957 13.26,3.15326087 C13.2319565,3.36130435 13.2502174,3.57130435 13.2502174,3.78195652 C13.2502174,4.85217391 13.2013043,5.88391304 12.8876087,6.64695652 C12.7969565,6.86673913 12.6756522,7.09434783 12.5367391,7.25347826 C12.3867391,7.42434783 12.1878261,7.57304348 12.003913,7.69043478 C11.8656522,7.77847826 11.715,7.82608696 11.5245652,7.86130435 C11.3328261,7.89521739 11.1378261,7.93565217 10.938913,7.90304348 C10.7752174,7.87630435 10.6030435,7.82804348 10.4276087,7.76478261 C9.79369565,7.53456522 9.35804348,7.16347826 8.87217391,6.74217391 C8.65108696,6.54978261 8.42217391,6.33782609 8.20108696,6.12456522 C7.98195652,5.91326087 7.77978261,5.66673913 7.54108696,5.49652174 C7.26391304,5.2976087 6.92217391,5.19326087 6.54913043,5.24086957 C6.3626087,5.26434783 6.18782609,5.31652174 6.05021739,5.37913043 C5.78217391,5.50173913 5.51608696,5.75673913 5.38891304,6.00782609 C5.31652174,6.1526087 5.28195652,6.32413043 5.25065217,6.51913043 C5.19782609,6.85304348 5.25456522,7.20847826 5.47434783,7.53065217 C5.5773913,7.68065217 5.73978261,7.81630435 5.87869565,7.95652174 C6.02021739,8.0973913 6.16369565,8.24086957 6.29413043,8.3823913 C6.82043478,8.95173913 7.38652174,9.51782609 7.71130435,10.3108696 C7.79086957,10.5045652 7.88021739,10.7230435 7.90304348,10.9604348 C7.91478261,11.0804348 7.89456522,11.2154348 7.88152174,11.3536957 C7.84695652,11.73 7.76152174,11.9354348 7.58413043,12.1852174 C7.48304348,12.3254348 7.36956522,12.4669565 7.2423913,12.5582609 C6.96586957,12.7571739 6.63586957,12.9163043 6.27326087,13.0154348 C5.52065217,13.2234783 4.56130435,13.2502174 3.65282609,13.2502174 C3.39065217,13.2502174 3.18978261,13.2515217 2.99217391,13.3036957 C2.60934783,13.4041304 2.36217391,13.6076087 2.16130435,13.9004348 C2.06152174,14.0452174 1.97413043,14.2141304 1.93826087,14.3902174 C1.84173913,14.8597826 1.96565217,15.2432609 2.16130435,15.528913 C2.35891304,15.8165217 2.58130435,16.0258696 2.9823913,16.136087 C3.18913043,16.1928261 3.41478261,16.1784783 3.65282609,16.1791304 C4.85543478,16.185 5.99934783,16.2378261 6.78456522,16.6154348 C7.05,16.7432609 7.24304348,16.8586957 7.4126087,17.0536957 C7.58413043,17.2473913 7.74586957,17.4541304 7.81826087,17.7247826 C7.86717391,17.9067391 7.91217391,18.1226087 7.91347826,18.3423913 C7.91543478,18.5406522 7.84695652,18.7441304 7.78565217,18.9280435 C7.72304348,19.1145652 7.65391304,19.2795652 7.57304348,19.4282609 C7.06434783,20.3595652 6.32021739,20.9986957 5.61326087,21.7506522 C5.38891304,21.9886957 5.19326087,22.3571739 5.22978261,22.7726087 C5.26826087,23.2056522 5.4026087,23.5167391 5.655,23.7736957 C5.90021739,24.0228261 6.19826087,24.1604348 6.6573913,24.2002174 C7.06434783,24.2341304 7.45891304,24.0573913 7.68978261,23.8271739 C7.93434783,23.5832609 8.16847826,23.34 8.40326087,23.1136957 C8.88326087,22.6506522 9.44543478,22.1517391 10.001087,21.8563043 C10.2913043,21.7017391 10.7054348,21.5230435 11.0876087,21.5367391 C11.3217391,21.5458696 11.535,21.5582609 11.7273913,21.6117391 C11.895,21.6593478 12.0313043,21.7571739 12.1845652,21.8673913 C12.3293478,21.971087 12.4728261,22.0695652 12.5686957,22.1973913 C12.6665217,22.3291304 12.7434783,22.485 12.8236957,22.6552174 C13.1315217,23.3047826 13.2254348,24.1415217 13.2397826,25.095 C13.2463043,25.5326087 13.2,26.1058696 13.3036957,26.4580435 C13.4178261,26.846087 13.6193478,27.0795652 13.9102174,27.2784783 C14.1932609,27.4695652 14.6021739,27.5934783 15.0606522,27.4917391 C15.2380435,27.4526087 15.3893478,27.3697826 15.54,27.2673913 C15.8380435,27.0658696 16.0363043,26.8102174 16.1367391,26.4365217 C16.1882609,26.2441304 16.1784783,26.0282609 16.1784783,25.7667391 C16.1784783,24.303913 16.2554348,22.991087 16.8834783,22.1863043 C16.9819565,22.0584783 17.1313043,21.9586957 17.2656522,21.8563043 C17.4143478,21.7447826 17.5454348,21.66 17.7345652,21.6117391 C17.9484783,21.5563043 18.1369565,21.513913 18.3521739,21.5158696 C18.5497826,21.5165217 18.7467391,21.5830435 18.9384783,21.6436957 C19.2776087,21.7519565 19.5919565,21.9313043 19.8756522,22.1334783 C20.4084783,22.511087 20.9113043,22.9780435 21.3978261,23.4645652 C21.6286957,23.6954348 21.8530435,23.97 22.1876087,24.1030435 C22.5332609,24.2419565 22.998913,24.2328261 23.3693478,24.0730435 C23.6647826,23.943913 23.9478261,23.6386957 24.0723913,23.3484783 C24.1402174,23.1873913 24.1936957,22.9741304 24.2113043,22.7726087 C24.2445652,22.3558696 24.0241304,21.9508696 23.816087,21.7395652 C23.4743478,21.3906522 23.066087,20.9921739 22.7621739,20.6530435 C22.3167391,20.156087 21.8713043,19.6115217 21.6436957,18.9163043 C21.5823913,18.7291304 21.5178261,18.5276087 21.5269565,18.3215217 C21.5347826,18.1095652 21.5517391,17.8897826 21.6117391,17.6921739 C21.6580435,17.538913 21.7623913,17.3771739 21.8680435,17.2343478 C21.9756522,17.085 22.0832609,16.9473913 22.2078261,16.8613043 C22.4941304,16.6630435 22.8143478,16.518913 23.1886957,16.4132609 C23.9145652,16.2104348 24.8954348,16.1791304 25.8084783,16.1791304 C26.0686957,16.1791304 26.276087,16.1823913 26.4684783,16.1256522 C26.6452174,16.0741304 26.801087,15.9991304 26.9478261,15.8915217 C27.0815217,15.795 27.1780435,15.6573913 27.2784783,15.5080435 C27.3847826,15.3502174 27.4708696,15.1930435 27.5021739,15.0182609 M29.3445652,13.1217391 C29.7280435,16.7576087 28.7967391,19.7621739 27.4917391,22.0271739 C26.16,24.3378261 24.3469565,26.1658696 22.016087,27.4917391 C20.2552174,28.4928261 18.2804348,29.2121739 15.7213043,29.3980435 C14.8695652,29.46 13.9630435,29.4371739 13.1015217,29.3445652 C11.478913,29.1691304 10.0467391,28.7432609 8.7873913,28.1941304 C7.54304348,27.6521739 6.40434783,26.936087 5.39934783,26.1065217 C4.40413043,25.2834783 3.49826087,24.3515217 2.7476087,23.2943478 C1.22673913,21.1513043 0.152608696,18.5973913 1.13686838e-13,15.1141304 L1.13686838e-13,14.3158696 C0.0163043478,14.0347826 0.03,13.7302174 0.052826087,13.4530435 C0.121956522,12.6267391 0.256304348,11.876087 0.436956522,11.1528261 C1.14,8.32043478 2.54282609,6.07369565 4.31413043,4.30304348 C5.49652174,3.12 6.89347826,2.1123913 8.52130435,1.36434783 C10.1628261,0.607826087 12.0632609,0.0717391304 14.3158696,0 L15.1141304,0 C18.5797826,0.148695652 21.1682609,1.2273913 23.295,2.75869565 C25.4308696,4.29847826 27.0704348,6.29413043 28.1941304,8.79847826 C28.755,10.0473913 29.1743478,11.4945652 29.3445652,13.1217391" id="Fill-23" fill="#E31B23"></path>
                <path d="M18.6396522,18.5011304 C19.5298696,17.5933043 20.1963913,16.3372174 20.1846522,14.5926522 C20.1794348,13.7500435 19.9668261,12.9967826 19.6733478,12.3765652 C19.3003043,11.5913478 18.8092174,10.9717826 18.1818261,10.4487391 C18.0585652,10.3456957 17.9268261,10.2550435 17.787913,10.1611304 C17.0163913,9.64004348 15.9116087,9.16265217 14.6137826,9.2246087 L14.5922609,9.2246087 C13.7333478,9.2246087 12.9866087,9.4496087 12.3761739,9.73656522 C11.7468261,10.0306957 11.2374783,10.4389565 10.790087,10.8856957 C10.3126957,11.3617826 9.98269565,11.8626522 9.69247826,12.525913 C9.42704348,13.1337391 9.22030435,13.9391739 9.24573913,14.8163478 C9.29334783,16.5341739 10.0185652,17.7296087 10.9068261,18.6185217 C11.3561739,19.065913 11.9020435,19.4376522 12.5470435,19.7161304 C13.1842174,19.9900435 13.9661739,20.187 14.8374783,20.1635217 C16.5070435,20.1165652 17.7455217,19.4141739 18.6396522,18.5011304 M26.5648696,14.6885217 C26.5798696,14.9539565 26.409,15.2037391 26.1494348,15.2741739 C26.0105217,15.3113478 25.8481304,15.2989565 25.6916087,15.3061304 C25.220087,15.3289565 24.7263913,15.312 24.2959565,15.3485217 C23.4474783,15.4202609 22.6466087,15.6237391 22.0159565,15.9667826 C21.4016087,16.3000435 20.8544348,16.7233043 20.6633478,17.5000435 C20.5205217,18.0876522 20.6496522,18.6700435 20.8126957,19.1506957 C21.1420435,20.1178696 21.6833478,20.7778696 22.3355217,21.4848261 C22.4803043,21.6387391 22.6296522,21.7985217 22.805087,21.9739565 C22.9772609,22.1461304 23.2368261,22.347 23.262913,22.5915652 C23.3176957,23.1054783 22.8135652,23.4191739 22.400087,23.1987391 C22.2292174,23.1074348 22.0583478,22.8765652 21.9103043,22.740913 C21.0774783,21.9752609 20.3353043,21.2017826 19.1092174,20.8013478 C18.6324783,20.6467826 18.0403043,20.5254783 17.4781304,20.6643913 C16.9785652,20.787 16.6296522,21.0824348 16.3485652,21.4313478 C15.7935652,22.1213478 15.4622609,23.1048261 15.3592174,24.2317826 C15.3318261,24.5272174 15.3311739,24.8291739 15.3168261,25.137 C15.3024783,25.433087 15.3422609,25.7487391 15.2953043,26.0637391 C15.2542174,26.337 15.0722609,26.4993913 14.847913,26.5535217 C14.5316087,26.6311304 14.2094348,26.4191739 14.1448696,26.1283043 C14.1142174,25.9867826 14.1344348,25.8204783 14.1344348,25.6593913 C14.1344348,24.5650435 14.0542174,23.5091739 13.7613913,22.6978696 C13.5937826,22.2328696 13.3896522,21.8167826 13.1013913,21.4515652 C12.8307391,21.1104783 12.4694348,20.7993913 11.9822609,20.6741739 C11.1344348,20.4550435 10.2598696,20.7837391 9.6716087,21.0785217 C8.82834783,21.5024348 8.17095652,22.1004783 7.53052174,22.740913 C7.35769565,22.9137391 7.17313043,23.1504783 6.95595652,23.2306957 C6.49878261,23.3976522 6.01747826,22.962 6.19813043,22.4748261 C6.27117391,22.2798261 6.49617391,22.1148261 6.64617391,21.9635217 C7.13269565,21.477 7.56247826,21.0074348 7.96682609,20.4191739 C8.21856522,20.0526522 8.4513913,19.6365652 8.61704348,19.1506957 C8.78269565,18.6661304 8.91182609,18.120913 8.77552174,17.5104783 C8.66204348,16.9946087 8.37378261,16.6633043 8.00986957,16.3606957 C7.33617391,15.7991739 6.33378261,15.4626522 5.19769565,15.3596087 C4.89378261,15.3322174 4.5963913,15.3322174 4.2813913,15.3172174 C3.98791304,15.3028696 3.67226087,15.345913 3.35530435,15.2956957 C3.08986957,15.2533043 2.83747826,15.0054783 2.86552174,14.6663478 C2.88378261,14.4289565 3.05921739,14.202 3.30117391,14.1446087 C3.44269565,14.112 3.61617391,14.1348261 3.78052174,14.1348261 C4.9263913,14.1348261 5.89095652,14.0565652 6.76356522,13.7513478 C7.21682609,13.590913 7.67465217,13.3678696 8.02030435,13.0796087 C8.37247826,12.788087 8.6613913,12.4333043 8.77552174,11.9193913 C8.91508696,11.3004783 8.76573913,10.7343913 8.60595652,10.2674348 C8.19443478,9.06808696 7.44247826,8.28352174 6.61421739,7.45591304 C6.47530435,7.31569565 6.2366087,7.09526087 6.18834783,6.92373913 C6.05008696,6.42547826 6.48313043,6.07004348 6.91226087,6.1893913 C7.1216087,6.24613043 7.28856522,6.46656522 7.44508696,6.62504348 C7.92834783,7.10830435 8.45595652,7.58504348 8.99986957,7.96656522 C9.36508696,8.22221739 9.79226087,8.45308696 10.2781304,8.61613043 C10.7385652,8.77134783 11.334,8.92069565 11.9405217,8.77721739 C12.6892174,8.59852174 13.134,8.02069565 13.4626957,7.40243478 C13.9120435,6.55852174 14.1233478,5.51569565 14.1233478,4.20743478 C14.1233478,4.06004348 14.127913,3.89830435 14.1344348,3.73852174 C14.1403043,3.57743478 14.1161739,3.4196087 14.1559565,3.28069565 C14.2081304,3.09352174 14.3672609,2.91743478 14.6242174,2.87634783 C14.8622609,2.83656522 15.162913,2.96373913 15.2633478,3.24873913 C15.309,3.37852174 15.2894348,3.54221739 15.2953043,3.70656522 C15.3122609,4.17417391 15.3122609,4.66917391 15.3494348,5.10221739 C15.3976957,5.69243478 15.489,6.23634783 15.6572609,6.72026087 C15.8118261,7.16634783 16.0583478,7.6496087 16.329,7.98808696 C16.6133478,8.34547826 16.9720435,8.6396087 17.4781304,8.76613043 C18.0924783,8.91808696 18.6533478,8.78113043 19.1411739,8.61613043 C20.3281304,8.21830435 21.1616087,7.43830435 21.9742174,6.62504348 C22.1242174,6.47634783 22.3022609,6.25004348 22.4959565,6.1893913 C22.7405217,6.11113043 22.9837826,6.21547826 23.1024783,6.33743478 C23.2244348,6.46265217 23.3118261,6.70917391 23.2303043,6.9446087 C23.165087,7.13504348 22.9459565,7.31830435 22.7953043,7.47678261 C22.644,7.63330435 22.467913,7.81330435 22.325087,7.96656522 C21.6905217,8.65656522 21.1446522,9.30808696 20.8126957,10.3000435 C20.6633478,10.7493913 20.5205217,11.3467826 20.6633478,11.940913 C20.7931304,12.4783043 21.0820435,12.8043913 21.4413913,13.0906957 C22.3316087,13.7989565 23.619,14.1237391 25.2116087,14.1237391 C25.3583478,14.1237391 25.5194348,14.1289565 25.6805217,14.1348261 C25.8383478,14.1387391 25.9974783,14.1185217 26.1383478,14.1550435 C26.3992174,14.2235217 26.5498696,14.4348261 26.5648696,14.6885217" id="Fill-26" fill="#E31B23"></path>
                <path d="M24.4767391,10.3002391 C24.6358696,10.457413 24.7721739,10.7202391 24.7441304,11.0456739 C24.6984783,11.5687174 24.2204348,11.919587 23.7208696,11.8765435 C23.5030435,11.8569783 23.3106522,11.7611087 23.1671739,11.6202391 C23.0269565,11.4839348 22.8456522,11.1506739 22.9121739,10.779587 C22.9630435,10.487413 23.1586957,10.2461087 23.3895652,10.1293696 C23.4723913,10.0882826 23.5558696,10.0608913 23.6993478,10.0439348 C24.0280435,10.0041522 24.3058696,10.1267609 24.4767391,10.3002391" id="Fill-28" fill="#E31B23"></path>
                <path d="M24.7439348,18.4378043 C24.7504565,19.2517174 23.7278478,19.6919348 23.1448043,19.0873696 C22.9406739,18.8728043 22.8187174,18.4397609 22.9641522,18.0862826 C23.0750217,17.8182391 23.3254565,17.5788913 23.6887174,17.5319348 C24.2828478,17.4562826 24.7393696,17.8815 24.7439348,18.4378043" id="Fill-30" fill="#E31B23"></path>
                <path d="M18.3734348,4.7073913 C18.959087,4.6376087 19.4606087,5.06869565 19.416913,5.6876087 C19.3875652,6.11543478 19.0386522,6.495 18.6082174,6.54 C18.1503913,6.58695652 17.6827826,6.31369565 17.5856087,5.80565217 C17.5066957,5.40130435 17.6958261,5.06021739 17.9162609,4.88869565 C18.0362609,4.79413043 18.2032174,4.72891304 18.3734348,4.7073913" id="Fill-32" fill="#E31B23"></path>
                <path d="M19.4068056,23.8169348 C19.4081087,24.642587 18.3868043,25.0573696 17.8089783,24.4671522 C17.6778913,24.3315 17.5546304,24.1312826 17.5539751,23.8273696 C17.5533261,23.5573696 17.6550652,23.3493261 17.7881087,23.1986739 C17.9087609,23.0623696 18.1018043,22.940413 18.3522391,22.9117174 C18.6796304,22.8719348 18.9613696,22.9899783 19.1302826,23.1569348 C19.2639783,23.2893261 19.4068056,23.5469348 19.4068056,23.8169348" id="Fill-34" fill="#E31B23"></path>
                <path d="M16.9461522,16.7233043 C17.4189783,16.2093913 17.796587,15.4606957 17.7346304,14.4961304 C17.6778913,13.6072174 17.2526739,12.9061304 16.7550652,12.462 C16.2548478,12.0165652 15.4957174,11.6167826 14.5174565,11.6846087 C14.2976739,11.6989565 14.0602826,11.7302609 13.8581087,11.7915652 C13.2822391,11.9637391 12.8087609,12.2956957 12.4728913,12.6648261 C12.0098478,13.1728696 11.6570217,13.9235217 11.7052826,14.8900435 C11.751587,15.7874348 12.1924565,16.4663478 12.6855,16.9241739 C13.1876739,17.3924348 13.9500652,17.7433043 14.9224565,17.7028696 C15.3691957,17.6833043 15.7631087,17.543087 16.0931087,17.3728696 C16.4348478,17.1967826 16.7061522,16.9841739 16.9461522,16.7233043 M19.1720217,14.4224348 C19.259413,15.8943913 18.7070217,16.9267826 18.0111522,17.7028696 C17.6563696,18.0974348 17.2481087,18.4150435 16.7433261,18.6726522 C16.2502826,18.923087 15.6698478,19.1148261 14.9974565,19.1506957 C13.5776739,19.227 12.4422391,18.675913 11.7052826,18.000913 C11.3211522,17.6487391 10.9905,17.2261304 10.7361522,16.733087 C10.4850652,16.2433043 10.2926739,15.6465652 10.2574565,14.9865652 C10.1772391,13.5028696 10.7296304,12.4639565 11.4078913,11.6956957 C11.9889783,11.0343913 12.8276739,10.4898261 13.9102826,10.2889565 C14.0876739,10.257 14.2696304,10.245913 14.4320217,10.2361304 C15.8733261,10.1428696 17.0126739,10.710913 17.7346304,11.397 C18.4787609,12.1039565 19.0911522,13.0443913 19.1720217,14.4224348" id="Fill-36" fill="#E31B23"></path>
                <path d="M11.6093478,4.95293478 C11.7567391,5.10032609 11.9002174,5.37293478 11.8767391,5.68793478 C11.8584783,5.9201087 11.7736957,6.07402174 11.6843478,6.18945652 C11.403913,6.5475 10.811087,6.66880435 10.3734783,6.32706522 C10.1628261,6.16141304 9.99652174,5.90315217 10.0336957,5.50728261 C10.0552174,5.27054348 10.1647826,5.09836957 10.3004348,4.96336957 C10.4334783,4.82967391 10.5847826,4.72663043 10.8632609,4.69728261 C11.186087,4.66467391 11.4573913,4.79902174 11.6093478,4.95293478" id="Fill-38" fill="#E31B23"></path>
                <path d="M10.875,22.9004348 C11.418913,22.8626087 11.9178261,23.2832609 11.853913,23.9328261 C11.8115217,24.3828261 11.4267391,24.738913 10.938913,24.7434783 C10.4034783,24.7473913 9.97043478,24.3006522 10.0121739,23.7423913 C10.0297826,23.5121739 10.1341304,23.3041304 10.2671739,23.1671739 C10.3956522,23.0341304 10.6186957,22.9180435 10.875,22.9004348" id="Fill-40" fill="#E31B23"></path>
                <path d="M6.5295,18.3632609 C6.59406522,18.9886957 6.11471739,19.4556522 5.49580435,19.3963043 C5.08493478,19.3565217 4.73080435,19.0154348 4.68645652,18.5869565 C4.63819565,18.1193478 4.90167391,17.7567391 5.25058696,17.6171739 C5.32167391,17.5891304 5.41819565,17.5747826 5.5068913,17.5643478 C6.05471739,17.5023913 6.48254348,17.9034783 6.5295,18.3632609" id="Fill-42" fill="#E31B23"></path>
                <path d="M6.15632609,10.1932826 C6.30045652,10.3387174 6.44458696,10.622413 6.41263043,10.9602391 C6.34545652,11.6476304 5.46241304,12.0402391 4.87741304,11.5465435 C4.6158913,11.3241522 4.45871739,10.854587 4.66480435,10.4385 C4.72871739,10.3113261 4.8611087,10.1450217 4.98436957,10.0654565 C5.07763043,10.0061087 5.1911087,9.9585 5.35676087,9.93828261 C5.71480435,9.89197826 5.99328261,10.0282826 6.15632609,10.1932826" id="Fill-44" fill="#E31B23"></path>
                <path d="M130.613283,12.7003696 L131.045674,12.7003696 C131.170239,12.6997174 131.232848,12.6429783 131.236761,12.5314565 C131.232848,12.4310217 131.170239,12.3768913 131.048283,12.3729783 L130.613283,12.3729783 L130.613283,12.7003696 Z M131.232848,12.9553696 L131.618935,13.6271087 L131.264152,13.6271087 L130.891109,12.9892826 L130.613283,12.9892826 L130.613283,13.6271087 L130.304152,13.6271087 L130.304152,12.0840652 L130.977848,12.0840652 C131.337196,12.0840652 131.5185,12.2321087 131.5185,12.5268913 C131.5185,12.7518913 131.421326,12.893413 131.232848,12.9553696 L131.232848,12.9553696 Z M130.101326,12.0690652 C130.002196,12.165587 129.920674,12.285587 129.858065,12.4303696 C129.795457,12.5725435 129.764152,12.7271087 129.764152,12.8881957 C129.764152,13.0531957 129.795457,13.2045 129.858065,13.3473261 C129.920674,13.4888478 130.010022,13.6153696 130.126761,13.7249348 C130.236326,13.8299348 130.360891,13.9095 130.495239,13.9649348 C130.628283,14.0171087 130.769804,14.0458043 130.915891,14.0458043 C131.066543,14.0458043 131.210022,14.0190652 131.345022,13.9649348 C131.480022,13.9121087 131.605239,13.8325435 131.717413,13.7295 C131.832196,13.6166739 131.920891,13.4901522 131.984152,13.3473261 C132.048065,13.2025435 132.080674,13.050587 132.080674,12.8881957 C132.080674,12.7290652 132.048065,12.5758043 131.984152,12.4303696 C131.920891,12.2842826 131.834804,12.1571087 131.72263,12.0501522 C131.61437,11.9445 131.4885,11.865587 131.350239,11.8101522 C131.21263,11.7566739 131.071761,11.7286304 130.926326,11.7286304 C130.776978,11.7286304 130.631543,11.7566739 130.493935,11.8101522 C130.355022,11.865587 130.223283,11.9516739 130.101326,12.0690652 L130.101326,12.0690652 Z M130.926978,11.6047174 C131.102413,11.6047174 131.270022,11.6399348 131.429804,11.708413 C131.588935,11.7788478 131.729152,11.8747174 131.849804,12.0012391 C131.96263,12.1192826 132.051326,12.2549348 132.113935,12.4114565 C132.17263,12.5666739 132.204587,12.7271087 132.204587,12.8881957 C132.204587,13.0531957 132.17263,13.2103696 132.113935,13.3642826 C132.051326,13.5175435 131.960674,13.6558043 131.84263,13.7764565 C131.720022,13.9036304 131.582413,14.0008043 131.421326,14.0679783 C131.264152,14.1364565 131.095239,14.1690652 130.915239,14.1690652 C130.739152,14.1690652 130.574804,14.1351522 130.416326,14.0673261 C130.259804,13.9981957 130.120891,13.9003696 129.998935,13.7745 C129.880239,13.6538478 129.790891,13.5162391 129.730239,13.3642826 C129.670239,13.2123261 129.640891,13.0538478 129.640891,12.8881957 C129.640891,12.7238478 129.670239,12.5660217 129.730239,12.4114565 C129.790891,12.2575435 129.879587,12.1212391 129.995674,12.0012391 C130.113717,11.8747174 130.25263,11.7788478 130.413717,11.708413 C130.576109,11.6399348 130.746326,11.6047174 130.926978,11.6047174 L130.926978,11.6047174 Z" id="Fill-46" fill="#1D1160"></path>
            </g>
        </g>
    </g>
</svg>