<?xml version="1.0" encoding="UTF-8"?>
<svg width="122px" height="20px" viewBox="0 0 122 20" version="1.1" xmlns="http://www.w3.org/2000/svg" xmlns:xlink="http://www.w3.org/1999/xlink">
    <title>58E90048-7313-4EC2-B442-42F90D73D664</title>
    <defs>
        <polygon id="path-1" points="1.11438739e-05 0.00587159533 16.0839643 0.00587159533 16.0839643 17.8599222 1.11438739e-05 17.8599222"></polygon>
        <polygon id="path-3" points="0 0.186536965 9.60703634 0.186536965 9.60703634 14.1303745 0 14.1303745"></polygon>
    </defs>
    <g id="logos-aseguradoras" stroke="none" stroke-width="1" fill="none" fill-rule="evenodd">
        <g id="logos-variantes" transform="translate(-770.000000, -251.000000)">
            <g id="logo-vepormas" transform="translate(770.000000, 251.000000)">
                <g id="Group-9" transform="translate(68.747571, 0.000000)">
                    <g id="Group-3" transform="translate(0.000000, 0.000000)">
                        <mask id="mask-2" fill="white">
                            <use xlink:href="#path-1"></use>
                        </mask>
                        <g id="Clip-2"></g>
                        <path d="M3.94159934,10.2853658 L9.37100614,10.2853658 C10.4058263,10.2853658 11.1653927,10.4515914 11.628755,10.7792568 C12.0497705,11.0769222 12.2543721,11.5755992 12.2543721,12.303537 C12.2543721,12.9790623 12.032609,13.4918638 11.5766017,13.8711245 C11.0995324,14.2677782 10.3104347,14.4690233 9.23103908,14.4690233 L3.94159934,14.4690233 L3.94159934,10.2853658 Z M10.2502578,6.41816732 C9.82556475,6.7340428 9.24730914,6.89419844 8.53164955,6.89419844 L3.94159934,6.89419844 L3.94159934,3.39692218 L8.61556292,3.39692218 C9.35250731,3.39692218 9.93377177,3.50606615 10.3429748,3.72120233 C10.4628829,3.78423735 10.8275105,3.97602724 10.8275105,4.827 C10.8275105,5.60851751 10.6386218,6.12902335 10.2502578,6.41816732 L10.2502578,6.41816732 Z M15.1966891,9.81166926 C14.7205114,9.21166926 14.0648058,8.69419844 13.243168,8.26917899 C14.3305872,7.36789494 14.8810946,6.21236965 14.8810946,4.827 C14.8810946,3.99563813 14.724746,3.26349805 14.4162836,2.65054086 C14.1074869,2.03793385 13.6699784,1.52664981 13.1157935,1.13092996 C12.5748699,0.744898833 11.9288595,0.456688716 11.195704,0.274354086 C10.4790415,0.0962217899 9.68626633,0.00587159533 8.83944335,0.00587159533 L1.11438739e-05,0.00587159533 L1.11438739e-05,17.8599572 L9.2590102,17.8599572 C10.1806086,17.8599572 11.0527281,17.7615525 11.8511867,17.5676615 C12.6640209,17.3703852 13.3921616,17.0596459 14.0151041,16.6438482 C14.6536481,16.2173113 15.1629232,15.6626031 15.5286651,14.9950156 C15.897193,14.3225253 16.0839643,13.5159105 16.0839643,12.5977004 C16.0839643,11.4915525 15.7855314,10.5543152 15.1966891,9.81166926 L15.1966891,9.81166926 Z" id="Fill-1" fill="#949699" mask="url(#mask-2)"></path>
                    </g>
                    <polygon id="Fill-4" fill="#BFCD26" points="52.1437015 6.47871595 46.0887891 6.47871595 46.0887891 0.136342412 41.66846 0.136342412 41.66846 6.47871595 35.6135476 6.47871595 35.6135476 11.1091051 41.66846 11.1091051 41.66846 17.4514786 46.0887891 17.4514786 46.0887891 11.1091051 52.1437015 11.1091051"></polygon>
                    <polygon id="Fill-6" fill="#BFCD26" points="33.7589172 3.54720233 30.6331721 0.273 25.6243351 5.51961479 20.6154981 0.272883268 17.4897529 3.5470856 22.4987013 8.79381712 17.4897529 14.0406654 20.6154981 17.314751 25.6243351 12.0680195 30.6331721 17.3148677 33.7589172 14.0407821 28.7500802 8.79381712"></polygon>
                </g>
                <g id="Group-7" transform="translate(0.000000, 1.666667)">
                    <path d="M23.2432898,16.5013307 C23.4713106,16.5013307 23.704109,16.4700467 23.9260493,16.5095019 C24.1794781,16.5547938 24.384914,16.4067782 24.6196668,16.3801634 C25.1721287,16.3180623 25.6422858,16.0495798 25.9903976,15.5793852 C26.2229788,15.2656109 26.1287302,14.8782957 26.1350279,14.5168949 C26.1352451,14.503821 26.1117915,14.4902802 26.0994133,14.4772062 C25.8824678,14.2486459 25.6926676,13.9850661 25.3758272,13.8958833 C24.9970955,13.7891907 24.6229243,13.5900467 24.2431068,13.5790739 C23.812256,13.5669339 23.398344,13.4534708 22.9718365,13.4408638 C22.6799698,13.4322257 22.4028703,13.5069339 22.1192558,13.5445214 C21.8334698,13.5828093 21.574829,13.6626537 21.3109764,13.777751 C20.9811063,13.9215642 20.7847912,14.1463891 20.6534078,14.5110584 C20.4368966,15.1124591 20.6095409,15.719463 21.0979398,16.0558833 C21.5515926,16.3684903 22.05541,16.4245214 22.5598789,16.4959611 C22.7839908,16.5274786 23.015269,16.5013307 23.2432898,16.5013307 M25.3997151,7.44973541 C25.4587834,6.77385992 25.2231619,6.2308249 24.7825388,5.83767315 C24.40359,5.49938521 23.9340843,5.2948716 23.4185401,5.2948716 C23.096705,5.2948716 22.7820363,5.30677821 22.4597669,5.39502724 C21.83651,5.56568872 21.457344,5.99502724 21.1904511,6.58218677 C21.058199,6.87308171 21.0994599,7.18802335 21.0814354,7.49642802 C21.0423461,8.1678677 21.2634177,8.71440467 21.7552912,9.1171284 C21.9461772,9.27354864 22.1789756,9.37790661 22.4039561,9.47689494 C22.5540155,9.54296498 22.7220994,9.57494942 22.8847542,9.59105837 C23.0758574,9.60996887 23.2704352,9.60063035 23.4630584,9.59456031 C23.9970614,9.57681712 24.4795969,9.38280934 24.8544197,8.9826537 C25.2477013,8.56312062 25.4750706,8.04459922 25.3997151,7.44973541 M27.8234677,3.36880156 L27.8234677,4.55012451 C27.4536397,4.6474786 27.084246,4.73292607 26.7220186,4.84592218 C26.5687018,4.8937821 26.4169051,4.97946304 26.2894306,5.08358755 C26.0959387,5.24164202 26.0948528,5.26405447 26.2549017,5.4704358 C26.8214791,6.2011751 26.976099,7.06475486 26.8612199,7.96428794 C26.7882533,8.53720623 26.5776055,9.0830428 26.1667337,9.52078599 C25.7315397,9.98491051 25.2681146,10.3836654 24.6667911,10.5510584 C24.3788334,10.6311362 24.0980421,10.7467004 23.786848,10.7326926 C23.349048,10.7128482 22.909728,10.7361946 22.4714937,10.7252218 C22.019361,10.7137821 21.7025207,10.9635875 21.4360621,11.3154163 C21.3389904,11.4433541 21.4395367,11.7475564 21.6030602,11.8596187 C21.6586538,11.8976732 21.71099,11.9588405 21.7704926,11.9686459 C22.0530212,12.015572 22.3366357,12.0706693 22.6211188,12.0809416 C23.1116892,12.0991518 23.6087746,12.0363502 24.0930473,12.0975175 C24.8433444,12.1923035 25.5995048,12.2814864 26.2992029,12.646856 C26.9022637,12.9620311 27.3717693,13.4004747 27.5441965,14.1127704 C27.7361683,14.9053774 27.6271526,15.6543268 27.118992,16.2940156 C26.5656615,16.9904358 25.8310002,17.3114475 25.0172917,17.5348716 C24.1360456,17.7767393 23.2487189,17.7935486 22.366387,17.7239767 C21.8677815,17.6847549 21.351803,17.6214864 20.8603638,17.4181401 C20.2555658,17.1681012 19.6379552,16.7765837 19.3298013,16.2405525 C19.1971149,16.0098911 19.1413041,15.7180623 19.0911396,15.4456109 C19.0542219,15.2457665 19.0787613,15.0319144 19.085059,14.8245992 C19.0991746,14.3539377 19.2948381,13.941642 19.6023405,13.6505136 C19.8627185,13.4039767 20.1684836,13.1677121 20.542872,13.101642 C20.6853307,13.076428 20.7046582,12.9944825 20.6143185,12.8835875 C20.56828,12.826856 20.5202871,12.7698911 20.4653449,12.7238988 C20.1087638,12.4257665 20.0099548,12.034716 20.0214644,11.5584514 C20.0318882,11.1179066 20.2394958,10.847323 20.5378773,10.6175953 C20.6145357,10.5585292 20.7202939,10.5454553 20.8073761,10.49993 C21.1200904,10.3360389 21.1070606,10.3474786 20.8521117,10.0752607 C20.4566584,9.65269261 20.0138637,9.27424903 19.8129883,8.67238132 C19.7109218,8.36701167 19.5875734,8.0782179 19.6092897,7.74459922 C19.6166732,7.63207004 19.6212336,7.51697276 19.6086382,7.40561089 C19.537626,6.78296498 19.7309008,6.21331518 20.0444837,5.73588327 C20.5274535,5.00024125 21.1854563,4.49035798 22.0289162,4.26553307 C22.6647685,4.09603891 23.3021409,4.15020233 23.9336499,4.17985214 C24.3479963,4.19922957 24.774721,4.3152607 25.1630078,4.52397665 C25.432941,4.6689572 25.4644296,4.6537821 25.6129689,4.41354864 C25.9078758,3.93611673 26.3904112,3.60133074 26.9452619,3.48016342 C27.0560148,3.45588327 27.1602529,3.38561089 27.2707887,3.37370428 C27.4421301,3.3552607 27.6165117,3.36880156 27.8234677,3.36880156" id="Fill-8" fill="#BFCD26"></path>
                    <g id="Group-12" transform="translate(0.000000, 0.000000)">
                        <mask id="mask-4" fill="white">
                            <use xlink:href="#path-3"></use>
                        </mask>
                        <g id="Clip-11"></g>
                        <path d="M0,9.86428016 C0.326178331,9.79120623 0.60088911,9.77159533 0.838682234,9.66046693 C0.97983797,9.59463035 1.10405502,9.61050584 1.23500411,9.59883268 C1.40221936,9.58389105 1.47019128,9.70505837 1.49820526,9.86451362 C1.64544156,10.7017121 2.00549726,11.4100389 2.60421475,11.9740856 C2.93278187,12.2836576 3.66288277,12.603035 4.13173697,12.6553307 C4.29439181,12.6733074 4.45226907,12.7433463 4.61492391,12.7610895 C4.78865405,12.78 4.96651028,12.7788327 5.14045758,12.7629572 C5.68575304,12.7122957 6.23235149,12.6182101 6.73117414,12.3868482 C7.29384262,12.1256031 7.72100159,11.6313619 7.89060564,11.0119844 C8.01091376,10.5728405 8.00895929,10.045214 7.80656368,9.60396887 C7.6226269,9.20287938 7.37136969,8.84217899 6.97135605,8.62365759 C6.25385059,8.23167315 5.49660436,7.98583658 4.71894483,7.77291829 C3.96473888,7.5663035 3.18903382,7.38 2.50214829,6.97914397 C1.58897926,6.44568093 0.902528059,5.68342412 0.760503673,4.5018677 C0.572657963,4.17735409 0.60175776,3.79377432 0.676027394,3.47953307 C0.778093849,3.04575875 0.798289977,2.57953307 1.06040532,2.18077821 C1.3316415,1.76824903 1.57703531,1.35968872 1.98834141,1.0736965 C2.60725502,0.643424125 3.13821775,0.457821012 3.85051131,0.295330739 C4.49114119,0.149182879 5.12655917,0.180933852 5.75633091,0.21618677 C6.51835472,0.258677043 7.21870434,0.569416342 7.84261269,1.07042802 C8.63655941,1.70824903 9.05503188,2.58326848 9.2910877,3.58599222 C9.30867788,3.66046693 9.37382668,3.75805447 9.34950446,3.79937743 C9.31128383,3.86474708 9.22050983,3.91050584 9.14428574,3.93151751 C8.8419953,4.01509728 8.53861905,4.09634241 8.23198536,4.15727626 C8.05890671,4.19136187 7.96009769,4.18062257 7.9001608,3.90233463 C7.79505406,3.41463035 7.5685534,2.94747082 7.28320165,2.5433463 C6.96397252,2.09136187 6.51270849,1.83198444 6.00433068,1.66459144 C5.44253085,1.47968872 4.86466099,1.51214008 4.31263348,1.58194553 C3.79079158,1.64801556 3.24701625,1.78856031 2.82637216,2.21766537 C2.2589261,2.79642023 2.09127652,3.60023346 2.35013442,4.45050584 C2.49215881,4.91626459 2.78967167,5.25712062 3.19685167,5.47610895 C3.62075321,5.70396887 4.07505751,5.83680934 4.52588722,5.99066148 C5.13415986,6.19844358 5.76306295,6.31354086 6.36634085,6.53486381 C7.00110734,6.76785992 7.62827313,7.03470817 8.16553358,7.45610895 C8.78509868,7.94241245 9.25308423,8.58770428 9.47871625,9.40155642 C9.40249215,9.84 9.78404696,10.2693385 9.50086684,10.7119844 C9.54885979,11.1231128 9.41704205,11.491751 9.24874098,11.8438132 C8.97316155,12.4195331 8.57336507,12.8754864 8.06846187,13.2345525 C7.46865857,13.661323 6.81608474,13.8868482 6.10791727,14.0311284 C5.53656229,14.147393 4.97215651,14.1441245 4.41252831,14.1086381 C3.62444497,14.058677 2.84265936,13.9090272 2.14643584,13.4472374 C1.79028906,13.2109728 1.4276274,12.9721401 1.14357862,12.650428 C0.752034328,12.2063813 0.211299279,11.1529961 0.135075181,10.7857588 C0.0729666573,10.4878599 0.0451698355,10.1815564 0,9.86428016" id="Fill-10" fill="#BFCD26" mask="url(#mask-4)"></path>
                    </g>
                    <path d="M17.1253179,8.22728405 C17.0703758,7.86728405 17.048008,7.5574786 16.973304,7.26308171 C16.7567929,6.40907393 16.3444009,5.72292607 15.499421,5.46331518 C15.2459922,5.38533852 14.9834425,5.32160311 14.7217615,5.30292607 C14.5465112,5.29031907 14.3636602,5.36105837 14.1875413,5.4082179 C13.8704838,5.49366537 13.5506032,5.60432685 13.2939169,5.81374319 C12.7727265,6.23887938 12.456972,6.83350973 12.2402436,7.48930739 C12.1624994,7.72417121 12.0654277,7.96090272 12.164671,8.22728405 L17.1253179,8.22728405 Z M18.6626125,9.36611673 L12.0662963,9.36611673 C11.968356,9.69343191 12.0873611,9.98222568 12.1225415,10.2826926 C12.1564188,10.5724202 12.2621771,10.8257276 12.3455675,11.0918755 C12.4936725,11.5639377 12.7460155,11.9666615 13.1065055,12.2781012 C13.5128169,12.6292296 13.9701615,12.8638599 14.5050331,12.8781012 C14.62773,12.8813696 14.7510784,12.8692296 14.8731239,12.8802023 C15.4920375,12.9348327 15.9832594,12.661214 16.3986916,12.197323 C16.667539,11.8970895 16.995889,11.647751 17.112071,11.2137432 C17.1333529,11.1345992 17.2232583,11.0675953 17.2947048,11.0162335 C17.3413948,10.9826148 17.4234823,10.959035 17.4699551,10.9802802 C17.738151,11.1037821 17.9987462,11.2461946 18.2652048,11.3741323 C18.5718385,11.5216809 18.5811765,11.5228482 18.415047,11.8405914 C17.8667113,12.8879066 17.057346,13.618179 15.9954205,13.9721089 C15.5658728,14.1154553 15.0970186,14.1362335 14.6322905,14.132965 C13.7408377,14.1266615 12.9234374,13.8560778 12.210058,13.3191128 C11.5820236,12.8461167 11.1348856,12.1725759 10.8745076,11.3879066 C10.6545218,10.7244047 10.5064169,10.0415253 10.5509352,9.32432685 C10.5696112,9.02409339 10.5405114,8.72035798 10.5581016,8.42012451 C10.5739545,8.15164202 10.601317,7.8789572 10.6642941,7.61957977 C10.7956775,7.07771206 10.9828718,6.55498833 11.252805,6.07312062 C11.5049308,5.62323735 11.8460934,5.23778988 12.2285168,4.93405447 C12.6150664,4.62705058 13.0741483,4.41740078 13.5477801,4.27382101 C14.1749459,4.08354864 14.8233936,4.11109728 15.4488221,4.18160311 C16.1324502,4.25887938 16.7752517,4.57685603 17.3162039,5.04751751 C17.7603016,5.43366537 18.4107038,6.62572763 18.4589139,7.36417121 C18.4725951,7.57382101 18.5807421,7.77109728 18.5607632,7.99685603 C18.5414357,8.21327626 18.5881257,8.4189572 18.6497999,8.63257588 C18.7093024,8.8389572 18.6626125,9.08059144 18.6626125,9.36611673 L18.6626125,9.36611673 Z" id="Fill-13" fill="#BFCD26"></path>
                    <path d="M50.0720005,9.04828016 C50.1369321,8.35792996 49.9143404,7.72407782 49.717591,7.10003113 C49.5290938,6.50259922 49.1371152,6.03870817 48.6131017,5.74221012 C47.7805,5.27108171 47.4226159,5.26034241 46.6262804,5.42049805 C46.3346309,5.47933074 46.0427643,5.6576965 45.8006279,5.85240467 C45.4186388,6.15964202 45.127858,6.5728716 44.9067864,7.02975875 C44.7838723,7.28376654 44.5571545,8.47676265 44.5706185,8.74150973 C44.5962437,9.23458366 44.5634522,9.72205447 44.6535747,10.2235331 C44.8018968,11.0497588 45.0759561,11.771393 45.6794511,12.3088249 C46.0796819,12.665323 46.5315975,12.9265681 47.0864481,12.8815097 C47.3127316,12.8630661 47.5418382,12.8854786 47.7689904,12.8752062 C47.8656277,12.8710039 47.9598763,12.8240778 48.0569481,12.8084358 C48.6167934,12.7173852 48.9733745,12.3001868 49.3297385,11.8878911 C49.5297453,11.6565292 49.9082598,10.7534942 49.9375768,10.4658677 C49.9860041,9.99380545 50.0274821,9.52080934 50.0720005,9.04828016 M51.5180867,9.09730739 C51.5180867,9.24205447 51.5124405,9.29925292 51.5191725,9.35481712 C51.594528,9.98446693 51.4540237,10.5949728 51.2909345,11.1790973 C51.1526019,11.6756732 50.9100312,12.1584747 50.5923222,12.5597977 C50.0856817,13.1992529 49.4845755,13.7128716 48.7023555,13.9260233 C48.4143978,14.0044669 48.1325207,14.1169961 47.8317504,14.1223658 C47.4810327,14.1286693 47.1270575,14.1550506 46.7802487,14.1155953 C46.404123,14.0726381 46.0084526,14.0278132 45.6681587,13.868358 C45.2505549,13.6724825 44.8412032,13.435284 44.4920057,13.0902257 C43.9868853,12.5910817 43.6376877,11.9908482 43.3827387,11.3184747 C43.3093377,11.1247004 43.2209525,10.9236887 43.206837,10.7208093 C43.1751312,10.2643891 43.0424448,9.82150973 43.0873975,9.35364981 C43.1197547,9.01792996 43.0815341,8.67497276 43.0965183,8.3362179 C43.1212749,7.78221012 43.2552642,7.25458366 43.4743814,6.75240467 C43.5225915,6.64174319 43.574059,6.53294942 43.6198804,6.42112062 C43.7701569,6.05341634 43.9955718,5.75061479 44.248132,5.45271595 C44.7143802,4.90267704 45.2792203,4.5517821 45.9294054,4.34353307 C46.21454,4.25248249 46.4959828,4.13901946 46.8067426,4.15722957 C47.1214113,4.17567315 47.4380344,4.16516732 47.7535718,4.16026459 C48.2623839,4.15256031 48.7214658,4.34983658 49.1868454,4.53730739 C49.8203089,4.79248249 50.3006728,5.28205447 50.6731067,5.8351284 C51.0388087,6.37863035 51.3119993,7.00080934 51.4329589,7.70119844 C51.5191725,8.20221012 51.4789974,8.69224903 51.5180867,9.09730739" id="Fill-15" fill="#BFCD26"></path>
                    <path d="M56.0834324,4.16346304 C56.4371904,4.18844358 56.7881252,4.16346304 57.1490496,4.24914397 C57.4120336,4.3114786 57.6085658,4.56595331 57.895872,4.50805447 C58.1642851,4.72120623 58.4598435,4.9051751 58.6952478,5.15474708 C59.0379305,5.51848249 59.285496,5.96649805 59.4792051,6.44229572 C59.5176428,6.53731518 59.5167742,6.65521401 59.5172085,6.762607 C59.5174257,6.8011284 59.4709529,6.86953307 59.4398986,6.87373541 C59.09461,6.92066148 58.7797241,7.11793774 58.4224915,7.10649805 C58.3275914,7.1036965 58.2952342,7.07941634 58.2485442,6.97062257 C58.1175951,6.66431907 57.9595007,6.3748249 57.7382119,6.11871595 C57.4863032,5.82758755 56.9844403,5.45194553 56.6400203,5.40945525 C56.4738909,5.38914397 56.3062413,5.42439689 56.1524901,5.30066148 C56.0964621,5.25536965 55.9416252,5.25373541 55.9018844,5.30066148 C55.770501,5.45708171 55.6132752,5.39824903 55.4645188,5.40548638 C54.8212829,5.43653696 54.2162677,5.98727626 54.0833642,6.66782101 L54.2308176,7.36050584 C54.291406,7.58392996 54.4414654,7.68758755 54.6267052,7.80618677 C54.9893668,8.03801556 55.3748306,8.14891051 55.7776673,8.23972763 C56.4052675,8.38143969 57.0356907,8.52735409 57.650261,8.71178988 C58.060047,8.8348249 58.4691815,9.04844358 58.8253283,9.34727626 C59.2253419,9.68276265 59.5621612,10.0593385 59.6666164,10.6058755 C59.7691172,11.142607 59.8373063,11.6865759 59.571282,12.2032296 C59.4448934,12.4481323 59.3360949,12.7051751 59.1923332,12.9377043 C59.1343507,13.0320233 58.9940637,13.0628405 58.9093702,13.1443191 C58.3729784,13.6600389 57.7323485,13.8741245 57.0365593,14.032179 C56.4977788,14.1545136 55.966816,14.152179 55.4462771,14.1031518 C54.8673214,14.0485214 54.2957493,13.8843969 53.7637007,13.5666537 C52.9061253,13.0544358 52.4576844,12.2368482 52.1547425,11.2894553 C52.1256427,11.1986381 52.1143502,11.0842412 52.2874289,11.0592607 C52.6127386,11.0121012 52.9145947,10.8318677 53.2535856,10.8407393 C53.4260128,10.6341245 53.4855153,10.8213619 53.5146151,10.9483658 C53.6581597,11.5731128 53.9893327,12.0720233 54.4514549,12.4485992 C54.7472305,12.6895331 55.100337,12.8685992 55.4927499,12.8767704 C55.878648,12.8847082 56.264546,12.8798054 56.6504441,12.8781712 C56.9507801,12.876537 57.7351716,12.5961479 57.925189,12.3736576 C58.0663447,12.2088327 58.194905,11.9991829 58.2455039,11.7864981 C58.3002289,11.5563035 58.2850275,11.2945914 58.2478927,11.0562257 C58.2250906,10.9110117 58.1126004,10.7763035 58.022695,10.6516342 C57.9747021,10.5850973 57.8889228,10.5498444 57.8198651,10.5010506 C57.3733786,10.1870428 56.8650008,10.0600389 56.3546686,9.93326848 C55.779839,9.79038911 55.2011004,9.65754864 54.6362603,9.47568093 C54.0173467,9.27607004 53.4605416,8.93171206 53.0709518,8.36416342 C52.8490116,8.04058366 52.6950432,7.66050584 52.6770187,7.24120623 C52.653348,6.69256809 52.6772359,6.16237354 52.9866927,5.68050584 C53.1808361,5.37863813 53.5886676,4.9177821 53.8783626,4.72424125 C54.556996,4.27085603 55.2925259,4.0992607 56.0834324,4.16346304" id="Fill-17" fill="#BFCD26"></path>
                    <path d="M34.5639581,4.38768093 C34.9876425,4.38768093 35.3559504,4.38371206 35.7240411,4.38908171 C35.9514104,4.39258366 36.0265487,4.4756965 36.0374068,4.71499611 C36.0417501,4.80884825 36.0382755,4.90340078 36.0382755,4.99748638 L36.0382755,13.3097043 C36.0382755,13.4040233 36.0428359,13.4983424 36.0371897,13.592428 C36.0254629,13.7918054 35.9405523,13.8917276 35.755964,13.8952296 C35.3720204,13.9024669 34.9880768,13.8973307 34.5674327,13.8973307 L34.5674327,12.1673696 C34.2301791,12.5605214 33.9365752,12.9081479 33.6375422,13.2501712 C33.3356861,13.5956965 32.9639036,13.8226226 32.5478199,13.9701712 C31.9975297,14.1655798 31.335835,14.1223891 30.7023715,14.0287704 C30.1942109,13.9538288 29.7939801,13.6788093 29.4278438,13.3809105 C29.0510666,13.0743735 28.8063242,12.5892374 28.676461,12.0898599 C28.5607133,11.6448794 28.4497431,11.1928949 28.452094,10.7163969 C28.4616871,8.83164981 28.456258,6.94690272 28.456258,5.06192218 C28.456258,4.93001556 28.4532177,4.79810895 28.4569095,4.66620233 C28.4616871,4.49203891 28.5552842,4.39328405 28.7103383,4.39024903 C29.1097005,4.38254475 29.5090626,4.38768093 29.9305754,4.38768093 L29.9305754,4.91857588 C29.9305754,6.57733074 29.9464283,8.23631907 29.9212374,9.89437354 C29.9129852,10.4341401 29.9648871,10.9652685 30.0495805,11.4849572 C30.1512127,12.1083035 30.4984558,12.5831673 31.0991277,12.7615331 C31.4680871,12.8707938 31.8394353,12.9940623 32.2246818,12.7734397 C32.3493332,12.702 32.5219775,12.7321167 32.6709511,12.7048016 C33.2425233,12.5990428 33.5576263,12.10807 33.908344,11.6983424 C34.2117203,11.3439455 34.3874049,10.4969416 34.4701438,10.0276809 C34.617163,9.1942179 34.5454993,8.36075486 34.5604835,7.52752529 C34.5759021,6.67958755 34.5639581,5.83141634 34.5639581,4.98301167 L34.5639581,4.38768093 Z" id="Fill-19" fill="#BFCD26"></path>
                    <path d="M37.741656,4.39942412 L39.2035951,4.39942412 L39.2035951,6.36168093 C39.4392166,5.98207004 39.607952,5.63350973 39.8431392,5.3482179 C40.2729041,4.82689494 40.8255831,4.52759533 41.4664302,4.37210895 C41.7374492,4.30627237 41.998913,4.27475486 42.2686291,4.27732296 C42.4842716,4.27919066 42.5624502,4.37374319 42.5659248,4.61887938 C42.5709195,4.97701167 42.5672278,5.33514397 42.5672278,5.74627237 C42.362009,5.74627237 42.1572246,5.74930739 41.9526574,5.74557198 C41.5107314,5.73763424 41.112455,5.90502724 40.7139615,6.08409339 C40.0479236,6.38315953 39.6446525,6.94907393 39.4190205,7.64596109 C39.2665723,8.11732296 39.1801416,8.61343191 39.1890452,9.13312062 C39.2131503,10.5854942 39.1975146,12.0385681 39.1975146,13.4914086 L39.1975146,13.8857276 L37.741656,13.8857276 L37.741656,4.39942412 Z" id="Fill-21" fill="#BFCD26"></path>
                    <path d="M53.3606845,10.7841012 C53.3432125,10.8595097 53.3259563,10.9349183 53.3084843,11.0105603" id="Fill-23" fill="#BFCD26"></path>
                    <path d="M9.3416607,3.76505837 C9.27198859,3.74614786 9.20231647,3.72723735 9.13242865,3.70856031" id="Fill-25" fill="#BFCD26"></path>
                </g>
            </g>
        </g>
    </g>
</svg>