<?xml version="1.0" encoding="UTF-8"?>
<svg width="26px" height="19px" viewBox="0 0 26 19" version="1.1" xmlns="http://www.w3.org/2000/svg" xmlns:xlink="http://www.w3.org/1999/xlink">
    <title>logo-color-youtube</title>
    <g id="registro-landing---1.0-v4" stroke="none" stroke-width="1" fill="none" fill-rule="evenodd">
        <g id="Artboard" transform="translate(-274.000000, -90.000000)">
            <g id="logo-color-youtube" transform="translate(274.000000, 90.000000)">
                <path d="M10.3270967,5.28681267 L10.3270967,13.0250583 C12.5960422,11.7342514 14.8475437,10.4533507 17.1280252,9.15597367 C14.8448444,7.85704323 12.5952783,6.57721209 10.3270967,5.28681267 M11.2730212,18.3002586 C9.85753413,18.2560501 8.64918529,18.2298713 7.44200787,18.176979 C6.44250348,18.1331779 5.44350839,18.0690298 4.44593939,17.992327 C3.83361594,17.9452918 3.21619934,17.8925013 2.63206645,17.6840898 C1.52178613,17.2879449 0.817607789,16.505816 0.526025191,15.3675743 C0.273507023,14.381745 0.184937217,13.370017 0.122164195,12.357958 C0.069653862,11.5118592 0.0368030716,10.6642069 0.0120249172,9.81670748 C-0.0307829732,8.35268272 0.0457924739,6.8918921 0.16214539,5.43296049 C0.228967463,4.5952144 0.31007581,3.75744285 0.526712766,2.94360908 C0.87006719,1.65387177 1.69482576,0.822797704 3.00109032,0.531800819 C3.61499265,0.395049854 4.24911477,0.331640189 4.87781269,0.282618661 C5.91314737,0.201866834 6.95125781,0.154322318 7.98870615,0.103670983 C8.52649141,0.0774158162 9.0653717,0.0713549727 9.60384454,0.0618562558 C10.4774973,0.0464749554 11.3512265,0.026025975 12.2249556,0.0254611966 C13.3997406,0.0247781543 14.574602,0.0368743756 15.7493361,0.0513389097 C16.4659163,0.0601500519 17.1826492,0.0746400517 17.8986437,0.10303434 C18.7543685,0.136954691 19.610399,0.174236518 20.4643413,0.236729417 C21.1786041,0.289010558 21.8931979,0.357589767 22.6020874,0.458102999 C23.8836502,0.639826441 24.802581,1.32049991 25.2952665,2.5322357 C25.4930334,3.01858019 25.5627076,3.53922702 25.6364818,4.0555956 C25.7895563,5.12737174 25.8652659,6.20604909 25.9010707,7.28737488 C25.925365,8.02050775 25.9650152,8.75481204 25.9464507,9.48728281 C25.9179545,10.6100159 25.8674814,11.7333092 25.7833936,12.8531391 C25.7282858,13.5873161 25.6212533,14.3199397 25.4952234,15.0459421 C25.2788156,16.2924641 24.5936347,17.1850888 23.4017877,17.6572489 C22.9842516,17.8226488 22.5406131,17.8884523 22.0975604,17.9273639 C21.1177665,18.0133871 20.1372086,18.0963545 19.1552501,18.1495269 C18.1690133,18.2029031 17.1808921,18.2238105 16.1933311,18.2491489 C15.392001,18.2697506 14.5902889,18.2769574 13.7887042,18.2879332 C13.3263484,18.2942741 12.8639417,18.2977884 12.401535,18.2998257 C11.9563431,18.3018375 11.5111003,18.3002586 11.2730212,18.3002586" id="Fill-1" fill="#F50E00"></path>
                <path d="M10.3270967,5.28681267 C12.5952783,6.57721209 14.8448444,7.85704323 17.1280252,9.15597367 C14.8475437,10.4533507 12.5960422,11.7342514 10.3270967,13.0250583 L10.3270967,5.28681267 Z" id="Fill-4" fill="#FFFFFF"></path>
            </g>
        </g>
    </g>
</svg>