<?xml version="1.0" encoding="UTF-8"?>
<svg width="80px" height="30px" viewBox="0 0 80 30" version="1.1" xmlns="http://www.w3.org/2000/svg" xmlns:xlink="http://www.w3.org/1999/xlink">
    <title>F77B1FE4-B47E-4471-9427-416B9B8D8AFF</title>
    <g id="Landing-C" stroke="none" stroke-width="1" fill="none" fill-rule="evenodd">
        <g id="landing-plantilla-C" transform="translate(-651.000000, -746.000000)">
            <g id="icn-gnp-color-copy-5" transform="translate(651.000000, 746.000000)">
                <path d="M35.7158,14.3363921 C35.7158,13.5084503 35.8638,13.2124711 34.9368,12.7195058 L34.2958,12.403528 L34.2958,11.8315682 L40.6858,11.8315682 L40.6858,12.403528 L40.0348,12.6605099 C39.0688,13.0554822 39.0688,13.1634746 39.0888,14.3363921 L39.0978,19.06006 L38.8618,19.2860441 C37.7468,19.572024 35.1438,20.2819741 32.7968,20.2819741 C27.4128,20.2819741 24.7598,17.4911703 24.7598,11.4575945 C24.7598,4.97005059 28.5078,2.1592482 33.4278,2.1592482 C34.7498,2.1592482 37.1458,2.1592482 38.8118,3.56914908 C39.3638,4.03211653 39.4138,4.55607969 39.4138,4.76306514 C39.4138,5.15603751 39.3348,5.23503196 39.2558,5.39402078 L38.0628,7.7108579 L37.6188,7.7108579 C37.6188,6.56593839 36.2878,3.52015252 32.8268,3.52015252 C28.8128,3.52015252 28.6158,6.31995568 28.6158,11.0536229 C28.6158,15.1943318 29.0498,18.9220697 33.8418,18.9220697 C35.3898,18.9220697 35.6758,18.1041272 35.7158,17.1861917 L35.7158,14.3363921 Z" id="Fill-1" fill="#002D74"></path>
                <path d="M42.2832,19.3653385 L43.4272,18.9013712 C44.3642,18.5373968 44.3642,17.8564446 44.3642,16.3475507 L44.3642,5.47231528 C44.3642,4.63437419 44.1272,4.22040329 43.4762,3.7764345 L42.4302,3.07648371 L42.4302,2.50452392 L47.1742,2.50452392 L47.4602,2.68151148 C47.9822,3.3824622 49.0672,5.26532983 50.5272,7.2371912 L55.5552,14.0807101 C55.7622,14.36569 55.8712,14.494681 55.9702,14.494681 C56.1772,14.494681 56.1772,14.237699 56.1772,13.7647323 L56.1772,5.49231387 C56.1772,4.29939774 56.1572,4.0624144 55.1412,3.6484435 L53.6522,3.07648371 L53.6522,2.50452392 L59.6182,2.50452392 L59.6182,3.07648371 L58.8592,3.36246361 C57.7452,3.80543246 57.5282,4.0624144 57.5282,5.77829376 L57.5282,16.0325729 C57.5282,17.6004626 57.5572,19.1873511 57.5572,19.7303129 L57.3802,19.9372983 L55.9212,19.9372983 L55.6352,19.7303129 C55.3982,19.444333 54.0472,17.5414668 52.6662,15.6975964 L46.5722,7.55316898 C46.2372,7.1092002 46.0792,6.87221686 45.9512,6.87221686 C45.7152,6.87221686 45.7152,7.13819816 45.7152,7.50417243 L45.7152,16.8115181 C45.7152,18.0634301 45.7152,18.4584023 46.8092,18.8233766 L48.3472,19.3653385 L48.3472,19.9372983 L42.2832,19.9372983 L42.2832,19.3653385 Z" id="Fill-3" fill="#002D74"></path>
                <path d="M61.147,19.3653385 L62.291,18.9803656 C63.149,18.6943857 63.178,18.221419 63.178,16.585534 L63.178,5.33432498 C63.178,4.09241229 63.178,3.7764345 62.291,3.49045461 L61.147,3.07648371 L61.147,2.50452392 L69.775,2.50452392 C72.793,2.50452392 75.751,3.15547816 75.751,7.1092002 C75.751,10.7279458 73.049,12.9667884 68.829,12.9667884 C68.651,12.9667884 68.415,12.9357906 68.256,12.9357906 L67.872,11.9998564 L68.079,11.7928709 C69.972,11.7438744 72.27,10.9649291 71.944,7.30618635 C71.688,4.4563867 70.859,3.9244241 68.523,3.9244241 C66.935,3.9244241 66.827,4.16140744 66.827,4.81136174 L66.827,16.585534 C66.827,18.3304113 66.797,18.6943857 67.842,18.9803656 L69.193,19.3653385 L69.193,19.9372983 L61.147,19.9372983 L61.147,19.3653385 Z" id="Fill-5" fill="#002D74"></path>
                <polygon id="Fill-7" fill="#002D74" points="24.76 22.6384084 79.601 22.6384084 79.601 22.274434 24.76 22.274434"></polygon>
                <path d="M14.0518,11.1325173 C14.0518,12.7384044 12.7498,14.0403129 11.1328,14.0403129 C9.5258,14.0403129 8.2238,12.7384044 8.2238,11.1325173 C8.2238,9.52563031 9.5258,8.22372184 11.1328,8.22372184 C12.7498,8.22372184 14.0518,9.52563031 14.0518,11.1325173" id="Fill-9" fill="#FF6C0E"></path>
                <path d="M6.291,6.27055916 L0,6.27055916 L1.272,10.1662853 L4.408,10.1662853 L4.408,10.156286 C7.583,10.156286 10.156,7.58246692 10.166,4.39769083 L10.166,1.27191058 L6.291,0 L6.291,6.27055916 Z" id="Fill-10" fill="#FF6C0E"></path>
                <path d="M6.2715,15.9837763 L6.2715,22.2643347 L10.1665,21.0024235 L10.1665,17.8666439 L10.1565,17.8666439 C10.1565,14.6918671 7.5835,12.1180481 4.3975,12.1080488 L1.2715,12.1080488 L0.0005,15.9837763 L6.2715,15.9837763 Z" id="Fill-11" fill="#FF6C0E"></path>
                <path d="M15.9844,15.9934756 L22.2754,15.9934756 L20.9934,12.1077488 L17.8674,12.1077488 L17.8584,12.1077488 C14.6824,12.1177481 12.1094,14.6915671 12.1094,17.8663439 L12.1094,17.8763432 L12.1094,20.9921242 L15.9844,22.2640348 L15.9844,15.9934756 Z" id="Fill-12" fill="#FF6C0E"></path>
                <path d="M15.9942,6.29105772 L15.9942,0.0104992619 L12.1092,1.27141062 L12.1092,4.40719016 C12.1192,7.58196696 14.6922,10.155786 17.8682,10.1657853 L17.8772,10.1657853 L20.9942,10.1657853 L22.2752,6.29105772 L15.9942,6.29105772 Z" id="Fill-13" fill="#FF6C0E"></path>
                <path d="M78.167,3.12528028 L78.167,3.36226362 L77.91,3.36226362 L77.91,3.83523037 L78.167,3.83523037 L78.167,4.18120605 L78.098,4.07221371 L77.91,4.07221371 L77.91,4.7821638 L77.605,4.7821638 L77.605,3.12528028 L78.167,3.12528028 Z M78.167,5.13713884 C77.556,5.13713884 77.063,4.6441735 77.063,3.9642213 C77.063,3.27326988 77.556,2.79030383 78.167,2.79030383 L78.167,2.50432394 C77.358,2.50432394 76.708,3.15527817 76.708,3.9642213 C76.708,4.76316513 77.358,5.41311944 78.167,5.41311944 L78.167,5.13713884 Z M78.167,4.18120605 L78.167,3.83523037 L78.177,3.83523037 C78.364,3.83523037 78.512,3.80623241 78.512,3.58924766 C78.512,3.39226151 78.334,3.36226362 78.186,3.36226362 L78.167,3.36226362 L78.167,3.12528028 L78.216,3.12528028 C78.61,3.12528028 78.827,3.26427051 78.827,3.60824633 C78.827,3.89522615 78.66,4.03221652 78.394,4.05321504 L78.837,4.7821638 L78.521,4.7821638 L78.167,4.18120605 Z M78.167,2.79030383 C78.768,2.79030383 79.261,3.27326988 79.261,3.9642213 C79.261,4.6441735 78.768,5.13713884 78.167,5.13713884 L78.167,5.41311944 C78.965,5.41311944 79.616,4.76316513 79.616,3.9642213 C79.616,3.15527817 78.965,2.50432394 78.167,2.50432394 L78.167,2.79030383 Z" id="Fill-14" fill="#002D74"></path>
                <path d="M26.083,29.9973911 C25.466,29.9973911 25.084,29.8234033 24.944,29.7434089 C24.817,29.5964193 24.729,29.1134532 24.729,28.6574853 C24.776,28.5704914 24.931,28.5634919 24.984,28.6384866 C25.118,29.073456 25.567,29.6894127 26.136,29.6894127 C26.632,29.6894127 26.86,29.3484367 26.86,29.0134602 C26.86,28.4704984 26.351,28.1485211 25.949,27.9475352 C25.466,27.7065521 24.937,27.3055803 24.937,26.641627 C24.931,25.8846802 25.52,25.361717 26.492,25.361717 C26.712,25.361717 26.987,25.3887151 27.255,25.4697094 C27.342,25.4957076 27.402,25.5097066 27.483,25.5227057 C27.537,25.6706953 27.604,26.0316699 27.604,26.4806383 C27.57,26.5606327 27.402,26.5676322 27.342,26.5016368 C27.229,26.1586609 26.94,25.6706953 26.458,25.6706953 C26.016,25.6706953 25.774,25.958675 25.774,26.2936515 C25.774,26.6016298 26.049,26.8826101 26.384,27.0575978 L26.826,27.2915813 C27.242,27.5125658 27.771,27.9005385 27.771,28.6384866 C27.771,29.4624287 27.094,29.9973911 26.083,29.9973911" id="Fill-15" fill="#002D74"></path>
                <path d="M33.2378,27.210487 C33.2378,27.3984738 33.2448,27.4114729 33.4248,27.4114729 L33.8878,27.4114729 C34.2358,27.4114729 34.3168,27.3644762 34.3838,27.0434987 L34.4168,26.8765105 C34.4638,26.8225143 34.6318,26.8225143 34.6648,26.8825101 C34.6518,27.0974949 34.6448,27.338478 34.6448,27.5934601 C34.6448,27.8474422 34.6518,28.0884253 34.6648,28.3034102 C34.6318,28.3634059 34.4638,28.3704055 34.4168,28.3094097 L34.3838,28.1424215 C34.3168,27.8204441 34.2358,27.7674478 33.8878,27.7674478 L33.4248,27.7674478 C33.2448,27.7674478 33.2378,27.7734474 33.2378,27.9754332 L33.2378,28.7723772 C33.2378,29.0803555 33.2648,29.2943405 33.3448,29.4083325 C33.4318,29.528324 33.5598,29.5823203 34.0488,29.5823203 C34.6318,29.5823203 34.8588,29.5633216 35.2278,28.8053749 C35.2808,28.7313801 35.4488,28.7583782 35.4758,28.8393725 C35.4488,29.187348 35.2878,29.7303098 35.1938,29.9102972 C34.8388,29.8972981 34.1958,29.8912985 33.6468,29.8912985 L32.7758,29.8912985 C32.4538,29.8912985 32.1258,29.8972981 31.6228,29.9102972 C31.5698,29.8703 31.5698,29.7103113 31.6228,29.6763136 L31.9378,29.6293169 C32.2398,29.5823203 32.2798,29.5423231 32.2798,28.9263664 L32.2798,26.427542 C32.2798,25.8175849 32.2398,25.7765878 31.9378,25.717592 L31.7708,25.6835943 C31.7108,25.6435972 31.7168,25.4886081 31.7838,25.4486109 C32.0988,25.4626099 32.4268,25.4696094 32.7488,25.4696094 L34.1688,25.4696094 C34.5978,25.4696094 34.9798,25.4626099 35.0668,25.4486109 C35.0728,25.5566033 35.1208,26.0385694 35.1538,26.4875378 C35.1268,26.5615326 34.9728,26.5745317 34.9058,26.5145359 C34.8328,26.2795524 34.7378,26.0785666 34.6518,25.9845732 C34.5238,25.8575821 34.3228,25.7765878 33.9948,25.7765878 L33.4588,25.7765878 C33.2378,25.7765878 33.2378,25.7905868 33.2378,26.0385694 L33.2378,27.210487 Z" id="Fill-16" fill="#002D74"></path>
                <path d="M43.481,29.1332518 C43.481,29.415232 43.495,29.5492226 43.622,29.5752208 C43.648,29.6032188 43.642,29.7162108 43.602,29.7372094 C43.488,29.756208 43.314,29.7772066 43.133,29.8372023 C42.898,29.9101972 42.322,29.9971911 41.947,29.9971911 C41.491,29.9971911 41.103,29.9501944 40.627,29.7632075 C39.843,29.4482297 39.307,28.704282 39.307,27.7403498 C39.307,26.9034086 39.683,26.1654605 40.486,25.717492 C40.942,25.4695094 41.484,25.3625169 42.054,25.3625169 C42.798,25.3625169 43.167,25.5235056 43.38,25.5235056 C43.401,25.7234915 43.408,26.1934585 43.475,26.6014298 C43.447,26.6754246 43.267,26.6824241 43.22,26.6144289 C43.005,25.9854731 42.584,25.6704953 41.96,25.6704953 C40.895,25.6704953 40.379,26.5544331 40.379,27.6123587 C40.379,28.5712913 40.708,29.1402513 41.143,29.4352306 C41.464,29.6502155 41.813,29.6902127 42.061,29.6902127 C42.443,29.6902127 42.523,29.6152179 42.523,29.1802485 L42.523,28.7582782 C42.523,28.3973036 42.483,28.3573064 42.161,28.3093098 L41.867,28.2693126 C41.793,28.2293154 41.793,28.0753262 41.867,28.0343291 C42.342,28.0483281 42.67,28.0553276 42.999,28.0553276 C43.32,28.0553276 43.648,28.0483281 43.876,28.0343291 C43.93,28.0753262 43.93,28.2293154 43.876,28.2693126 L43.722,28.2963107 C43.522,28.3293083 43.481,28.3973036 43.481,28.7582782 L43.481,29.1332518 Z" id="Fill-17" fill="#002D74"></path>
                <path d="M48.2378,26.4342416 C48.2378,25.8112854 48.1968,25.7712882 47.8958,25.7102925 L47.7288,25.6772948 C47.6748,25.6372976 47.6688,25.489308 47.7418,25.4493108 C48.0638,25.4623099 48.3988,25.4693094 48.7198,25.4693094 C49.0488,25.4693094 49.3768,25.4623099 49.6978,25.4493108 C49.7518,25.489308 49.7518,25.6372976 49.6978,25.6772948 L49.5378,25.7042929 C49.2358,25.7572892 49.1958,25.8112854 49.1958,26.4342416 L49.1958,27.9811328 C49.1958,28.7650777 49.2828,29.629017 50.3008,29.629017 C51.1588,29.629017 51.4198,28.8790697 51.4198,27.9611342 L51.4198,27.1511912 C51.4198,26.6082293 51.3928,26.0992651 51.3198,25.9242774 C51.2588,25.7842873 51.1118,25.7442901 50.9308,25.7102925 L50.7498,25.6772948 C50.6958,25.6232986 50.7098,25.489308 50.7498,25.4493108 C51.1118,25.4623099 51.3728,25.4693094 51.6478,25.4693094 C51.8958,25.4693094 52.1438,25.4623099 52.3978,25.4493108 C52.4378,25.489308 52.4518,25.6232986 52.3978,25.6772948 L52.2778,25.7042929 C52.1028,25.7442901 51.9758,25.7842873 51.9158,25.9242774 C51.8418,26.0992651 51.8158,26.6082293 51.8158,27.1511912 L51.8158,27.9011384 C51.8158,28.5310942 51.7548,29.1070537 51.3858,29.5160249 C51.0918,29.8300028 50.6028,29.9969911 50.0598,29.9969911 C49.5508,29.9969911 49.0948,29.9169967 48.7338,29.6220175 C48.3848,29.3340377 48.2378,28.8390725 48.2378,28.1091238 L48.2378,26.4342416 Z" id="Fill-18" fill="#002D74"></path>
                <path d="M57.6973,27.4057733 C57.6973,27.6397568 57.7173,27.6597554 58.1133,27.6597554 C58.3543,27.6597554 58.4943,27.5997596 58.6213,27.4717686 C58.7353,27.3577766 58.8633,27.1437917 58.8633,26.7488195 C58.8633,26.1458618 58.5083,25.7578891 57.9853,25.7578891 C57.7103,25.7578891 57.6973,25.7768878 57.6973,26.0988652 L57.6973,27.4057733 Z M56.7793,26.5538332 C56.7793,25.8848802 56.7663,25.8108854 56.4843,25.7708882 L56.3033,25.7438901 C56.2373,25.7108924 56.2373,25.5439042 56.3173,25.5099066 C56.8193,25.4759089 57.3423,25.4489108 57.9783,25.4489108 C58.5483,25.4489108 59.0373,25.5369047 59.2913,25.6898939 C59.6803,25.9178779 59.8813,26.2538543 59.8813,26.6818242 C59.8813,27.2777823 59.4793,27.5327643 59.1713,27.6867535 C59.1043,27.7197512 59.1043,27.7597484 59.1373,27.8347431 C59.5803,28.7316801 59.8543,29.2336448 60.1763,29.5096254 C60.3503,29.6496155 60.5243,29.6896127 60.6253,29.6966122 C60.6853,29.7296099 60.6853,29.8306028 60.6523,29.8706 C60.5443,29.9175967 60.3303,29.9305958 60.1223,29.9305958 C59.5063,29.9305958 59.1173,29.7106112 58.8223,29.2266453 C58.6083,28.8726701 58.4543,28.5446932 58.3003,28.1887182 C58.2193,28.0087309 58.1133,27.9547347 57.9453,27.9547347 C57.7103,27.9547347 57.6973,27.9677338 57.6973,28.1017243 L57.6973,28.9266663 C57.6973,29.542623 57.7373,29.5896197 58.0383,29.642616 L58.2193,29.6766136 C58.2663,29.7106112 58.2663,29.8706 58.2193,29.9105972 C57.8643,29.8965982 57.5563,29.8905986 57.2353,29.8905986 C56.9003,29.8905986 56.6053,29.8965982 56.2573,29.9105972 C56.2033,29.8706 56.2033,29.7106112 56.2573,29.6766136 L56.4373,29.642616 C56.7393,29.5896197 56.7793,29.542623 56.7793,28.9266663 L56.7793,26.5538332 Z" id="Fill-19" fill="#002D74"></path>
                <path d="M66.42,25.6705953 C65.596,25.6705953 65.154,26.4415411 65.154,27.5594625 C65.154,28.376405 65.442,29.6903127 66.534,29.6903127 C67.412,29.6903127 67.753,28.832373 67.753,27.7464493 C67.753,26.6015298 67.251,25.6705953 66.42,25.6705953 M68.825,27.6594554 C68.825,29.1203527 67.847,29.9972911 66.406,29.9972911 C65.06,29.9972911 64.082,29.1133532 64.082,27.7134516 C64.082,26.3875449 65.073,25.361617 66.474,25.361617 C67.867,25.361617 68.825,26.300551 68.825,27.6594554" id="Fill-20" fill="#002D74"></path>
                <path d="M74.1509,29.9973911 C73.5349,29.9973911 73.1529,29.8234033 73.0119,29.7434089 C72.8849,29.5964193 72.7969,29.1134532 72.7969,28.6574853 C72.8439,28.5704914 72.9989,28.5634919 73.0519,28.6384866 C73.1859,29.073456 73.6349,29.6894127 74.2049,29.6894127 C74.6999,29.6894127 74.9279,29.3484367 74.9279,29.0134602 C74.9279,28.4704984 74.4189,28.1485211 74.0169,27.9475352 C73.5349,27.7065521 73.0049,27.3055803 73.0049,26.641627 C72.9989,25.8846802 73.5879,25.361717 74.5599,25.361717 C74.7809,25.361717 75.0549,25.3887151 75.3229,25.4697094 C75.4099,25.4957076 75.4709,25.5097066 75.5509,25.5227057 C75.6049,25.6706953 75.6719,26.0316699 75.6719,26.4806383 C75.6379,26.5606327 75.4709,26.5676322 75.4099,26.5016368 C75.2969,26.1586609 75.0079,25.6706953 74.5259,25.6706953 C74.0839,25.6706953 73.8429,25.958675 73.8429,26.2936515 C73.8429,26.6016298 74.1169,26.8826101 74.4519,27.0575978 L74.8949,27.2915813 C75.3099,27.5125658 75.8389,27.9005385 75.8389,28.6384866 C75.8389,29.4624287 75.1629,29.9973911 74.1509,29.9973911" id="Fill-21" fill="#002D74"></path>
            </g>
        </g>
    </g>
</svg>