<?xml version="1.0" encoding="UTF-8"?>
<svg width="20px" height="20px" viewBox="0 0 20 20" version="1.1" xmlns="http://www.w3.org/2000/svg" xmlns:xlink="http://www.w3.org/1999/xlink">
    <title>4DA064E2-082D-4E92-8859-F79E3AC18A55</title>
    <defs>
        <rect id="path-1" x="1.03620816e-14" y="1.03620816e-14" width="19.1745706" height="19.1745706"></rect>
    </defs>
    <g id="Landing-C" stroke="none" stroke-width="1" fill="none" fill-rule="evenodd">
        <g id="landing-plantilla-C" transform="translate(-158.000000, -453.000000)">
            <g id="Group-5" transform="translate(158.000000, 452.000000)">
                <g id="icn-cotizador-hombre" transform="translate(0.000000, 1.000000)">
                    <g id="Group">
                        <mask id="mask-2" fill="white">
                            <use xlink:href="#path-1"></use>
                        </mask>
                        <g id="Mask"></g>
                        <path d="M15.9083918,15.4716813 C13.0031934,14.4381293 12.0747942,13.5660069 12.0747942,11.6992818 C12.0747942,11.4932117 12.1048395,11.338007 12.156277,11.2083535 C12.3842005,10.6314639 13.0332387,10.5673189 13.351298,8.89213951 C13.5130017,8.04058849 14.2965226,8.87820784 14.4462683,6.93482898 C14.4462683,6.16040605 14.0183634,5.96773404 14.0183634,5.96773404 C14.0183634,5.96773404 14.2357109,4.82124663 14.3209193,3.93916451 C14.4265586,2.84010405 13.6704991,-1.18423789e-14 9.63812193,-1.18423789e-14 C9.57027968,0.000948539146 9.55381487,-1.18423789e-14 9.53620833,-1.18423789e-14 C5.50407152,-1.18423789e-14 4.74801207,2.84010405 4.85365128,3.93916451 C4.93861933,4.82124663 5.15620726,5.96773404 5.15620726,5.96773404 C5.15620726,5.96773404 4.72830236,6.16040605 4.72830236,6.93482898 C4.87828841,8.87820784 5.66180925,8.04058849 5.82351295,8.89213951 C6.14133193,10.5673189 6.79061046,10.6314639 7.01853396,11.2083535 C7.06967103,11.3377698 7.09971631,11.4932117 7.09971631,11.6992818 C7.09971631,13.5660069 6.17137721,14.4381293 3.2661788,15.4716813 C0.351966811,16.5084346 1.03620816e-14,17.5655815 1.03620816e-14,18.2867083 L1.03620816e-14,23.0094847 L19.1745706,23.0094847 L19.1745706,18.2867083 C19.1745706,17.5655815 18.8227841,16.5084346 15.9083918,15.4716813 Z" id="Fill-1" fill="#8A98A9" mask="url(#mask-2)"></path>
                    </g>
                </g>
            </g>
        </g>
    </g>
</svg>