<?xml version="1.0" encoding="UTF-8"?>
<svg width="20px" height="20px" viewBox="0 0 20 20" version="1.1" xmlns="http://www.w3.org/2000/svg" xmlns:xlink="http://www.w3.org/1999/xlink">
    <title>D3160880-C72A-4503-874D-7E1A98D60C32</title>
    <defs>
        <rect id="path-1" x="0" y="0" width="19.1745706" height="19.1745706"></rect>
    </defs>
    <g id="Landing-C" stroke="none" stroke-width="1" fill="none" fill-rule="evenodd">
        <g id="landing-plantilla-C" transform="translate(-295.000000, -453.000000)">
            <g id="Group-4" transform="translate(295.000000, 452.000000)">
                <g id="icn-cotizador-mujer-copy-3" transform="translate(0.000000, 1.000000)">
                    <mask id="mask-2" fill="white">
                        <use xlink:href="#path-1"></use>
                    </mask>
                    <g id="Mask"></g>
                    <path d="M15.5655409,15.288834 C12.8147012,14.2633103 11.935459,14.7801907 11.935459,12.9273054 C11.935459,12.838815 11.9409781,12.6726601 11.9509921,12.5025632 L12.0854417,12.5025632 C13.9655169,12.6443597 15.7766888,12.7797429 16.1798668,12.4883248 C16.8235521,12.0233972 14.5954328,11.3067662 14.5954328,5.29047832 C14.5954328,2.25073909 12.6580046,0.0935503518 9.71820723,0.0935503518 C9.69328598,0.0935503518 9.66887681,0.0951389427 9.64418315,0.0956096363 C9.63707092,0.0953742895 9.63018628,0.0953742895 9.62330164,0.0949035959 L9.62330164,0.0944329023 C9.61237726,0.0944329023 9.60128218,0.0935503518 9.59041469,0.0935503518 C9.58683013,0.0935503518 9.58353005,0.0937856986 9.57994549,0.0937856986 C9.57658852,0.0937856986 9.57328844,0.0935503518 9.56970388,0.0935503518 C9.5666314,0.0935503518 9.56327442,0.0937856986 9.56014504,0.0937856986 C9.55684497,0.0937856986 9.55371559,0.0935503518 9.55041551,0.0935503518 C9.54705854,0.0935503518 9.54370157,0.0937856986 9.5401739,0.0937856986 C9.53681693,0.0937856986 9.53351686,0.0935503518 9.52993229,0.0935503518 C9.51883722,0.0935503518 9.50791283,0.0944329023 9.49681775,0.0944329023 L9.49681775,0.0949035959 C9.49016071,0.0953742895 9.48304848,0.0953742895 9.47616384,0.0956096363 C9.45147018,0.0951389427 9.42683341,0.0935503518 9.40191216,0.0935503518 C6.46234238,0.0935503518 4.52491418,2.25073909 4.52491418,5.29047832 C4.52491418,11.3065308 2.29679493,12.0233972 2.94048015,12.4883248 C3.34343062,12.7797429 5.15483012,12.6443597 7.03467771,12.5025632 L7.16935489,12.5025632 C7.17936891,12.6726601 7.1846604,12.838815 7.1846604,12.9273054 C7.1846604,14.7801907 6.30564574,14.2633103 3.55480608,15.288834 C0.795431743,16.3180055 0,17.3671815 0,18.0826358 L0,22.7698026 L19.1201194,22.7698026 L19.1201194,18.0826358 C19.1201194,17.3671815 18.3248583,16.3180055 15.5655409,15.288834 Z" id="woman-silhouette" fill="#8A98A9" mask="url(#mask-2)"></path>
                </g>
            </g>
        </g>
    </g>
</svg>