<?xml version="1.0" encoding="UTF-8"?>
<svg width="28px" height="28px" viewBox="0 0 28 28" version="1.1" xmlns="http://www.w3.org/2000/svg" xmlns:xlink="http://www.w3.org/1999/xlink">
    <title>E58068F3-5A4E-4FEC-9D11-670644F8B1F7</title>
    <g id="Landing-C" stroke="none" stroke-width="1" fill="none" fill-rule="evenodd">
        <g id="landing-plantilla-C" transform="translate(-705.000000, -1420.000000)" fill="#FFFFFF" fill-rule="nonzero">
            <g id="Group-8" transform="translate(669.000000, 1420.000000)">
                <g id="icn-twitter-footer" transform="translate(36.000000, 0.000000)">
                    <path d="M13.9006372,-7.10542736e-14 C21.5776102,-7.10542736e-14 27.8010265,6.22341631 27.8010265,13.9003894 C27.8010265,21.5773625 21.5776102,27.8007788 13.9006372,27.8007788 C6.2236641,27.8007788 0.000247787611,21.5773625 0.000247787611,13.9003894 C0.000247787611,6.22341631 6.2236641,-7.10542736e-14 13.9006372,-7.10542736e-14 Z M17.4321062,8.43171681 C15.5974867,8.43171681 14.1095221,9.91968142 14.1095221,11.7543009 C14.1095221,12.0147257 14.1390088,12.2682124 14.196,12.5115398 C11.4346549,12.3730265 8.98626549,11.0503363 7.34739823,9.03953982 C7.06145133,9.53015929 6.89741593,10.1013097 6.89741593,10.7101239 C6.89741593,11.8625841 7.48442478,12.88 8.37546903,13.4756814 C7.83107965,13.4585841 7.31840708,13.3091681 6.87065487,13.059646 L6.87040708,13.1017699 L6.87040708,13.1017699 C6.87040708,14.711646 8.01617699,16.0544071 9.53585841,16.3594336 C9.25734513,16.4357522 8.96322124,16.4761416 8.66067257,16.4761416 C8.4460885,16.4761416 8.23819469,16.4555752 8.03550442,16.4169204 C8.45823009,17.7366372 9.68502655,18.6973097 11.139292,18.7243186 C10.0019469,19.6156106 8.56948673,20.1466195 7.01238938,20.1466195 C6.74477876,20.1466195 6.47964602,20.1310088 6.22021239,20.1000354 C7.68984071,21.043115 9.43674336,21.5929558 11.3129912,21.5929558 C17.4244248,21.5929558 20.7665841,16.5301593 20.7665841,12.139115 C20.7665841,11.9951504 20.7633628,11.8516814 20.7569204,11.7094513 C21.4066195,11.2411327 21.9698407,10.6561062 22.415115,9.98980531 C21.8194336,10.2539469 21.1786549,10.4326018 20.5066549,10.5123894 C21.1927788,10.1013097 21.7193274,9.45086726 21.9678584,8.67454867 C21.3258407,9.05539823 20.6144425,9.33168142 19.8579469,9.48060177 C19.2518584,8.83511504 18.3883186,8.43171681 17.4321062,8.43171681 Z" id="Combined-Shape"></path>
                </g>
            </g>
        </g>
    </g>
</svg>